%TF.GenerationSoftware,KiCad,Pcbnew,9.0.6*%
%TF.CreationDate,2025-12-08T21:22:16+01:00*%
%TF.ProjectId,AUPWSW,41555057-5357-42e6-9b69-6361645f7063,rev?*%
%TF.SameCoordinates,Original*%
%TF.FileFunction,Copper,L4,Bot*%
%TF.FilePolarity,Positive*%
%FSLAX46Y46*%
G04 Gerber Fmt 4.6, Leading zero omitted, Abs format (unit mm)*
G04 Created by KiCad (PCBNEW 9.0.6) date 2025-12-08 21:22:16*
%MOMM*%
%LPD*%
G01*
G04 APERTURE LIST*
%TA.AperFunction,ComponentPad*%
%ADD10R,1.700000X1.700000*%
%TD*%
%TA.AperFunction,ComponentPad*%
%ADD11C,1.700000*%
%TD*%
%TA.AperFunction,HeatsinkPad*%
%ADD12O,2.150000X1.050000*%
%TD*%
%TA.AperFunction,ComponentPad*%
%ADD13R,1.500000X1.500000*%
%TD*%
%TA.AperFunction,ViaPad*%
%ADD14C,0.600000*%
%TD*%
%TA.AperFunction,Conductor*%
%ADD15C,0.200000*%
%TD*%
G04 APERTURE END LIST*
D10*
%TO.P,J9,1,Pin_1*%
%TO.N,+3.3V*%
X102600000Y-82590000D03*
D11*
%TO.P,J9,2,Pin_2*%
%TO.N,UART_TX*%
X102600000Y-85130000D03*
%TO.P,J9,3,Pin_3*%
%TO.N,UART_RX*%
X102600000Y-87670000D03*
%TO.P,J9,4,Pin_4*%
%TO.N,GND*%
X102600000Y-90210000D03*
%TD*%
D12*
%TO.P,J7,6,Shield*%
%TO.N,Net-(J7-Shield)*%
X198375000Y-62825000D03*
X198375000Y-57175000D03*
%TD*%
D10*
%TO.P,J6,1,Pin_1*%
%TO.N,+3.3V*%
X140190000Y-97000000D03*
D11*
%TO.P,J6,2,Pin_2*%
%TO.N,SWDIO*%
X142730000Y-97000000D03*
%TO.P,J6,3,Pin_3*%
%TO.N,SWCLK*%
X145270000Y-97000000D03*
%TO.P,J6,4,Pin_4*%
%TO.N,GND*%
X147810000Y-97000000D03*
%TD*%
D13*
%TO.P,TP1,1,1*%
%TO.N,INadc*%
X148717000Y-65024000D03*
%TD*%
D10*
%TO.P,J3,1,Pin_1*%
%TO.N,VBUS*%
X187525000Y-53000000D03*
D11*
%TO.P,J3,2,Pin_2*%
%TO.N,GND*%
X190065000Y-53000000D03*
%TD*%
D13*
%TO.P,TP2,1,1*%
%TO.N,Vref*%
X130937000Y-59436000D03*
%TD*%
D10*
%TO.P,J8,1,Pin_1*%
%TO.N,+3.3VA*%
X110075000Y-53800000D03*
D11*
%TO.P,J8,2,Pin_2*%
%TO.N,GND*%
X107535000Y-53800000D03*
%TD*%
D10*
%TO.P,J1,1,Pin_1*%
%TO.N,IN+*%
X138500000Y-53212500D03*
D11*
%TO.P,J1,2,Pin_2*%
%TO.N,IN-*%
X141040000Y-53212500D03*
%TD*%
D10*
%TO.P,J10,1,Pin_1*%
%TO.N,+3.3V*%
X195680000Y-97000000D03*
D11*
%TO.P,J10,2,Pin_2*%
%TO.N,GND*%
X193140000Y-97000000D03*
%TO.P,J10,3,Pin_3*%
%TO.N,PA5*%
X190600000Y-97000000D03*
%TO.P,J10,4,Pin_4*%
%TO.N,PA4*%
X188060000Y-97000000D03*
%TO.P,J10,5,Pin_5*%
%TO.N,PA3*%
X185520000Y-97000000D03*
%TO.P,J10,6,Pin_6*%
%TO.N,PA2*%
X182980000Y-97000000D03*
%TO.P,J10,7,Pin_7*%
%TO.N,PA1*%
X180440000Y-97000000D03*
%TO.P,J10,8,Pin_8*%
%TO.N,PA0*%
X177900000Y-97000000D03*
%TO.P,J10,9,Pin_9*%
%TO.N,+3.3V*%
X175360000Y-97000000D03*
%TO.P,J10,10,Pin_10*%
%TO.N,GND*%
X172820000Y-97000000D03*
%TO.P,J10,11,Pin_11*%
%TO.N,PB9*%
X170280000Y-97000000D03*
%TO.P,J10,12,Pin_12*%
%TO.N,PB8*%
X167740000Y-97000000D03*
%TO.P,J10,13,Pin_13*%
%TO.N,PB7*%
X165200000Y-97000000D03*
%TO.P,J10,14,Pin_14*%
%TO.N,PB6*%
X162660000Y-97000000D03*
%TO.P,J10,15,Pin_15*%
%TO.N,PB5*%
X160120000Y-97000000D03*
%TO.P,J10,16,Pin_16*%
%TO.N,PB4*%
X157580000Y-97000000D03*
%TO.P,J10,17,Pin_17*%
%TO.N,PB3*%
X155040000Y-97000000D03*
%TO.P,J10,18,Pin_18*%
%TO.N,PA15*%
X152500000Y-97000000D03*
%TD*%
D10*
%TO.P,J4,1,Pin_1*%
%TO.N,+3.3V*%
X135700000Y-97000000D03*
D11*
%TO.P,J4,2,Pin_2*%
%TO.N,GND*%
X133160000Y-97000000D03*
%TO.P,J4,3,Pin_3*%
%TO.N,PA6*%
X130620000Y-97000000D03*
%TO.P,J4,4,Pin_4*%
%TO.N,PA7*%
X128080000Y-97000000D03*
%TO.P,J4,5,Pin_5*%
%TO.N,PB1*%
X125540000Y-97000000D03*
%TO.P,J4,6,Pin_6*%
%TO.N,PB10*%
X123000000Y-97000000D03*
%TO.P,J4,7,Pin_7*%
%TO.N,PB11*%
X120460000Y-97000000D03*
%TO.P,J4,8,Pin_8*%
%TO.N,+3.3V*%
X117920000Y-97000000D03*
%TO.P,J4,9,Pin_9*%
%TO.N,GND*%
X115380000Y-97000000D03*
%TO.P,J4,10,Pin_10*%
%TO.N,PA8*%
X112840000Y-97000000D03*
%TO.P,J4,11,Pin_11*%
%TO.N,PB15*%
X110300000Y-97000000D03*
%TO.P,J4,12,Pin_12*%
%TO.N,PB14*%
X107760000Y-97000000D03*
%TO.P,J4,13,Pin_13*%
%TO.N,PB13*%
X105220000Y-97000000D03*
%TO.P,J4,14,Pin_14*%
%TO.N,PB12*%
X102680000Y-97000000D03*
%TD*%
D10*
%TO.P,J5,1,Pin_1*%
%TO.N,+3.3V*%
X119420000Y-83770000D03*
D11*
%TO.P,J5,2,Pin_2*%
X119420000Y-81230000D03*
%TO.P,J5,3,Pin_3*%
%TO.N,Net-(J5-Pin_3)*%
X121960000Y-83770000D03*
%TO.P,J5,4,Pin_4*%
%TO.N,Net-(J5-Pin_4)*%
X121960000Y-81230000D03*
%TO.P,J5,5,Pin_5*%
%TO.N,GND*%
X124500000Y-83770000D03*
%TO.P,J5,6,Pin_6*%
X124500000Y-81230000D03*
%TD*%
D10*
%TO.P,J2,1,Pin_1*%
%TO.N,IN-*%
X145034000Y-58293000D03*
D11*
%TO.P,J2,2,Pin_2*%
%TO.N,Net-(J2-Pin_2)*%
X145034000Y-55753000D03*
%TD*%
D14*
%TO.N,GND*%
X187800000Y-69800000D03*
X148209000Y-86868000D03*
X153162000Y-89027000D03*
X151500000Y-69000000D03*
X133000000Y-78400000D03*
X164723000Y-83000000D03*
X151200000Y-62000000D03*
X132000000Y-74000000D03*
X114600000Y-52000000D03*
X198500000Y-52000000D03*
X115443000Y-86360000D03*
X149930800Y-93956000D03*
X192800000Y-74800000D03*
X102200000Y-72600000D03*
X194750000Y-66000000D03*
X192800000Y-84800000D03*
X193800000Y-52000000D03*
X137782250Y-90208050D03*
X151500000Y-71500000D03*
X176022000Y-94234000D03*
X168148000Y-81788000D03*
X164723000Y-86500000D03*
X142000000Y-74000000D03*
X156000000Y-70000000D03*
X138000000Y-78400000D03*
X136500000Y-66000000D03*
X102200000Y-57600000D03*
X107200000Y-77600000D03*
X168148000Y-88392000D03*
X172900000Y-68700000D03*
X102200000Y-77600000D03*
X187800000Y-74800000D03*
X112400000Y-82800000D03*
X171450000Y-91694000D03*
X185800000Y-66562500D03*
X194250000Y-59400000D03*
X143002000Y-80518000D03*
X197800000Y-74800000D03*
X150000000Y-52000000D03*
X132000000Y-61800000D03*
X133477000Y-90551000D03*
X168750000Y-52750000D03*
X144996500Y-75335000D03*
X147447000Y-82931000D03*
X184400000Y-52000000D03*
X197800000Y-84800000D03*
X156500000Y-64500000D03*
X144200000Y-52000000D03*
X192800000Y-89800000D03*
X147000000Y-66500000D03*
X106500000Y-72797500D03*
X197800000Y-79800000D03*
X137552250Y-86545050D03*
X107200000Y-82800000D03*
X194250000Y-58750000D03*
X134200000Y-52000000D03*
X189250000Y-84500000D03*
X167700000Y-73700000D03*
X156464000Y-92964000D03*
X194250000Y-58000000D03*
X177400000Y-71700000D03*
X197800000Y-69800000D03*
X136000000Y-58500000D03*
X102200000Y-62600000D03*
X163250000Y-52750000D03*
X132000000Y-69000000D03*
X192800000Y-69800000D03*
X173200000Y-52000000D03*
X102200000Y-52600000D03*
X197800000Y-89800000D03*
X156270000Y-88470000D03*
X112400000Y-77600000D03*
X161000000Y-70000000D03*
X147000000Y-62000000D03*
X149733000Y-85344000D03*
X183600000Y-69550000D03*
X192800000Y-79800000D03*
X156500000Y-83000000D03*
X145923000Y-84201000D03*
X173220000Y-55220000D03*
X149987000Y-82423000D03*
X155000000Y-66000000D03*
X132000000Y-56800000D03*
X107315000Y-86487000D03*
X191700000Y-58200000D03*
X128800000Y-52000000D03*
X111500000Y-72797500D03*
X102200000Y-67600000D03*
X175768000Y-89662000D03*
X118000000Y-67797500D03*
%TO.N,VBUS*%
X180800000Y-59800000D03*
X194200000Y-63000000D03*
X183800000Y-55200000D03*
X191800000Y-62400000D03*
X182800000Y-61200000D03*
X185800000Y-57162500D03*
X194200000Y-62200000D03*
X194200000Y-61400000D03*
X180800000Y-62400000D03*
X181200000Y-53600000D03*
%TO.N,+3.3V*%
X176500000Y-70500000D03*
X170000000Y-65500000D03*
X137552250Y-88545050D03*
X163300000Y-61100000D03*
X178482000Y-79614000D03*
X167700000Y-64200000D03*
X163400000Y-64000000D03*
X141496500Y-76835000D03*
X178000000Y-56500000D03*
X164800000Y-62600000D03*
X169926000Y-63500000D03*
X163750000Y-58250000D03*
X168250000Y-58250000D03*
X186250000Y-92500000D03*
X151930800Y-93956000D03*
X170000000Y-62000000D03*
%TO.N,RESET*%
X176911000Y-92583000D03*
X153447750Y-84042250D03*
%TO.N,+3.3VA*%
X143292500Y-64897000D03*
X125500000Y-59297500D03*
X140374000Y-65874000D03*
X120000000Y-67797500D03*
X158000000Y-61000000D03*
X157750000Y-52250000D03*
X159750000Y-62500000D03*
X152250000Y-52250000D03*
X155000000Y-73600000D03*
X112500000Y-58297500D03*
X136000000Y-63500000D03*
X161200000Y-61200000D03*
X161200000Y-64000000D03*
%TO.N,UART_TX*%
X136398000Y-84700000D03*
%TO.N,UART_RX*%
X136334500Y-85788500D03*
%TO.N,Vref*%
X137795000Y-62865000D03*
X147828000Y-59563000D03*
%TO.N,SWDIO*%
X140766800Y-88544400D03*
X141757400Y-86537800D03*
%TO.N,BOOT0*%
X129857500Y-91757500D03*
X125730000Y-87630000D03*
X147929600Y-90982800D03*
X141376400Y-93776800D03*
%TO.N,Net-(U3-PC14)*%
X164850000Y-85550000D03*
X154559000Y-86918800D03*
%TO.N,Net-(U3-PC15)*%
X164846000Y-84480400D03*
X154559000Y-85998661D03*
%TO.N,Net-(U3-PA11)*%
X141097000Y-85249000D03*
X173904300Y-75758700D03*
%TO.N,Net-(U3-PA12)*%
X172415200Y-75539600D03*
X140563600Y-85902800D03*
%TO.N,Net-(U4A--)*%
X114300000Y-61722000D03*
X114300000Y-66294000D03*
%TO.N,PA5*%
X153289000Y-77399000D03*
%TO.N,PA0*%
X153416000Y-81661000D03*
%TO.N,PA6*%
X150197735Y-77680735D03*
%TO.N,PA2*%
X152019000Y-80645000D03*
%TO.N,PB10*%
X146075000Y-78334000D03*
%TO.N,PB11*%
X144907000Y-78232000D03*
%TO.N,PA4*%
X154051000Y-78000000D03*
%TO.N,PB8*%
X149212234Y-90984993D03*
%TO.N,PB6*%
X146710400Y-92049600D03*
%TO.N,PB7*%
X148437600Y-93065600D03*
%TO.N,PA7*%
X148971000Y-77343000D03*
%TO.N,PB9*%
X149656800Y-90271600D03*
%TO.N,PA1*%
X152781000Y-80899000D03*
%TO.N,PB1*%
X146650000Y-76454000D03*
%TO.N,PA3*%
X151511000Y-79629000D03*
%TO.N,PB5*%
X146050000Y-91440000D03*
%TD*%
D15*
%TO.N,RESET*%
X165570500Y-82131500D02*
X154950366Y-82131500D01*
X154950366Y-82131500D02*
X154009790Y-83072076D01*
X176022000Y-92583000D02*
X165570500Y-82131500D01*
X176911000Y-92583000D02*
X176022000Y-92583000D01*
X154009790Y-83072076D02*
X154009790Y-83480210D01*
X154009790Y-83480210D02*
X153447750Y-84042250D01*
%TO.N,UART_TX*%
X135968000Y-85130000D02*
X102600000Y-85130000D01*
X136398000Y-84700000D02*
X135968000Y-85130000D01*
%TO.N,UART_RX*%
X120650000Y-86360000D02*
X119340000Y-87670000D01*
X136334500Y-85788500D02*
X135763000Y-86360000D01*
X135763000Y-86360000D02*
X120650000Y-86360000D01*
X119340000Y-87670000D02*
X102600000Y-87670000D01*
%TO.N,Vref*%
X137795000Y-62357000D02*
X137795000Y-62865000D01*
X147828000Y-59563000D02*
X146558000Y-60833000D01*
X146558000Y-60833000D02*
X139319000Y-60833000D01*
X139319000Y-60833000D02*
X137795000Y-62357000D01*
%TO.N,SWDIO*%
X141757400Y-86537800D02*
X140766800Y-87528400D01*
X140766800Y-87528400D02*
X140766800Y-88544400D01*
%TO.N,BOOT0*%
X146298943Y-90839000D02*
X144314200Y-90839000D01*
X144314200Y-90839000D02*
X141376400Y-93776800D01*
X147828000Y-91084400D02*
X146544343Y-91084400D01*
X129857500Y-91757500D02*
X125730000Y-87630000D01*
X146544343Y-91084400D02*
X146298943Y-90839000D01*
X147929600Y-90982800D02*
X147828000Y-91084400D01*
%TO.N,Net-(U3-PC14)*%
X154559000Y-86918800D02*
X156972000Y-86918800D01*
X164847200Y-85547200D02*
X164850000Y-85550000D01*
X156972000Y-86918800D02*
X158343600Y-85547200D01*
X158343600Y-85547200D02*
X164847200Y-85547200D01*
%TO.N,Net-(U3-PC15)*%
X154559000Y-85998661D02*
X156723739Y-85998661D01*
X158242000Y-84480400D02*
X164846000Y-84480400D01*
X156723739Y-85998661D02*
X158242000Y-84480400D01*
%TO.N,Net-(U3-PA11)*%
X141002000Y-85249000D02*
X141097000Y-85249000D01*
X173904300Y-75758700D02*
X173336000Y-76327000D01*
X140208000Y-81788000D02*
X140208000Y-84455000D01*
X173336000Y-76327000D02*
X172339000Y-76327000D01*
X171577000Y-75565000D02*
X146431000Y-75565000D01*
X146431000Y-75565000D02*
X140208000Y-81788000D01*
X172339000Y-76327000D02*
X171577000Y-75565000D01*
X140208000Y-84455000D02*
X141002000Y-85249000D01*
%TO.N,Net-(U3-PA12)*%
X172415200Y-75539600D02*
X171907200Y-75031600D01*
X139700000Y-85496400D02*
X140106400Y-85902800D01*
X146202400Y-75031600D02*
X139700000Y-81534000D01*
X140106400Y-85902800D02*
X140563600Y-85902800D01*
X139700000Y-81534000D02*
X139700000Y-85496400D01*
X171907200Y-75031600D02*
X146202400Y-75031600D01*
%TO.N,Net-(U4A--)*%
X114000000Y-65994000D02*
X114300000Y-66294000D01*
X114300000Y-61722000D02*
X114000000Y-62022000D01*
X114000000Y-62022000D02*
X114000000Y-65994000D01*
%TO.N,PA5*%
X172199000Y-77399000D02*
X190600000Y-95800000D01*
X153289000Y-77399000D02*
X172199000Y-77399000D01*
X190600000Y-95800000D02*
X190600000Y-97000000D01*
%TO.N,PA0*%
X177900000Y-89254000D02*
X177900000Y-97000000D01*
X154077000Y-81000000D02*
X169646000Y-81000000D01*
X169646000Y-81000000D02*
X177900000Y-89254000D01*
X153416000Y-81661000D02*
X154077000Y-81000000D01*
%TO.N,PA6*%
X148750000Y-82099943D02*
X148750000Y-85057000D01*
X150197735Y-77680735D02*
X150578735Y-77680735D01*
X150578735Y-77680735D02*
X150749000Y-77851000D01*
X148750000Y-85057000D02*
X139057000Y-94750000D01*
X150749000Y-77851000D02*
X150749000Y-80100943D01*
X150749000Y-80100943D02*
X148750000Y-82099943D01*
X139057000Y-94750000D02*
X132870000Y-94750000D01*
X132870000Y-94750000D02*
X130620000Y-97000000D01*
%TO.N,PA2*%
X153924000Y-79502000D02*
X153926000Y-79500000D01*
X170051000Y-79500000D02*
X182980000Y-92429000D01*
X153926000Y-79500000D02*
X170051000Y-79500000D01*
X182980000Y-92429000D02*
X182980000Y-97000000D01*
X152019000Y-80645000D02*
X153162000Y-79502000D01*
X153162000Y-79502000D02*
X153924000Y-79502000D01*
%TO.N,PB10*%
X145161000Y-86339000D02*
X138250000Y-93250000D01*
X146075000Y-78334000D02*
X145654943Y-78334000D01*
X145654943Y-78334000D02*
X145415000Y-78573943D01*
X145415000Y-79121000D02*
X145161000Y-79375000D01*
X126750000Y-93250000D02*
X123000000Y-97000000D01*
X145161000Y-79375000D02*
X145161000Y-86339000D01*
X145415000Y-78573943D02*
X145415000Y-79121000D01*
X138250000Y-93250000D02*
X126750000Y-93250000D01*
%TO.N,PB11*%
X138089943Y-92710000D02*
X124750000Y-92710000D01*
X144653000Y-86146943D02*
X138089943Y-92710000D01*
X144653000Y-78486000D02*
X144653000Y-86146943D01*
X144907000Y-78232000D02*
X144653000Y-78486000D01*
X124750000Y-92710000D02*
X120460000Y-97000000D01*
%TO.N,PA4*%
X154051000Y-78000000D02*
X170500000Y-78000000D01*
X188060000Y-95560000D02*
X188060000Y-97000000D01*
X170500000Y-78000000D02*
X188060000Y-95560000D01*
%TO.N,PB8*%
X149212234Y-90984993D02*
X149212234Y-90921770D01*
X150520400Y-90779600D02*
X161519600Y-90779600D01*
X161519600Y-90779600D02*
X167740000Y-97000000D01*
X149212234Y-90921770D02*
X149527264Y-91236800D01*
X150063200Y-91236800D02*
X150520400Y-90779600D01*
X149527264Y-91236800D02*
X150063200Y-91236800D01*
%TO.N,PB6*%
X146710400Y-92049600D02*
X146710400Y-92481400D01*
X161037000Y-95377000D02*
X162660000Y-97000000D01*
X149606000Y-95377000D02*
X161037000Y-95377000D01*
X146710400Y-92481400D02*
X149606000Y-95377000D01*
%TO.N,PB7*%
X151155400Y-91287600D02*
X159487600Y-91287600D01*
X149377400Y-93065600D02*
X151155400Y-91287600D01*
X148437600Y-93065600D02*
X148437600Y-93011000D01*
X148492200Y-93065600D02*
X149377400Y-93065600D01*
X159487600Y-91287600D02*
X165200000Y-97000000D01*
X148437600Y-93011000D02*
X148492200Y-93065600D01*
%TO.N,PA7*%
X148149000Y-81851000D02*
X148149000Y-84851000D01*
X148971000Y-77343000D02*
X149352000Y-77724000D01*
X148149000Y-84851000D02*
X138750000Y-94250000D01*
X149352000Y-80645000D02*
X148149000Y-81848000D01*
X138750000Y-94250000D02*
X130830000Y-94250000D01*
X148149000Y-81848000D02*
X148149000Y-81851000D01*
X130830000Y-94250000D02*
X128080000Y-97000000D01*
X149352000Y-77724000D02*
X149352000Y-80645000D01*
%TO.N,PB9*%
X149656800Y-90271600D02*
X163551600Y-90271600D01*
X163551600Y-90271600D02*
X170280000Y-97000000D01*
%TO.N,PA1*%
X180440000Y-90888998D02*
X180440000Y-97000000D01*
X153430000Y-80250000D02*
X169801002Y-80250000D01*
X152781000Y-80899000D02*
X153430000Y-80250000D01*
X169801002Y-80250000D02*
X180440000Y-90888998D01*
%TO.N,PB1*%
X146685000Y-85565000D02*
X138481931Y-93768069D01*
X146650000Y-76454000D02*
X146177000Y-76454000D01*
X145923000Y-76708000D02*
X145923000Y-77216000D01*
X128771931Y-93768069D02*
X125540000Y-97000000D01*
X145923000Y-77216000D02*
X146685000Y-77978000D01*
X146685000Y-77978000D02*
X146685000Y-85565000D01*
X146177000Y-76454000D02*
X145923000Y-76708000D01*
X138481931Y-93768069D02*
X128771931Y-93768069D01*
%TO.N,PA3*%
X151511000Y-79629000D02*
X152390000Y-78750000D01*
X170317000Y-78750000D02*
X185520000Y-93953000D01*
X185520000Y-93953000D02*
X185520000Y-97000000D01*
X152390000Y-78750000D02*
X170317000Y-78750000D01*
%TO.N,PB5*%
X151491000Y-98151000D02*
X158969000Y-98151000D01*
X146050000Y-92710000D02*
X151491000Y-98151000D01*
X146050000Y-91440000D02*
X146050000Y-92710000D01*
X158969000Y-98151000D02*
X160120000Y-97000000D01*
%TD*%
%TA.AperFunction,Conductor*%
%TO.N,GND*%
G36*
X159337384Y-91707785D02*
G01*
X159358026Y-91724419D01*
X161716180Y-94082573D01*
X163562708Y-95929100D01*
X164094325Y-96460717D01*
X164127810Y-96522040D01*
X164124575Y-96586715D01*
X164077829Y-96730587D01*
X164052473Y-96890678D01*
X164022544Y-96953813D01*
X163963232Y-96990744D01*
X163893369Y-96989746D01*
X163835137Y-96951136D01*
X163807527Y-96890678D01*
X163793740Y-96803639D01*
X163782171Y-96730591D01*
X163738530Y-96596275D01*
X163726212Y-96558363D01*
X163726211Y-96558360D01*
X163676459Y-96460718D01*
X163643996Y-96397006D01*
X163609637Y-96349714D01*
X163548635Y-96265751D01*
X163548631Y-96265747D01*
X163537553Y-96250499D01*
X163409501Y-96122447D01*
X163394252Y-96111368D01*
X163394248Y-96111364D01*
X163262997Y-96016006D01*
X163262996Y-96016005D01*
X163262994Y-96016004D01*
X163186906Y-95977235D01*
X163101639Y-95933788D01*
X163101636Y-95933787D01*
X162929410Y-95877829D01*
X162750551Y-95849500D01*
X162750546Y-95849500D01*
X162569454Y-95849500D01*
X162569449Y-95849500D01*
X162390587Y-95877829D01*
X162246715Y-95924575D01*
X162176874Y-95926570D01*
X162120717Y-95894325D01*
X161708407Y-95482015D01*
X161282913Y-95056520D01*
X161237250Y-95030156D01*
X161191589Y-95003793D01*
X161140657Y-94990146D01*
X161089727Y-94976500D01*
X161089726Y-94976500D01*
X149823254Y-94976500D01*
X149756215Y-94956815D01*
X149735573Y-94940181D01*
X148672335Y-93876943D01*
X151330300Y-93876943D01*
X151330300Y-94035057D01*
X151366075Y-94168569D01*
X151371223Y-94187783D01*
X151371226Y-94187790D01*
X151450275Y-94324709D01*
X151450279Y-94324714D01*
X151450280Y-94324716D01*
X151562084Y-94436520D01*
X151562086Y-94436521D01*
X151562090Y-94436524D01*
X151699009Y-94515573D01*
X151699016Y-94515577D01*
X151851743Y-94556500D01*
X151851745Y-94556500D01*
X152009855Y-94556500D01*
X152009857Y-94556500D01*
X152162584Y-94515577D01*
X152299516Y-94436520D01*
X152411320Y-94324716D01*
X152490377Y-94187784D01*
X152531300Y-94035057D01*
X152531300Y-93876943D01*
X152490377Y-93724216D01*
X152489669Y-93722989D01*
X152411324Y-93587290D01*
X152411318Y-93587282D01*
X152299517Y-93475481D01*
X152299509Y-93475475D01*
X152162590Y-93396426D01*
X152162586Y-93396424D01*
X152162584Y-93396423D01*
X152009857Y-93355500D01*
X151851743Y-93355500D01*
X151699016Y-93396423D01*
X151699009Y-93396426D01*
X151562090Y-93475475D01*
X151562082Y-93475481D01*
X151450281Y-93587282D01*
X151450275Y-93587290D01*
X151371226Y-93724209D01*
X151371223Y-93724216D01*
X151330300Y-93876943D01*
X148672335Y-93876943D01*
X148624669Y-93829277D01*
X148591184Y-93767954D01*
X148596168Y-93698262D01*
X148638040Y-93642329D01*
X148664901Y-93627033D01*
X148669372Y-93625180D01*
X148669384Y-93625177D01*
X148806316Y-93546120D01*
X148850017Y-93502419D01*
X148911340Y-93468934D01*
X148937698Y-93466100D01*
X149430125Y-93466100D01*
X149430127Y-93466100D01*
X149531988Y-93438807D01*
X149623313Y-93386080D01*
X151284973Y-91724418D01*
X151346296Y-91690934D01*
X151372654Y-91688100D01*
X159270345Y-91688100D01*
X159337384Y-91707785D01*
G37*
%TD.AperFunction*%
%TA.AperFunction,Conductor*%
G36*
X151237302Y-80181629D02*
G01*
X151268509Y-80185227D01*
X151277778Y-80187746D01*
X151279216Y-80188577D01*
X151391817Y-80218748D01*
X151391941Y-80218782D01*
X151421548Y-80236976D01*
X151451166Y-80255029D01*
X151451268Y-80255239D01*
X151451469Y-80255363D01*
X151466543Y-80286684D01*
X151481695Y-80317876D01*
X151481667Y-80318109D01*
X151481769Y-80318321D01*
X151477515Y-80352834D01*
X151473400Y-80387251D01*
X151473231Y-80387587D01*
X151473222Y-80387666D01*
X151473147Y-80387755D01*
X151466801Y-80400436D01*
X151459424Y-80413213D01*
X151459423Y-80413216D01*
X151418500Y-80565943D01*
X151418500Y-80724057D01*
X151459333Y-80876446D01*
X151459423Y-80876783D01*
X151459426Y-80876790D01*
X151538475Y-81013709D01*
X151538479Y-81013714D01*
X151538480Y-81013716D01*
X151650284Y-81125520D01*
X151650286Y-81125521D01*
X151650290Y-81125524D01*
X151787209Y-81204573D01*
X151787216Y-81204577D01*
X151939943Y-81245500D01*
X151939945Y-81245500D01*
X152098054Y-81245500D01*
X152098057Y-81245500D01*
X152171790Y-81225743D01*
X152241637Y-81227406D01*
X152293914Y-81262787D01*
X152294733Y-81261969D01*
X152298982Y-81266218D01*
X152299499Y-81266568D01*
X152300151Y-81267387D01*
X152300480Y-81267716D01*
X152412284Y-81379520D01*
X152412286Y-81379521D01*
X152412290Y-81379524D01*
X152516173Y-81439500D01*
X152549216Y-81458577D01*
X152701943Y-81499500D01*
X152701951Y-81499500D01*
X152707687Y-81500256D01*
X152771583Y-81528524D01*
X152810053Y-81586848D01*
X152815500Y-81623195D01*
X152815500Y-81740057D01*
X152840403Y-81832994D01*
X152856423Y-81892783D01*
X152856426Y-81892790D01*
X152935475Y-82029709D01*
X152935479Y-82029714D01*
X152935480Y-82029716D01*
X153047284Y-82141520D01*
X153047286Y-82141521D01*
X153047290Y-82141524D01*
X153172817Y-82213996D01*
X153184216Y-82220577D01*
X153336943Y-82261500D01*
X153336945Y-82261500D01*
X153495055Y-82261500D01*
X153495057Y-82261500D01*
X153647784Y-82220577D01*
X153784716Y-82141520D01*
X153896520Y-82029716D01*
X153975577Y-81892784D01*
X154016500Y-81740057D01*
X154016500Y-81678255D01*
X154036185Y-81611216D01*
X154052819Y-81590574D01*
X154206574Y-81436819D01*
X154267897Y-81403334D01*
X154294255Y-81400500D01*
X169428745Y-81400500D01*
X169495784Y-81420185D01*
X169516426Y-81436819D01*
X177463181Y-89383573D01*
X177496666Y-89444896D01*
X177499500Y-89471254D01*
X177499500Y-92022902D01*
X177479815Y-92089941D01*
X177427011Y-92135696D01*
X177357853Y-92145640D01*
X177294297Y-92116615D01*
X177287819Y-92110583D01*
X177279717Y-92102481D01*
X177279709Y-92102475D01*
X177142790Y-92023426D01*
X177142786Y-92023424D01*
X177142784Y-92023423D01*
X176990057Y-91982500D01*
X176831943Y-91982500D01*
X176679216Y-92023423D01*
X176679209Y-92023426D01*
X176542290Y-92102475D01*
X176542282Y-92102481D01*
X176498583Y-92146181D01*
X176471655Y-92160884D01*
X176445837Y-92177477D01*
X176439636Y-92178368D01*
X176437260Y-92179666D01*
X176410902Y-92182500D01*
X176239255Y-92182500D01*
X176172216Y-92162815D01*
X176151574Y-92146181D01*
X165816415Y-81811022D01*
X165816413Y-81811020D01*
X165770750Y-81784656D01*
X165725089Y-81758293D01*
X165657021Y-81740055D01*
X165623227Y-81731000D01*
X154897639Y-81731000D01*
X154795779Y-81758293D01*
X154795776Y-81758294D01*
X154704451Y-81811021D01*
X153689312Y-82826160D01*
X153689308Y-82826166D01*
X153636582Y-82917488D01*
X153636583Y-82917489D01*
X153609290Y-83019349D01*
X153609290Y-83262954D01*
X153600646Y-83292390D01*
X153594123Y-83322380D01*
X153590367Y-83327396D01*
X153589605Y-83329993D01*
X153572972Y-83350634D01*
X153518177Y-83405430D01*
X153456854Y-83438916D01*
X153430495Y-83441750D01*
X153368693Y-83441750D01*
X153215966Y-83482673D01*
X153215959Y-83482676D01*
X153079040Y-83561725D01*
X153079032Y-83561731D01*
X152967231Y-83673532D01*
X152967225Y-83673540D01*
X152888176Y-83810459D01*
X152888173Y-83810466D01*
X152847250Y-83963193D01*
X152847250Y-84121307D01*
X152882389Y-84252445D01*
X152888173Y-84274033D01*
X152888176Y-84274040D01*
X152967225Y-84410959D01*
X152967229Y-84410964D01*
X152967230Y-84410966D01*
X153079034Y-84522770D01*
X153079036Y-84522771D01*
X153079040Y-84522774D01*
X153142578Y-84559457D01*
X153215966Y-84601827D01*
X153368693Y-84642750D01*
X153368695Y-84642750D01*
X153526805Y-84642750D01*
X153526807Y-84642750D01*
X153679534Y-84601827D01*
X153816466Y-84522770D01*
X153928270Y-84410966D01*
X154007327Y-84274034D01*
X154048250Y-84121307D01*
X154048250Y-84059503D01*
X154056894Y-84030062D01*
X154063418Y-84000076D01*
X154067172Y-83995060D01*
X154067935Y-83992464D01*
X154084560Y-83971831D01*
X154245496Y-83810894D01*
X154245501Y-83810891D01*
X154255701Y-83800690D01*
X154255703Y-83800690D01*
X154330270Y-83726123D01*
X154382997Y-83634797D01*
X154386305Y-83622451D01*
X154410291Y-83532937D01*
X154410291Y-83427483D01*
X154410290Y-83427479D01*
X154410290Y-83289331D01*
X154429975Y-83222292D01*
X154446609Y-83201650D01*
X155079940Y-82568319D01*
X155141263Y-82534834D01*
X155167621Y-82532000D01*
X165353245Y-82532000D01*
X165420284Y-82551685D01*
X165440926Y-82568319D01*
X175776087Y-92903480D01*
X175867412Y-92956207D01*
X175969273Y-92983500D01*
X176410902Y-92983500D01*
X176477941Y-93003185D01*
X176498583Y-93019819D01*
X176542284Y-93063520D01*
X176542286Y-93063521D01*
X176542290Y-93063524D01*
X176679209Y-93142573D01*
X176679216Y-93142577D01*
X176831943Y-93183500D01*
X176831945Y-93183500D01*
X176990055Y-93183500D01*
X176990057Y-93183500D01*
X177142784Y-93142577D01*
X177279716Y-93063520D01*
X177287819Y-93055417D01*
X177349142Y-93021932D01*
X177418834Y-93026916D01*
X177474767Y-93068788D01*
X177499184Y-93134252D01*
X177499500Y-93143098D01*
X177499500Y-95836840D01*
X177479815Y-95903879D01*
X177431795Y-95947325D01*
X177297002Y-96016006D01*
X177150505Y-96122441D01*
X177150500Y-96122445D01*
X177022445Y-96250500D01*
X177022441Y-96250505D01*
X176916006Y-96397002D01*
X176833788Y-96558360D01*
X176833787Y-96558363D01*
X176777829Y-96730589D01*
X176752473Y-96890678D01*
X176722544Y-96953813D01*
X176663232Y-96990744D01*
X176593369Y-96989746D01*
X176535137Y-96951136D01*
X176507527Y-96890678D01*
X176493740Y-96803639D01*
X176482171Y-96730591D01*
X176438530Y-96596275D01*
X176426212Y-96558363D01*
X176426211Y-96558360D01*
X176376459Y-96460718D01*
X176343996Y-96397006D01*
X176309637Y-96349714D01*
X176237558Y-96250505D01*
X176237554Y-96250500D01*
X176109499Y-96122445D01*
X176109494Y-96122441D01*
X175962997Y-96016006D01*
X175962996Y-96016005D01*
X175962994Y-96016004D01*
X175886906Y-95977235D01*
X175801639Y-95933788D01*
X175801636Y-95933787D01*
X175629410Y-95877829D01*
X175450551Y-95849500D01*
X175450546Y-95849500D01*
X175269454Y-95849500D01*
X175269449Y-95849500D01*
X175090589Y-95877829D01*
X174918363Y-95933787D01*
X174918360Y-95933788D01*
X174757002Y-96016006D01*
X174610505Y-96122441D01*
X174610500Y-96122445D01*
X174482445Y-96250500D01*
X174482441Y-96250505D01*
X174376004Y-96397004D01*
X174308908Y-96528685D01*
X174260933Y-96579480D01*
X174193112Y-96596275D01*
X174126977Y-96573737D01*
X174083527Y-96519021D01*
X174080492Y-96510705D01*
X174071094Y-96481780D01*
X173974624Y-96292449D01*
X173935270Y-96238282D01*
X173935269Y-96238282D01*
X173302962Y-96870590D01*
X173285925Y-96807007D01*
X173220099Y-96692993D01*
X173127007Y-96599901D01*
X173012993Y-96534075D01*
X172949409Y-96517037D01*
X173581716Y-95884728D01*
X173527550Y-95845375D01*
X173338217Y-95748904D01*
X173136129Y-95683242D01*
X172926246Y-95650000D01*
X172713754Y-95650000D01*
X172503872Y-95683242D01*
X172503869Y-95683242D01*
X172301782Y-95748904D01*
X172112439Y-95845380D01*
X172058282Y-95884727D01*
X172058282Y-95884728D01*
X172690591Y-96517037D01*
X172627007Y-96534075D01*
X172512993Y-96599901D01*
X172419901Y-96692993D01*
X172354075Y-96807007D01*
X172337037Y-96870591D01*
X171704728Y-96238282D01*
X171704727Y-96238282D01*
X171665380Y-96292439D01*
X171568905Y-96481781D01*
X171559506Y-96510708D01*
X171520068Y-96568383D01*
X171455709Y-96595581D01*
X171386862Y-96583666D01*
X171335387Y-96536421D01*
X171331090Y-96528684D01*
X171296459Y-96460718D01*
X171263996Y-96397006D01*
X171229637Y-96349714D01*
X171157558Y-96250505D01*
X171157554Y-96250500D01*
X171029499Y-96122445D01*
X171029494Y-96122441D01*
X170905432Y-96032305D01*
X170882996Y-96016005D01*
X170721639Y-95933788D01*
X170721636Y-95933787D01*
X170549410Y-95877829D01*
X170370551Y-95849500D01*
X170370546Y-95849500D01*
X170189454Y-95849500D01*
X170189449Y-95849500D01*
X170010587Y-95877829D01*
X169866715Y-95924575D01*
X169796874Y-95926570D01*
X169740717Y-95894325D01*
X166798108Y-92951716D01*
X163797513Y-89951120D01*
X163751850Y-89924756D01*
X163706189Y-89898393D01*
X163655257Y-89884746D01*
X163604327Y-89871100D01*
X163604326Y-89871100D01*
X150156898Y-89871100D01*
X150089859Y-89851415D01*
X150069217Y-89834781D01*
X150025517Y-89791081D01*
X150025509Y-89791075D01*
X149888590Y-89712026D01*
X149888586Y-89712024D01*
X149888584Y-89712023D01*
X149735857Y-89671100D01*
X149577743Y-89671100D01*
X149425016Y-89712023D01*
X149425009Y-89712026D01*
X149288090Y-89791075D01*
X149288082Y-89791081D01*
X149176281Y-89902882D01*
X149176275Y-89902890D01*
X149097226Y-90039809D01*
X149097223Y-90039816D01*
X149056300Y-90192543D01*
X149056300Y-90311143D01*
X149036615Y-90378182D01*
X148987256Y-90420951D01*
X148987488Y-90421352D01*
X148985409Y-90422552D01*
X148983811Y-90423937D01*
X148980555Y-90425354D01*
X148843524Y-90504468D01*
X148843516Y-90504474D01*
X148731715Y-90616275D01*
X148731711Y-90616280D01*
X148678937Y-90707689D01*
X148628370Y-90755905D01*
X148559763Y-90769128D01*
X148494898Y-90743160D01*
X148464163Y-90707689D01*
X148410122Y-90614087D01*
X148410118Y-90614082D01*
X148298317Y-90502281D01*
X148298309Y-90502275D01*
X148161390Y-90423226D01*
X148161386Y-90423224D01*
X148161384Y-90423223D01*
X148008657Y-90382300D01*
X147850543Y-90382300D01*
X147697816Y-90423223D01*
X147697809Y-90423226D01*
X147560890Y-90502275D01*
X147560882Y-90502281D01*
X147449081Y-90614082D01*
X147449077Y-90614087D01*
X147444567Y-90621900D01*
X147394000Y-90670116D01*
X147337180Y-90683900D01*
X146761598Y-90683900D01*
X146694559Y-90664215D01*
X146673917Y-90647581D01*
X146544858Y-90518522D01*
X146544856Y-90518520D01*
X146499193Y-90492156D01*
X146453532Y-90465793D01*
X146402600Y-90452146D01*
X146351670Y-90438500D01*
X146351669Y-90438500D01*
X144376263Y-90438500D01*
X144366931Y-90438500D01*
X144366927Y-90438499D01*
X144261473Y-90438499D01*
X144248272Y-90442036D01*
X144233693Y-90442439D01*
X144213443Y-90437096D01*
X144192509Y-90436597D01*
X144180341Y-90428361D01*
X144166135Y-90424613D01*
X144151988Y-90409170D01*
X144134647Y-90397433D01*
X144128864Y-90383927D01*
X144118939Y-90373093D01*
X144115387Y-90352453D01*
X144107145Y-90333204D01*
X144109581Y-90318715D01*
X144107090Y-90304235D01*
X144115259Y-90284952D01*
X144118733Y-90264302D01*
X144131761Y-90246006D01*
X144134348Y-90239902D01*
X144137773Y-90237564D01*
X144142587Y-90230805D01*
X145156004Y-89217389D01*
X148453789Y-85919604D01*
X153958500Y-85919604D01*
X153958500Y-86077718D01*
X153990251Y-86196212D01*
X153999423Y-86230444D01*
X153999426Y-86230451D01*
X154078475Y-86367370D01*
X154078481Y-86367378D01*
X154082151Y-86371048D01*
X154115636Y-86432371D01*
X154110652Y-86502063D01*
X154082161Y-86546401D01*
X154078479Y-86550083D01*
X153999426Y-86687009D01*
X153999423Y-86687016D01*
X153958500Y-86839743D01*
X153958500Y-86997857D01*
X153999128Y-87149481D01*
X153999423Y-87150583D01*
X153999426Y-87150590D01*
X154078475Y-87287509D01*
X154078479Y-87287514D01*
X154078480Y-87287516D01*
X154190284Y-87399320D01*
X154190286Y-87399321D01*
X154190290Y-87399324D01*
X154192485Y-87400591D01*
X154327216Y-87478377D01*
X154479943Y-87519300D01*
X154479945Y-87519300D01*
X154638055Y-87519300D01*
X154638057Y-87519300D01*
X154790784Y-87478377D01*
X154927716Y-87399320D01*
X154971417Y-87355619D01*
X155032740Y-87322134D01*
X155059098Y-87319300D01*
X157024725Y-87319300D01*
X157024727Y-87319300D01*
X157126588Y-87292007D01*
X157217913Y-87239280D01*
X158473174Y-85984019D01*
X158534497Y-85950534D01*
X158560855Y-85947700D01*
X164347102Y-85947700D01*
X164414141Y-85967385D01*
X164434783Y-85984019D01*
X164481284Y-86030520D01*
X164481286Y-86030521D01*
X164481290Y-86030524D01*
X164563032Y-86077717D01*
X164618216Y-86109577D01*
X164770943Y-86150500D01*
X164770945Y-86150500D01*
X164929055Y-86150500D01*
X164929057Y-86150500D01*
X165081784Y-86109577D01*
X165218716Y-86030520D01*
X165330520Y-85918716D01*
X165409577Y-85781784D01*
X165450500Y-85629057D01*
X165450500Y-85470943D01*
X165409577Y-85318216D01*
X165400265Y-85302087D01*
X165330524Y-85181290D01*
X165330518Y-85181282D01*
X165250117Y-85100881D01*
X165216632Y-85039558D01*
X165221616Y-84969866D01*
X165250117Y-84925519D01*
X165275051Y-84900585D01*
X165326520Y-84849116D01*
X165405577Y-84712184D01*
X165446500Y-84559457D01*
X165446500Y-84401343D01*
X165405577Y-84248616D01*
X165405573Y-84248609D01*
X165326524Y-84111690D01*
X165326518Y-84111682D01*
X165214717Y-83999881D01*
X165214709Y-83999875D01*
X165077790Y-83920826D01*
X165077786Y-83920824D01*
X165077784Y-83920823D01*
X164925057Y-83879900D01*
X164766943Y-83879900D01*
X164614216Y-83920823D01*
X164614209Y-83920826D01*
X164477290Y-83999875D01*
X164477282Y-83999881D01*
X164433583Y-84043581D01*
X164372260Y-84077066D01*
X164345902Y-84079900D01*
X158189273Y-84079900D01*
X158087410Y-84107193D01*
X157996087Y-84159920D01*
X157996084Y-84159922D01*
X156594165Y-85561842D01*
X156532842Y-85595327D01*
X156506484Y-85598161D01*
X155059098Y-85598161D01*
X154992059Y-85578476D01*
X154971417Y-85561842D01*
X154927717Y-85518142D01*
X154927709Y-85518136D01*
X154790790Y-85439087D01*
X154790786Y-85439085D01*
X154790784Y-85439084D01*
X154638057Y-85398161D01*
X154479943Y-85398161D01*
X154327216Y-85439084D01*
X154327209Y-85439087D01*
X154190290Y-85518136D01*
X154190282Y-85518142D01*
X154078481Y-85629943D01*
X154078475Y-85629951D01*
X153999426Y-85766870D01*
X153999423Y-85766877D01*
X153958500Y-85919604D01*
X148453789Y-85919604D01*
X149070480Y-85302913D01*
X149123207Y-85211588D01*
X149150500Y-85109727D01*
X149150500Y-85004273D01*
X149150500Y-82317198D01*
X149170185Y-82250159D01*
X149186819Y-82229517D01*
X150120510Y-81295826D01*
X151069480Y-80346856D01*
X151122207Y-80255531D01*
X151122207Y-80255530D01*
X151126271Y-80248492D01*
X151127526Y-80249217D01*
X151143899Y-80229533D01*
X151165239Y-80203042D01*
X151166201Y-80202721D01*
X151166851Y-80201941D01*
X151199284Y-80191703D01*
X151231529Y-80180964D01*
X151232830Y-80181114D01*
X151233480Y-80180909D01*
X151237302Y-80181629D01*
G37*
%TD.AperFunction*%
%TA.AperFunction,Conductor*%
G36*
X144171834Y-78493073D02*
G01*
X144227767Y-78534945D01*
X144252184Y-78600409D01*
X144252500Y-78609255D01*
X144252500Y-85929688D01*
X144232815Y-85996727D01*
X144216181Y-86017369D01*
X141578981Y-88654569D01*
X141517658Y-88688054D01*
X141447966Y-88683070D01*
X141392033Y-88641198D01*
X141367616Y-88575734D01*
X141367300Y-88566888D01*
X141367300Y-88465345D01*
X141367300Y-88465343D01*
X141326377Y-88312616D01*
X141303503Y-88272997D01*
X141247324Y-88175690D01*
X141247318Y-88175682D01*
X141203619Y-88131983D01*
X141170134Y-88070660D01*
X141167300Y-88044302D01*
X141167300Y-87745655D01*
X141186985Y-87678616D01*
X141203619Y-87657974D01*
X141686974Y-87174619D01*
X141748297Y-87141134D01*
X141774655Y-87138300D01*
X141836455Y-87138300D01*
X141836457Y-87138300D01*
X141989184Y-87097377D01*
X142126116Y-87018320D01*
X142237920Y-86906516D01*
X142316977Y-86769584D01*
X142357900Y-86616857D01*
X142357900Y-86458743D01*
X142316977Y-86306016D01*
X142315408Y-86303299D01*
X142237924Y-86169090D01*
X142237918Y-86169082D01*
X142126117Y-86057281D01*
X142126109Y-86057275D01*
X141989190Y-85978226D01*
X141989186Y-85978224D01*
X141989184Y-85978223D01*
X141836457Y-85937300D01*
X141678343Y-85937300D01*
X141519798Y-85979782D01*
X141449948Y-85978119D01*
X141392086Y-85938956D01*
X141364582Y-85874728D01*
X141376169Y-85805826D01*
X141423167Y-85754126D01*
X141425670Y-85752639D01*
X141465716Y-85729520D01*
X141577520Y-85617716D01*
X141656577Y-85480784D01*
X141697500Y-85328057D01*
X141697500Y-85169943D01*
X141656577Y-85017216D01*
X141649555Y-85005053D01*
X141577524Y-84880290D01*
X141577518Y-84880282D01*
X141465717Y-84768481D01*
X141465709Y-84768475D01*
X141328790Y-84689426D01*
X141328786Y-84689424D01*
X141328784Y-84689423D01*
X141176057Y-84648500D01*
X141019255Y-84648500D01*
X140952216Y-84628815D01*
X140931574Y-84612181D01*
X140644819Y-84325426D01*
X140611334Y-84264103D01*
X140608500Y-84237745D01*
X140608500Y-82005255D01*
X140628185Y-81938216D01*
X140644819Y-81917574D01*
X144040819Y-78521574D01*
X144102142Y-78488089D01*
X144171834Y-78493073D01*
G37*
%TD.AperFunction*%
%TA.AperFunction,Conductor*%
G36*
X145958773Y-78924540D02*
G01*
X145995943Y-78934500D01*
X146154057Y-78934500D01*
X146155511Y-78934110D01*
X146166525Y-78934646D01*
X146196803Y-78945160D01*
X146227539Y-78954185D01*
X146229581Y-78956541D01*
X146232528Y-78957565D01*
X146252317Y-78982781D01*
X146273294Y-79006989D01*
X146273737Y-79010074D01*
X146275664Y-79012529D01*
X146284500Y-79058500D01*
X146284500Y-85347745D01*
X146264815Y-85414784D01*
X146248181Y-85435426D01*
X145773181Y-85910426D01*
X145711858Y-85943911D01*
X145642166Y-85938927D01*
X145586233Y-85897055D01*
X145561816Y-85831591D01*
X145561500Y-85822745D01*
X145561500Y-79592255D01*
X145581185Y-79525216D01*
X145597819Y-79504574D01*
X145735480Y-79366913D01*
X145788207Y-79275588D01*
X145815500Y-79173727D01*
X145815500Y-79068273D01*
X145815500Y-79047750D01*
X145818899Y-79036174D01*
X145817764Y-79024161D01*
X145828561Y-79003269D01*
X145835185Y-78980711D01*
X145844302Y-78972810D01*
X145849843Y-78962090D01*
X145870221Y-78950351D01*
X145887989Y-78934956D01*
X145899930Y-78933238D01*
X145910387Y-78927216D01*
X145945525Y-78923896D01*
X145958773Y-78924540D01*
G37*
%TD.AperFunction*%
%TA.AperFunction,Conductor*%
G36*
X135687387Y-85550185D02*
G01*
X135733142Y-85602989D01*
X135743086Y-85672147D01*
X135740123Y-85686593D01*
X135734000Y-85709443D01*
X135734000Y-85771245D01*
X135725355Y-85800685D01*
X135718832Y-85830672D01*
X135715077Y-85835687D01*
X135714315Y-85838284D01*
X135697681Y-85858926D01*
X135633426Y-85923181D01*
X135572103Y-85956666D01*
X135545745Y-85959500D01*
X120597273Y-85959500D01*
X120495412Y-85986793D01*
X120495409Y-85986794D01*
X120449750Y-86013155D01*
X120449750Y-86013156D01*
X120404087Y-86039520D01*
X120404084Y-86039522D01*
X119210426Y-87233181D01*
X119149103Y-87266666D01*
X119122745Y-87269500D01*
X103763160Y-87269500D01*
X103696121Y-87249815D01*
X103652675Y-87201795D01*
X103620322Y-87138300D01*
X103583996Y-87067006D01*
X103570396Y-87048287D01*
X103477558Y-86920505D01*
X103477554Y-86920500D01*
X103349499Y-86792445D01*
X103349494Y-86792441D01*
X103202997Y-86686006D01*
X103202996Y-86686005D01*
X103202994Y-86686004D01*
X103151300Y-86659664D01*
X103041639Y-86603788D01*
X103041636Y-86603787D01*
X102869410Y-86547829D01*
X102709321Y-86522473D01*
X102646186Y-86492544D01*
X102609255Y-86433232D01*
X102610253Y-86363370D01*
X102648863Y-86305137D01*
X102709321Y-86277527D01*
X102779425Y-86266422D01*
X102869409Y-86252171D01*
X103041639Y-86196211D01*
X103202994Y-86113996D01*
X103349501Y-86007553D01*
X103477553Y-85879501D01*
X103583996Y-85732994D01*
X103652675Y-85598205D01*
X103700650Y-85547409D01*
X103763160Y-85530500D01*
X135620348Y-85530500D01*
X135687387Y-85550185D01*
G37*
%TD.AperFunction*%
%TA.AperFunction,Conductor*%
G36*
X124034075Y-81422993D02*
G01*
X124099901Y-81537007D01*
X124192993Y-81630099D01*
X124307007Y-81695925D01*
X124370591Y-81712962D01*
X123769971Y-82313581D01*
X123848711Y-82430895D01*
X123849920Y-82434729D01*
X123852844Y-82437491D01*
X123860343Y-82467778D01*
X123869727Y-82497529D01*
X123868671Y-82501408D01*
X123869638Y-82505312D01*
X123859577Y-82534834D01*
X123851383Y-82564947D01*
X123848397Y-82567640D01*
X123847100Y-82571447D01*
X123802051Y-82610483D01*
X123792440Y-82615380D01*
X123738282Y-82654727D01*
X123738282Y-82654728D01*
X124370591Y-83287037D01*
X124307007Y-83304075D01*
X124192993Y-83369901D01*
X124099901Y-83462993D01*
X124034075Y-83577007D01*
X124017037Y-83640591D01*
X123384728Y-83008282D01*
X123384727Y-83008282D01*
X123345380Y-83062439D01*
X123248905Y-83251781D01*
X123239506Y-83280708D01*
X123200068Y-83338383D01*
X123135709Y-83365581D01*
X123066862Y-83353666D01*
X123015387Y-83306421D01*
X123011090Y-83298684D01*
X122987191Y-83251781D01*
X122943996Y-83167006D01*
X122930396Y-83148287D01*
X122837558Y-83020505D01*
X122837554Y-83020500D01*
X122709499Y-82892445D01*
X122709494Y-82892441D01*
X122562997Y-82786006D01*
X122562996Y-82786005D01*
X122562994Y-82786004D01*
X122486906Y-82747235D01*
X122401639Y-82703788D01*
X122401636Y-82703787D01*
X122229410Y-82647829D01*
X122069321Y-82622473D01*
X122006186Y-82592544D01*
X121969255Y-82533232D01*
X121970253Y-82463370D01*
X122008863Y-82405137D01*
X122069321Y-82377527D01*
X122139425Y-82366422D01*
X122229409Y-82352171D01*
X122401639Y-82296211D01*
X122562994Y-82213996D01*
X122662752Y-82141518D01*
X122709495Y-82107558D01*
X122709497Y-82107555D01*
X122709501Y-82107553D01*
X122837553Y-81979501D01*
X122943996Y-81832994D01*
X123011090Y-81701314D01*
X123059065Y-81650519D01*
X123126886Y-81633724D01*
X123193021Y-81656262D01*
X123236472Y-81710977D01*
X123239506Y-81719292D01*
X123248904Y-81748217D01*
X123345375Y-81937550D01*
X123384728Y-81991716D01*
X124017037Y-81359408D01*
X124034075Y-81422993D01*
G37*
%TD.AperFunction*%
%TA.AperFunction,Conductor*%
G36*
X199442539Y-50520185D02*
G01*
X199488294Y-50572989D01*
X199499500Y-50624500D01*
X199499500Y-56334641D01*
X199479815Y-56401680D01*
X199427011Y-56447435D01*
X199357853Y-56457379D01*
X199321749Y-56445543D01*
X199321650Y-56445783D01*
X199318497Y-56444477D01*
X199317057Y-56444005D01*
X199316021Y-56443451D01*
X199165793Y-56381225D01*
X199165783Y-56381222D01*
X199006307Y-56349500D01*
X199006305Y-56349500D01*
X197743695Y-56349500D01*
X197743693Y-56349500D01*
X197584216Y-56381222D01*
X197584206Y-56381225D01*
X197433980Y-56443450D01*
X197433976Y-56443452D01*
X197298779Y-56533788D01*
X197298771Y-56533794D01*
X197183794Y-56648771D01*
X197183788Y-56648779D01*
X197093452Y-56783976D01*
X197093450Y-56783980D01*
X197031225Y-56934206D01*
X197031222Y-56934216D01*
X196999500Y-57093692D01*
X196999500Y-57093695D01*
X196999500Y-57256305D01*
X196999500Y-57256307D01*
X196999499Y-57256307D01*
X197031222Y-57415783D01*
X197031225Y-57415793D01*
X197093450Y-57566019D01*
X197093452Y-57566023D01*
X197183788Y-57701220D01*
X197183794Y-57701228D01*
X197298771Y-57816205D01*
X197298779Y-57816211D01*
X197433976Y-57906547D01*
X197433980Y-57906549D01*
X197584206Y-57968774D01*
X197584211Y-57968776D01*
X197584215Y-57968776D01*
X197584216Y-57968777D01*
X197743692Y-58000500D01*
X197743695Y-58000500D01*
X199006307Y-58000500D01*
X199144252Y-57973060D01*
X199165789Y-57968776D01*
X199316021Y-57906548D01*
X199316026Y-57906544D01*
X199317044Y-57906001D01*
X199317645Y-57905875D01*
X199321650Y-57904217D01*
X199321964Y-57904976D01*
X199385447Y-57891758D01*
X199450691Y-57916756D01*
X199492063Y-57973060D01*
X199499500Y-58015358D01*
X199499500Y-61984641D01*
X199479815Y-62051680D01*
X199427011Y-62097435D01*
X199357853Y-62107379D01*
X199321749Y-62095543D01*
X199321650Y-62095783D01*
X199318497Y-62094477D01*
X199317057Y-62094005D01*
X199316021Y-62093451D01*
X199165793Y-62031225D01*
X199165783Y-62031222D01*
X199006307Y-61999500D01*
X199006305Y-61999500D01*
X197743695Y-61999500D01*
X197743693Y-61999500D01*
X197584216Y-62031222D01*
X197584206Y-62031225D01*
X197433980Y-62093450D01*
X197433976Y-62093452D01*
X197298779Y-62183788D01*
X197298771Y-62183794D01*
X197183794Y-62298771D01*
X197183788Y-62298779D01*
X197093452Y-62433976D01*
X197093450Y-62433980D01*
X197031225Y-62584206D01*
X197031222Y-62584216D01*
X196999500Y-62743692D01*
X196999500Y-62743695D01*
X196999500Y-62906305D01*
X196999500Y-62906307D01*
X196999499Y-62906307D01*
X197031222Y-63065783D01*
X197031225Y-63065793D01*
X197093450Y-63216019D01*
X197093452Y-63216023D01*
X197183788Y-63351220D01*
X197183794Y-63351228D01*
X197298771Y-63466205D01*
X197298779Y-63466211D01*
X197433976Y-63556547D01*
X197433980Y-63556549D01*
X197584206Y-63618774D01*
X197584211Y-63618776D01*
X197584215Y-63618776D01*
X197584216Y-63618777D01*
X197743692Y-63650500D01*
X197743695Y-63650500D01*
X199006307Y-63650500D01*
X199144252Y-63623060D01*
X199165789Y-63618776D01*
X199291377Y-63566756D01*
X199316014Y-63556551D01*
X199316014Y-63556550D01*
X199316021Y-63556548D01*
X199316026Y-63556544D01*
X199317044Y-63556001D01*
X199317645Y-63555875D01*
X199321650Y-63554217D01*
X199321964Y-63554976D01*
X199385447Y-63541758D01*
X199450691Y-63566756D01*
X199492063Y-63623060D01*
X199499500Y-63665358D01*
X199499500Y-99375500D01*
X199479815Y-99442539D01*
X199427011Y-99488294D01*
X199375500Y-99499500D01*
X100624500Y-99499500D01*
X100557461Y-99479815D01*
X100511706Y-99427011D01*
X100500500Y-99375500D01*
X100500500Y-96909448D01*
X101529500Y-96909448D01*
X101529500Y-97090551D01*
X101557829Y-97269410D01*
X101613787Y-97441636D01*
X101613788Y-97441639D01*
X101696006Y-97602997D01*
X101802441Y-97749494D01*
X101802445Y-97749499D01*
X101930500Y-97877554D01*
X101930505Y-97877558D01*
X102054565Y-97967692D01*
X102077006Y-97983996D01*
X102153094Y-98022765D01*
X102238360Y-98066211D01*
X102238363Y-98066212D01*
X102324476Y-98094191D01*
X102410591Y-98122171D01*
X102493429Y-98135291D01*
X102589449Y-98150500D01*
X102589454Y-98150500D01*
X102770551Y-98150500D01*
X102857259Y-98136765D01*
X102949409Y-98122171D01*
X103121639Y-98066211D01*
X103282994Y-97983996D01*
X103429501Y-97877553D01*
X103557553Y-97749501D01*
X103663996Y-97602994D01*
X103746211Y-97441639D01*
X103802171Y-97269409D01*
X103816422Y-97179425D01*
X103827527Y-97109321D01*
X103857456Y-97046186D01*
X103916768Y-97009255D01*
X103986630Y-97010253D01*
X104044863Y-97048863D01*
X104072473Y-97109321D01*
X104097829Y-97269410D01*
X104153787Y-97441636D01*
X104153788Y-97441639D01*
X104236006Y-97602997D01*
X104342441Y-97749494D01*
X104342445Y-97749499D01*
X104470500Y-97877554D01*
X104470505Y-97877558D01*
X104594565Y-97967692D01*
X104617006Y-97983996D01*
X104693094Y-98022765D01*
X104778360Y-98066211D01*
X104778363Y-98066212D01*
X104864476Y-98094191D01*
X104950591Y-98122171D01*
X105033429Y-98135291D01*
X105129449Y-98150500D01*
X105129454Y-98150500D01*
X105310551Y-98150500D01*
X105397259Y-98136765D01*
X105489409Y-98122171D01*
X105661639Y-98066211D01*
X105822994Y-97983996D01*
X105969501Y-97877553D01*
X106097553Y-97749501D01*
X106203996Y-97602994D01*
X106286211Y-97441639D01*
X106342171Y-97269409D01*
X106356422Y-97179425D01*
X106367527Y-97109321D01*
X106397456Y-97046186D01*
X106456768Y-97009255D01*
X106526630Y-97010253D01*
X106584863Y-97048863D01*
X106612473Y-97109321D01*
X106637829Y-97269410D01*
X106693787Y-97441636D01*
X106693788Y-97441639D01*
X106776006Y-97602997D01*
X106882441Y-97749494D01*
X106882445Y-97749499D01*
X107010500Y-97877554D01*
X107010505Y-97877558D01*
X107134565Y-97967692D01*
X107157006Y-97983996D01*
X107233094Y-98022765D01*
X107318360Y-98066211D01*
X107318363Y-98066212D01*
X107404476Y-98094191D01*
X107490591Y-98122171D01*
X107573429Y-98135291D01*
X107669449Y-98150500D01*
X107669454Y-98150500D01*
X107850551Y-98150500D01*
X107937259Y-98136765D01*
X108029409Y-98122171D01*
X108201639Y-98066211D01*
X108362994Y-97983996D01*
X108509501Y-97877553D01*
X108637553Y-97749501D01*
X108743996Y-97602994D01*
X108826211Y-97441639D01*
X108882171Y-97269409D01*
X108896422Y-97179425D01*
X108907527Y-97109321D01*
X108937456Y-97046186D01*
X108996768Y-97009255D01*
X109066630Y-97010253D01*
X109124863Y-97048863D01*
X109152473Y-97109321D01*
X109177829Y-97269410D01*
X109233787Y-97441636D01*
X109233788Y-97441639D01*
X109316006Y-97602997D01*
X109422441Y-97749494D01*
X109422445Y-97749499D01*
X109550500Y-97877554D01*
X109550505Y-97877558D01*
X109674565Y-97967692D01*
X109697006Y-97983996D01*
X109773094Y-98022765D01*
X109858360Y-98066211D01*
X109858363Y-98066212D01*
X109944476Y-98094191D01*
X110030591Y-98122171D01*
X110113429Y-98135291D01*
X110209449Y-98150500D01*
X110209454Y-98150500D01*
X110390551Y-98150500D01*
X110477259Y-98136765D01*
X110569409Y-98122171D01*
X110741639Y-98066211D01*
X110902994Y-97983996D01*
X111049501Y-97877553D01*
X111177553Y-97749501D01*
X111283996Y-97602994D01*
X111366211Y-97441639D01*
X111422171Y-97269409D01*
X111436422Y-97179425D01*
X111447527Y-97109321D01*
X111477456Y-97046186D01*
X111536768Y-97009255D01*
X111606630Y-97010253D01*
X111664863Y-97048863D01*
X111692473Y-97109321D01*
X111717829Y-97269410D01*
X111773787Y-97441636D01*
X111773788Y-97441639D01*
X111856006Y-97602997D01*
X111962441Y-97749494D01*
X111962445Y-97749499D01*
X112090500Y-97877554D01*
X112090505Y-97877558D01*
X112214565Y-97967692D01*
X112237006Y-97983996D01*
X112313094Y-98022765D01*
X112398360Y-98066211D01*
X112398363Y-98066212D01*
X112484476Y-98094191D01*
X112570591Y-98122171D01*
X112653429Y-98135291D01*
X112749449Y-98150500D01*
X112749454Y-98150500D01*
X112930551Y-98150500D01*
X113017259Y-98136765D01*
X113109409Y-98122171D01*
X113281639Y-98066211D01*
X113442994Y-97983996D01*
X113565669Y-97894868D01*
X113589495Y-97877558D01*
X113589497Y-97877555D01*
X113589501Y-97877553D01*
X113717553Y-97749501D01*
X113823996Y-97602994D01*
X113891090Y-97471314D01*
X113939065Y-97420519D01*
X114006886Y-97403724D01*
X114073021Y-97426262D01*
X114116472Y-97480977D01*
X114119506Y-97489292D01*
X114128904Y-97518217D01*
X114225375Y-97707550D01*
X114264728Y-97761716D01*
X114897037Y-97129408D01*
X114914075Y-97192993D01*
X114979901Y-97307007D01*
X115072993Y-97400099D01*
X115187007Y-97465925D01*
X115250590Y-97482962D01*
X114618282Y-98115269D01*
X114618282Y-98115270D01*
X114672449Y-98154624D01*
X114861782Y-98251095D01*
X115063870Y-98316757D01*
X115273754Y-98350000D01*
X115486246Y-98350000D01*
X115696127Y-98316757D01*
X115696130Y-98316757D01*
X115898217Y-98251095D01*
X116087554Y-98154622D01*
X116141716Y-98115270D01*
X116141717Y-98115270D01*
X115509408Y-97482962D01*
X115572993Y-97465925D01*
X115687007Y-97400099D01*
X115780099Y-97307007D01*
X115845925Y-97192993D01*
X115862962Y-97129409D01*
X116495270Y-97761717D01*
X116495270Y-97761716D01*
X116534622Y-97707554D01*
X116631095Y-97518217D01*
X116640492Y-97489295D01*
X116679928Y-97431618D01*
X116744286Y-97404419D01*
X116813133Y-97416331D01*
X116864610Y-97463574D01*
X116868908Y-97471314D01*
X116936004Y-97602995D01*
X117042441Y-97749494D01*
X117042445Y-97749499D01*
X117170500Y-97877554D01*
X117170505Y-97877558D01*
X117294565Y-97967692D01*
X117317006Y-97983996D01*
X117393094Y-98022765D01*
X117478360Y-98066211D01*
X117478363Y-98066212D01*
X117564476Y-98094191D01*
X117650591Y-98122171D01*
X117733429Y-98135291D01*
X117829449Y-98150500D01*
X117829454Y-98150500D01*
X118010551Y-98150500D01*
X118097259Y-98136765D01*
X118189409Y-98122171D01*
X118361639Y-98066211D01*
X118522994Y-97983996D01*
X118669501Y-97877553D01*
X118797553Y-97749501D01*
X118903996Y-97602994D01*
X118986211Y-97441639D01*
X119042171Y-97269409D01*
X119056422Y-97179425D01*
X119067527Y-97109321D01*
X119097456Y-97046186D01*
X119156768Y-97009255D01*
X119226630Y-97010253D01*
X119284863Y-97048863D01*
X119312473Y-97109321D01*
X119337829Y-97269410D01*
X119393787Y-97441636D01*
X119393788Y-97441639D01*
X119476006Y-97602997D01*
X119582441Y-97749494D01*
X119582445Y-97749499D01*
X119710500Y-97877554D01*
X119710505Y-97877558D01*
X119834565Y-97967692D01*
X119857006Y-97983996D01*
X119933094Y-98022765D01*
X120018360Y-98066211D01*
X120018363Y-98066212D01*
X120104476Y-98094191D01*
X120190591Y-98122171D01*
X120273429Y-98135291D01*
X120369449Y-98150500D01*
X120369454Y-98150500D01*
X120550551Y-98150500D01*
X120637259Y-98136765D01*
X120729409Y-98122171D01*
X120901639Y-98066211D01*
X121062994Y-97983996D01*
X121209501Y-97877553D01*
X121337553Y-97749501D01*
X121443996Y-97602994D01*
X121526211Y-97441639D01*
X121582171Y-97269409D01*
X121596422Y-97179425D01*
X121607527Y-97109321D01*
X121637456Y-97046186D01*
X121696768Y-97009255D01*
X121766630Y-97010253D01*
X121824863Y-97048863D01*
X121852473Y-97109321D01*
X121877829Y-97269410D01*
X121933787Y-97441636D01*
X121933788Y-97441639D01*
X122016006Y-97602997D01*
X122122441Y-97749494D01*
X122122445Y-97749499D01*
X122250500Y-97877554D01*
X122250505Y-97877558D01*
X122374565Y-97967692D01*
X122397006Y-97983996D01*
X122473094Y-98022765D01*
X122558360Y-98066211D01*
X122558363Y-98066212D01*
X122644476Y-98094191D01*
X122730591Y-98122171D01*
X122813429Y-98135291D01*
X122909449Y-98150500D01*
X122909454Y-98150500D01*
X123090551Y-98150500D01*
X123177259Y-98136765D01*
X123269409Y-98122171D01*
X123441639Y-98066211D01*
X123602994Y-97983996D01*
X123749501Y-97877553D01*
X123877553Y-97749501D01*
X123983996Y-97602994D01*
X124066211Y-97441639D01*
X124122171Y-97269409D01*
X124136422Y-97179425D01*
X124147527Y-97109321D01*
X124177456Y-97046186D01*
X124236768Y-97009255D01*
X124306630Y-97010253D01*
X124364863Y-97048863D01*
X124392473Y-97109321D01*
X124417829Y-97269410D01*
X124473787Y-97441636D01*
X124473788Y-97441639D01*
X124556006Y-97602997D01*
X124662441Y-97749494D01*
X124662445Y-97749499D01*
X124790500Y-97877554D01*
X124790505Y-97877558D01*
X124914565Y-97967692D01*
X124937006Y-97983996D01*
X125013094Y-98022765D01*
X125098360Y-98066211D01*
X125098363Y-98066212D01*
X125184476Y-98094191D01*
X125270591Y-98122171D01*
X125353429Y-98135291D01*
X125449449Y-98150500D01*
X125449454Y-98150500D01*
X125630551Y-98150500D01*
X125717259Y-98136765D01*
X125809409Y-98122171D01*
X125981639Y-98066211D01*
X126142994Y-97983996D01*
X126289501Y-97877553D01*
X126417553Y-97749501D01*
X126523996Y-97602994D01*
X126606211Y-97441639D01*
X126662171Y-97269409D01*
X126676422Y-97179425D01*
X126687527Y-97109321D01*
X126717456Y-97046186D01*
X126776768Y-97009255D01*
X126846630Y-97010253D01*
X126904863Y-97048863D01*
X126932473Y-97109321D01*
X126957829Y-97269410D01*
X127013787Y-97441636D01*
X127013788Y-97441639D01*
X127096006Y-97602997D01*
X127202441Y-97749494D01*
X127202445Y-97749499D01*
X127330500Y-97877554D01*
X127330505Y-97877558D01*
X127454565Y-97967692D01*
X127477006Y-97983996D01*
X127553094Y-98022765D01*
X127638360Y-98066211D01*
X127638363Y-98066212D01*
X127724476Y-98094191D01*
X127810591Y-98122171D01*
X127893429Y-98135291D01*
X127989449Y-98150500D01*
X127989454Y-98150500D01*
X128170551Y-98150500D01*
X128257259Y-98136765D01*
X128349409Y-98122171D01*
X128521639Y-98066211D01*
X128682994Y-97983996D01*
X128829501Y-97877553D01*
X128957553Y-97749501D01*
X129063996Y-97602994D01*
X129146211Y-97441639D01*
X129202171Y-97269409D01*
X129216422Y-97179425D01*
X129227527Y-97109321D01*
X129257456Y-97046186D01*
X129316768Y-97009255D01*
X129386630Y-97010253D01*
X129444863Y-97048863D01*
X129472473Y-97109321D01*
X129497829Y-97269410D01*
X129553787Y-97441636D01*
X129553788Y-97441639D01*
X129636006Y-97602997D01*
X129742441Y-97749494D01*
X129742445Y-97749499D01*
X129870500Y-97877554D01*
X129870505Y-97877558D01*
X129994565Y-97967692D01*
X130017006Y-97983996D01*
X130093094Y-98022765D01*
X130178360Y-98066211D01*
X130178363Y-98066212D01*
X130264476Y-98094191D01*
X130350591Y-98122171D01*
X130433429Y-98135291D01*
X130529449Y-98150500D01*
X130529454Y-98150500D01*
X130710551Y-98150500D01*
X130797259Y-98136765D01*
X130889409Y-98122171D01*
X131061639Y-98066211D01*
X131222994Y-97983996D01*
X131345669Y-97894868D01*
X131369495Y-97877558D01*
X131369497Y-97877555D01*
X131369501Y-97877553D01*
X131497553Y-97749501D01*
X131603996Y-97602994D01*
X131671090Y-97471314D01*
X131719065Y-97420519D01*
X131786886Y-97403724D01*
X131853021Y-97426262D01*
X131896472Y-97480977D01*
X131899506Y-97489292D01*
X131908904Y-97518217D01*
X132005375Y-97707550D01*
X132044728Y-97761716D01*
X132677037Y-97129408D01*
X132694075Y-97192993D01*
X132759901Y-97307007D01*
X132852993Y-97400099D01*
X132967007Y-97465925D01*
X133030590Y-97482962D01*
X132398282Y-98115269D01*
X132398282Y-98115270D01*
X132452449Y-98154624D01*
X132641782Y-98251095D01*
X132843870Y-98316757D01*
X133053754Y-98350000D01*
X133266246Y-98350000D01*
X133476127Y-98316757D01*
X133476130Y-98316757D01*
X133678217Y-98251095D01*
X133867554Y-98154622D01*
X133921716Y-98115270D01*
X133921717Y-98115270D01*
X133289408Y-97482962D01*
X133352993Y-97465925D01*
X133467007Y-97400099D01*
X133560099Y-97307007D01*
X133625925Y-97192993D01*
X133642962Y-97129408D01*
X134275270Y-97761717D01*
X134275270Y-97761716D01*
X134314621Y-97707555D01*
X134315005Y-97706803D01*
X134315229Y-97706564D01*
X134317168Y-97703402D01*
X134317831Y-97703808D01*
X134362970Y-97655998D01*
X134430787Y-97639190D01*
X134496927Y-97661715D01*
X134540388Y-97716422D01*
X134549500Y-97763076D01*
X134549500Y-97894855D01*
X134549502Y-97894882D01*
X134552413Y-97919987D01*
X134552415Y-97919991D01*
X134597793Y-98022764D01*
X134597794Y-98022765D01*
X134677235Y-98102206D01*
X134780009Y-98147585D01*
X134805135Y-98150500D01*
X136594864Y-98150499D01*
X136594879Y-98150497D01*
X136594882Y-98150497D01*
X136619987Y-98147586D01*
X136619988Y-98147585D01*
X136619991Y-98147585D01*
X136722765Y-98102206D01*
X136802206Y-98022765D01*
X136847585Y-97919991D01*
X136850500Y-97894865D01*
X136850499Y-96105136D01*
X136850499Y-96105135D01*
X136850499Y-96105130D01*
X136847586Y-96080012D01*
X136847585Y-96080010D01*
X136847585Y-96080009D01*
X136802206Y-95977235D01*
X136722765Y-95897794D01*
X136719130Y-95896189D01*
X136619992Y-95852415D01*
X136594865Y-95849500D01*
X134805143Y-95849500D01*
X134805117Y-95849502D01*
X134780012Y-95852413D01*
X134780008Y-95852415D01*
X134677235Y-95897793D01*
X134597794Y-95977234D01*
X134552415Y-96080006D01*
X134552415Y-96080008D01*
X134549500Y-96105131D01*
X134549500Y-96236920D01*
X134529815Y-96303959D01*
X134477011Y-96349714D01*
X134407853Y-96359658D01*
X134344297Y-96330633D01*
X134317505Y-96296398D01*
X134317171Y-96296604D01*
X134315382Y-96293685D01*
X134315018Y-96293220D01*
X134314627Y-96292454D01*
X134314626Y-96292452D01*
X134275270Y-96238282D01*
X134275269Y-96238282D01*
X133642962Y-96870590D01*
X133625925Y-96807007D01*
X133560099Y-96692993D01*
X133467007Y-96599901D01*
X133352993Y-96534075D01*
X133289408Y-96517037D01*
X133921716Y-95884728D01*
X133867550Y-95845375D01*
X133678217Y-95748904D01*
X133476129Y-95683242D01*
X133266246Y-95650000D01*
X133053754Y-95650000D01*
X132843872Y-95683242D01*
X132843868Y-95683243D01*
X132830372Y-95687628D01*
X132760531Y-95689622D01*
X132700699Y-95653540D01*
X132669873Y-95590838D01*
X132677839Y-95521424D01*
X132704373Y-95482018D01*
X132999573Y-95186819D01*
X133060896Y-95153334D01*
X133087254Y-95150500D01*
X139109725Y-95150500D01*
X139109727Y-95150500D01*
X139211588Y-95123207D01*
X139302913Y-95070480D01*
X140569433Y-93803958D01*
X140630756Y-93770474D01*
X140700448Y-93775458D01*
X140756381Y-93817330D01*
X140776887Y-93859543D01*
X140816823Y-94008584D01*
X140816824Y-94008585D01*
X140816826Y-94008590D01*
X140895875Y-94145509D01*
X140895879Y-94145514D01*
X140895880Y-94145516D01*
X141007684Y-94257320D01*
X141007686Y-94257321D01*
X141007690Y-94257324D01*
X141057801Y-94286255D01*
X141144616Y-94336377D01*
X141297343Y-94377300D01*
X141297345Y-94377300D01*
X141455455Y-94377300D01*
X141455457Y-94377300D01*
X141608184Y-94336377D01*
X141745116Y-94257320D01*
X141856920Y-94145516D01*
X141935977Y-94008584D01*
X141976900Y-93855857D01*
X141976900Y-93794054D01*
X141996585Y-93727015D01*
X142013219Y-93706373D01*
X144443773Y-91275819D01*
X144505096Y-91242334D01*
X144531454Y-91239500D01*
X145325500Y-91239500D01*
X145392539Y-91259185D01*
X145438294Y-91311989D01*
X145449500Y-91363500D01*
X145449500Y-91519057D01*
X145481184Y-91637301D01*
X145490423Y-91671783D01*
X145490426Y-91671790D01*
X145569475Y-91808709D01*
X145569481Y-91808717D01*
X145613181Y-91852417D01*
X145646666Y-91913740D01*
X145649500Y-91940098D01*
X145649500Y-92762726D01*
X145676793Y-92864589D01*
X145703156Y-92910250D01*
X145729520Y-92955913D01*
X145729522Y-92955915D01*
X148250808Y-95477201D01*
X148284293Y-95538524D01*
X148279309Y-95608216D01*
X148237437Y-95664149D01*
X148171973Y-95688566D01*
X148131065Y-95683579D01*
X148130873Y-95684381D01*
X148126127Y-95683242D01*
X147916246Y-95650000D01*
X147703754Y-95650000D01*
X147493872Y-95683242D01*
X147493869Y-95683242D01*
X147291782Y-95748904D01*
X147102439Y-95845380D01*
X147048282Y-95884727D01*
X147048282Y-95884728D01*
X147680591Y-96517037D01*
X147617007Y-96534075D01*
X147502993Y-96599901D01*
X147409901Y-96692993D01*
X147344075Y-96807007D01*
X147327037Y-96870590D01*
X146694728Y-96238282D01*
X146694727Y-96238282D01*
X146655380Y-96292439D01*
X146558905Y-96481781D01*
X146549506Y-96510708D01*
X146510068Y-96568383D01*
X146445709Y-96595581D01*
X146376862Y-96583666D01*
X146325387Y-96536421D01*
X146321090Y-96528684D01*
X146286459Y-96460718D01*
X146253996Y-96397006D01*
X146219637Y-96349714D01*
X146147558Y-96250505D01*
X146147554Y-96250500D01*
X146019499Y-96122445D01*
X146019494Y-96122441D01*
X145872997Y-96016006D01*
X145872996Y-96016005D01*
X145872994Y-96016004D01*
X145796906Y-95977235D01*
X145711639Y-95933788D01*
X145711636Y-95933787D01*
X145539410Y-95877829D01*
X145360551Y-95849500D01*
X145360546Y-95849500D01*
X145179454Y-95849500D01*
X145179449Y-95849500D01*
X145000589Y-95877829D01*
X144828363Y-95933787D01*
X144828360Y-95933788D01*
X144667002Y-96016006D01*
X144520505Y-96122441D01*
X144520500Y-96122445D01*
X144392445Y-96250500D01*
X144392441Y-96250505D01*
X144286006Y-96397002D01*
X144203788Y-96558360D01*
X144203787Y-96558363D01*
X144147829Y-96730589D01*
X144122473Y-96890678D01*
X144092544Y-96953813D01*
X144033232Y-96990744D01*
X143963369Y-96989746D01*
X143905137Y-96951136D01*
X143877527Y-96890678D01*
X143863740Y-96803639D01*
X143852171Y-96730591D01*
X143808530Y-96596275D01*
X143796212Y-96558363D01*
X143796211Y-96558360D01*
X143746459Y-96460718D01*
X143713996Y-96397006D01*
X143679637Y-96349714D01*
X143607558Y-96250505D01*
X143607554Y-96250500D01*
X143479499Y-96122445D01*
X143479494Y-96122441D01*
X143332997Y-96016006D01*
X143332996Y-96016005D01*
X143332994Y-96016004D01*
X143256906Y-95977235D01*
X143171639Y-95933788D01*
X143171636Y-95933787D01*
X142999410Y-95877829D01*
X142820551Y-95849500D01*
X142820546Y-95849500D01*
X142639454Y-95849500D01*
X142639449Y-95849500D01*
X142460589Y-95877829D01*
X142288363Y-95933787D01*
X142288360Y-95933788D01*
X142127002Y-96016006D01*
X141980505Y-96122441D01*
X141980500Y-96122445D01*
X141852445Y-96250500D01*
X141852441Y-96250505D01*
X141746006Y-96397002D01*
X141663788Y-96558360D01*
X141663787Y-96558363D01*
X141607829Y-96730589D01*
X141586972Y-96862271D01*
X141557042Y-96925405D01*
X141497731Y-96962336D01*
X141427868Y-96961338D01*
X141369636Y-96922728D01*
X141341522Y-96858764D01*
X141340499Y-96842872D01*
X141340499Y-96105143D01*
X141340499Y-96105136D01*
X141340497Y-96105117D01*
X141337586Y-96080012D01*
X141337585Y-96080010D01*
X141337585Y-96080009D01*
X141292206Y-95977235D01*
X141212765Y-95897794D01*
X141209130Y-95896189D01*
X141109992Y-95852415D01*
X141084865Y-95849500D01*
X139295143Y-95849500D01*
X139295117Y-95849502D01*
X139270012Y-95852413D01*
X139270008Y-95852415D01*
X139167235Y-95897793D01*
X139087794Y-95977234D01*
X139042415Y-96080006D01*
X139042415Y-96080008D01*
X139039500Y-96105131D01*
X139039500Y-97894856D01*
X139039502Y-97894882D01*
X139042413Y-97919987D01*
X139042415Y-97919991D01*
X139087793Y-98022764D01*
X139087794Y-98022765D01*
X139167235Y-98102206D01*
X139270009Y-98147585D01*
X139295135Y-98150500D01*
X141084864Y-98150499D01*
X141084879Y-98150497D01*
X141084882Y-98150497D01*
X141109987Y-98147586D01*
X141109988Y-98147585D01*
X141109991Y-98147585D01*
X141212765Y-98102206D01*
X141292206Y-98022765D01*
X141337585Y-97919991D01*
X141340500Y-97894865D01*
X141340499Y-97157125D01*
X141360183Y-97090089D01*
X141412987Y-97044334D01*
X141482146Y-97034390D01*
X141545702Y-97063415D01*
X141583476Y-97122193D01*
X141586972Y-97137729D01*
X141607829Y-97269410D01*
X141663787Y-97441636D01*
X141663788Y-97441639D01*
X141746006Y-97602997D01*
X141852441Y-97749494D01*
X141852445Y-97749499D01*
X141980500Y-97877554D01*
X141980505Y-97877558D01*
X142104565Y-97967692D01*
X142127006Y-97983996D01*
X142203094Y-98022765D01*
X142288360Y-98066211D01*
X142288363Y-98066212D01*
X142374476Y-98094191D01*
X142460591Y-98122171D01*
X142543429Y-98135291D01*
X142639449Y-98150500D01*
X142639454Y-98150500D01*
X142820551Y-98150500D01*
X142907259Y-98136765D01*
X142999409Y-98122171D01*
X143171639Y-98066211D01*
X143332994Y-97983996D01*
X143479501Y-97877553D01*
X143607553Y-97749501D01*
X143713996Y-97602994D01*
X143796211Y-97441639D01*
X143852171Y-97269409D01*
X143866422Y-97179425D01*
X143877527Y-97109321D01*
X143907456Y-97046186D01*
X143966768Y-97009255D01*
X144036630Y-97010253D01*
X144094863Y-97048863D01*
X144122473Y-97109321D01*
X144147829Y-97269410D01*
X144203787Y-97441636D01*
X144203788Y-97441639D01*
X144286006Y-97602997D01*
X144392441Y-97749494D01*
X144392445Y-97749499D01*
X144520500Y-97877554D01*
X144520505Y-97877558D01*
X144644565Y-97967692D01*
X144667006Y-97983996D01*
X144743094Y-98022765D01*
X144828360Y-98066211D01*
X144828363Y-98066212D01*
X144914476Y-98094191D01*
X145000591Y-98122171D01*
X145083429Y-98135291D01*
X145179449Y-98150500D01*
X145179454Y-98150500D01*
X145360551Y-98150500D01*
X145447259Y-98136765D01*
X145539409Y-98122171D01*
X145711639Y-98066211D01*
X145872994Y-97983996D01*
X145995669Y-97894868D01*
X146019495Y-97877558D01*
X146019497Y-97877555D01*
X146019501Y-97877553D01*
X146147553Y-97749501D01*
X146253996Y-97602994D01*
X146321090Y-97471314D01*
X146369065Y-97420519D01*
X146436886Y-97403724D01*
X146503021Y-97426262D01*
X146546472Y-97480977D01*
X146549506Y-97489292D01*
X146558904Y-97518217D01*
X146655375Y-97707550D01*
X146694728Y-97761716D01*
X147327037Y-97129408D01*
X147344075Y-97192993D01*
X147409901Y-97307007D01*
X147502993Y-97400099D01*
X147617007Y-97465925D01*
X147680590Y-97482962D01*
X147048282Y-98115269D01*
X147048282Y-98115270D01*
X147102449Y-98154624D01*
X147291782Y-98251095D01*
X147493870Y-98316757D01*
X147703754Y-98350000D01*
X147916246Y-98350000D01*
X148126127Y-98316757D01*
X148126130Y-98316757D01*
X148328217Y-98251095D01*
X148517554Y-98154622D01*
X148571716Y-98115270D01*
X148571717Y-98115270D01*
X147939408Y-97482962D01*
X148002993Y-97465925D01*
X148117007Y-97400099D01*
X148210099Y-97307007D01*
X148275925Y-97192993D01*
X148292962Y-97129408D01*
X148925270Y-97761717D01*
X148925270Y-97761716D01*
X148964622Y-97707554D01*
X149061095Y-97518217D01*
X149126757Y-97316130D01*
X149126757Y-97316127D01*
X149160000Y-97106246D01*
X149160000Y-96893753D01*
X149126757Y-96683872D01*
X149125619Y-96679127D01*
X149127005Y-96678794D01*
X149125189Y-96615357D01*
X149161265Y-96555522D01*
X149223964Y-96524690D01*
X149293379Y-96532649D01*
X149332798Y-96559191D01*
X151245087Y-98471480D01*
X151336412Y-98524207D01*
X151438273Y-98551500D01*
X151438275Y-98551500D01*
X159021725Y-98551500D01*
X159021727Y-98551500D01*
X159123588Y-98524207D01*
X159214913Y-98471480D01*
X159580719Y-98105672D01*
X159642040Y-98072189D01*
X159706716Y-98075424D01*
X159850591Y-98122171D01*
X159933429Y-98135291D01*
X160029449Y-98150500D01*
X160029454Y-98150500D01*
X160210551Y-98150500D01*
X160297259Y-98136765D01*
X160389409Y-98122171D01*
X160561639Y-98066211D01*
X160722994Y-97983996D01*
X160869501Y-97877553D01*
X160997553Y-97749501D01*
X161103996Y-97602994D01*
X161186211Y-97441639D01*
X161242171Y-97269409D01*
X161256422Y-97179425D01*
X161267527Y-97109321D01*
X161297456Y-97046186D01*
X161356768Y-97009255D01*
X161426630Y-97010253D01*
X161484863Y-97048863D01*
X161512473Y-97109321D01*
X161537829Y-97269410D01*
X161593787Y-97441636D01*
X161593788Y-97441639D01*
X161676006Y-97602997D01*
X161782441Y-97749494D01*
X161782445Y-97749499D01*
X161910500Y-97877554D01*
X161910505Y-97877558D01*
X162034565Y-97967692D01*
X162057006Y-97983996D01*
X162133094Y-98022765D01*
X162218360Y-98066211D01*
X162218363Y-98066212D01*
X162304476Y-98094191D01*
X162390591Y-98122171D01*
X162473429Y-98135291D01*
X162569449Y-98150500D01*
X162569454Y-98150500D01*
X162750551Y-98150500D01*
X162837259Y-98136765D01*
X162929409Y-98122171D01*
X163101639Y-98066211D01*
X163262994Y-97983996D01*
X163409501Y-97877553D01*
X163537553Y-97749501D01*
X163643996Y-97602994D01*
X163726211Y-97441639D01*
X163782171Y-97269409D01*
X163796422Y-97179425D01*
X163807527Y-97109321D01*
X163837456Y-97046186D01*
X163896768Y-97009255D01*
X163966630Y-97010253D01*
X164024863Y-97048863D01*
X164052473Y-97109321D01*
X164077829Y-97269410D01*
X164133787Y-97441636D01*
X164133788Y-97441639D01*
X164216006Y-97602997D01*
X164322441Y-97749494D01*
X164322445Y-97749499D01*
X164450500Y-97877554D01*
X164450505Y-97877558D01*
X164574565Y-97967692D01*
X164597006Y-97983996D01*
X164673094Y-98022765D01*
X164758360Y-98066211D01*
X164758363Y-98066212D01*
X164844476Y-98094191D01*
X164930591Y-98122171D01*
X165013429Y-98135291D01*
X165109449Y-98150500D01*
X165109454Y-98150500D01*
X165290551Y-98150500D01*
X165377259Y-98136765D01*
X165469409Y-98122171D01*
X165641639Y-98066211D01*
X165802994Y-97983996D01*
X165949501Y-97877553D01*
X166077553Y-97749501D01*
X166183996Y-97602994D01*
X166266211Y-97441639D01*
X166322171Y-97269409D01*
X166336422Y-97179425D01*
X166347527Y-97109321D01*
X166377456Y-97046186D01*
X166436768Y-97009255D01*
X166506630Y-97010253D01*
X166564863Y-97048863D01*
X166592473Y-97109321D01*
X166617829Y-97269410D01*
X166673787Y-97441636D01*
X166673788Y-97441639D01*
X166756006Y-97602997D01*
X166862441Y-97749494D01*
X166862445Y-97749499D01*
X166990500Y-97877554D01*
X166990505Y-97877558D01*
X167114565Y-97967692D01*
X167137006Y-97983996D01*
X167213094Y-98022765D01*
X167298360Y-98066211D01*
X167298363Y-98066212D01*
X167384476Y-98094191D01*
X167470591Y-98122171D01*
X167553429Y-98135291D01*
X167649449Y-98150500D01*
X167649454Y-98150500D01*
X167830551Y-98150500D01*
X167917259Y-98136765D01*
X168009409Y-98122171D01*
X168181639Y-98066211D01*
X168342994Y-97983996D01*
X168489501Y-97877553D01*
X168617553Y-97749501D01*
X168723996Y-97602994D01*
X168806211Y-97441639D01*
X168862171Y-97269409D01*
X168876422Y-97179425D01*
X168887527Y-97109321D01*
X168917456Y-97046186D01*
X168976768Y-97009255D01*
X169046630Y-97010253D01*
X169104863Y-97048863D01*
X169132473Y-97109321D01*
X169157829Y-97269410D01*
X169213787Y-97441636D01*
X169213788Y-97441639D01*
X169296006Y-97602997D01*
X169402441Y-97749494D01*
X169402445Y-97749499D01*
X169530500Y-97877554D01*
X169530505Y-97877558D01*
X169654565Y-97967692D01*
X169677006Y-97983996D01*
X169753094Y-98022765D01*
X169838360Y-98066211D01*
X169838363Y-98066212D01*
X169924476Y-98094191D01*
X170010591Y-98122171D01*
X170093429Y-98135291D01*
X170189449Y-98150500D01*
X170189454Y-98150500D01*
X170370551Y-98150500D01*
X170457259Y-98136765D01*
X170549409Y-98122171D01*
X170721639Y-98066211D01*
X170882994Y-97983996D01*
X171005669Y-97894868D01*
X171029495Y-97877558D01*
X171029497Y-97877555D01*
X171029501Y-97877553D01*
X171157553Y-97749501D01*
X171263996Y-97602994D01*
X171331090Y-97471314D01*
X171379065Y-97420519D01*
X171446886Y-97403724D01*
X171513021Y-97426262D01*
X171556472Y-97480977D01*
X171559506Y-97489292D01*
X171568904Y-97518217D01*
X171665375Y-97707550D01*
X171704728Y-97761716D01*
X172337037Y-97129408D01*
X172354075Y-97192993D01*
X172419901Y-97307007D01*
X172512993Y-97400099D01*
X172627007Y-97465925D01*
X172690590Y-97482962D01*
X172058282Y-98115269D01*
X172058282Y-98115270D01*
X172112449Y-98154624D01*
X172301782Y-98251095D01*
X172503870Y-98316757D01*
X172713754Y-98350000D01*
X172926246Y-98350000D01*
X173136127Y-98316757D01*
X173136130Y-98316757D01*
X173338217Y-98251095D01*
X173527554Y-98154622D01*
X173581716Y-98115270D01*
X173581717Y-98115270D01*
X172949408Y-97482962D01*
X173012993Y-97465925D01*
X173127007Y-97400099D01*
X173220099Y-97307007D01*
X173285925Y-97192993D01*
X173302962Y-97129409D01*
X173935270Y-97761717D01*
X173935270Y-97761716D01*
X173974622Y-97707554D01*
X174071095Y-97518217D01*
X174080492Y-97489295D01*
X174119928Y-97431618D01*
X174184286Y-97404419D01*
X174253133Y-97416331D01*
X174304610Y-97463574D01*
X174308908Y-97471314D01*
X174376004Y-97602995D01*
X174482441Y-97749494D01*
X174482445Y-97749499D01*
X174610500Y-97877554D01*
X174610505Y-97877558D01*
X174734565Y-97967692D01*
X174757006Y-97983996D01*
X174833094Y-98022765D01*
X174918360Y-98066211D01*
X174918363Y-98066212D01*
X175004476Y-98094191D01*
X175090591Y-98122171D01*
X175173429Y-98135291D01*
X175269449Y-98150500D01*
X175269454Y-98150500D01*
X175450551Y-98150500D01*
X175537259Y-98136765D01*
X175629409Y-98122171D01*
X175801639Y-98066211D01*
X175962994Y-97983996D01*
X176109501Y-97877553D01*
X176237553Y-97749501D01*
X176343996Y-97602994D01*
X176426211Y-97441639D01*
X176482171Y-97269409D01*
X176496422Y-97179425D01*
X176507527Y-97109321D01*
X176537456Y-97046186D01*
X176596768Y-97009255D01*
X176666630Y-97010253D01*
X176724863Y-97048863D01*
X176752473Y-97109321D01*
X176777829Y-97269410D01*
X176833787Y-97441636D01*
X176833788Y-97441639D01*
X176916006Y-97602997D01*
X177022441Y-97749494D01*
X177022445Y-97749499D01*
X177150500Y-97877554D01*
X177150505Y-97877558D01*
X177274565Y-97967692D01*
X177297006Y-97983996D01*
X177373094Y-98022765D01*
X177458360Y-98066211D01*
X177458363Y-98066212D01*
X177544476Y-98094191D01*
X177630591Y-98122171D01*
X177713429Y-98135291D01*
X177809449Y-98150500D01*
X177809454Y-98150500D01*
X177990551Y-98150500D01*
X178077259Y-98136765D01*
X178169409Y-98122171D01*
X178341639Y-98066211D01*
X178502994Y-97983996D01*
X178649501Y-97877553D01*
X178777553Y-97749501D01*
X178883996Y-97602994D01*
X178966211Y-97441639D01*
X179022171Y-97269409D01*
X179036422Y-97179425D01*
X179047527Y-97109321D01*
X179077456Y-97046186D01*
X179136768Y-97009255D01*
X179206630Y-97010253D01*
X179264863Y-97048863D01*
X179292473Y-97109321D01*
X179317829Y-97269410D01*
X179373787Y-97441636D01*
X179373788Y-97441639D01*
X179456006Y-97602997D01*
X179562441Y-97749494D01*
X179562445Y-97749499D01*
X179690500Y-97877554D01*
X179690505Y-97877558D01*
X179814565Y-97967692D01*
X179837006Y-97983996D01*
X179913094Y-98022765D01*
X179998360Y-98066211D01*
X179998363Y-98066212D01*
X180084476Y-98094191D01*
X180170591Y-98122171D01*
X180253429Y-98135291D01*
X180349449Y-98150500D01*
X180349454Y-98150500D01*
X180530551Y-98150500D01*
X180617259Y-98136765D01*
X180709409Y-98122171D01*
X180881639Y-98066211D01*
X181042994Y-97983996D01*
X181189501Y-97877553D01*
X181317553Y-97749501D01*
X181423996Y-97602994D01*
X181506211Y-97441639D01*
X181562171Y-97269409D01*
X181576422Y-97179425D01*
X181587527Y-97109321D01*
X181617456Y-97046186D01*
X181676768Y-97009255D01*
X181746630Y-97010253D01*
X181804863Y-97048863D01*
X181832473Y-97109321D01*
X181857829Y-97269410D01*
X181913787Y-97441636D01*
X181913788Y-97441639D01*
X181996006Y-97602997D01*
X182102441Y-97749494D01*
X182102445Y-97749499D01*
X182230500Y-97877554D01*
X182230505Y-97877558D01*
X182354565Y-97967692D01*
X182377006Y-97983996D01*
X182453094Y-98022765D01*
X182538360Y-98066211D01*
X182538363Y-98066212D01*
X182624476Y-98094191D01*
X182710591Y-98122171D01*
X182793429Y-98135291D01*
X182889449Y-98150500D01*
X182889454Y-98150500D01*
X183070551Y-98150500D01*
X183157259Y-98136765D01*
X183249409Y-98122171D01*
X183421639Y-98066211D01*
X183582994Y-97983996D01*
X183729501Y-97877553D01*
X183857553Y-97749501D01*
X183963996Y-97602994D01*
X184046211Y-97441639D01*
X184102171Y-97269409D01*
X184116422Y-97179425D01*
X184127527Y-97109321D01*
X184157456Y-97046186D01*
X184216768Y-97009255D01*
X184286630Y-97010253D01*
X184344863Y-97048863D01*
X184372473Y-97109321D01*
X184397829Y-97269410D01*
X184453787Y-97441636D01*
X184453788Y-97441639D01*
X184536006Y-97602997D01*
X184642441Y-97749494D01*
X184642445Y-97749499D01*
X184770500Y-97877554D01*
X184770505Y-97877558D01*
X184894565Y-97967692D01*
X184917006Y-97983996D01*
X184993094Y-98022765D01*
X185078360Y-98066211D01*
X185078363Y-98066212D01*
X185164476Y-98094191D01*
X185250591Y-98122171D01*
X185333429Y-98135291D01*
X185429449Y-98150500D01*
X185429454Y-98150500D01*
X185610551Y-98150500D01*
X185697259Y-98136765D01*
X185789409Y-98122171D01*
X185961639Y-98066211D01*
X186122994Y-97983996D01*
X186269501Y-97877553D01*
X186397553Y-97749501D01*
X186503996Y-97602994D01*
X186586211Y-97441639D01*
X186642171Y-97269409D01*
X186656422Y-97179425D01*
X186667527Y-97109321D01*
X186697456Y-97046186D01*
X186756768Y-97009255D01*
X186826630Y-97010253D01*
X186884863Y-97048863D01*
X186912473Y-97109321D01*
X186937829Y-97269410D01*
X186993787Y-97441636D01*
X186993788Y-97441639D01*
X187076006Y-97602997D01*
X187182441Y-97749494D01*
X187182445Y-97749499D01*
X187310500Y-97877554D01*
X187310505Y-97877558D01*
X187434565Y-97967692D01*
X187457006Y-97983996D01*
X187533094Y-98022765D01*
X187618360Y-98066211D01*
X187618363Y-98066212D01*
X187704476Y-98094191D01*
X187790591Y-98122171D01*
X187873429Y-98135291D01*
X187969449Y-98150500D01*
X187969454Y-98150500D01*
X188150551Y-98150500D01*
X188237259Y-98136765D01*
X188329409Y-98122171D01*
X188501639Y-98066211D01*
X188662994Y-97983996D01*
X188809501Y-97877553D01*
X188937553Y-97749501D01*
X189043996Y-97602994D01*
X189126211Y-97441639D01*
X189182171Y-97269409D01*
X189196422Y-97179425D01*
X189207527Y-97109321D01*
X189237456Y-97046186D01*
X189296768Y-97009255D01*
X189366630Y-97010253D01*
X189424863Y-97048863D01*
X189452473Y-97109321D01*
X189477829Y-97269410D01*
X189533787Y-97441636D01*
X189533788Y-97441639D01*
X189616006Y-97602997D01*
X189722441Y-97749494D01*
X189722445Y-97749499D01*
X189850500Y-97877554D01*
X189850505Y-97877558D01*
X189974565Y-97967692D01*
X189997006Y-97983996D01*
X190073094Y-98022765D01*
X190158360Y-98066211D01*
X190158363Y-98066212D01*
X190244476Y-98094191D01*
X190330591Y-98122171D01*
X190413429Y-98135291D01*
X190509449Y-98150500D01*
X190509454Y-98150500D01*
X190690551Y-98150500D01*
X190777259Y-98136765D01*
X190869409Y-98122171D01*
X191041639Y-98066211D01*
X191202994Y-97983996D01*
X191325669Y-97894868D01*
X191349495Y-97877558D01*
X191349497Y-97877555D01*
X191349501Y-97877553D01*
X191477553Y-97749501D01*
X191583996Y-97602994D01*
X191651090Y-97471314D01*
X191699065Y-97420519D01*
X191766886Y-97403724D01*
X191833021Y-97426262D01*
X191876472Y-97480977D01*
X191879506Y-97489292D01*
X191888904Y-97518217D01*
X191985375Y-97707550D01*
X192024728Y-97761716D01*
X192657037Y-97129408D01*
X192674075Y-97192993D01*
X192739901Y-97307007D01*
X192832993Y-97400099D01*
X192947007Y-97465925D01*
X193010590Y-97482962D01*
X192378282Y-98115269D01*
X192378282Y-98115270D01*
X192432449Y-98154624D01*
X192621782Y-98251095D01*
X192823870Y-98316757D01*
X193033754Y-98350000D01*
X193246246Y-98350000D01*
X193456127Y-98316757D01*
X193456130Y-98316757D01*
X193658217Y-98251095D01*
X193847554Y-98154622D01*
X193901716Y-98115270D01*
X193901717Y-98115270D01*
X193269408Y-97482962D01*
X193332993Y-97465925D01*
X193447007Y-97400099D01*
X193540099Y-97307007D01*
X193605925Y-97192993D01*
X193622962Y-97129409D01*
X194255270Y-97761717D01*
X194255270Y-97761716D01*
X194294621Y-97707555D01*
X194295005Y-97706803D01*
X194295229Y-97706564D01*
X194297168Y-97703402D01*
X194297831Y-97703808D01*
X194342970Y-97655998D01*
X194410787Y-97639190D01*
X194476927Y-97661715D01*
X194520388Y-97716422D01*
X194529500Y-97763076D01*
X194529500Y-97894855D01*
X194529502Y-97894882D01*
X194532413Y-97919987D01*
X194532415Y-97919991D01*
X194577793Y-98022764D01*
X194577794Y-98022765D01*
X194657235Y-98102206D01*
X194760009Y-98147585D01*
X194785135Y-98150500D01*
X196574864Y-98150499D01*
X196574879Y-98150497D01*
X196574882Y-98150497D01*
X196599987Y-98147586D01*
X196599988Y-98147585D01*
X196599991Y-98147585D01*
X196702765Y-98102206D01*
X196782206Y-98022765D01*
X196827585Y-97919991D01*
X196830500Y-97894865D01*
X196830499Y-96105136D01*
X196830497Y-96105117D01*
X196827586Y-96080012D01*
X196827585Y-96080010D01*
X196827585Y-96080009D01*
X196782206Y-95977235D01*
X196702765Y-95897794D01*
X196699130Y-95896189D01*
X196599992Y-95852415D01*
X196574865Y-95849500D01*
X194785143Y-95849500D01*
X194785117Y-95849502D01*
X194760012Y-95852413D01*
X194760008Y-95852415D01*
X194657235Y-95897793D01*
X194577794Y-95977234D01*
X194532415Y-96080006D01*
X194532415Y-96080008D01*
X194529500Y-96105131D01*
X194529500Y-96236920D01*
X194509815Y-96303959D01*
X194457011Y-96349714D01*
X194387853Y-96359658D01*
X194324297Y-96330633D01*
X194297505Y-96296398D01*
X194297171Y-96296604D01*
X194295382Y-96293685D01*
X194295018Y-96293220D01*
X194294627Y-96292454D01*
X194294626Y-96292452D01*
X194255270Y-96238282D01*
X194255269Y-96238282D01*
X193622962Y-96870590D01*
X193605925Y-96807007D01*
X193540099Y-96692993D01*
X193447007Y-96599901D01*
X193332993Y-96534075D01*
X193269409Y-96517037D01*
X193901716Y-95884728D01*
X193847550Y-95845375D01*
X193658217Y-95748904D01*
X193456129Y-95683242D01*
X193246246Y-95650000D01*
X193033754Y-95650000D01*
X192823872Y-95683242D01*
X192823869Y-95683242D01*
X192621782Y-95748904D01*
X192432439Y-95845380D01*
X192378282Y-95884727D01*
X192378282Y-95884728D01*
X193010591Y-96517037D01*
X192947007Y-96534075D01*
X192832993Y-96599901D01*
X192739901Y-96692993D01*
X192674075Y-96807007D01*
X192657037Y-96870591D01*
X192024728Y-96238282D01*
X192024727Y-96238282D01*
X191985380Y-96292439D01*
X191888905Y-96481781D01*
X191879506Y-96510708D01*
X191840068Y-96568383D01*
X191775709Y-96595581D01*
X191706862Y-96583666D01*
X191655387Y-96536421D01*
X191651090Y-96528684D01*
X191616459Y-96460718D01*
X191583996Y-96397006D01*
X191549637Y-96349714D01*
X191477558Y-96250505D01*
X191477554Y-96250500D01*
X191349499Y-96122445D01*
X191349494Y-96122441D01*
X191231834Y-96036956D01*
X191231826Y-96036951D01*
X191202994Y-96016004D01*
X191066589Y-95946502D01*
X191064960Y-95945610D01*
X191041535Y-95922136D01*
X191017409Y-95899350D01*
X191016893Y-95897442D01*
X191015606Y-95896153D01*
X191011848Y-95878794D01*
X191000500Y-95836840D01*
X191000500Y-95747275D01*
X191000500Y-95747273D01*
X190973207Y-95645413D01*
X190973207Y-95645412D01*
X190946843Y-95599750D01*
X190920480Y-95554087D01*
X190845913Y-95479520D01*
X190845910Y-95479518D01*
X182917335Y-87550943D01*
X174980890Y-79614497D01*
X174901336Y-79534943D01*
X177881500Y-79534943D01*
X177881500Y-79693057D01*
X177889170Y-79721680D01*
X177922423Y-79845783D01*
X177922426Y-79845790D01*
X178001475Y-79982709D01*
X178001479Y-79982714D01*
X178001480Y-79982716D01*
X178113284Y-80094520D01*
X178113286Y-80094521D01*
X178113290Y-80094524D01*
X178250209Y-80173573D01*
X178250216Y-80173577D01*
X178402943Y-80214500D01*
X178402945Y-80214500D01*
X178561055Y-80214500D01*
X178561057Y-80214500D01*
X178713784Y-80173577D01*
X178850716Y-80094520D01*
X178962520Y-79982716D01*
X179041577Y-79845784D01*
X179082500Y-79693057D01*
X179082500Y-79534943D01*
X179041577Y-79382216D01*
X178989576Y-79292147D01*
X178962524Y-79245290D01*
X178962518Y-79245282D01*
X178850717Y-79133481D01*
X178850709Y-79133475D01*
X178713790Y-79054426D01*
X178713786Y-79054424D01*
X178713784Y-79054423D01*
X178561057Y-79013500D01*
X178402943Y-79013500D01*
X178250216Y-79054423D01*
X178250209Y-79054426D01*
X178113290Y-79133475D01*
X178113282Y-79133481D01*
X178001481Y-79245282D01*
X178001475Y-79245290D01*
X177922426Y-79382209D01*
X177922423Y-79382216D01*
X177881500Y-79534943D01*
X174901336Y-79534943D01*
X172444915Y-77078522D01*
X172444914Y-77078521D01*
X172444913Y-77078520D01*
X172378010Y-77039893D01*
X172353589Y-77025793D01*
X172302657Y-77012146D01*
X172251727Y-76998500D01*
X172251726Y-76998500D01*
X153789098Y-76998500D01*
X153722059Y-76978815D01*
X153701417Y-76962181D01*
X153657717Y-76918481D01*
X153657709Y-76918475D01*
X153520790Y-76839426D01*
X153520786Y-76839424D01*
X153520784Y-76839423D01*
X153368057Y-76798500D01*
X153209943Y-76798500D01*
X153057216Y-76839423D01*
X153057209Y-76839426D01*
X152920290Y-76918475D01*
X152920282Y-76918481D01*
X152808481Y-77030282D01*
X152808475Y-77030290D01*
X152729426Y-77167209D01*
X152729423Y-77167216D01*
X152688500Y-77319943D01*
X152688500Y-77478057D01*
X152714420Y-77574790D01*
X152729423Y-77630783D01*
X152729426Y-77630790D01*
X152808475Y-77767709D01*
X152808479Y-77767714D01*
X152808480Y-77767716D01*
X152920284Y-77879520D01*
X152920286Y-77879521D01*
X152920290Y-77879524D01*
X153038243Y-77947623D01*
X153057216Y-77958577D01*
X153209943Y-77999500D01*
X153209945Y-77999500D01*
X153334035Y-77999500D01*
X153360754Y-78007345D01*
X153388217Y-78011964D01*
X153393815Y-78017053D01*
X153401074Y-78019185D01*
X153419307Y-78040227D01*
X153439917Y-78058963D01*
X153444191Y-78068945D01*
X153446829Y-78071989D01*
X153453806Y-78091397D01*
X153472525Y-78161255D01*
X153481140Y-78193407D01*
X153479477Y-78263257D01*
X153440314Y-78321119D01*
X153376085Y-78348623D01*
X153361365Y-78349500D01*
X152450339Y-78349500D01*
X152450323Y-78349499D01*
X152442727Y-78349499D01*
X152337273Y-78349499D01*
X152248796Y-78373207D01*
X152248795Y-78373206D01*
X152235414Y-78376792D01*
X152235410Y-78376794D01*
X152144085Y-78429521D01*
X151581426Y-78992181D01*
X151520103Y-79025666D01*
X151514871Y-79026687D01*
X151504385Y-79028500D01*
X151431943Y-79028500D01*
X151300169Y-79063808D01*
X151294626Y-79064767D01*
X151265278Y-79061395D01*
X151235743Y-79060692D01*
X151230955Y-79057451D01*
X151225213Y-79056792D01*
X151202346Y-79038088D01*
X151177881Y-79021529D01*
X151175605Y-79016214D01*
X151171131Y-79012555D01*
X151162005Y-78984456D01*
X151150377Y-78957300D01*
X151149745Y-78946704D01*
X151149550Y-78946102D01*
X151149680Y-78945606D01*
X151149500Y-78942580D01*
X151149500Y-77798276D01*
X151149500Y-77798273D01*
X151143727Y-77776727D01*
X151122207Y-77696412D01*
X151069480Y-77605087D01*
X150824648Y-77360255D01*
X150733323Y-77307528D01*
X150684054Y-77294326D01*
X150628469Y-77262233D01*
X150566452Y-77200216D01*
X150566444Y-77200210D01*
X150429525Y-77121161D01*
X150429521Y-77121159D01*
X150429519Y-77121158D01*
X150276792Y-77080235D01*
X150118678Y-77080235D01*
X149965951Y-77121158D01*
X149965944Y-77121161D01*
X149829025Y-77200210D01*
X149829021Y-77200213D01*
X149764320Y-77264914D01*
X149702996Y-77298398D01*
X149633305Y-77293413D01*
X149577371Y-77251542D01*
X149556866Y-77209330D01*
X149530577Y-77111216D01*
X149504928Y-77066790D01*
X149451524Y-76974290D01*
X149451518Y-76974282D01*
X149339717Y-76862481D01*
X149339709Y-76862475D01*
X149202790Y-76783426D01*
X149202786Y-76783424D01*
X149202784Y-76783423D01*
X149050057Y-76742500D01*
X148891943Y-76742500D01*
X148739216Y-76783423D01*
X148739209Y-76783426D01*
X148602290Y-76862475D01*
X148602282Y-76862481D01*
X148490481Y-76974282D01*
X148490475Y-76974290D01*
X148411426Y-77111209D01*
X148411423Y-77111216D01*
X148370500Y-77263943D01*
X148370500Y-77422057D01*
X148381180Y-77461913D01*
X148411423Y-77574783D01*
X148411426Y-77574790D01*
X148490475Y-77711709D01*
X148490479Y-77711714D01*
X148490480Y-77711716D01*
X148602284Y-77823520D01*
X148602286Y-77823521D01*
X148602290Y-77823524D01*
X148720047Y-77891510D01*
X148739216Y-77902577D01*
X148859595Y-77934832D01*
X148919254Y-77971196D01*
X148949783Y-78034043D01*
X148951500Y-78054606D01*
X148951500Y-80427745D01*
X148931815Y-80494784D01*
X148915181Y-80515426D01*
X147828522Y-81602084D01*
X147828520Y-81602087D01*
X147775793Y-81693411D01*
X147775791Y-81693416D01*
X147775331Y-81695133D01*
X147775331Y-81695136D01*
X147758409Y-81758293D01*
X147748500Y-81795273D01*
X147748500Y-84633745D01*
X147728815Y-84700784D01*
X147712181Y-84721426D01*
X147297181Y-85136426D01*
X147235858Y-85169911D01*
X147166166Y-85164927D01*
X147110233Y-85123055D01*
X147085816Y-85057591D01*
X147085500Y-85048745D01*
X147085500Y-78040729D01*
X147085501Y-78040716D01*
X147085501Y-77925274D01*
X147073241Y-77879520D01*
X147058207Y-77823413D01*
X147055478Y-77818686D01*
X147040937Y-77793499D01*
X147040937Y-77793500D01*
X147005480Y-77732087D01*
X146930913Y-77657520D01*
X146930912Y-77657519D01*
X146926582Y-77653189D01*
X146926571Y-77653179D01*
X146539574Y-77266181D01*
X146506089Y-77204858D01*
X146511073Y-77135166D01*
X146552945Y-77079233D01*
X146618409Y-77054816D01*
X146627255Y-77054500D01*
X146729055Y-77054500D01*
X146729057Y-77054500D01*
X146881784Y-77013577D01*
X147018716Y-76934520D01*
X147130520Y-76822716D01*
X147209577Y-76685784D01*
X147250500Y-76533057D01*
X147250500Y-76374943D01*
X147209577Y-76222216D01*
X147168749Y-76151499D01*
X147152277Y-76083599D01*
X147175130Y-76017572D01*
X147230052Y-75974382D01*
X147276137Y-75965500D01*
X171359745Y-75965500D01*
X171426784Y-75985185D01*
X171447426Y-76001819D01*
X171763881Y-76318273D01*
X172018518Y-76572910D01*
X172018520Y-76572913D01*
X172093087Y-76647480D01*
X172159432Y-76685784D01*
X172167594Y-76690496D01*
X172167596Y-76690498D01*
X172173376Y-76693835D01*
X172184413Y-76700207D01*
X172286273Y-76727501D01*
X172286275Y-76727501D01*
X172399323Y-76727501D01*
X172399339Y-76727500D01*
X173388725Y-76727500D01*
X173388727Y-76727500D01*
X173490588Y-76700207D01*
X173581913Y-76647480D01*
X173833874Y-76395519D01*
X173895197Y-76362034D01*
X173921555Y-76359200D01*
X173983355Y-76359200D01*
X173983357Y-76359200D01*
X174136084Y-76318277D01*
X174273016Y-76239220D01*
X174384820Y-76127416D01*
X174463877Y-75990484D01*
X174504800Y-75837757D01*
X174504800Y-75679643D01*
X174463877Y-75526916D01*
X174425557Y-75460543D01*
X174384824Y-75389990D01*
X174384818Y-75389982D01*
X174273017Y-75278181D01*
X174273009Y-75278175D01*
X174136090Y-75199126D01*
X174136086Y-75199124D01*
X174136084Y-75199123D01*
X173983357Y-75158200D01*
X173825243Y-75158200D01*
X173672516Y-75199123D01*
X173672509Y-75199126D01*
X173535590Y-75278175D01*
X173535582Y-75278181D01*
X173423781Y-75389982D01*
X173423775Y-75389990D01*
X173344726Y-75526909D01*
X173344723Y-75526916D01*
X173303800Y-75679643D01*
X173303800Y-75741445D01*
X173295155Y-75770885D01*
X173288632Y-75800872D01*
X173284877Y-75805887D01*
X173284115Y-75808484D01*
X173267481Y-75829126D01*
X173206426Y-75890181D01*
X173145103Y-75923666D01*
X173118745Y-75926500D01*
X173094813Y-75926500D01*
X173027774Y-75906815D01*
X172982019Y-75854011D01*
X172972075Y-75784853D01*
X172975034Y-75770422D01*
X173015700Y-75618657D01*
X173015700Y-75460543D01*
X172974777Y-75307816D01*
X172974773Y-75307809D01*
X172895724Y-75170890D01*
X172895718Y-75170882D01*
X172783917Y-75059081D01*
X172783909Y-75059075D01*
X172646990Y-74980026D01*
X172646986Y-74980024D01*
X172646984Y-74980023D01*
X172494257Y-74939100D01*
X172494256Y-74939100D01*
X172432455Y-74939100D01*
X172365416Y-74919415D01*
X172344774Y-74902781D01*
X172153115Y-74711122D01*
X172153113Y-74711120D01*
X172107450Y-74684756D01*
X172061789Y-74658393D01*
X172010857Y-74644746D01*
X171959927Y-74631100D01*
X146255127Y-74631100D01*
X146149673Y-74631100D01*
X146047810Y-74658393D01*
X145956487Y-74711120D01*
X145956484Y-74711122D01*
X139379522Y-81288084D01*
X139379520Y-81288087D01*
X139326793Y-81379411D01*
X139320383Y-81403334D01*
X139305581Y-81458577D01*
X139299500Y-81481273D01*
X139299500Y-85443673D01*
X139299500Y-85549127D01*
X139302907Y-85561842D01*
X139326793Y-85650989D01*
X139339009Y-85672147D01*
X139379520Y-85742313D01*
X139785919Y-86148712D01*
X139785920Y-86148713D01*
X139860487Y-86223280D01*
X139951813Y-86276007D01*
X140053673Y-86303300D01*
X140063502Y-86303300D01*
X140130541Y-86322985D01*
X140151183Y-86339619D01*
X140194884Y-86383320D01*
X140194886Y-86383321D01*
X140194890Y-86383324D01*
X140324404Y-86458098D01*
X140331816Y-86462377D01*
X140484543Y-86503300D01*
X140484545Y-86503300D01*
X140642655Y-86503300D01*
X140642657Y-86503300D01*
X140795384Y-86462377D01*
X140932316Y-86383320D01*
X140945219Y-86370417D01*
X140964655Y-86359804D01*
X140981389Y-86345304D01*
X140994720Y-86343387D01*
X141006542Y-86336932D01*
X141028628Y-86338511D01*
X141050547Y-86335360D01*
X141062798Y-86340955D01*
X141076234Y-86341916D01*
X141093960Y-86355186D01*
X141114103Y-86364385D01*
X141121385Y-86375716D01*
X141132167Y-86383788D01*
X141139904Y-86404533D01*
X141151877Y-86423163D01*
X141155028Y-86445081D01*
X141156584Y-86449252D01*
X141156900Y-86458098D01*
X141156900Y-86520545D01*
X141137215Y-86587584D01*
X141120581Y-86608226D01*
X140446322Y-87282484D01*
X140446318Y-87282490D01*
X140393592Y-87373812D01*
X140393593Y-87373813D01*
X140366300Y-87475673D01*
X140366300Y-88044302D01*
X140346615Y-88111341D01*
X140329981Y-88131983D01*
X140286281Y-88175682D01*
X140286275Y-88175690D01*
X140207226Y-88312609D01*
X140207223Y-88312616D01*
X140166300Y-88465343D01*
X140166300Y-88623457D01*
X140205316Y-88769065D01*
X140207223Y-88776183D01*
X140207226Y-88776190D01*
X140286275Y-88913109D01*
X140286279Y-88913114D01*
X140286280Y-88913116D01*
X140398084Y-89024920D01*
X140398086Y-89024921D01*
X140398090Y-89024924D01*
X140518994Y-89094727D01*
X140535016Y-89103977D01*
X140687743Y-89144900D01*
X140687745Y-89144900D01*
X140789288Y-89144900D01*
X140856327Y-89164585D01*
X140902082Y-89217389D01*
X140912026Y-89286547D01*
X140883001Y-89350103D01*
X140876969Y-89356581D01*
X137960369Y-92273181D01*
X137899046Y-92306666D01*
X137872688Y-92309500D01*
X130446975Y-92309500D01*
X130379936Y-92289815D01*
X130334181Y-92237011D01*
X130324237Y-92167853D01*
X130339588Y-92123500D01*
X130343563Y-92116615D01*
X130417077Y-91989284D01*
X130458000Y-91836557D01*
X130458000Y-91678443D01*
X130417077Y-91525716D01*
X130417073Y-91525709D01*
X130338024Y-91388790D01*
X130338018Y-91388782D01*
X130226217Y-91276981D01*
X130226209Y-91276975D01*
X130089290Y-91197926D01*
X130089286Y-91197924D01*
X130089284Y-91197923D01*
X129936557Y-91157000D01*
X129936556Y-91157000D01*
X129874755Y-91157000D01*
X129807716Y-91137315D01*
X129787074Y-91120681D01*
X127132386Y-88465993D01*
X136951750Y-88465993D01*
X136951750Y-88624107D01*
X136992501Y-88776190D01*
X136992673Y-88776833D01*
X136992676Y-88776840D01*
X137071725Y-88913759D01*
X137071729Y-88913764D01*
X137071730Y-88913766D01*
X137183534Y-89025570D01*
X137183536Y-89025571D01*
X137183540Y-89025574D01*
X137303320Y-89094728D01*
X137320466Y-89104627D01*
X137473193Y-89145550D01*
X137473195Y-89145550D01*
X137631305Y-89145550D01*
X137631307Y-89145550D01*
X137784034Y-89104627D01*
X137920966Y-89025570D01*
X138032770Y-88913766D01*
X138111827Y-88776834D01*
X138152750Y-88624107D01*
X138152750Y-88465993D01*
X138111827Y-88313266D01*
X138075408Y-88250185D01*
X138032774Y-88176340D01*
X138032768Y-88176332D01*
X137920967Y-88064531D01*
X137920959Y-88064525D01*
X137784040Y-87985476D01*
X137784036Y-87985474D01*
X137784034Y-87985473D01*
X137631307Y-87944550D01*
X137473193Y-87944550D01*
X137320466Y-87985473D01*
X137320459Y-87985476D01*
X137183540Y-88064525D01*
X137183532Y-88064531D01*
X137071731Y-88176332D01*
X137071725Y-88176340D01*
X136992676Y-88313259D01*
X136992673Y-88313266D01*
X136951750Y-88465993D01*
X127132386Y-88465993D01*
X126366819Y-87700426D01*
X126333334Y-87639103D01*
X126330500Y-87612745D01*
X126330500Y-87550945D01*
X126330500Y-87550943D01*
X126289577Y-87398216D01*
X126275488Y-87373813D01*
X126210524Y-87261290D01*
X126210518Y-87261282D01*
X126098717Y-87149481D01*
X126098709Y-87149475D01*
X125961790Y-87070426D01*
X125961786Y-87070424D01*
X125961784Y-87070423D01*
X125809057Y-87029500D01*
X125650943Y-87029500D01*
X125498216Y-87070423D01*
X125498209Y-87070426D01*
X125361290Y-87149475D01*
X125361282Y-87149481D01*
X125249481Y-87261282D01*
X125249475Y-87261290D01*
X125170426Y-87398209D01*
X125170423Y-87398216D01*
X125129500Y-87550943D01*
X125129500Y-87709057D01*
X125143297Y-87760546D01*
X125170423Y-87861783D01*
X125170426Y-87861790D01*
X125249475Y-87998709D01*
X125249479Y-87998714D01*
X125249480Y-87998716D01*
X125361284Y-88110520D01*
X125361286Y-88110521D01*
X125361290Y-88110524D01*
X125498209Y-88189573D01*
X125498216Y-88189577D01*
X125650943Y-88230500D01*
X125712745Y-88230500D01*
X125779784Y-88250185D01*
X125800426Y-88266819D01*
X129220681Y-91687074D01*
X129254166Y-91748397D01*
X129257000Y-91774755D01*
X129257000Y-91836557D01*
X129296106Y-91982500D01*
X129297923Y-91989283D01*
X129297924Y-91989286D01*
X129375412Y-92123500D01*
X129391885Y-92191401D01*
X129369032Y-92257427D01*
X129314111Y-92300618D01*
X129268025Y-92309500D01*
X124697273Y-92309500D01*
X124595410Y-92336793D01*
X124504087Y-92389520D01*
X124504084Y-92389522D01*
X120999280Y-95894325D01*
X120937957Y-95927810D01*
X120873281Y-95924575D01*
X120729410Y-95877829D01*
X120550551Y-95849500D01*
X120550546Y-95849500D01*
X120369454Y-95849500D01*
X120369449Y-95849500D01*
X120190589Y-95877829D01*
X120018363Y-95933787D01*
X120018360Y-95933788D01*
X119857002Y-96016006D01*
X119710505Y-96122441D01*
X119710500Y-96122445D01*
X119582445Y-96250500D01*
X119582441Y-96250505D01*
X119476006Y-96397002D01*
X119393788Y-96558360D01*
X119393787Y-96558363D01*
X119337829Y-96730589D01*
X119312473Y-96890678D01*
X119282544Y-96953813D01*
X119223232Y-96990744D01*
X119153369Y-96989746D01*
X119095137Y-96951136D01*
X119067527Y-96890678D01*
X119053740Y-96803639D01*
X119042171Y-96730591D01*
X118998530Y-96596275D01*
X118986212Y-96558363D01*
X118986211Y-96558360D01*
X118936459Y-96460718D01*
X118903996Y-96397006D01*
X118869637Y-96349714D01*
X118797558Y-96250505D01*
X118797554Y-96250500D01*
X118669499Y-96122445D01*
X118669494Y-96122441D01*
X118522997Y-96016006D01*
X118522996Y-96016005D01*
X118522994Y-96016004D01*
X118446906Y-95977235D01*
X118361639Y-95933788D01*
X118361636Y-95933787D01*
X118189410Y-95877829D01*
X118010551Y-95849500D01*
X118010546Y-95849500D01*
X117829454Y-95849500D01*
X117829449Y-95849500D01*
X117650589Y-95877829D01*
X117478363Y-95933787D01*
X117478360Y-95933788D01*
X117317002Y-96016006D01*
X117170505Y-96122441D01*
X117170500Y-96122445D01*
X117042445Y-96250500D01*
X117042441Y-96250505D01*
X116936004Y-96397004D01*
X116868908Y-96528685D01*
X116820933Y-96579480D01*
X116753112Y-96596275D01*
X116686977Y-96573737D01*
X116643527Y-96519021D01*
X116640492Y-96510705D01*
X116631094Y-96481780D01*
X116534624Y-96292449D01*
X116495270Y-96238282D01*
X116495269Y-96238282D01*
X115862962Y-96870590D01*
X115845925Y-96807007D01*
X115780099Y-96692993D01*
X115687007Y-96599901D01*
X115572993Y-96534075D01*
X115509409Y-96517037D01*
X116141716Y-95884728D01*
X116087550Y-95845375D01*
X115898217Y-95748904D01*
X115696129Y-95683242D01*
X115486246Y-95650000D01*
X115273754Y-95650000D01*
X115063872Y-95683242D01*
X115063869Y-95683242D01*
X114861782Y-95748904D01*
X114672439Y-95845380D01*
X114618282Y-95884727D01*
X114618282Y-95884728D01*
X115250591Y-96517037D01*
X115187007Y-96534075D01*
X115072993Y-96599901D01*
X114979901Y-96692993D01*
X114914075Y-96807007D01*
X114897037Y-96870591D01*
X114264728Y-96238282D01*
X114264727Y-96238282D01*
X114225380Y-96292439D01*
X114128905Y-96481781D01*
X114119506Y-96510708D01*
X114080068Y-96568383D01*
X114015709Y-96595581D01*
X113946862Y-96583666D01*
X113895387Y-96536421D01*
X113891090Y-96528684D01*
X113856459Y-96460718D01*
X113823996Y-96397006D01*
X113789637Y-96349714D01*
X113717558Y-96250505D01*
X113717554Y-96250500D01*
X113589499Y-96122445D01*
X113589494Y-96122441D01*
X113465432Y-96032305D01*
X113442996Y-96016005D01*
X113281639Y-95933788D01*
X113281636Y-95933787D01*
X113109410Y-95877829D01*
X112930551Y-95849500D01*
X112930546Y-95849500D01*
X112749454Y-95849500D01*
X112749449Y-95849500D01*
X112570589Y-95877829D01*
X112398363Y-95933787D01*
X112398360Y-95933788D01*
X112237002Y-96016006D01*
X112090505Y-96122441D01*
X112090500Y-96122445D01*
X111962445Y-96250500D01*
X111962441Y-96250505D01*
X111856006Y-96397002D01*
X111773788Y-96558360D01*
X111773787Y-96558363D01*
X111717829Y-96730589D01*
X111692473Y-96890678D01*
X111662544Y-96953813D01*
X111603232Y-96990744D01*
X111533369Y-96989746D01*
X111475137Y-96951136D01*
X111447527Y-96890678D01*
X111433740Y-96803639D01*
X111422171Y-96730591D01*
X111378530Y-96596275D01*
X111366212Y-96558363D01*
X111366211Y-96558360D01*
X111316459Y-96460718D01*
X111283996Y-96397006D01*
X111249637Y-96349714D01*
X111177558Y-96250505D01*
X111177554Y-96250500D01*
X111049499Y-96122445D01*
X111049494Y-96122441D01*
X110902997Y-96016006D01*
X110902996Y-96016005D01*
X110902994Y-96016004D01*
X110826906Y-95977235D01*
X110741639Y-95933788D01*
X110741636Y-95933787D01*
X110569410Y-95877829D01*
X110390551Y-95849500D01*
X110390546Y-95849500D01*
X110209454Y-95849500D01*
X110209449Y-95849500D01*
X110030589Y-95877829D01*
X109858363Y-95933787D01*
X109858360Y-95933788D01*
X109697002Y-96016006D01*
X109550505Y-96122441D01*
X109550500Y-96122445D01*
X109422445Y-96250500D01*
X109422441Y-96250505D01*
X109316006Y-96397002D01*
X109233788Y-96558360D01*
X109233787Y-96558363D01*
X109177829Y-96730589D01*
X109152473Y-96890678D01*
X109122544Y-96953813D01*
X109063232Y-96990744D01*
X108993369Y-96989746D01*
X108935137Y-96951136D01*
X108907527Y-96890678D01*
X108893740Y-96803639D01*
X108882171Y-96730591D01*
X108838530Y-96596275D01*
X108826212Y-96558363D01*
X108826211Y-96558360D01*
X108776459Y-96460718D01*
X108743996Y-96397006D01*
X108709637Y-96349714D01*
X108637558Y-96250505D01*
X108637554Y-96250500D01*
X108509499Y-96122445D01*
X108509494Y-96122441D01*
X108362997Y-96016006D01*
X108362996Y-96016005D01*
X108362994Y-96016004D01*
X108286906Y-95977235D01*
X108201639Y-95933788D01*
X108201636Y-95933787D01*
X108029410Y-95877829D01*
X107850551Y-95849500D01*
X107850546Y-95849500D01*
X107669454Y-95849500D01*
X107669449Y-95849500D01*
X107490589Y-95877829D01*
X107318363Y-95933787D01*
X107318360Y-95933788D01*
X107157002Y-96016006D01*
X107010505Y-96122441D01*
X107010500Y-96122445D01*
X106882445Y-96250500D01*
X106882441Y-96250505D01*
X106776006Y-96397002D01*
X106693788Y-96558360D01*
X106693787Y-96558363D01*
X106637829Y-96730589D01*
X106612473Y-96890678D01*
X106582544Y-96953813D01*
X106523232Y-96990744D01*
X106453369Y-96989746D01*
X106395137Y-96951136D01*
X106367527Y-96890678D01*
X106353740Y-96803639D01*
X106342171Y-96730591D01*
X106298530Y-96596275D01*
X106286212Y-96558363D01*
X106286211Y-96558360D01*
X106236459Y-96460718D01*
X106203996Y-96397006D01*
X106169637Y-96349714D01*
X106097558Y-96250505D01*
X106097554Y-96250500D01*
X105969499Y-96122445D01*
X105969494Y-96122441D01*
X105822997Y-96016006D01*
X105822996Y-96016005D01*
X105822994Y-96016004D01*
X105746906Y-95977235D01*
X105661639Y-95933788D01*
X105661636Y-95933787D01*
X105489410Y-95877829D01*
X105310551Y-95849500D01*
X105310546Y-95849500D01*
X105129454Y-95849500D01*
X105129449Y-95849500D01*
X104950589Y-95877829D01*
X104778363Y-95933787D01*
X104778360Y-95933788D01*
X104617002Y-96016006D01*
X104470505Y-96122441D01*
X104470500Y-96122445D01*
X104342445Y-96250500D01*
X104342441Y-96250505D01*
X104236006Y-96397002D01*
X104153788Y-96558360D01*
X104153787Y-96558363D01*
X104097829Y-96730589D01*
X104072473Y-96890678D01*
X104042544Y-96953813D01*
X103983232Y-96990744D01*
X103913369Y-96989746D01*
X103855137Y-96951136D01*
X103827527Y-96890678D01*
X103813740Y-96803639D01*
X103802171Y-96730591D01*
X103758530Y-96596275D01*
X103746212Y-96558363D01*
X103746211Y-96558360D01*
X103696459Y-96460718D01*
X103663996Y-96397006D01*
X103629637Y-96349714D01*
X103557558Y-96250505D01*
X103557554Y-96250500D01*
X103429499Y-96122445D01*
X103429494Y-96122441D01*
X103282997Y-96016006D01*
X103282996Y-96016005D01*
X103282994Y-96016004D01*
X103206906Y-95977235D01*
X103121639Y-95933788D01*
X103121636Y-95933787D01*
X102949410Y-95877829D01*
X102770551Y-95849500D01*
X102770546Y-95849500D01*
X102589454Y-95849500D01*
X102589449Y-95849500D01*
X102410589Y-95877829D01*
X102238363Y-95933787D01*
X102238360Y-95933788D01*
X102077002Y-96016006D01*
X101930505Y-96122441D01*
X101930500Y-96122445D01*
X101802445Y-96250500D01*
X101802441Y-96250505D01*
X101696006Y-96397002D01*
X101613788Y-96558360D01*
X101613787Y-96558363D01*
X101557829Y-96730589D01*
X101529500Y-96909448D01*
X100500500Y-96909448D01*
X100500500Y-90103753D01*
X101250000Y-90103753D01*
X101250000Y-90316246D01*
X101283242Y-90526127D01*
X101283242Y-90526130D01*
X101348904Y-90728217D01*
X101445375Y-90917550D01*
X101484728Y-90971716D01*
X102117037Y-90339408D01*
X102134075Y-90402993D01*
X102199901Y-90517007D01*
X102292993Y-90610099D01*
X102407007Y-90675925D01*
X102470590Y-90692962D01*
X101838282Y-91325269D01*
X101838282Y-91325270D01*
X101892449Y-91364624D01*
X102081782Y-91461095D01*
X102283870Y-91526757D01*
X102493754Y-91560000D01*
X102706246Y-91560000D01*
X102916127Y-91526757D01*
X102916130Y-91526757D01*
X103118217Y-91461095D01*
X103307554Y-91364622D01*
X103361716Y-91325270D01*
X103361717Y-91325270D01*
X102729408Y-90692962D01*
X102792993Y-90675925D01*
X102907007Y-90610099D01*
X103000099Y-90517007D01*
X103065925Y-90402993D01*
X103082962Y-90339408D01*
X103715270Y-90971717D01*
X103715270Y-90971716D01*
X103754622Y-90917554D01*
X103851095Y-90728217D01*
X103916757Y-90526130D01*
X103916757Y-90526127D01*
X103950000Y-90316246D01*
X103950000Y-90103753D01*
X103916757Y-89893872D01*
X103916757Y-89893869D01*
X103851095Y-89691782D01*
X103754624Y-89502449D01*
X103715270Y-89448282D01*
X103715269Y-89448282D01*
X103082962Y-90080590D01*
X103065925Y-90017007D01*
X103000099Y-89902993D01*
X102907007Y-89809901D01*
X102792993Y-89744075D01*
X102729409Y-89727037D01*
X103361716Y-89094728D01*
X103307550Y-89055375D01*
X103118217Y-88958904D01*
X103089292Y-88949506D01*
X103031616Y-88910068D01*
X103004418Y-88845710D01*
X103016333Y-88776863D01*
X103063577Y-88725388D01*
X103071315Y-88721090D01*
X103202994Y-88653996D01*
X103349501Y-88547553D01*
X103477553Y-88419501D01*
X103583996Y-88272994D01*
X103652675Y-88138205D01*
X103700650Y-88087409D01*
X103763160Y-88070500D01*
X119392725Y-88070500D01*
X119392727Y-88070500D01*
X119494588Y-88043207D01*
X119585913Y-87990480D01*
X120779573Y-86796818D01*
X120840896Y-86763334D01*
X120867254Y-86760500D01*
X135815725Y-86760500D01*
X135815727Y-86760500D01*
X135917588Y-86733207D01*
X136008913Y-86680480D01*
X136264074Y-86425319D01*
X136325397Y-86391834D01*
X136351755Y-86389000D01*
X136413555Y-86389000D01*
X136413557Y-86389000D01*
X136566284Y-86348077D01*
X136703216Y-86269020D01*
X136815020Y-86157216D01*
X136894077Y-86020284D01*
X136935000Y-85867557D01*
X136935000Y-85709443D01*
X136894077Y-85556716D01*
X136878941Y-85530500D01*
X136815024Y-85419790D01*
X136815018Y-85419782D01*
X136758646Y-85363410D01*
X136725161Y-85302087D01*
X136730145Y-85232395D01*
X136762863Y-85188161D01*
X136760969Y-85186267D01*
X136810810Y-85136426D01*
X136878520Y-85068716D01*
X136957577Y-84931784D01*
X136998500Y-84779057D01*
X136998500Y-84620943D01*
X136957577Y-84468216D01*
X136924520Y-84410959D01*
X136878524Y-84331290D01*
X136878518Y-84331282D01*
X136766717Y-84219481D01*
X136766709Y-84219475D01*
X136629790Y-84140426D01*
X136629786Y-84140424D01*
X136629784Y-84140423D01*
X136477057Y-84099500D01*
X136318943Y-84099500D01*
X136166216Y-84140423D01*
X136166209Y-84140426D01*
X136029290Y-84219475D01*
X136029282Y-84219481D01*
X135917481Y-84331282D01*
X135917475Y-84331290D01*
X135838426Y-84468209D01*
X135838423Y-84468216D01*
X135797498Y-84620948D01*
X135797401Y-84621692D01*
X135797144Y-84622272D01*
X135795397Y-84628793D01*
X135794379Y-84628520D01*
X135769132Y-84685587D01*
X135710805Y-84724055D01*
X135674463Y-84729500D01*
X125714938Y-84729500D01*
X125647899Y-84709815D01*
X125602144Y-84657011D01*
X125592200Y-84587853D01*
X125614620Y-84532615D01*
X125654620Y-84477557D01*
X125751095Y-84288217D01*
X125816757Y-84086130D01*
X125816757Y-84086127D01*
X125850000Y-83876246D01*
X125850000Y-83663753D01*
X125816757Y-83453872D01*
X125816757Y-83453869D01*
X125751095Y-83251782D01*
X125654624Y-83062449D01*
X125615270Y-83008282D01*
X125615269Y-83008282D01*
X124982962Y-83640589D01*
X124965925Y-83577007D01*
X124900099Y-83462993D01*
X124807007Y-83369901D01*
X124692993Y-83304075D01*
X124629409Y-83287037D01*
X125261716Y-82654728D01*
X125207550Y-82615375D01*
X125197954Y-82610486D01*
X125147157Y-82562512D01*
X125130361Y-82494692D01*
X125152897Y-82428556D01*
X125197954Y-82389514D01*
X125207554Y-82384622D01*
X125261716Y-82345270D01*
X125261717Y-82345270D01*
X124629408Y-81712962D01*
X124692993Y-81695925D01*
X124807007Y-81630099D01*
X124900099Y-81537007D01*
X124965925Y-81422993D01*
X124982962Y-81359408D01*
X125615270Y-81991717D01*
X125615270Y-81991716D01*
X125654622Y-81937554D01*
X125751095Y-81748217D01*
X125816757Y-81546130D01*
X125816757Y-81546127D01*
X125850000Y-81336246D01*
X125850000Y-81123753D01*
X125816757Y-80913872D01*
X125816757Y-80913869D01*
X125751095Y-80711782D01*
X125654624Y-80522449D01*
X125615270Y-80468282D01*
X125615269Y-80468282D01*
X124982962Y-81100590D01*
X124965925Y-81037007D01*
X124900099Y-80922993D01*
X124807007Y-80829901D01*
X124692993Y-80764075D01*
X124629409Y-80747037D01*
X125261716Y-80114728D01*
X125207550Y-80075375D01*
X125018217Y-79978904D01*
X124816129Y-79913242D01*
X124606246Y-79880000D01*
X124393754Y-79880000D01*
X124183872Y-79913242D01*
X124183869Y-79913242D01*
X123981782Y-79978904D01*
X123792439Y-80075380D01*
X123738282Y-80114727D01*
X123738282Y-80114728D01*
X124370591Y-80747037D01*
X124307007Y-80764075D01*
X124192993Y-80829901D01*
X124099901Y-80922993D01*
X124034075Y-81037007D01*
X124017037Y-81100591D01*
X123384728Y-80468282D01*
X123384727Y-80468282D01*
X123345380Y-80522439D01*
X123248905Y-80711781D01*
X123239506Y-80740708D01*
X123200068Y-80798383D01*
X123135709Y-80825581D01*
X123066862Y-80813666D01*
X123015387Y-80766421D01*
X123011090Y-80758684D01*
X122970753Y-80679520D01*
X122943996Y-80627006D01*
X122930396Y-80608287D01*
X122837558Y-80480505D01*
X122837554Y-80480500D01*
X122709499Y-80352445D01*
X122709494Y-80352441D01*
X122585432Y-80262305D01*
X122562996Y-80246005D01*
X122401639Y-80163788D01*
X122401636Y-80163787D01*
X122229410Y-80107829D01*
X122050551Y-80079500D01*
X122050546Y-80079500D01*
X121869454Y-80079500D01*
X121869449Y-80079500D01*
X121690589Y-80107829D01*
X121518363Y-80163787D01*
X121518360Y-80163788D01*
X121357002Y-80246006D01*
X121210505Y-80352441D01*
X121210500Y-80352445D01*
X121082445Y-80480500D01*
X121082441Y-80480505D01*
X120976006Y-80627002D01*
X120893788Y-80788360D01*
X120893787Y-80788363D01*
X120837829Y-80960589D01*
X120812473Y-81120678D01*
X120782544Y-81183813D01*
X120723232Y-81220744D01*
X120653369Y-81219746D01*
X120595137Y-81181136D01*
X120567527Y-81120678D01*
X120544937Y-80978057D01*
X120542171Y-80960591D01*
X120499708Y-80829901D01*
X120486212Y-80788363D01*
X120486211Y-80788360D01*
X120430753Y-80679520D01*
X120403996Y-80627006D01*
X120390396Y-80608287D01*
X120297558Y-80480505D01*
X120297554Y-80480500D01*
X120169499Y-80352445D01*
X120169494Y-80352441D01*
X120022997Y-80246006D01*
X120022996Y-80246005D01*
X120022994Y-80246004D01*
X119961164Y-80214500D01*
X119861639Y-80163788D01*
X119861636Y-80163787D01*
X119689410Y-80107829D01*
X119510551Y-80079500D01*
X119510546Y-80079500D01*
X119329454Y-80079500D01*
X119329449Y-80079500D01*
X119150589Y-80107829D01*
X118978363Y-80163787D01*
X118978360Y-80163788D01*
X118817002Y-80246006D01*
X118670505Y-80352441D01*
X118670500Y-80352445D01*
X118542445Y-80480500D01*
X118542441Y-80480505D01*
X118436006Y-80627002D01*
X118353788Y-80788360D01*
X118353787Y-80788363D01*
X118297829Y-80960589D01*
X118269500Y-81139448D01*
X118269500Y-81320551D01*
X118297829Y-81499410D01*
X118353787Y-81671636D01*
X118353788Y-81671639D01*
X118436006Y-81832997D01*
X118542441Y-81979494D01*
X118542445Y-81979499D01*
X118670500Y-82107554D01*
X118670505Y-82107558D01*
X118717256Y-82141524D01*
X118817006Y-82213996D01*
X118910237Y-82261500D01*
X118978360Y-82296211D01*
X118978363Y-82296212D01*
X119031821Y-82313581D01*
X119150591Y-82352171D01*
X119254716Y-82368662D01*
X119282270Y-82373027D01*
X119345405Y-82402956D01*
X119382336Y-82462268D01*
X119381338Y-82532130D01*
X119342728Y-82590363D01*
X119278765Y-82618477D01*
X119262872Y-82619500D01*
X118525143Y-82619500D01*
X118525117Y-82619502D01*
X118500012Y-82622413D01*
X118500008Y-82622415D01*
X118397235Y-82667793D01*
X118317794Y-82747234D01*
X118272415Y-82850006D01*
X118272415Y-82850008D01*
X118272415Y-82850009D01*
X118269500Y-82875135D01*
X118269500Y-83769636D01*
X118269501Y-84605500D01*
X118249816Y-84672539D01*
X118197013Y-84718294D01*
X118145501Y-84729500D01*
X103763160Y-84729500D01*
X103696121Y-84709815D01*
X103652675Y-84661795D01*
X103642970Y-84642749D01*
X103583996Y-84527006D01*
X103570396Y-84508287D01*
X103477558Y-84380505D01*
X103477554Y-84380500D01*
X103349499Y-84252445D01*
X103349494Y-84252441D01*
X103202997Y-84146006D01*
X103202996Y-84146005D01*
X103202994Y-84146004D01*
X103151300Y-84119664D01*
X103041639Y-84063788D01*
X103041636Y-84063787D01*
X102869410Y-84007829D01*
X102737728Y-83986972D01*
X102674594Y-83957042D01*
X102637663Y-83897731D01*
X102638661Y-83827868D01*
X102677271Y-83769636D01*
X102741235Y-83741522D01*
X102757120Y-83740499D01*
X103494864Y-83740499D01*
X103494879Y-83740497D01*
X103494882Y-83740497D01*
X103519987Y-83737586D01*
X103519988Y-83737585D01*
X103519991Y-83737585D01*
X103622765Y-83692206D01*
X103702206Y-83612765D01*
X103747585Y-83509991D01*
X103750500Y-83484865D01*
X103750499Y-81695136D01*
X103750299Y-81693411D01*
X103747586Y-81670012D01*
X103747585Y-81670010D01*
X103747585Y-81670009D01*
X103702206Y-81567235D01*
X103622765Y-81487794D01*
X103607994Y-81481272D01*
X103519992Y-81442415D01*
X103494865Y-81439500D01*
X101705143Y-81439500D01*
X101705117Y-81439502D01*
X101680012Y-81442413D01*
X101680008Y-81442415D01*
X101577235Y-81487793D01*
X101497794Y-81567234D01*
X101452415Y-81670006D01*
X101452415Y-81670008D01*
X101449500Y-81695131D01*
X101449500Y-83484856D01*
X101449502Y-83484882D01*
X101452413Y-83509987D01*
X101452415Y-83509991D01*
X101497793Y-83612764D01*
X101497794Y-83612765D01*
X101577235Y-83692206D01*
X101680009Y-83737585D01*
X101705135Y-83740500D01*
X102442873Y-83740499D01*
X102509910Y-83760183D01*
X102555665Y-83812987D01*
X102565609Y-83882146D01*
X102536584Y-83945702D01*
X102477806Y-83983476D01*
X102462270Y-83986972D01*
X102330589Y-84007829D01*
X102158363Y-84063787D01*
X102158360Y-84063788D01*
X101997002Y-84146006D01*
X101850505Y-84252441D01*
X101850500Y-84252445D01*
X101722445Y-84380500D01*
X101722441Y-84380505D01*
X101616006Y-84527002D01*
X101533788Y-84688360D01*
X101533787Y-84688363D01*
X101477829Y-84860589D01*
X101449500Y-85039448D01*
X101449500Y-85220551D01*
X101477829Y-85399410D01*
X101533787Y-85571636D01*
X101533788Y-85571639D01*
X101616006Y-85732997D01*
X101722441Y-85879494D01*
X101722445Y-85879499D01*
X101850500Y-86007554D01*
X101850505Y-86007558D01*
X101918944Y-86057281D01*
X101997006Y-86113996D01*
X102102484Y-86167740D01*
X102158360Y-86196211D01*
X102158363Y-86196212D01*
X102241666Y-86223278D01*
X102330591Y-86252171D01*
X102403639Y-86263740D01*
X102490678Y-86277527D01*
X102553813Y-86307456D01*
X102590744Y-86366768D01*
X102589746Y-86436631D01*
X102551136Y-86494863D01*
X102490678Y-86522473D01*
X102330589Y-86547829D01*
X102158363Y-86603787D01*
X102158360Y-86603788D01*
X101997002Y-86686006D01*
X101850505Y-86792441D01*
X101850500Y-86792445D01*
X101722445Y-86920500D01*
X101722441Y-86920505D01*
X101616006Y-87067002D01*
X101533788Y-87228360D01*
X101533787Y-87228363D01*
X101477829Y-87400589D01*
X101449500Y-87579448D01*
X101449500Y-87760551D01*
X101477829Y-87939410D01*
X101533787Y-88111636D01*
X101533788Y-88111639D01*
X101616006Y-88272997D01*
X101722441Y-88419494D01*
X101722445Y-88419499D01*
X101850500Y-88547554D01*
X101850505Y-88547558D01*
X101954971Y-88623456D01*
X101997006Y-88653996D01*
X102098780Y-88705853D01*
X102128684Y-88721090D01*
X102179480Y-88769065D01*
X102196275Y-88836886D01*
X102173737Y-88903021D01*
X102119022Y-88946472D01*
X102110708Y-88949506D01*
X102081781Y-88958905D01*
X101892439Y-89055380D01*
X101838282Y-89094727D01*
X101838282Y-89094728D01*
X102470591Y-89727037D01*
X102407007Y-89744075D01*
X102292993Y-89809901D01*
X102199901Y-89902993D01*
X102134075Y-90017007D01*
X102117037Y-90080591D01*
X101484728Y-89448282D01*
X101484727Y-89448282D01*
X101445380Y-89502439D01*
X101348904Y-89691782D01*
X101283242Y-89893869D01*
X101283242Y-89893872D01*
X101250000Y-90103753D01*
X100500500Y-90103753D01*
X100500500Y-76755943D01*
X140896000Y-76755943D01*
X140896000Y-76914057D01*
X140933632Y-77054499D01*
X140936923Y-77066783D01*
X140936926Y-77066790D01*
X141015975Y-77203709D01*
X141015979Y-77203714D01*
X141015980Y-77203716D01*
X141127784Y-77315520D01*
X141127786Y-77315521D01*
X141127790Y-77315524D01*
X141205268Y-77360255D01*
X141264716Y-77394577D01*
X141417443Y-77435500D01*
X141417445Y-77435500D01*
X141575555Y-77435500D01*
X141575557Y-77435500D01*
X141728284Y-77394577D01*
X141865216Y-77315520D01*
X141977020Y-77203716D01*
X142056077Y-77066784D01*
X142097000Y-76914057D01*
X142097000Y-76755943D01*
X142056077Y-76603216D01*
X142015571Y-76533057D01*
X141977024Y-76466290D01*
X141977018Y-76466282D01*
X141865217Y-76354481D01*
X141865209Y-76354475D01*
X141728290Y-76275426D01*
X141728286Y-76275424D01*
X141728284Y-76275423D01*
X141575557Y-76234500D01*
X141417443Y-76234500D01*
X141264716Y-76275423D01*
X141264709Y-76275426D01*
X141127790Y-76354475D01*
X141127782Y-76354481D01*
X141015981Y-76466282D01*
X141015975Y-76466290D01*
X140936926Y-76603209D01*
X140936923Y-76603216D01*
X140896000Y-76755943D01*
X100500500Y-76755943D01*
X100500500Y-73520943D01*
X154399500Y-73520943D01*
X154399500Y-73679056D01*
X154440423Y-73831783D01*
X154440426Y-73831790D01*
X154519475Y-73968709D01*
X154519479Y-73968714D01*
X154519480Y-73968716D01*
X154631284Y-74080520D01*
X154631286Y-74080521D01*
X154631290Y-74080524D01*
X154768209Y-74159573D01*
X154768216Y-74159577D01*
X154920943Y-74200500D01*
X154920945Y-74200500D01*
X155079055Y-74200500D01*
X155079057Y-74200500D01*
X155231784Y-74159577D01*
X155368716Y-74080520D01*
X155480520Y-73968716D01*
X155559577Y-73831784D01*
X155600500Y-73679057D01*
X155600500Y-73520943D01*
X155559577Y-73368216D01*
X155559573Y-73368209D01*
X155480524Y-73231290D01*
X155480518Y-73231282D01*
X155368717Y-73119481D01*
X155368709Y-73119475D01*
X155231790Y-73040426D01*
X155231786Y-73040424D01*
X155231784Y-73040423D01*
X155079057Y-72999500D01*
X154920943Y-72999500D01*
X154768216Y-73040423D01*
X154768209Y-73040426D01*
X154631290Y-73119475D01*
X154631282Y-73119481D01*
X154519481Y-73231282D01*
X154519475Y-73231290D01*
X154440426Y-73368209D01*
X154440423Y-73368216D01*
X154399500Y-73520943D01*
X100500500Y-73520943D01*
X100500500Y-70420943D01*
X175899500Y-70420943D01*
X175899500Y-70579056D01*
X175940423Y-70731783D01*
X175940426Y-70731790D01*
X176019475Y-70868709D01*
X176019479Y-70868714D01*
X176019480Y-70868716D01*
X176131284Y-70980520D01*
X176131286Y-70980521D01*
X176131290Y-70980524D01*
X176268209Y-71059573D01*
X176268216Y-71059577D01*
X176420943Y-71100500D01*
X176420945Y-71100500D01*
X176579055Y-71100500D01*
X176579057Y-71100500D01*
X176731784Y-71059577D01*
X176868716Y-70980520D01*
X176980520Y-70868716D01*
X177059577Y-70731784D01*
X177100500Y-70579057D01*
X177100500Y-70420943D01*
X177059577Y-70268216D01*
X177059573Y-70268209D01*
X176980524Y-70131290D01*
X176980518Y-70131282D01*
X176868717Y-70019481D01*
X176868709Y-70019475D01*
X176731790Y-69940426D01*
X176731786Y-69940424D01*
X176731784Y-69940423D01*
X176579057Y-69899500D01*
X176420943Y-69899500D01*
X176268216Y-69940423D01*
X176268209Y-69940426D01*
X176131290Y-70019475D01*
X176131282Y-70019481D01*
X176019481Y-70131282D01*
X176019475Y-70131290D01*
X175940426Y-70268209D01*
X175940423Y-70268216D01*
X175899500Y-70420943D01*
X100500500Y-70420943D01*
X100500500Y-67718443D01*
X119399500Y-67718443D01*
X119399500Y-67876556D01*
X119440423Y-68029283D01*
X119440426Y-68029290D01*
X119519475Y-68166209D01*
X119519479Y-68166214D01*
X119519480Y-68166216D01*
X119631284Y-68278020D01*
X119631286Y-68278021D01*
X119631290Y-68278024D01*
X119768209Y-68357073D01*
X119768216Y-68357077D01*
X119920943Y-68398000D01*
X119920945Y-68398000D01*
X120079055Y-68398000D01*
X120079057Y-68398000D01*
X120231784Y-68357077D01*
X120368716Y-68278020D01*
X120480520Y-68166216D01*
X120559577Y-68029284D01*
X120600500Y-67876557D01*
X120600500Y-67718443D01*
X120559577Y-67565716D01*
X120559573Y-67565709D01*
X120480524Y-67428790D01*
X120480518Y-67428782D01*
X120368717Y-67316981D01*
X120368709Y-67316975D01*
X120231790Y-67237926D01*
X120231786Y-67237924D01*
X120231784Y-67237923D01*
X120079057Y-67197000D01*
X119920943Y-67197000D01*
X119768216Y-67237923D01*
X119768209Y-67237926D01*
X119631290Y-67316975D01*
X119631282Y-67316981D01*
X119519481Y-67428782D01*
X119519475Y-67428790D01*
X119440426Y-67565709D01*
X119440423Y-67565716D01*
X119399500Y-67718443D01*
X100500500Y-67718443D01*
X100500500Y-61969273D01*
X113599500Y-61969273D01*
X113599500Y-65941273D01*
X113599500Y-66046727D01*
X113606942Y-66074500D01*
X113626794Y-66148591D01*
X113626795Y-66148593D01*
X113682886Y-66245743D01*
X113699500Y-66307744D01*
X113699500Y-66373057D01*
X113726682Y-66474499D01*
X113740423Y-66525783D01*
X113740426Y-66525790D01*
X113819475Y-66662709D01*
X113819479Y-66662714D01*
X113819480Y-66662716D01*
X113931284Y-66774520D01*
X113931286Y-66774521D01*
X113931290Y-66774524D01*
X114068209Y-66853573D01*
X114068216Y-66853577D01*
X114220943Y-66894500D01*
X114220945Y-66894500D01*
X114379055Y-66894500D01*
X114379057Y-66894500D01*
X114531784Y-66853577D01*
X114668716Y-66774520D01*
X114780520Y-66662716D01*
X114859577Y-66525784D01*
X114900500Y-66373057D01*
X114900500Y-66214943D01*
X114859577Y-66062216D01*
X114812413Y-65980524D01*
X114780524Y-65925290D01*
X114780518Y-65925282D01*
X114668717Y-65813481D01*
X114668709Y-65813475D01*
X114636610Y-65794943D01*
X139773500Y-65794943D01*
X139773500Y-65953057D01*
X139806041Y-66074500D01*
X139814423Y-66105783D01*
X139814426Y-66105790D01*
X139893475Y-66242709D01*
X139893479Y-66242714D01*
X139893480Y-66242716D01*
X140005284Y-66354520D01*
X140005286Y-66354521D01*
X140005290Y-66354524D01*
X140037391Y-66373057D01*
X140142216Y-66433577D01*
X140294943Y-66474500D01*
X140294945Y-66474500D01*
X140453055Y-66474500D01*
X140453057Y-66474500D01*
X140605784Y-66433577D01*
X140742716Y-66354520D01*
X140854520Y-66242716D01*
X140933577Y-66105784D01*
X140974500Y-65953057D01*
X140974500Y-65794943D01*
X140933577Y-65642216D01*
X140911569Y-65604096D01*
X140854524Y-65505290D01*
X140854518Y-65505282D01*
X140742717Y-65393481D01*
X140742709Y-65393475D01*
X140605790Y-65314426D01*
X140605786Y-65314424D01*
X140605784Y-65314423D01*
X140453057Y-65273500D01*
X140294943Y-65273500D01*
X140142216Y-65314423D01*
X140142209Y-65314426D01*
X140005290Y-65393475D01*
X140005282Y-65393481D01*
X139893481Y-65505282D01*
X139893475Y-65505290D01*
X139814426Y-65642209D01*
X139814423Y-65642216D01*
X139773500Y-65794943D01*
X114636610Y-65794943D01*
X114531790Y-65734426D01*
X114531782Y-65734422D01*
X114492403Y-65723870D01*
X114432744Y-65687504D01*
X114402216Y-65624656D01*
X114400500Y-65604096D01*
X114400500Y-64817943D01*
X142692000Y-64817943D01*
X142692000Y-64976057D01*
X142703636Y-65019481D01*
X142732923Y-65128783D01*
X142732926Y-65128790D01*
X142811975Y-65265709D01*
X142811979Y-65265714D01*
X142811980Y-65265716D01*
X142923784Y-65377520D01*
X142923786Y-65377521D01*
X142923790Y-65377524D01*
X142998999Y-65420945D01*
X143060716Y-65456577D01*
X143213443Y-65497500D01*
X143213445Y-65497500D01*
X143371555Y-65497500D01*
X143371557Y-65497500D01*
X143524284Y-65456577D01*
X143661216Y-65377520D01*
X143773020Y-65265716D01*
X143852077Y-65128784D01*
X143893000Y-64976057D01*
X143893000Y-64817943D01*
X143852077Y-64665216D01*
X143796364Y-64568717D01*
X143773024Y-64528290D01*
X143773018Y-64528282D01*
X143661217Y-64416481D01*
X143661209Y-64416475D01*
X143524290Y-64337425D01*
X143524284Y-64337423D01*
X143371557Y-64296500D01*
X143213443Y-64296500D01*
X143060716Y-64337423D01*
X143060709Y-64337426D01*
X142923790Y-64416475D01*
X142923782Y-64416481D01*
X142811981Y-64528282D01*
X142811975Y-64528290D01*
X142732926Y-64665209D01*
X142732923Y-64665216D01*
X142692000Y-64817943D01*
X114400500Y-64817943D01*
X114400500Y-64229131D01*
X147666500Y-64229131D01*
X147666500Y-65818856D01*
X147666502Y-65818882D01*
X147669413Y-65843987D01*
X147669415Y-65843991D01*
X147714793Y-65946764D01*
X147714794Y-65946765D01*
X147794235Y-66026206D01*
X147897009Y-66071585D01*
X147922135Y-66074500D01*
X149511864Y-66074499D01*
X149511879Y-66074497D01*
X149511882Y-66074497D01*
X149536987Y-66071586D01*
X149536988Y-66071585D01*
X149536991Y-66071585D01*
X149639765Y-66026206D01*
X149719206Y-65946765D01*
X149764585Y-65843991D01*
X149767500Y-65818865D01*
X149767500Y-65420943D01*
X169399500Y-65420943D01*
X169399500Y-65579057D01*
X169438303Y-65723870D01*
X169440423Y-65731783D01*
X169440426Y-65731790D01*
X169519475Y-65868709D01*
X169519479Y-65868714D01*
X169519480Y-65868716D01*
X169631284Y-65980520D01*
X169631286Y-65980521D01*
X169631290Y-65980524D01*
X169710413Y-66026205D01*
X169768216Y-66059577D01*
X169920943Y-66100500D01*
X169920945Y-66100500D01*
X170079055Y-66100500D01*
X170079057Y-66100500D01*
X170231784Y-66059577D01*
X170368716Y-65980520D01*
X170480520Y-65868716D01*
X170559577Y-65731784D01*
X170600500Y-65579057D01*
X170600500Y-65420943D01*
X170559577Y-65268216D01*
X170558130Y-65265709D01*
X170480524Y-65131290D01*
X170480518Y-65131282D01*
X170368717Y-65019481D01*
X170368709Y-65019475D01*
X170231790Y-64940426D01*
X170231786Y-64940424D01*
X170231784Y-64940423D01*
X170079057Y-64899500D01*
X169920943Y-64899500D01*
X169768216Y-64940423D01*
X169768209Y-64940426D01*
X169631290Y-65019475D01*
X169631282Y-65019481D01*
X169519481Y-65131282D01*
X169519475Y-65131290D01*
X169440426Y-65268209D01*
X169440423Y-65268216D01*
X169399500Y-65420943D01*
X149767500Y-65420943D01*
X149767499Y-65019481D01*
X149767499Y-64229143D01*
X149767499Y-64229136D01*
X149767497Y-64229117D01*
X149764586Y-64204012D01*
X149764585Y-64204010D01*
X149764585Y-64204009D01*
X149719206Y-64101235D01*
X149639765Y-64021794D01*
X149639763Y-64021793D01*
X149536992Y-63976415D01*
X149511865Y-63973500D01*
X147922143Y-63973500D01*
X147922117Y-63973502D01*
X147897012Y-63976413D01*
X147897008Y-63976415D01*
X147794235Y-64021793D01*
X147714794Y-64101234D01*
X147669415Y-64204006D01*
X147669415Y-64204008D01*
X147666500Y-64229131D01*
X114400500Y-64229131D01*
X114400500Y-63420943D01*
X135399500Y-63420943D01*
X135399500Y-63579057D01*
X135437127Y-63719481D01*
X135440423Y-63731783D01*
X135440426Y-63731790D01*
X135519475Y-63868709D01*
X135519479Y-63868714D01*
X135519480Y-63868716D01*
X135631284Y-63980520D01*
X135631286Y-63980521D01*
X135631290Y-63980524D01*
X135702773Y-64021794D01*
X135768216Y-64059577D01*
X135920943Y-64100500D01*
X135920945Y-64100500D01*
X136079055Y-64100500D01*
X136079057Y-64100500D01*
X136231784Y-64059577D01*
X136368716Y-63980520D01*
X136428293Y-63920943D01*
X160599500Y-63920943D01*
X160599500Y-64079057D01*
X160639716Y-64229143D01*
X160640423Y-64231783D01*
X160640426Y-64231790D01*
X160719475Y-64368709D01*
X160719479Y-64368714D01*
X160719480Y-64368716D01*
X160831284Y-64480520D01*
X160831286Y-64480521D01*
X160831290Y-64480524D01*
X160968209Y-64559573D01*
X160968216Y-64559577D01*
X161120943Y-64600500D01*
X161120945Y-64600500D01*
X161279055Y-64600500D01*
X161279057Y-64600500D01*
X161431784Y-64559577D01*
X161568716Y-64480520D01*
X161680520Y-64368716D01*
X161759577Y-64231784D01*
X161800500Y-64079057D01*
X161800500Y-63920943D01*
X162799500Y-63920943D01*
X162799500Y-64079057D01*
X162839716Y-64229143D01*
X162840423Y-64231783D01*
X162840426Y-64231790D01*
X162919475Y-64368709D01*
X162919479Y-64368714D01*
X162919480Y-64368716D01*
X163031284Y-64480520D01*
X163031286Y-64480521D01*
X163031290Y-64480524D01*
X163168209Y-64559573D01*
X163168216Y-64559577D01*
X163320943Y-64600500D01*
X163320945Y-64600500D01*
X163479055Y-64600500D01*
X163479057Y-64600500D01*
X163631784Y-64559577D01*
X163768716Y-64480520D01*
X163880520Y-64368716D01*
X163959577Y-64231784D01*
X163989277Y-64120943D01*
X167099500Y-64120943D01*
X167099500Y-64279057D01*
X167136323Y-64416480D01*
X167140423Y-64431783D01*
X167140426Y-64431790D01*
X167219475Y-64568709D01*
X167219479Y-64568714D01*
X167219480Y-64568716D01*
X167331284Y-64680520D01*
X167331286Y-64680521D01*
X167331290Y-64680524D01*
X167468209Y-64759573D01*
X167468216Y-64759577D01*
X167620943Y-64800500D01*
X167620945Y-64800500D01*
X167779055Y-64800500D01*
X167779057Y-64800500D01*
X167931784Y-64759577D01*
X168068716Y-64680520D01*
X168180520Y-64568716D01*
X168259577Y-64431784D01*
X168300500Y-64279057D01*
X168300500Y-64120943D01*
X168259577Y-63968216D01*
X168259573Y-63968209D01*
X168180524Y-63831290D01*
X168180518Y-63831282D01*
X168068717Y-63719481D01*
X168068709Y-63719475D01*
X167931790Y-63640426D01*
X167931786Y-63640424D01*
X167931784Y-63640423D01*
X167779057Y-63599500D01*
X167620943Y-63599500D01*
X167468216Y-63640423D01*
X167468209Y-63640426D01*
X167331290Y-63719475D01*
X167331282Y-63719481D01*
X167219481Y-63831282D01*
X167219475Y-63831290D01*
X167140426Y-63968209D01*
X167140423Y-63968216D01*
X167099500Y-64120943D01*
X163989277Y-64120943D01*
X164000500Y-64079057D01*
X164000500Y-63920943D01*
X163959577Y-63768216D01*
X163931437Y-63719475D01*
X163880524Y-63631290D01*
X163880518Y-63631282D01*
X163768717Y-63519481D01*
X163768716Y-63519480D01*
X163631784Y-63440423D01*
X163559084Y-63420943D01*
X169325500Y-63420943D01*
X169325500Y-63579057D01*
X169363127Y-63719481D01*
X169366423Y-63731783D01*
X169366426Y-63731790D01*
X169445475Y-63868709D01*
X169445479Y-63868714D01*
X169445480Y-63868716D01*
X169557284Y-63980520D01*
X169557286Y-63980521D01*
X169557290Y-63980524D01*
X169628773Y-64021794D01*
X169694216Y-64059577D01*
X169846943Y-64100500D01*
X169846945Y-64100500D01*
X170005055Y-64100500D01*
X170005057Y-64100500D01*
X170157784Y-64059577D01*
X170294716Y-63980520D01*
X170406520Y-63868716D01*
X170485577Y-63731784D01*
X170526500Y-63579057D01*
X170526500Y-63420943D01*
X170485577Y-63268216D01*
X170455444Y-63216023D01*
X170406524Y-63131290D01*
X170406518Y-63131282D01*
X170294717Y-63019481D01*
X170294709Y-63019475D01*
X170157790Y-62940426D01*
X170157786Y-62940424D01*
X170157784Y-62940423D01*
X170005057Y-62899500D01*
X169846943Y-62899500D01*
X169694216Y-62940423D01*
X169694209Y-62940426D01*
X169557290Y-63019475D01*
X169557282Y-63019481D01*
X169445481Y-63131282D01*
X169445475Y-63131290D01*
X169366426Y-63268209D01*
X169366423Y-63268216D01*
X169325500Y-63420943D01*
X163559084Y-63420943D01*
X163479057Y-63399500D01*
X163320943Y-63399500D01*
X163168216Y-63440423D01*
X163168209Y-63440426D01*
X163031290Y-63519475D01*
X163031282Y-63519481D01*
X162919481Y-63631282D01*
X162919475Y-63631290D01*
X162840426Y-63768209D01*
X162840423Y-63768216D01*
X162799500Y-63920943D01*
X161800500Y-63920943D01*
X161759577Y-63768216D01*
X161731437Y-63719475D01*
X161680524Y-63631290D01*
X161680518Y-63631282D01*
X161568717Y-63519481D01*
X161568709Y-63519475D01*
X161431790Y-63440426D01*
X161431786Y-63440424D01*
X161431784Y-63440423D01*
X161279057Y-63399500D01*
X161120943Y-63399500D01*
X160968216Y-63440423D01*
X160968209Y-63440426D01*
X160831290Y-63519475D01*
X160831282Y-63519481D01*
X160719481Y-63631282D01*
X160719475Y-63631290D01*
X160640426Y-63768209D01*
X160640423Y-63768216D01*
X160599500Y-63920943D01*
X136428293Y-63920943D01*
X136480520Y-63868716D01*
X136559577Y-63731784D01*
X136600500Y-63579057D01*
X136600500Y-63420943D01*
X136559577Y-63268216D01*
X136529444Y-63216023D01*
X136480524Y-63131290D01*
X136480518Y-63131282D01*
X136368717Y-63019481D01*
X136368709Y-63019475D01*
X136231790Y-62940426D01*
X136231786Y-62940424D01*
X136231784Y-62940423D01*
X136079057Y-62899500D01*
X135920943Y-62899500D01*
X135768216Y-62940423D01*
X135768209Y-62940426D01*
X135631290Y-63019475D01*
X135631282Y-63019481D01*
X135519481Y-63131282D01*
X135519475Y-63131290D01*
X135440426Y-63268209D01*
X135440423Y-63268216D01*
X135399500Y-63420943D01*
X114400500Y-63420943D01*
X114400500Y-62785943D01*
X137194500Y-62785943D01*
X137194500Y-62944057D01*
X137227117Y-63065783D01*
X137235423Y-63096783D01*
X137235426Y-63096790D01*
X137314475Y-63233709D01*
X137314479Y-63233714D01*
X137314480Y-63233716D01*
X137426284Y-63345520D01*
X137426286Y-63345521D01*
X137426290Y-63345524D01*
X137519781Y-63399500D01*
X137563216Y-63424577D01*
X137715943Y-63465500D01*
X137715945Y-63465500D01*
X137874055Y-63465500D01*
X137874057Y-63465500D01*
X138026784Y-63424577D01*
X138163716Y-63345520D01*
X138275520Y-63233716D01*
X138354577Y-63096784D01*
X138395500Y-62944057D01*
X138395500Y-62785943D01*
X138354577Y-62633216D01*
X138353462Y-62631284D01*
X138303544Y-62544822D01*
X138296978Y-62517760D01*
X138287247Y-62491669D01*
X138288855Y-62484276D01*
X138287071Y-62476922D01*
X138296180Y-62450602D01*
X138302099Y-62423396D01*
X138303935Y-62420943D01*
X159149500Y-62420943D01*
X159149500Y-62579057D01*
X159176295Y-62679055D01*
X159190423Y-62731783D01*
X159190426Y-62731790D01*
X159269475Y-62868709D01*
X159269479Y-62868714D01*
X159269480Y-62868716D01*
X159381284Y-62980520D01*
X159381286Y-62980521D01*
X159381290Y-62980524D01*
X159448765Y-63019480D01*
X159518216Y-63059577D01*
X159670943Y-63100500D01*
X159670945Y-63100500D01*
X159829055Y-63100500D01*
X159829057Y-63100500D01*
X159981784Y-63059577D01*
X160118716Y-62980520D01*
X160230520Y-62868716D01*
X160309577Y-62731784D01*
X160350500Y-62579057D01*
X160350500Y-62520943D01*
X164199500Y-62520943D01*
X164199500Y-62679057D01*
X164228141Y-62785945D01*
X164240423Y-62831783D01*
X164240426Y-62831790D01*
X164319475Y-62968709D01*
X164319479Y-62968714D01*
X164319480Y-62968716D01*
X164431284Y-63080520D01*
X164431286Y-63080521D01*
X164431290Y-63080524D01*
X164519221Y-63131290D01*
X164568216Y-63159577D01*
X164720943Y-63200500D01*
X164720945Y-63200500D01*
X164879055Y-63200500D01*
X164879057Y-63200500D01*
X165031784Y-63159577D01*
X165168716Y-63080520D01*
X165280520Y-62968716D01*
X165359577Y-62831784D01*
X165400500Y-62679057D01*
X165400500Y-62520943D01*
X165359577Y-62368216D01*
X165342138Y-62338011D01*
X165280524Y-62231290D01*
X165280518Y-62231282D01*
X165168717Y-62119481D01*
X165168709Y-62119475D01*
X165031790Y-62040426D01*
X165031786Y-62040424D01*
X165031784Y-62040423D01*
X164879057Y-61999500D01*
X164720943Y-61999500D01*
X164568216Y-62040423D01*
X164568209Y-62040426D01*
X164431290Y-62119475D01*
X164431282Y-62119481D01*
X164319481Y-62231282D01*
X164319475Y-62231290D01*
X164240426Y-62368209D01*
X164240423Y-62368216D01*
X164199500Y-62520943D01*
X160350500Y-62520943D01*
X160350500Y-62420943D01*
X160309577Y-62268216D01*
X160288258Y-62231290D01*
X160230524Y-62131290D01*
X160230518Y-62131282D01*
X160118717Y-62019481D01*
X160118709Y-62019475D01*
X159981790Y-61940426D01*
X159981786Y-61940424D01*
X159981784Y-61940423D01*
X159909084Y-61920943D01*
X169399500Y-61920943D01*
X169399500Y-62079057D01*
X169440289Y-62231282D01*
X169440423Y-62231783D01*
X169440426Y-62231790D01*
X169519475Y-62368709D01*
X169519479Y-62368714D01*
X169519480Y-62368716D01*
X169631284Y-62480520D01*
X169631286Y-62480521D01*
X169631290Y-62480524D01*
X169730845Y-62538001D01*
X169768216Y-62559577D01*
X169920943Y-62600500D01*
X169920945Y-62600500D01*
X170079055Y-62600500D01*
X170079057Y-62600500D01*
X170231784Y-62559577D01*
X170368716Y-62480520D01*
X170480520Y-62368716D01*
X170508102Y-62320943D01*
X180199500Y-62320943D01*
X180199500Y-62479057D01*
X180232041Y-62600500D01*
X180240423Y-62631783D01*
X180240426Y-62631790D01*
X180319475Y-62768709D01*
X180319479Y-62768714D01*
X180319480Y-62768716D01*
X180431284Y-62880520D01*
X180431286Y-62880521D01*
X180431290Y-62880524D01*
X180541334Y-62944057D01*
X180568216Y-62959577D01*
X180720943Y-63000500D01*
X180720945Y-63000500D01*
X180879055Y-63000500D01*
X180879057Y-63000500D01*
X181031784Y-62959577D01*
X181168716Y-62880520D01*
X181280520Y-62768716D01*
X181359577Y-62631784D01*
X181400500Y-62479057D01*
X181400500Y-62320943D01*
X191199500Y-62320943D01*
X191199500Y-62479057D01*
X191232041Y-62600500D01*
X191240423Y-62631783D01*
X191240426Y-62631790D01*
X191319475Y-62768709D01*
X191319479Y-62768714D01*
X191319480Y-62768716D01*
X191431284Y-62880520D01*
X191431286Y-62880521D01*
X191431290Y-62880524D01*
X191541334Y-62944057D01*
X191568216Y-62959577D01*
X191720943Y-63000500D01*
X191720945Y-63000500D01*
X191879055Y-63000500D01*
X191879057Y-63000500D01*
X192031784Y-62959577D01*
X192168716Y-62880520D01*
X192280520Y-62768716D01*
X192359577Y-62631784D01*
X192400500Y-62479057D01*
X192400500Y-62320943D01*
X192359577Y-62168216D01*
X192338258Y-62131290D01*
X192280524Y-62031290D01*
X192280518Y-62031282D01*
X192168717Y-61919481D01*
X192168709Y-61919475D01*
X192031790Y-61840426D01*
X192031786Y-61840424D01*
X192031784Y-61840423D01*
X191879057Y-61799500D01*
X191720943Y-61799500D01*
X191568216Y-61840423D01*
X191568209Y-61840426D01*
X191431290Y-61919475D01*
X191431282Y-61919481D01*
X191319481Y-62031282D01*
X191319475Y-62031290D01*
X191240426Y-62168209D01*
X191240423Y-62168216D01*
X191199500Y-62320943D01*
X181400500Y-62320943D01*
X181359577Y-62168216D01*
X181338258Y-62131290D01*
X181280524Y-62031290D01*
X181280518Y-62031282D01*
X181168717Y-61919481D01*
X181168709Y-61919475D01*
X181031790Y-61840426D01*
X181031786Y-61840424D01*
X181031784Y-61840423D01*
X180879057Y-61799500D01*
X180720943Y-61799500D01*
X180568216Y-61840423D01*
X180568209Y-61840426D01*
X180431290Y-61919475D01*
X180431282Y-61919481D01*
X180319481Y-62031282D01*
X180319475Y-62031290D01*
X180240426Y-62168209D01*
X180240423Y-62168216D01*
X180199500Y-62320943D01*
X170508102Y-62320943D01*
X170559577Y-62231784D01*
X170600500Y-62079057D01*
X170600500Y-61920943D01*
X170559577Y-61768216D01*
X170520481Y-61700499D01*
X170480524Y-61631290D01*
X170480518Y-61631282D01*
X170368717Y-61519481D01*
X170368709Y-61519475D01*
X170231790Y-61440426D01*
X170231786Y-61440424D01*
X170231784Y-61440423D01*
X170079057Y-61399500D01*
X169920943Y-61399500D01*
X169768216Y-61440423D01*
X169768209Y-61440426D01*
X169631290Y-61519475D01*
X169631282Y-61519481D01*
X169519481Y-61631282D01*
X169519475Y-61631290D01*
X169440426Y-61768209D01*
X169440423Y-61768216D01*
X169399500Y-61920943D01*
X159909084Y-61920943D01*
X159829057Y-61899500D01*
X159670943Y-61899500D01*
X159518216Y-61940423D01*
X159518209Y-61940426D01*
X159381290Y-62019475D01*
X159381282Y-62019481D01*
X159269481Y-62131282D01*
X159269475Y-62131290D01*
X159190426Y-62268209D01*
X159190423Y-62268216D01*
X159149500Y-62420943D01*
X138303935Y-62420943D01*
X138308605Y-62414704D01*
X138309924Y-62410895D01*
X138323250Y-62395142D01*
X138393257Y-62325135D01*
X138877967Y-61840426D01*
X139448574Y-61269819D01*
X139509897Y-61236334D01*
X139536255Y-61233500D01*
X146610725Y-61233500D01*
X146610727Y-61233500D01*
X146712588Y-61206207D01*
X146803913Y-61153480D01*
X147036450Y-60920943D01*
X157399500Y-60920943D01*
X157399500Y-61079057D01*
X157433570Y-61206206D01*
X157440423Y-61231783D01*
X157440426Y-61231790D01*
X157519475Y-61368709D01*
X157519479Y-61368714D01*
X157519480Y-61368716D01*
X157631284Y-61480520D01*
X157631286Y-61480521D01*
X157631290Y-61480524D01*
X157768209Y-61559573D01*
X157768216Y-61559577D01*
X157920943Y-61600500D01*
X157920945Y-61600500D01*
X158079055Y-61600500D01*
X158079057Y-61600500D01*
X158231784Y-61559577D01*
X158368716Y-61480520D01*
X158480520Y-61368716D01*
X158559577Y-61231784D01*
X158589277Y-61120943D01*
X160599500Y-61120943D01*
X160599500Y-61279057D01*
X160623525Y-61368717D01*
X160640423Y-61431783D01*
X160640426Y-61431790D01*
X160719475Y-61568709D01*
X160719479Y-61568714D01*
X160719480Y-61568716D01*
X160831284Y-61680520D01*
X160831286Y-61680521D01*
X160831290Y-61680524D01*
X160930845Y-61738001D01*
X160968216Y-61759577D01*
X161120943Y-61800500D01*
X161120945Y-61800500D01*
X161279055Y-61800500D01*
X161279057Y-61800500D01*
X161431784Y-61759577D01*
X161568716Y-61680520D01*
X161680520Y-61568716D01*
X161759577Y-61431784D01*
X161800500Y-61279057D01*
X161800500Y-61120943D01*
X161773705Y-61020943D01*
X162699500Y-61020943D01*
X162699500Y-61179057D01*
X162726742Y-61280723D01*
X162740423Y-61331783D01*
X162740426Y-61331790D01*
X162819475Y-61468709D01*
X162819479Y-61468714D01*
X162819480Y-61468716D01*
X162931284Y-61580520D01*
X162931286Y-61580521D01*
X162931290Y-61580524D01*
X163020087Y-61631790D01*
X163068216Y-61659577D01*
X163220943Y-61700500D01*
X163220945Y-61700500D01*
X163379055Y-61700500D01*
X163379057Y-61700500D01*
X163531784Y-61659577D01*
X163668716Y-61580520D01*
X163780520Y-61468716D01*
X163859577Y-61331784D01*
X163900500Y-61179057D01*
X163900500Y-61120943D01*
X182199500Y-61120943D01*
X182199500Y-61279057D01*
X182223525Y-61368717D01*
X182240423Y-61431783D01*
X182240426Y-61431790D01*
X182319475Y-61568709D01*
X182319479Y-61568714D01*
X182319480Y-61568716D01*
X182431284Y-61680520D01*
X182431286Y-61680521D01*
X182431290Y-61680524D01*
X182530845Y-61738001D01*
X182568216Y-61759577D01*
X182720943Y-61800500D01*
X182720945Y-61800500D01*
X182879055Y-61800500D01*
X182879057Y-61800500D01*
X183031784Y-61759577D01*
X183168716Y-61680520D01*
X183280520Y-61568716D01*
X183359577Y-61431784D01*
X183389277Y-61320943D01*
X193599500Y-61320943D01*
X193599500Y-61479057D01*
X193640289Y-61631282D01*
X193640423Y-61631783D01*
X193640423Y-61631784D01*
X193701746Y-61738001D01*
X193718217Y-61805902D01*
X193701746Y-61861999D01*
X193640423Y-61968215D01*
X193640423Y-61968216D01*
X193599500Y-62120943D01*
X193599500Y-62279057D01*
X193638176Y-62423396D01*
X193640423Y-62431783D01*
X193640423Y-62431784D01*
X193701746Y-62538001D01*
X193718217Y-62605902D01*
X193701746Y-62661999D01*
X193640423Y-62768215D01*
X193640423Y-62768216D01*
X193599500Y-62920943D01*
X193599500Y-63079057D01*
X193636200Y-63216021D01*
X193640423Y-63231783D01*
X193640426Y-63231790D01*
X193719475Y-63368709D01*
X193719479Y-63368714D01*
X193719480Y-63368716D01*
X193831284Y-63480520D01*
X193831286Y-63480521D01*
X193831290Y-63480524D01*
X193962971Y-63556549D01*
X193968216Y-63559577D01*
X194120943Y-63600500D01*
X194120945Y-63600500D01*
X194279055Y-63600500D01*
X194279057Y-63600500D01*
X194431784Y-63559577D01*
X194568716Y-63480520D01*
X194680520Y-63368716D01*
X194759577Y-63231784D01*
X194800500Y-63079057D01*
X194800500Y-62920943D01*
X194759577Y-62768216D01*
X194708102Y-62679057D01*
X194698254Y-62661999D01*
X194681781Y-62594099D01*
X194698254Y-62538001D01*
X194747569Y-62452583D01*
X194759577Y-62431784D01*
X194800500Y-62279057D01*
X194800500Y-62120943D01*
X194759577Y-61968216D01*
X194736084Y-61927525D01*
X195474500Y-61927525D01*
X195474500Y-62072475D01*
X195509346Y-62202520D01*
X195512017Y-62212488D01*
X195584488Y-62338011D01*
X195584490Y-62338013D01*
X195584491Y-62338015D01*
X195686985Y-62440509D01*
X195686986Y-62440510D01*
X195686988Y-62440511D01*
X195812511Y-62512982D01*
X195812512Y-62512982D01*
X195812515Y-62512984D01*
X195952525Y-62550500D01*
X195952528Y-62550500D01*
X196097472Y-62550500D01*
X196097475Y-62550500D01*
X196237485Y-62512984D01*
X196363015Y-62440509D01*
X196465509Y-62338015D01*
X196537984Y-62212485D01*
X196575500Y-62072475D01*
X196575500Y-61927525D01*
X196537984Y-61787515D01*
X196527130Y-61768716D01*
X196465511Y-61661988D01*
X196465506Y-61661982D01*
X196363017Y-61559493D01*
X196363011Y-61559488D01*
X196237488Y-61487017D01*
X196237489Y-61487017D01*
X196207774Y-61479055D01*
X196097475Y-61449500D01*
X195952525Y-61449500D01*
X195842226Y-61479055D01*
X195812511Y-61487017D01*
X195686988Y-61559488D01*
X195686982Y-61559493D01*
X195584493Y-61661982D01*
X195584488Y-61661988D01*
X195512017Y-61787511D01*
X195512016Y-61787515D01*
X195474500Y-61927525D01*
X194736084Y-61927525D01*
X194698097Y-61861728D01*
X194697864Y-61861319D01*
X194689929Y-61827686D01*
X194681781Y-61794099D01*
X194681905Y-61793674D01*
X194681821Y-61793316D01*
X194682947Y-61790127D01*
X194698254Y-61738001D01*
X194742139Y-61661988D01*
X194759577Y-61631784D01*
X194800500Y-61479057D01*
X194800500Y-61320943D01*
X194759577Y-61168216D01*
X194756234Y-61162426D01*
X194680524Y-61031290D01*
X194680518Y-61031282D01*
X194568717Y-60919481D01*
X194568709Y-60919475D01*
X194431790Y-60840426D01*
X194431786Y-60840424D01*
X194431784Y-60840423D01*
X194279057Y-60799500D01*
X194120943Y-60799500D01*
X193968216Y-60840423D01*
X193968209Y-60840426D01*
X193831290Y-60919475D01*
X193831282Y-60919481D01*
X193719481Y-61031282D01*
X193719475Y-61031290D01*
X193640426Y-61168209D01*
X193640423Y-61168216D01*
X193599500Y-61320943D01*
X183389277Y-61320943D01*
X183400500Y-61279057D01*
X183400500Y-61120943D01*
X183359577Y-60968216D01*
X183359573Y-60968209D01*
X183280524Y-60831290D01*
X183280518Y-60831282D01*
X183168717Y-60719481D01*
X183168709Y-60719475D01*
X183031790Y-60640426D01*
X183031786Y-60640424D01*
X183031784Y-60640423D01*
X182879057Y-60599500D01*
X182720943Y-60599500D01*
X182568216Y-60640423D01*
X182568209Y-60640426D01*
X182431290Y-60719475D01*
X182431282Y-60719481D01*
X182319481Y-60831282D01*
X182319475Y-60831290D01*
X182240426Y-60968209D01*
X182240423Y-60968216D01*
X182199500Y-61120943D01*
X163900500Y-61120943D01*
X163900500Y-61020943D01*
X163859577Y-60868216D01*
X163838258Y-60831290D01*
X163780524Y-60731290D01*
X163780518Y-60731282D01*
X163668717Y-60619481D01*
X163668709Y-60619475D01*
X163531790Y-60540426D01*
X163531786Y-60540424D01*
X163531784Y-60540423D01*
X163379057Y-60499500D01*
X163220943Y-60499500D01*
X163068216Y-60540423D01*
X163068209Y-60540426D01*
X162931290Y-60619475D01*
X162931282Y-60619481D01*
X162819481Y-60731282D01*
X162819475Y-60731290D01*
X162740426Y-60868209D01*
X162740423Y-60868216D01*
X162699500Y-61020943D01*
X161773705Y-61020943D01*
X161759577Y-60968216D01*
X161759573Y-60968209D01*
X161680524Y-60831290D01*
X161680518Y-60831282D01*
X161568717Y-60719481D01*
X161568709Y-60719475D01*
X161431790Y-60640426D01*
X161431786Y-60640424D01*
X161431784Y-60640423D01*
X161279057Y-60599500D01*
X161120943Y-60599500D01*
X160968216Y-60640423D01*
X160968209Y-60640426D01*
X160831290Y-60719475D01*
X160831282Y-60719481D01*
X160719481Y-60831282D01*
X160719475Y-60831290D01*
X160640426Y-60968209D01*
X160640423Y-60968216D01*
X160599500Y-61120943D01*
X158589277Y-61120943D01*
X158600500Y-61079057D01*
X158600500Y-60920943D01*
X158559577Y-60768216D01*
X158538258Y-60731290D01*
X158480524Y-60631290D01*
X158480518Y-60631282D01*
X158368717Y-60519481D01*
X158368709Y-60519475D01*
X158231790Y-60440426D01*
X158231786Y-60440424D01*
X158231784Y-60440423D01*
X158079057Y-60399500D01*
X157920943Y-60399500D01*
X157768216Y-60440423D01*
X157768209Y-60440426D01*
X157631290Y-60519475D01*
X157631282Y-60519481D01*
X157519481Y-60631282D01*
X157519475Y-60631290D01*
X157440426Y-60768209D01*
X157440423Y-60768216D01*
X157399500Y-60920943D01*
X147036450Y-60920943D01*
X147757574Y-60199819D01*
X147818897Y-60166334D01*
X147845255Y-60163500D01*
X147907055Y-60163500D01*
X147907057Y-60163500D01*
X148059784Y-60122577D01*
X148196716Y-60043520D01*
X148308520Y-59931716D01*
X148387577Y-59794784D01*
X148407363Y-59720943D01*
X180199500Y-59720943D01*
X180199500Y-59879057D01*
X180204576Y-59897999D01*
X180240423Y-60031783D01*
X180240426Y-60031790D01*
X180319475Y-60168709D01*
X180319479Y-60168714D01*
X180319480Y-60168716D01*
X180431284Y-60280520D01*
X180431286Y-60280521D01*
X180431290Y-60280524D01*
X180568209Y-60359573D01*
X180568216Y-60359577D01*
X180720943Y-60400500D01*
X180720945Y-60400500D01*
X180879055Y-60400500D01*
X180879057Y-60400500D01*
X181031784Y-60359577D01*
X181168716Y-60280520D01*
X181280520Y-60168716D01*
X181359577Y-60031784D01*
X181400500Y-59879057D01*
X181400500Y-59720943D01*
X181359577Y-59568216D01*
X181359573Y-59568209D01*
X181280524Y-59431290D01*
X181280518Y-59431282D01*
X181168717Y-59319481D01*
X181168709Y-59319475D01*
X181031790Y-59240426D01*
X181031786Y-59240424D01*
X181031784Y-59240423D01*
X180879057Y-59199500D01*
X180720943Y-59199500D01*
X180568216Y-59240423D01*
X180568209Y-59240426D01*
X180431290Y-59319475D01*
X180431282Y-59319481D01*
X180319481Y-59431282D01*
X180319475Y-59431290D01*
X180240426Y-59568209D01*
X180240423Y-59568216D01*
X180199500Y-59720943D01*
X148407363Y-59720943D01*
X148428500Y-59642057D01*
X148428500Y-59483943D01*
X148387577Y-59331216D01*
X148380798Y-59319475D01*
X148308524Y-59194290D01*
X148308518Y-59194282D01*
X148196717Y-59082481D01*
X148196709Y-59082475D01*
X148059790Y-59003426D01*
X148059786Y-59003424D01*
X148059784Y-59003423D01*
X147907057Y-58962500D01*
X147748943Y-58962500D01*
X147596216Y-59003423D01*
X147596209Y-59003426D01*
X147459290Y-59082475D01*
X147459282Y-59082481D01*
X147347481Y-59194282D01*
X147347475Y-59194290D01*
X147268426Y-59331209D01*
X147268423Y-59331216D01*
X147227500Y-59483943D01*
X147227500Y-59545745D01*
X147207815Y-59612784D01*
X147191181Y-59633426D01*
X146428426Y-60396181D01*
X146367103Y-60429666D01*
X146340745Y-60432500D01*
X139266273Y-60432500D01*
X139164413Y-60459793D01*
X139164410Y-60459794D01*
X139073085Y-60512521D01*
X137474522Y-62111084D01*
X137474520Y-62111087D01*
X137421793Y-62202411D01*
X137421764Y-62202520D01*
X137400581Y-62281577D01*
X137394500Y-62304273D01*
X137394500Y-62370432D01*
X137394009Y-62375931D01*
X137383161Y-62403517D01*
X137374815Y-62431941D01*
X137369286Y-62438801D01*
X137368440Y-62440954D01*
X137366319Y-62442483D01*
X137358181Y-62452583D01*
X137314481Y-62496282D01*
X137314475Y-62496290D01*
X137235426Y-62633209D01*
X137235423Y-62633216D01*
X137194500Y-62785943D01*
X114400500Y-62785943D01*
X114400500Y-62411902D01*
X114420185Y-62344863D01*
X114472989Y-62299108D01*
X114492401Y-62292129D01*
X114531784Y-62281577D01*
X114668716Y-62202520D01*
X114780520Y-62090716D01*
X114859577Y-61953784D01*
X114900500Y-61801057D01*
X114900500Y-61642943D01*
X114859577Y-61490216D01*
X114857730Y-61487017D01*
X114780524Y-61353290D01*
X114780518Y-61353282D01*
X114668717Y-61241481D01*
X114668709Y-61241475D01*
X114531790Y-61162426D01*
X114531786Y-61162424D01*
X114531784Y-61162423D01*
X114379057Y-61121500D01*
X114220943Y-61121500D01*
X114068216Y-61162423D01*
X114068209Y-61162426D01*
X113931290Y-61241475D01*
X113931282Y-61241481D01*
X113819481Y-61353282D01*
X113819475Y-61353290D01*
X113740426Y-61490209D01*
X113740423Y-61490216D01*
X113699500Y-61642943D01*
X113699500Y-61708255D01*
X113682887Y-61770255D01*
X113626792Y-61867413D01*
X113623578Y-61879407D01*
X113623562Y-61879468D01*
X113623281Y-61880520D01*
X113599500Y-61969273D01*
X100500500Y-61969273D01*
X100500500Y-59218443D01*
X124899500Y-59218443D01*
X124899500Y-59376557D01*
X124928275Y-59483945D01*
X124940423Y-59529283D01*
X124940426Y-59529290D01*
X125019475Y-59666209D01*
X125019479Y-59666214D01*
X125019480Y-59666216D01*
X125131284Y-59778020D01*
X125131286Y-59778021D01*
X125131290Y-59778024D01*
X125268209Y-59857073D01*
X125268216Y-59857077D01*
X125420943Y-59898000D01*
X125420945Y-59898000D01*
X125579055Y-59898000D01*
X125579057Y-59898000D01*
X125731784Y-59857077D01*
X125868716Y-59778020D01*
X125980520Y-59666216D01*
X126059577Y-59529284D01*
X126100500Y-59376557D01*
X126100500Y-59218443D01*
X126059577Y-59065716D01*
X126023614Y-59003426D01*
X125980524Y-58928790D01*
X125980518Y-58928782D01*
X125868717Y-58816981D01*
X125868709Y-58816975D01*
X125743944Y-58744942D01*
X125743941Y-58744942D01*
X125731784Y-58737923D01*
X125579057Y-58697000D01*
X125420943Y-58697000D01*
X125268216Y-58737923D01*
X125268209Y-58737926D01*
X125131290Y-58816975D01*
X125131282Y-58816981D01*
X125019481Y-58928782D01*
X125019475Y-58928790D01*
X124940426Y-59065709D01*
X124940423Y-59065716D01*
X124899500Y-59218443D01*
X100500500Y-59218443D01*
X100500500Y-58218443D01*
X111899500Y-58218443D01*
X111899500Y-58376557D01*
X111936123Y-58513234D01*
X111940423Y-58529283D01*
X111940426Y-58529290D01*
X112019475Y-58666209D01*
X112019479Y-58666214D01*
X112019480Y-58666216D01*
X112131284Y-58778020D01*
X112131286Y-58778021D01*
X112131290Y-58778024D01*
X112198765Y-58816980D01*
X112268216Y-58857077D01*
X112420943Y-58898000D01*
X112420945Y-58898000D01*
X112579055Y-58898000D01*
X112579057Y-58898000D01*
X112731784Y-58857077D01*
X112868716Y-58778020D01*
X112980520Y-58666216D01*
X112995003Y-58641131D01*
X129886500Y-58641131D01*
X129886500Y-60230856D01*
X129886502Y-60230882D01*
X129889413Y-60255987D01*
X129889415Y-60255991D01*
X129934793Y-60358764D01*
X129934794Y-60358765D01*
X130014235Y-60438206D01*
X130117009Y-60483585D01*
X130142135Y-60486500D01*
X131731864Y-60486499D01*
X131731879Y-60486497D01*
X131731882Y-60486497D01*
X131756987Y-60483586D01*
X131756988Y-60483585D01*
X131756991Y-60483585D01*
X131859765Y-60438206D01*
X131939206Y-60358765D01*
X131984585Y-60255991D01*
X131987500Y-60230865D01*
X131987499Y-58641136D01*
X131987497Y-58641117D01*
X131984586Y-58616012D01*
X131984585Y-58616010D01*
X131984585Y-58616009D01*
X131939206Y-58513235D01*
X131859765Y-58433794D01*
X131859763Y-58433793D01*
X131756992Y-58388415D01*
X131731865Y-58385500D01*
X130142143Y-58385500D01*
X130142117Y-58385502D01*
X130117012Y-58388413D01*
X130117008Y-58388415D01*
X130014235Y-58433793D01*
X129934794Y-58513234D01*
X129889415Y-58616006D01*
X129889415Y-58616008D01*
X129886500Y-58641131D01*
X112995003Y-58641131D01*
X113059577Y-58529284D01*
X113100500Y-58376557D01*
X113100500Y-58218443D01*
X113059577Y-58065716D01*
X113032153Y-58018216D01*
X112980524Y-57928790D01*
X112980518Y-57928782D01*
X112868717Y-57816981D01*
X112868709Y-57816975D01*
X112731790Y-57737926D01*
X112731786Y-57737924D01*
X112731784Y-57737923D01*
X112579057Y-57697000D01*
X112420943Y-57697000D01*
X112268216Y-57737923D01*
X112268209Y-57737926D01*
X112131290Y-57816975D01*
X112131282Y-57816981D01*
X112019481Y-57928782D01*
X112019475Y-57928790D01*
X111940426Y-58065709D01*
X111940423Y-58065716D01*
X111899500Y-58218443D01*
X100500500Y-58218443D01*
X100500500Y-55662448D01*
X143883500Y-55662448D01*
X143883500Y-55843551D01*
X143911829Y-56022410D01*
X143967787Y-56194636D01*
X143967788Y-56194639D01*
X144023664Y-56304300D01*
X144046695Y-56349500D01*
X144050006Y-56355997D01*
X144156441Y-56502494D01*
X144156445Y-56502499D01*
X144284500Y-56630554D01*
X144284505Y-56630558D01*
X144355284Y-56681981D01*
X144431006Y-56736996D01*
X144523209Y-56783976D01*
X144592360Y-56819211D01*
X144592363Y-56819212D01*
X144678476Y-56847191D01*
X144764591Y-56875171D01*
X144868716Y-56891662D01*
X144896270Y-56896027D01*
X144959405Y-56925956D01*
X144996336Y-56985268D01*
X144995338Y-57055130D01*
X144956728Y-57113363D01*
X144892765Y-57141477D01*
X144876872Y-57142500D01*
X144139143Y-57142500D01*
X144139117Y-57142502D01*
X144114012Y-57145413D01*
X144114008Y-57145415D01*
X144011235Y-57190793D01*
X143931794Y-57270234D01*
X143886415Y-57373006D01*
X143886415Y-57373008D01*
X143883500Y-57398131D01*
X143883500Y-59187856D01*
X143883502Y-59187882D01*
X143886413Y-59212987D01*
X143886415Y-59212991D01*
X143931793Y-59315764D01*
X143931794Y-59315765D01*
X144011235Y-59395206D01*
X144114009Y-59440585D01*
X144139135Y-59443500D01*
X145928864Y-59443499D01*
X145928879Y-59443497D01*
X145928882Y-59443497D01*
X145953987Y-59440586D01*
X145953988Y-59440585D01*
X145953991Y-59440585D01*
X146056765Y-59395206D01*
X146136206Y-59315765D01*
X146181585Y-59212991D01*
X146184500Y-59187865D01*
X146184499Y-58170943D01*
X163149500Y-58170943D01*
X163149500Y-58329057D01*
X163179364Y-58440509D01*
X163190423Y-58481783D01*
X163190426Y-58481790D01*
X163269475Y-58618709D01*
X163269479Y-58618714D01*
X163269480Y-58618716D01*
X163381284Y-58730520D01*
X163381286Y-58730521D01*
X163381290Y-58730524D01*
X163463557Y-58778020D01*
X163518216Y-58809577D01*
X163670943Y-58850500D01*
X163670945Y-58850500D01*
X163829055Y-58850500D01*
X163829057Y-58850500D01*
X163981784Y-58809577D01*
X164118716Y-58730520D01*
X164230520Y-58618716D01*
X164309577Y-58481784D01*
X164350500Y-58329057D01*
X164350500Y-58170943D01*
X167649500Y-58170943D01*
X167649500Y-58329057D01*
X167679364Y-58440509D01*
X167690423Y-58481783D01*
X167690426Y-58481790D01*
X167769475Y-58618709D01*
X167769479Y-58618714D01*
X167769480Y-58618716D01*
X167881284Y-58730520D01*
X167881286Y-58730521D01*
X167881290Y-58730524D01*
X167963557Y-58778020D01*
X168018216Y-58809577D01*
X168170943Y-58850500D01*
X168170945Y-58850500D01*
X168329055Y-58850500D01*
X168329057Y-58850500D01*
X168481784Y-58809577D01*
X168618716Y-58730520D01*
X168730520Y-58618716D01*
X168809577Y-58481784D01*
X168850500Y-58329057D01*
X168850500Y-58170943D01*
X168809577Y-58018216D01*
X168757217Y-57927525D01*
X195474500Y-57927525D01*
X195474500Y-58072475D01*
X195512016Y-58212485D01*
X195512017Y-58212488D01*
X195584488Y-58338011D01*
X195584490Y-58338013D01*
X195584491Y-58338015D01*
X195686985Y-58440509D01*
X195686986Y-58440510D01*
X195686988Y-58440511D01*
X195812511Y-58512982D01*
X195812512Y-58512982D01*
X195812515Y-58512984D01*
X195952525Y-58550500D01*
X195952528Y-58550500D01*
X196097472Y-58550500D01*
X196097475Y-58550500D01*
X196237485Y-58512984D01*
X196363015Y-58440509D01*
X196465509Y-58338015D01*
X196537984Y-58212485D01*
X196575500Y-58072475D01*
X196575500Y-57927525D01*
X196537984Y-57787515D01*
X196527571Y-57769480D01*
X196465511Y-57661988D01*
X196465506Y-57661982D01*
X196363017Y-57559493D01*
X196363011Y-57559488D01*
X196237488Y-57487017D01*
X196237489Y-57487017D01*
X196226006Y-57483940D01*
X196097475Y-57449500D01*
X195952525Y-57449500D01*
X195823993Y-57483940D01*
X195812511Y-57487017D01*
X195686988Y-57559488D01*
X195686982Y-57559493D01*
X195584493Y-57661982D01*
X195584488Y-57661988D01*
X195512017Y-57787511D01*
X195512016Y-57787515D01*
X195474500Y-57927525D01*
X168757217Y-57927525D01*
X168730520Y-57881284D01*
X168618716Y-57769480D01*
X168618714Y-57769479D01*
X168618709Y-57769475D01*
X168481790Y-57690426D01*
X168481786Y-57690424D01*
X168481784Y-57690423D01*
X168329057Y-57649500D01*
X168170943Y-57649500D01*
X168018216Y-57690423D01*
X168018209Y-57690426D01*
X167881290Y-57769475D01*
X167881282Y-57769481D01*
X167769481Y-57881282D01*
X167769475Y-57881290D01*
X167690426Y-58018209D01*
X167690423Y-58018216D01*
X167649500Y-58170943D01*
X164350500Y-58170943D01*
X164309577Y-58018216D01*
X164288320Y-57981397D01*
X164230524Y-57881290D01*
X164230518Y-57881282D01*
X164118717Y-57769481D01*
X164118709Y-57769475D01*
X163981790Y-57690426D01*
X163981786Y-57690424D01*
X163981784Y-57690423D01*
X163829057Y-57649500D01*
X163670943Y-57649500D01*
X163518216Y-57690423D01*
X163518209Y-57690426D01*
X163381290Y-57769475D01*
X163381282Y-57769481D01*
X163269481Y-57881282D01*
X163269475Y-57881290D01*
X163190426Y-58018209D01*
X163190423Y-58018216D01*
X163149500Y-58170943D01*
X146184499Y-58170943D01*
X146184499Y-57398136D01*
X146184053Y-57394290D01*
X146181586Y-57373012D01*
X146181585Y-57373010D01*
X146181585Y-57373009D01*
X146136206Y-57270235D01*
X146056765Y-57190794D01*
X146056763Y-57190793D01*
X145953992Y-57145415D01*
X145928868Y-57142500D01*
X145191128Y-57142500D01*
X145124089Y-57122815D01*
X145078334Y-57070011D01*
X145068390Y-57000853D01*
X145097415Y-56937297D01*
X145156193Y-56899523D01*
X145171730Y-56896027D01*
X145195014Y-56892338D01*
X145303409Y-56875171D01*
X145475639Y-56819211D01*
X145636994Y-56736996D01*
X145783501Y-56630553D01*
X145911553Y-56502501D01*
X145970808Y-56420943D01*
X177399500Y-56420943D01*
X177399500Y-56579057D01*
X177427079Y-56681981D01*
X177440423Y-56731783D01*
X177440426Y-56731790D01*
X177519475Y-56868709D01*
X177519479Y-56868714D01*
X177519480Y-56868716D01*
X177631284Y-56980520D01*
X177631286Y-56980521D01*
X177631290Y-56980524D01*
X177760513Y-57055130D01*
X177768216Y-57059577D01*
X177920943Y-57100500D01*
X177920945Y-57100500D01*
X178079055Y-57100500D01*
X178079057Y-57100500D01*
X178142715Y-57083443D01*
X185199500Y-57083443D01*
X185199500Y-57241557D01*
X185234723Y-57373009D01*
X185240423Y-57394283D01*
X185240426Y-57394290D01*
X185319475Y-57531209D01*
X185319479Y-57531214D01*
X185319480Y-57531216D01*
X185431284Y-57643020D01*
X185431286Y-57643021D01*
X185431290Y-57643024D01*
X185513389Y-57690423D01*
X185568216Y-57722077D01*
X185720943Y-57763000D01*
X185720945Y-57763000D01*
X185879055Y-57763000D01*
X185879057Y-57763000D01*
X186031784Y-57722077D01*
X186168716Y-57643020D01*
X186280520Y-57531216D01*
X186359577Y-57394284D01*
X186400500Y-57241557D01*
X186400500Y-57083443D01*
X186359577Y-56930716D01*
X186341568Y-56899523D01*
X186280524Y-56793790D01*
X186280518Y-56793782D01*
X186168717Y-56681981D01*
X186168709Y-56681975D01*
X186031790Y-56602926D01*
X186031786Y-56602924D01*
X186031784Y-56602923D01*
X185879057Y-56562000D01*
X185720943Y-56562000D01*
X185568216Y-56602923D01*
X185568209Y-56602926D01*
X185431290Y-56681975D01*
X185431282Y-56681981D01*
X185319481Y-56793782D01*
X185319475Y-56793790D01*
X185240426Y-56930709D01*
X185240423Y-56930716D01*
X185199500Y-57083443D01*
X178142715Y-57083443D01*
X178231784Y-57059577D01*
X178333498Y-57000853D01*
X178368710Y-56980524D01*
X178368712Y-56980522D01*
X178368716Y-56980520D01*
X178480520Y-56868716D01*
X178559577Y-56731784D01*
X178600500Y-56579057D01*
X178600500Y-56420943D01*
X178559577Y-56268216D01*
X178559573Y-56268209D01*
X178480524Y-56131290D01*
X178480518Y-56131282D01*
X178368717Y-56019481D01*
X178368709Y-56019475D01*
X178231790Y-55940426D01*
X178231786Y-55940424D01*
X178231784Y-55940423D01*
X178079057Y-55899500D01*
X177920943Y-55899500D01*
X177768216Y-55940423D01*
X177768209Y-55940426D01*
X177631290Y-56019475D01*
X177631282Y-56019481D01*
X177519481Y-56131282D01*
X177519475Y-56131290D01*
X177440426Y-56268209D01*
X177440423Y-56268216D01*
X177399500Y-56420943D01*
X145970808Y-56420943D01*
X146017996Y-56355994D01*
X146100211Y-56194639D01*
X146156171Y-56022409D01*
X146175638Y-55899500D01*
X146184500Y-55843551D01*
X146184500Y-55662448D01*
X146168019Y-55558397D01*
X146156171Y-55483591D01*
X146100211Y-55311361D01*
X146100209Y-55311355D01*
X146027731Y-55169112D01*
X146027730Y-55169110D01*
X146017995Y-55150004D01*
X145996881Y-55120943D01*
X183199500Y-55120943D01*
X183199500Y-55279057D01*
X183208157Y-55311363D01*
X183240423Y-55431783D01*
X183240426Y-55431790D01*
X183319475Y-55568709D01*
X183319479Y-55568714D01*
X183319480Y-55568716D01*
X183431284Y-55680520D01*
X183431286Y-55680521D01*
X183431290Y-55680524D01*
X183568209Y-55759573D01*
X183568216Y-55759577D01*
X183720943Y-55800500D01*
X183720945Y-55800500D01*
X183879055Y-55800500D01*
X183879057Y-55800500D01*
X184031784Y-55759577D01*
X184168716Y-55680520D01*
X184280520Y-55568716D01*
X184359577Y-55431784D01*
X184400500Y-55279057D01*
X184400500Y-55120943D01*
X184359577Y-54968216D01*
X184329009Y-54915270D01*
X184280524Y-54831290D01*
X184280518Y-54831282D01*
X184168717Y-54719481D01*
X184168709Y-54719475D01*
X184031790Y-54640426D01*
X184031786Y-54640424D01*
X184031784Y-54640423D01*
X183879057Y-54599500D01*
X183720943Y-54599500D01*
X183568216Y-54640423D01*
X183568209Y-54640426D01*
X183431290Y-54719475D01*
X183431282Y-54719481D01*
X183319481Y-54831282D01*
X183319475Y-54831290D01*
X183240426Y-54968209D01*
X183240423Y-54968216D01*
X183199500Y-55120943D01*
X145996881Y-55120943D01*
X145911558Y-55003505D01*
X145911554Y-55003500D01*
X145783499Y-54875445D01*
X145783494Y-54875441D01*
X145636997Y-54769006D01*
X145636996Y-54769005D01*
X145636994Y-54769004D01*
X145585300Y-54742664D01*
X145475639Y-54686788D01*
X145475636Y-54686787D01*
X145303410Y-54630829D01*
X145124551Y-54602500D01*
X145124546Y-54602500D01*
X144943454Y-54602500D01*
X144943449Y-54602500D01*
X144764589Y-54630829D01*
X144592363Y-54686787D01*
X144592360Y-54686788D01*
X144431002Y-54769006D01*
X144284505Y-54875441D01*
X144284500Y-54875445D01*
X144156445Y-55003500D01*
X144156441Y-55003505D01*
X144050006Y-55150002D01*
X143967788Y-55311360D01*
X143967787Y-55311363D01*
X143911829Y-55483589D01*
X143883500Y-55662448D01*
X100500500Y-55662448D01*
X100500500Y-53693753D01*
X106185000Y-53693753D01*
X106185000Y-53906246D01*
X106218242Y-54116127D01*
X106218242Y-54116130D01*
X106283904Y-54318217D01*
X106380375Y-54507550D01*
X106419728Y-54561716D01*
X107052037Y-53929408D01*
X107069075Y-53992993D01*
X107134901Y-54107007D01*
X107227993Y-54200099D01*
X107342007Y-54265925D01*
X107405590Y-54282962D01*
X106773282Y-54915269D01*
X106773282Y-54915270D01*
X106827449Y-54954624D01*
X107016782Y-55051095D01*
X107218870Y-55116757D01*
X107428754Y-55150000D01*
X107641246Y-55150000D01*
X107851127Y-55116757D01*
X107851130Y-55116757D01*
X108053217Y-55051095D01*
X108242554Y-54954622D01*
X108296716Y-54915270D01*
X108296717Y-54915270D01*
X107664408Y-54282962D01*
X107727993Y-54265925D01*
X107842007Y-54200099D01*
X107935099Y-54107007D01*
X108000925Y-53992993D01*
X108017962Y-53929408D01*
X108650270Y-54561717D01*
X108650270Y-54561716D01*
X108689621Y-54507555D01*
X108690005Y-54506803D01*
X108690229Y-54506564D01*
X108692168Y-54503402D01*
X108692831Y-54503808D01*
X108737970Y-54455998D01*
X108805787Y-54439190D01*
X108871927Y-54461715D01*
X108915388Y-54516422D01*
X108924500Y-54563076D01*
X108924500Y-54694855D01*
X108924502Y-54694882D01*
X108927413Y-54719987D01*
X108927415Y-54719991D01*
X108972793Y-54822764D01*
X108972794Y-54822765D01*
X109052235Y-54902206D01*
X109155009Y-54947585D01*
X109180135Y-54950500D01*
X110969864Y-54950499D01*
X110969879Y-54950497D01*
X110969882Y-54950497D01*
X110994987Y-54947586D01*
X110994988Y-54947585D01*
X110994991Y-54947585D01*
X111097765Y-54902206D01*
X111177206Y-54822765D01*
X111222585Y-54719991D01*
X111225500Y-54694865D01*
X111225499Y-52905136D01*
X111224179Y-52893753D01*
X111222586Y-52880012D01*
X111222585Y-52880010D01*
X111222585Y-52880009D01*
X111177206Y-52777235D01*
X111097765Y-52697794D01*
X111086892Y-52692993D01*
X110994992Y-52652415D01*
X110969865Y-52649500D01*
X109180143Y-52649500D01*
X109180117Y-52649502D01*
X109155012Y-52652413D01*
X109155008Y-52652415D01*
X109052235Y-52697793D01*
X108972794Y-52777234D01*
X108927415Y-52880006D01*
X108927415Y-52880008D01*
X108924500Y-52905131D01*
X108924500Y-53036920D01*
X108904815Y-53103959D01*
X108852011Y-53149714D01*
X108782853Y-53159658D01*
X108719297Y-53130633D01*
X108692505Y-53096398D01*
X108692171Y-53096604D01*
X108690382Y-53093685D01*
X108690018Y-53093220D01*
X108689627Y-53092454D01*
X108689626Y-53092452D01*
X108650270Y-53038282D01*
X108650269Y-53038282D01*
X108017962Y-53670590D01*
X108000925Y-53607007D01*
X107935099Y-53492993D01*
X107842007Y-53399901D01*
X107727993Y-53334075D01*
X107664409Y-53317037D01*
X108296716Y-52684728D01*
X108242550Y-52645375D01*
X108053217Y-52548904D01*
X107851129Y-52483242D01*
X107641246Y-52450000D01*
X107428754Y-52450000D01*
X107218872Y-52483242D01*
X107218869Y-52483242D01*
X107016782Y-52548904D01*
X106827439Y-52645380D01*
X106773282Y-52684727D01*
X106773282Y-52684728D01*
X107405591Y-53317037D01*
X107342007Y-53334075D01*
X107227993Y-53399901D01*
X107134901Y-53492993D01*
X107069075Y-53607007D01*
X107052037Y-53670591D01*
X106419728Y-53038282D01*
X106419727Y-53038282D01*
X106380380Y-53092439D01*
X106283904Y-53281782D01*
X106218242Y-53483869D01*
X106218242Y-53483872D01*
X106185000Y-53693753D01*
X100500500Y-53693753D01*
X100500500Y-52317631D01*
X137349500Y-52317631D01*
X137349500Y-54107356D01*
X137349502Y-54107382D01*
X137352413Y-54132487D01*
X137352415Y-54132491D01*
X137397793Y-54235264D01*
X137397794Y-54235265D01*
X137477235Y-54314706D01*
X137580009Y-54360085D01*
X137605135Y-54363000D01*
X139394864Y-54362999D01*
X139394879Y-54362997D01*
X139394882Y-54362997D01*
X139419987Y-54360086D01*
X139419988Y-54360085D01*
X139419991Y-54360085D01*
X139522765Y-54314706D01*
X139602206Y-54235265D01*
X139647585Y-54132491D01*
X139650500Y-54107365D01*
X139650499Y-53369625D01*
X139670183Y-53302589D01*
X139722987Y-53256834D01*
X139792146Y-53246890D01*
X139855702Y-53275915D01*
X139893476Y-53334693D01*
X139896972Y-53350229D01*
X139917829Y-53481910D01*
X139973787Y-53654136D01*
X139973788Y-53654139D01*
X140001005Y-53707554D01*
X140048109Y-53800000D01*
X140056006Y-53815497D01*
X140162441Y-53961994D01*
X140162445Y-53961999D01*
X140290500Y-54090054D01*
X140290505Y-54090058D01*
X140386191Y-54159577D01*
X140437006Y-54196496D01*
X140513094Y-54235265D01*
X140598360Y-54278711D01*
X140598363Y-54278712D01*
X140663883Y-54300000D01*
X140770591Y-54334671D01*
X140853429Y-54347791D01*
X140949449Y-54363000D01*
X140949454Y-54363000D01*
X141130551Y-54363000D01*
X141217259Y-54349265D01*
X141309409Y-54334671D01*
X141481639Y-54278711D01*
X141642994Y-54196496D01*
X141789501Y-54090053D01*
X141917553Y-53962001D01*
X142023996Y-53815494D01*
X142106211Y-53654139D01*
X142149488Y-53520943D01*
X180599500Y-53520943D01*
X180599500Y-53679057D01*
X180631907Y-53799999D01*
X180640423Y-53831783D01*
X180640426Y-53831790D01*
X180719475Y-53968709D01*
X180719479Y-53968714D01*
X180719480Y-53968716D01*
X180831284Y-54080520D01*
X180831286Y-54080521D01*
X180831290Y-54080524D01*
X180959637Y-54154624D01*
X180968216Y-54159577D01*
X181120943Y-54200500D01*
X181120945Y-54200500D01*
X181279055Y-54200500D01*
X181279057Y-54200500D01*
X181431784Y-54159577D01*
X181568716Y-54080520D01*
X181680520Y-53968716D01*
X181759577Y-53831784D01*
X181800500Y-53679057D01*
X181800500Y-53520943D01*
X181759577Y-53368216D01*
X181739866Y-53334075D01*
X181680524Y-53231290D01*
X181680518Y-53231282D01*
X181568717Y-53119481D01*
X181568709Y-53119475D01*
X181431790Y-53040426D01*
X181431786Y-53040424D01*
X181431784Y-53040423D01*
X181279057Y-52999500D01*
X181120943Y-52999500D01*
X180968216Y-53040423D01*
X180968209Y-53040426D01*
X180831290Y-53119475D01*
X180831282Y-53119481D01*
X180719481Y-53231282D01*
X180719475Y-53231290D01*
X180640426Y-53368209D01*
X180640423Y-53368216D01*
X180599500Y-53520943D01*
X142149488Y-53520943D01*
X142162171Y-53481909D01*
X142176765Y-53389759D01*
X142190500Y-53303051D01*
X142190500Y-53121948D01*
X142171105Y-52999500D01*
X142162171Y-52943091D01*
X142132087Y-52850499D01*
X142106212Y-52770863D01*
X142106211Y-52770860D01*
X142066535Y-52692993D01*
X142023996Y-52609506D01*
X142010396Y-52590787D01*
X141917558Y-52463005D01*
X141917554Y-52463000D01*
X141789501Y-52334947D01*
X141765648Y-52317617D01*
X141690658Y-52263133D01*
X141690657Y-52263132D01*
X141642997Y-52228506D01*
X141642996Y-52228505D01*
X141642994Y-52228504D01*
X141566906Y-52189735D01*
X141530026Y-52170943D01*
X151649500Y-52170943D01*
X151649500Y-52329057D01*
X151690423Y-52481782D01*
X151690423Y-52481783D01*
X151690426Y-52481790D01*
X151769475Y-52618709D01*
X151769479Y-52618714D01*
X151769480Y-52618716D01*
X151881284Y-52730520D01*
X151881286Y-52730521D01*
X151881290Y-52730524D01*
X152018209Y-52809573D01*
X152018216Y-52809577D01*
X152170943Y-52850500D01*
X152170945Y-52850500D01*
X152329055Y-52850500D01*
X152329057Y-52850500D01*
X152481784Y-52809577D01*
X152618716Y-52730520D01*
X152730520Y-52618716D01*
X152809577Y-52481784D01*
X152850500Y-52329057D01*
X152850500Y-52170943D01*
X157149500Y-52170943D01*
X157149500Y-52329057D01*
X157190423Y-52481782D01*
X157190423Y-52481783D01*
X157190426Y-52481790D01*
X157269475Y-52618709D01*
X157269479Y-52618714D01*
X157269480Y-52618716D01*
X157381284Y-52730520D01*
X157381286Y-52730521D01*
X157381290Y-52730524D01*
X157518209Y-52809573D01*
X157518216Y-52809577D01*
X157670943Y-52850500D01*
X157670945Y-52850500D01*
X157829055Y-52850500D01*
X157829057Y-52850500D01*
X157981784Y-52809577D01*
X158118716Y-52730520D01*
X158230520Y-52618716D01*
X158309577Y-52481784D01*
X158350500Y-52329057D01*
X158350500Y-52170943D01*
X158332866Y-52105131D01*
X186374500Y-52105131D01*
X186374500Y-53894856D01*
X186374502Y-53894882D01*
X186377413Y-53919987D01*
X186377415Y-53919991D01*
X186422793Y-54022764D01*
X186422794Y-54022765D01*
X186502235Y-54102206D01*
X186605009Y-54147585D01*
X186630135Y-54150500D01*
X188419864Y-54150499D01*
X188419879Y-54150497D01*
X188419882Y-54150497D01*
X188444987Y-54147586D01*
X188444988Y-54147585D01*
X188444991Y-54147585D01*
X188547765Y-54102206D01*
X188627206Y-54022765D01*
X188672585Y-53919991D01*
X188675500Y-53894865D01*
X188675499Y-53763076D01*
X188695183Y-53696040D01*
X188747987Y-53650285D01*
X188817145Y-53640341D01*
X188880701Y-53669365D01*
X188907495Y-53703600D01*
X188907829Y-53703396D01*
X188909607Y-53706297D01*
X188909977Y-53706770D01*
X188910373Y-53707547D01*
X188949728Y-53761716D01*
X189582037Y-53129408D01*
X189599075Y-53192993D01*
X189664901Y-53307007D01*
X189757993Y-53400099D01*
X189872007Y-53465925D01*
X189935590Y-53482962D01*
X189303282Y-54115269D01*
X189303282Y-54115270D01*
X189357449Y-54154624D01*
X189546782Y-54251095D01*
X189748870Y-54316757D01*
X189958754Y-54350000D01*
X190171246Y-54350000D01*
X190381127Y-54316757D01*
X190381130Y-54316757D01*
X190583217Y-54251095D01*
X190772554Y-54154622D01*
X190826716Y-54115270D01*
X190826717Y-54115270D01*
X190194408Y-53482962D01*
X190257993Y-53465925D01*
X190372007Y-53400099D01*
X190465099Y-53307007D01*
X190530925Y-53192993D01*
X190547962Y-53129408D01*
X191180270Y-53761717D01*
X191180270Y-53761716D01*
X191219622Y-53707554D01*
X191316095Y-53518217D01*
X191381757Y-53316130D01*
X191381757Y-53316127D01*
X191415000Y-53106246D01*
X191415000Y-52893753D01*
X191381757Y-52683872D01*
X191381757Y-52683869D01*
X191316095Y-52481782D01*
X191219624Y-52292449D01*
X191180270Y-52238282D01*
X191180269Y-52238282D01*
X190547962Y-52870590D01*
X190530925Y-52807007D01*
X190465099Y-52692993D01*
X190372007Y-52599901D01*
X190257993Y-52534075D01*
X190194409Y-52517037D01*
X190826716Y-51884728D01*
X190772550Y-51845375D01*
X190583217Y-51748904D01*
X190381129Y-51683242D01*
X190171246Y-51650000D01*
X189958754Y-51650000D01*
X189748872Y-51683242D01*
X189748869Y-51683242D01*
X189546782Y-51748904D01*
X189357439Y-51845380D01*
X189303282Y-51884727D01*
X189303282Y-51884728D01*
X189935591Y-52517037D01*
X189872007Y-52534075D01*
X189757993Y-52599901D01*
X189664901Y-52692993D01*
X189599075Y-52807007D01*
X189582037Y-52870591D01*
X188949728Y-52238282D01*
X188949727Y-52238282D01*
X188910380Y-52292440D01*
X188910377Y-52292445D01*
X188909981Y-52293223D01*
X188909752Y-52293464D01*
X188907838Y-52296590D01*
X188907180Y-52296187D01*
X188862004Y-52344017D01*
X188794183Y-52360809D01*
X188728049Y-52338268D01*
X188684600Y-52283551D01*
X188675499Y-52236923D01*
X188675499Y-52105143D01*
X188675499Y-52105136D01*
X188673782Y-52090329D01*
X188672586Y-52080012D01*
X188672585Y-52080011D01*
X188672585Y-52080009D01*
X188627206Y-51977235D01*
X188547765Y-51897794D01*
X188547763Y-51897793D01*
X188444992Y-51852415D01*
X188419865Y-51849500D01*
X186630143Y-51849500D01*
X186630117Y-51849502D01*
X186605012Y-51852413D01*
X186605008Y-51852415D01*
X186502235Y-51897793D01*
X186422794Y-51977234D01*
X186377415Y-52080006D01*
X186377415Y-52080008D01*
X186374500Y-52105131D01*
X158332866Y-52105131D01*
X158309577Y-52018216D01*
X158288711Y-51982074D01*
X158230524Y-51881290D01*
X158230518Y-51881282D01*
X158118717Y-51769481D01*
X158118709Y-51769475D01*
X157981790Y-51690426D01*
X157981786Y-51690424D01*
X157981784Y-51690423D01*
X157829057Y-51649500D01*
X157670943Y-51649500D01*
X157518216Y-51690423D01*
X157518209Y-51690426D01*
X157381290Y-51769475D01*
X157381282Y-51769481D01*
X157269481Y-51881282D01*
X157269475Y-51881290D01*
X157190426Y-52018209D01*
X157190423Y-52018216D01*
X157149500Y-52170943D01*
X152850500Y-52170943D01*
X152809577Y-52018216D01*
X152788711Y-51982074D01*
X152730524Y-51881290D01*
X152730518Y-51881282D01*
X152618717Y-51769481D01*
X152618709Y-51769475D01*
X152481790Y-51690426D01*
X152481786Y-51690424D01*
X152481784Y-51690423D01*
X152329057Y-51649500D01*
X152170943Y-51649500D01*
X152018216Y-51690423D01*
X152018209Y-51690426D01*
X151881290Y-51769475D01*
X151881282Y-51769481D01*
X151769481Y-51881282D01*
X151769475Y-51881290D01*
X151690426Y-52018209D01*
X151690423Y-52018216D01*
X151649500Y-52170943D01*
X141530026Y-52170943D01*
X141481639Y-52146288D01*
X141481636Y-52146287D01*
X141309410Y-52090329D01*
X141130551Y-52062000D01*
X141130546Y-52062000D01*
X140949454Y-52062000D01*
X140949449Y-52062000D01*
X140770589Y-52090329D01*
X140598363Y-52146287D01*
X140598360Y-52146288D01*
X140437002Y-52228506D01*
X140290505Y-52334941D01*
X140290500Y-52334945D01*
X140162445Y-52463000D01*
X140162441Y-52463005D01*
X140056006Y-52609502D01*
X139973788Y-52770860D01*
X139973787Y-52770863D01*
X139917829Y-52943089D01*
X139896972Y-53074771D01*
X139867042Y-53137905D01*
X139807731Y-53174836D01*
X139737868Y-53173838D01*
X139679636Y-53135228D01*
X139651522Y-53071264D01*
X139650499Y-53055372D01*
X139650499Y-52317643D01*
X139650499Y-52317636D01*
X139650497Y-52317617D01*
X139647586Y-52292512D01*
X139647585Y-52292510D01*
X139647585Y-52292509D01*
X139602206Y-52189735D01*
X139522765Y-52110294D01*
X139511040Y-52105117D01*
X139419992Y-52064915D01*
X139394865Y-52062000D01*
X137605143Y-52062000D01*
X137605117Y-52062002D01*
X137580012Y-52064913D01*
X137580008Y-52064915D01*
X137477235Y-52110293D01*
X137397794Y-52189734D01*
X137352415Y-52292506D01*
X137352415Y-52292508D01*
X137349500Y-52317631D01*
X100500500Y-52317631D01*
X100500500Y-50624500D01*
X100520185Y-50557461D01*
X100572989Y-50511706D01*
X100624500Y-50500500D01*
X199375500Y-50500500D01*
X199442539Y-50520185D01*
G37*
%TD.AperFunction*%
%TD*%
M02*
