%TF.GenerationSoftware,KiCad,Pcbnew,9.0.6*%
%TF.CreationDate,2025-12-08T21:22:17+01:00*%
%TF.ProjectId,AUPWSW,41555057-5357-42e6-9b69-6361645f7063,rev?*%
%TF.SameCoordinates,Original*%
%TF.FileFunction,Soldermask,Bot*%
%TF.FilePolarity,Negative*%
%FSLAX46Y46*%
G04 Gerber Fmt 4.6, Leading zero omitted, Abs format (unit mm)*
G04 Created by KiCad (PCBNEW 9.0.6) date 2025-12-08 21:22:17*
%MOMM*%
%LPD*%
G01*
G04 APERTURE LIST*
%ADD10R,1.700000X1.700000*%
%ADD11C,1.700000*%
%ADD12C,0.550000*%
%ADD13O,2.150000X1.050000*%
%ADD14R,1.500000X1.500000*%
G04 APERTURE END LIST*
D10*
%TO.C,J9*%
X102600000Y-82590000D03*
D11*
X102600000Y-85130000D03*
X102600000Y-87670000D03*
X102600000Y-90210000D03*
%TD*%
D12*
%TO.C,J7*%
X196025000Y-62000000D03*
X196025000Y-58000000D03*
D13*
X198375000Y-62825000D03*
X198375000Y-57175000D03*
%TD*%
D10*
%TO.C,J6*%
X140190000Y-97000000D03*
D11*
X142730000Y-97000000D03*
X145270000Y-97000000D03*
X147810000Y-97000000D03*
%TD*%
D14*
%TO.C,TP1*%
X148717000Y-65024000D03*
%TD*%
D10*
%TO.C,J3*%
X187525000Y-53000000D03*
D11*
X190065000Y-53000000D03*
%TD*%
D14*
%TO.C,TP2*%
X130937000Y-59436000D03*
%TD*%
D10*
%TO.C,J8*%
X110075000Y-53800000D03*
D11*
X107535000Y-53800000D03*
%TD*%
D10*
%TO.C,J1*%
X138500000Y-53212500D03*
D11*
X141040000Y-53212500D03*
%TD*%
D10*
%TO.C,J10*%
X195680000Y-97000000D03*
D11*
X193140000Y-97000000D03*
X190600000Y-97000000D03*
X188060000Y-97000000D03*
X185520000Y-97000000D03*
X182980000Y-97000000D03*
X180440000Y-97000000D03*
X177900000Y-97000000D03*
X175360000Y-97000000D03*
X172820000Y-97000000D03*
X170280000Y-97000000D03*
X167740000Y-97000000D03*
X165200000Y-97000000D03*
X162660000Y-97000000D03*
X160120000Y-97000000D03*
X157580000Y-97000000D03*
X155040000Y-97000000D03*
X152500000Y-97000000D03*
%TD*%
D10*
%TO.C,J4*%
X135700000Y-97000000D03*
D11*
X133160000Y-97000000D03*
X130620000Y-97000000D03*
X128080000Y-97000000D03*
X125540000Y-97000000D03*
X123000000Y-97000000D03*
X120460000Y-97000000D03*
X117920000Y-97000000D03*
X115380000Y-97000000D03*
X112840000Y-97000000D03*
X110300000Y-97000000D03*
X107760000Y-97000000D03*
X105220000Y-97000000D03*
X102680000Y-97000000D03*
%TD*%
D10*
%TO.C,J5*%
X119420000Y-83770000D03*
D11*
X119420000Y-81230000D03*
X121960000Y-83770000D03*
X121960000Y-81230000D03*
X124500000Y-83770000D03*
X124500000Y-81230000D03*
%TD*%
D10*
%TO.C,J2*%
X145034000Y-58293000D03*
D11*
X145034000Y-55753000D03*
%TD*%
M02*
