M48
; DRILL file {KiCad 9.0.6} date 2025-12-08T21:22:21+0100
; FORMAT={-:-/ absolute / metric / decimal}
; #@! TF.CreationDate,2025-12-08T21:22:21+01:00
; #@! TF.GenerationSoftware,Kicad,Pcbnew,9.0.6
; #@! TF.FileFunction,Plated,1,4,PTH
FMAT,2
METRIC
; #@! TA.AperFunction,Plated,PTH,ViaDrill
T1C0.300
; #@! TA.AperFunction,Plated,PTH,ComponentDrill
T2C0.500
; #@! TA.AperFunction,Plated,PTH,ComponentDrill
T3C0.700
; #@! TA.AperFunction,Plated,PTH,ComponentDrill
T4C1.000
%
G90
G05
T1
X102.2Y-52.6
X102.2Y-57.6
X102.2Y-62.6
X102.2Y-67.6
X102.2Y-72.6
X102.2Y-77.6
X106.5Y-72.797
X107.2Y-77.6
X107.2Y-82.8
X107.315Y-86.487
X111.5Y-72.797
X112.4Y-77.6
X112.4Y-82.8
X112.5Y-58.297
X114.3Y-61.722
X114.3Y-66.294
X114.6Y-52.0
X115.443Y-86.36
X118.0Y-67.797
X120.0Y-67.797
X125.5Y-59.297
X125.73Y-87.63
X128.8Y-52.0
X129.857Y-91.757
X132.0Y-56.8
X132.0Y-61.8
X132.0Y-69.0
X132.0Y-74.0
X133.0Y-78.4
X133.477Y-90.551
X134.2Y-52.0
X136.0Y-58.5
X136.0Y-63.5
X136.334Y-85.788
X136.398Y-84.7
X136.5Y-66.0
X137.552Y-86.545
X137.552Y-88.545
X137.782Y-90.208
X137.795Y-62.865
X138.0Y-78.4
X140.374Y-65.874
X140.564Y-85.903
X140.767Y-88.544
X141.097Y-85.249
X141.376Y-93.777
X141.496Y-76.835
X141.757Y-86.538
X142.0Y-74.0
X143.002Y-80.518
X143.292Y-64.897
X144.2Y-52.0
X144.907Y-78.232
X144.996Y-75.335
X145.923Y-84.201
X146.05Y-91.44
X146.075Y-78.334
X146.65Y-76.454
X146.71Y-92.05
X147.0Y-62.0
X147.0Y-66.5
X147.447Y-82.931
X147.828Y-59.563
X147.93Y-90.983
X148.209Y-86.868
X148.438Y-93.066
X148.971Y-77.343
X149.212Y-90.985
X149.657Y-90.272
X149.733Y-85.344
X149.931Y-93.956
X149.987Y-82.423
X150.0Y-52.0
X150.198Y-77.681
X151.2Y-62.0
X151.5Y-69.0
X151.5Y-71.5
X151.511Y-79.629
X151.931Y-93.956
X152.019Y-80.645
X152.25Y-52.25
X152.781Y-80.899
X153.162Y-89.027
X153.289Y-77.399
X153.416Y-81.661
X153.448Y-84.042
X154.051Y-78.0
X154.559Y-85.999
X154.559Y-86.919
X155.0Y-66.0
X155.0Y-73.6
X156.0Y-70.0
X156.27Y-88.47
X156.464Y-92.964
X156.5Y-64.5
X156.5Y-83.0
X157.75Y-52.25
X158.0Y-61.0
X159.75Y-62.5
X161.0Y-70.0
X161.2Y-61.2
X161.2Y-64.0
X163.25Y-52.75
X163.3Y-61.1
X163.4Y-64.0
X163.75Y-58.25
X164.723Y-83.0
X164.723Y-86.5
X164.8Y-62.6
X164.846Y-84.48
X164.85Y-85.55
X167.7Y-64.2
X167.7Y-73.7
X168.148Y-81.788
X168.148Y-88.392
X168.25Y-58.25
X168.75Y-52.75
X169.926Y-63.5
X170.0Y-62.0
X170.0Y-65.5
X171.45Y-91.694
X172.415Y-75.54
X172.9Y-68.7
X173.2Y-52.0
X173.22Y-55.22
X173.904Y-75.759
X175.768Y-89.662
X176.022Y-94.234
X176.5Y-70.5
X176.911Y-92.583
X177.4Y-71.7
X178.0Y-56.5
X178.482Y-79.614
X180.8Y-59.8
X180.8Y-62.4
X181.2Y-53.6
X182.8Y-61.2
X183.6Y-69.55
X183.8Y-55.2
X184.4Y-52.0
X185.8Y-57.162
X185.8Y-66.562
X186.25Y-92.5
X187.8Y-69.8
X187.8Y-74.8
X189.25Y-84.5
X191.7Y-58.2
X191.8Y-62.4
X192.8Y-69.8
X192.8Y-74.8
X192.8Y-79.8
X192.8Y-84.8
X192.8Y-89.8
X193.8Y-52.0
X194.2Y-61.4
X194.2Y-62.2
X194.2Y-63.0
X194.25Y-58.0
X194.25Y-58.75
X194.25Y-59.4
X194.75Y-66.0
X197.8Y-69.8
X197.8Y-74.8
X197.8Y-79.8
X197.8Y-84.8
X197.8Y-89.8
X198.5Y-52.0
T3
X130.937Y-59.436
X148.717Y-65.024
T4
X102.6Y-82.59
X102.6Y-85.13
X102.6Y-87.67
X102.6Y-90.21
X102.68Y-97.0
X105.22Y-97.0
X107.535Y-53.8
X107.76Y-97.0
X110.075Y-53.8
X110.3Y-97.0
X112.84Y-97.0
X115.38Y-97.0
X117.92Y-97.0
X119.42Y-81.23
X119.42Y-83.77
X120.46Y-97.0
X121.96Y-81.23
X121.96Y-83.77
X123.0Y-97.0
X124.5Y-81.23
X124.5Y-83.77
X125.54Y-97.0
X128.08Y-97.0
X130.62Y-97.0
X133.16Y-97.0
X135.7Y-97.0
X138.5Y-53.212
X140.19Y-97.0
X141.04Y-53.212
X142.73Y-97.0
X145.034Y-55.753
X145.034Y-58.293
X145.27Y-97.0
X147.81Y-97.0
X152.5Y-97.0
X155.04Y-97.0
X157.58Y-97.0
X160.12Y-97.0
X162.66Y-97.0
X165.2Y-97.0
X167.74Y-97.0
X170.28Y-97.0
X172.82Y-97.0
X175.36Y-97.0
X177.9Y-97.0
X180.44Y-97.0
X182.98Y-97.0
X185.52Y-97.0
X187.525Y-53.0
X188.06Y-97.0
X190.065Y-53.0
X190.6Y-97.0
X193.14Y-97.0
X195.68Y-97.0
T2
G00X197.85Y-57.175
M15
G01X198.9Y-57.175
M16
G05
G00X197.85Y-62.825
M15
G01X198.9Y-62.825
M16
G05
M30
