%TF.GenerationSoftware,KiCad,Pcbnew,9.0.6*%
%TF.CreationDate,2025-12-08T21:22:16+01:00*%
%TF.ProjectId,AUPWSW,41555057-5357-42e6-9b69-6361645f7063,rev?*%
%TF.SameCoordinates,Original*%
%TF.FileFunction,Copper,L2,Inr*%
%TF.FilePolarity,Positive*%
%FSLAX46Y46*%
G04 Gerber Fmt 4.6, Leading zero omitted, Abs format (unit mm)*
G04 Created by KiCad (PCBNEW 9.0.6) date 2025-12-08 21:22:16*
%MOMM*%
%LPD*%
G01*
G04 APERTURE LIST*
%TA.AperFunction,ComponentPad*%
%ADD10R,1.700000X1.700000*%
%TD*%
%TA.AperFunction,ComponentPad*%
%ADD11C,1.700000*%
%TD*%
%TA.AperFunction,HeatsinkPad*%
%ADD12O,2.150000X1.050000*%
%TD*%
%TA.AperFunction,ComponentPad*%
%ADD13R,1.500000X1.500000*%
%TD*%
%TA.AperFunction,ViaPad*%
%ADD14C,0.600000*%
%TD*%
G04 APERTURE END LIST*
D10*
%TO.N,+3.3V*%
%TO.C,J9*%
X102600000Y-82590000D03*
D11*
%TO.N,UART_TX*%
X102600000Y-85130000D03*
%TO.N,UART_RX*%
X102600000Y-87670000D03*
%TO.N,GND*%
X102600000Y-90210000D03*
%TD*%
D12*
%TO.N,Net-(J7-Shield)*%
%TO.C,J7*%
X198375000Y-62825000D03*
X198375000Y-57175000D03*
%TD*%
D10*
%TO.N,+3.3V*%
%TO.C,J6*%
X140190000Y-97000000D03*
D11*
%TO.N,SWDIO*%
X142730000Y-97000000D03*
%TO.N,SWCLK*%
X145270000Y-97000000D03*
%TO.N,GND*%
X147810000Y-97000000D03*
%TD*%
D13*
%TO.N,INadc*%
%TO.C,TP1*%
X148717000Y-65024000D03*
%TD*%
D10*
%TO.N,VBUS*%
%TO.C,J3*%
X187525000Y-53000000D03*
D11*
%TO.N,GND*%
X190065000Y-53000000D03*
%TD*%
D13*
%TO.N,Vref*%
%TO.C,TP2*%
X130937000Y-59436000D03*
%TD*%
D10*
%TO.N,+3.3VA*%
%TO.C,J8*%
X110075000Y-53800000D03*
D11*
%TO.N,GND*%
X107535000Y-53800000D03*
%TD*%
D10*
%TO.N,IN+*%
%TO.C,J1*%
X138500000Y-53212500D03*
D11*
%TO.N,IN-*%
X141040000Y-53212500D03*
%TD*%
D10*
%TO.N,+3.3V*%
%TO.C,J10*%
X195680000Y-97000000D03*
D11*
%TO.N,GND*%
X193140000Y-97000000D03*
%TO.N,PA5*%
X190600000Y-97000000D03*
%TO.N,PA4*%
X188060000Y-97000000D03*
%TO.N,PA3*%
X185520000Y-97000000D03*
%TO.N,PA2*%
X182980000Y-97000000D03*
%TO.N,PA1*%
X180440000Y-97000000D03*
%TO.N,PA0*%
X177900000Y-97000000D03*
%TO.N,+3.3V*%
X175360000Y-97000000D03*
%TO.N,GND*%
X172820000Y-97000000D03*
%TO.N,PB9*%
X170280000Y-97000000D03*
%TO.N,PB8*%
X167740000Y-97000000D03*
%TO.N,PB7*%
X165200000Y-97000000D03*
%TO.N,PB6*%
X162660000Y-97000000D03*
%TO.N,PB5*%
X160120000Y-97000000D03*
%TO.N,PB4*%
X157580000Y-97000000D03*
%TO.N,PB3*%
X155040000Y-97000000D03*
%TO.N,PA15*%
X152500000Y-97000000D03*
%TD*%
D10*
%TO.N,+3.3V*%
%TO.C,J4*%
X135700000Y-97000000D03*
D11*
%TO.N,GND*%
X133160000Y-97000000D03*
%TO.N,PA6*%
X130620000Y-97000000D03*
%TO.N,PA7*%
X128080000Y-97000000D03*
%TO.N,PB1*%
X125540000Y-97000000D03*
%TO.N,PB10*%
X123000000Y-97000000D03*
%TO.N,PB11*%
X120460000Y-97000000D03*
%TO.N,+3.3V*%
X117920000Y-97000000D03*
%TO.N,GND*%
X115380000Y-97000000D03*
%TO.N,PA8*%
X112840000Y-97000000D03*
%TO.N,PB15*%
X110300000Y-97000000D03*
%TO.N,PB14*%
X107760000Y-97000000D03*
%TO.N,PB13*%
X105220000Y-97000000D03*
%TO.N,PB12*%
X102680000Y-97000000D03*
%TD*%
D10*
%TO.N,+3.3V*%
%TO.C,J5*%
X119420000Y-83770000D03*
D11*
X119420000Y-81230000D03*
%TO.N,Net-(J5-Pin_3)*%
X121960000Y-83770000D03*
%TO.N,Net-(J5-Pin_4)*%
X121960000Y-81230000D03*
%TO.N,GND*%
X124500000Y-83770000D03*
X124500000Y-81230000D03*
%TD*%
D10*
%TO.N,IN-*%
%TO.C,J2*%
X145034000Y-58293000D03*
D11*
%TO.N,Net-(J2-Pin_2)*%
X145034000Y-55753000D03*
%TD*%
D14*
%TO.N,GND*%
X187800000Y-69800000D03*
X148209000Y-86868000D03*
X153162000Y-89027000D03*
X151500000Y-69000000D03*
X133000000Y-78400000D03*
X164723000Y-83000000D03*
X151200000Y-62000000D03*
X132000000Y-74000000D03*
X114600000Y-52000000D03*
X198500000Y-52000000D03*
X115443000Y-86360000D03*
X149930800Y-93956000D03*
X192800000Y-74800000D03*
X102200000Y-72600000D03*
X194750000Y-66000000D03*
X192800000Y-84800000D03*
X193800000Y-52000000D03*
X137782250Y-90208050D03*
X151500000Y-71500000D03*
X176022000Y-94234000D03*
X168148000Y-81788000D03*
X164723000Y-86500000D03*
X142000000Y-74000000D03*
X156000000Y-70000000D03*
X138000000Y-78400000D03*
X136500000Y-66000000D03*
X102200000Y-57600000D03*
X107200000Y-77600000D03*
X168148000Y-88392000D03*
X172900000Y-68700000D03*
X102200000Y-77600000D03*
X187800000Y-74800000D03*
X112400000Y-82800000D03*
X171450000Y-91694000D03*
X185800000Y-66562500D03*
X194250000Y-59400000D03*
X143002000Y-80518000D03*
X197800000Y-74800000D03*
X150000000Y-52000000D03*
X132000000Y-61800000D03*
X133477000Y-90551000D03*
X168750000Y-52750000D03*
X144996500Y-75335000D03*
X147447000Y-82931000D03*
X184400000Y-52000000D03*
X197800000Y-84800000D03*
X156500000Y-64500000D03*
X144200000Y-52000000D03*
X192800000Y-89800000D03*
X147000000Y-66500000D03*
X106500000Y-72797500D03*
X197800000Y-79800000D03*
X137552250Y-86545050D03*
X107200000Y-82800000D03*
X194250000Y-58750000D03*
X134200000Y-52000000D03*
X189250000Y-84500000D03*
X167700000Y-73700000D03*
X156464000Y-92964000D03*
X194250000Y-58000000D03*
X177400000Y-71700000D03*
X197800000Y-69800000D03*
X136000000Y-58500000D03*
X102200000Y-62600000D03*
X163250000Y-52750000D03*
X132000000Y-69000000D03*
X192800000Y-69800000D03*
X173200000Y-52000000D03*
X102200000Y-52600000D03*
X197800000Y-89800000D03*
X156270000Y-88470000D03*
X112400000Y-77600000D03*
X161000000Y-70000000D03*
X147000000Y-62000000D03*
X149733000Y-85344000D03*
X183600000Y-69550000D03*
X192800000Y-79800000D03*
X156500000Y-83000000D03*
X145923000Y-84201000D03*
X173220000Y-55220000D03*
X149987000Y-82423000D03*
X155000000Y-66000000D03*
X132000000Y-56800000D03*
X107315000Y-86487000D03*
X191700000Y-58200000D03*
X128800000Y-52000000D03*
X111500000Y-72797500D03*
X102200000Y-67600000D03*
X175768000Y-89662000D03*
X118000000Y-67797500D03*
%TO.N,VBUS*%
X180800000Y-59800000D03*
X194200000Y-63000000D03*
X183800000Y-55200000D03*
X191800000Y-62400000D03*
X182800000Y-61200000D03*
X185800000Y-57162500D03*
X194200000Y-62200000D03*
X194200000Y-61400000D03*
X180800000Y-62400000D03*
X181200000Y-53600000D03*
%TO.N,+3.3V*%
X176500000Y-70500000D03*
X170000000Y-65500000D03*
X137552250Y-88545050D03*
X163300000Y-61100000D03*
X178482000Y-79614000D03*
X167700000Y-64200000D03*
X163400000Y-64000000D03*
X141496500Y-76835000D03*
X178000000Y-56500000D03*
X164800000Y-62600000D03*
X169926000Y-63500000D03*
X163750000Y-58250000D03*
X168250000Y-58250000D03*
X186250000Y-92500000D03*
X151930800Y-93956000D03*
X170000000Y-62000000D03*
%TO.N,RESET*%
X176911000Y-92583000D03*
X153447750Y-84042250D03*
%TO.N,+3.3VA*%
X143292500Y-64897000D03*
X125500000Y-59297500D03*
X140374000Y-65874000D03*
X120000000Y-67797500D03*
X158000000Y-61000000D03*
X157750000Y-52250000D03*
X159750000Y-62500000D03*
X152250000Y-52250000D03*
X155000000Y-73600000D03*
X112500000Y-58297500D03*
X136000000Y-63500000D03*
X161200000Y-61200000D03*
X161200000Y-64000000D03*
%TO.N,UART_TX*%
X136398000Y-84700000D03*
%TO.N,UART_RX*%
X136334500Y-85788500D03*
%TO.N,Vref*%
X137795000Y-62865000D03*
X147828000Y-59563000D03*
%TO.N,SWDIO*%
X140766800Y-88544400D03*
X141757400Y-86537800D03*
%TO.N,BOOT0*%
X129857500Y-91757500D03*
X125730000Y-87630000D03*
X147929600Y-90982800D03*
X141376400Y-93776800D03*
%TO.N,Net-(U3-PC14)*%
X164850000Y-85550000D03*
X154559000Y-86918800D03*
%TO.N,Net-(U3-PC15)*%
X164846000Y-84480400D03*
X154559000Y-85998661D03*
%TO.N,Net-(U3-PA11)*%
X141097000Y-85249000D03*
X173904300Y-75758700D03*
%TO.N,Net-(U3-PA12)*%
X172415200Y-75539600D03*
X140563600Y-85902800D03*
%TO.N,Net-(U4A--)*%
X114300000Y-61722000D03*
X114300000Y-66294000D03*
%TO.N,PA5*%
X153289000Y-77399000D03*
%TO.N,PA0*%
X153416000Y-81661000D03*
%TO.N,PA6*%
X150197735Y-77680735D03*
%TO.N,PA2*%
X152019000Y-80645000D03*
%TO.N,PB10*%
X146075000Y-78334000D03*
%TO.N,PB11*%
X144907000Y-78232000D03*
%TO.N,PA4*%
X154051000Y-78000000D03*
%TO.N,PB8*%
X149212234Y-90984993D03*
%TO.N,PB6*%
X146710400Y-92049600D03*
%TO.N,PB7*%
X148437600Y-93065600D03*
%TO.N,PA7*%
X148971000Y-77343000D03*
%TO.N,PB9*%
X149656800Y-90271600D03*
%TO.N,PA1*%
X152781000Y-80899000D03*
%TO.N,PB1*%
X146650000Y-76454000D03*
%TO.N,PA3*%
X151511000Y-79629000D03*
%TO.N,PB5*%
X146050000Y-91440000D03*
%TD*%
%TA.AperFunction,Conductor*%
%TO.N,GND*%
G36*
X124034075Y-81422993D02*
G01*
X124099901Y-81537007D01*
X124192993Y-81630099D01*
X124307007Y-81695925D01*
X124370591Y-81712962D01*
X123769971Y-82313581D01*
X123848711Y-82430895D01*
X123849920Y-82434729D01*
X123852844Y-82437491D01*
X123860343Y-82467778D01*
X123869727Y-82497529D01*
X123868671Y-82501408D01*
X123869638Y-82505312D01*
X123859573Y-82534844D01*
X123851383Y-82564947D01*
X123848397Y-82567640D01*
X123847100Y-82571447D01*
X123802051Y-82610483D01*
X123792440Y-82615380D01*
X123738282Y-82654727D01*
X123738282Y-82654728D01*
X124370591Y-83287037D01*
X124307007Y-83304075D01*
X124192993Y-83369901D01*
X124099901Y-83462993D01*
X124034075Y-83577007D01*
X124017037Y-83640591D01*
X123384728Y-83008282D01*
X123384727Y-83008282D01*
X123345380Y-83062439D01*
X123248905Y-83251781D01*
X123239506Y-83280708D01*
X123200068Y-83338383D01*
X123135709Y-83365581D01*
X123066862Y-83353666D01*
X123015387Y-83306421D01*
X123011090Y-83298684D01*
X122987191Y-83251781D01*
X122943996Y-83167006D01*
X122930396Y-83148287D01*
X122837558Y-83020505D01*
X122837554Y-83020500D01*
X122709499Y-82892445D01*
X122709494Y-82892441D01*
X122562997Y-82786006D01*
X122562996Y-82786005D01*
X122562994Y-82786004D01*
X122486906Y-82747235D01*
X122401639Y-82703788D01*
X122401636Y-82703787D01*
X122229410Y-82647829D01*
X122069321Y-82622473D01*
X122006186Y-82592544D01*
X121969255Y-82533232D01*
X121970253Y-82463370D01*
X122008863Y-82405137D01*
X122069321Y-82377527D01*
X122139425Y-82366422D01*
X122229409Y-82352171D01*
X122401639Y-82296211D01*
X122562994Y-82213996D01*
X122662752Y-82141518D01*
X122709495Y-82107558D01*
X122709497Y-82107555D01*
X122709501Y-82107553D01*
X122837553Y-81979501D01*
X122943996Y-81832994D01*
X123011090Y-81701314D01*
X123059065Y-81650519D01*
X123126886Y-81633724D01*
X123193021Y-81656262D01*
X123236472Y-81710977D01*
X123239506Y-81719292D01*
X123248904Y-81748217D01*
X123345375Y-81937550D01*
X123384728Y-81991716D01*
X124017037Y-81359408D01*
X124034075Y-81422993D01*
G37*
%TD.AperFunction*%
%TA.AperFunction,Conductor*%
G36*
X199442539Y-50520185D02*
G01*
X199488294Y-50572989D01*
X199499500Y-50624500D01*
X199499500Y-56334641D01*
X199479815Y-56401680D01*
X199427011Y-56447435D01*
X199357853Y-56457379D01*
X199321749Y-56445543D01*
X199321650Y-56445783D01*
X199318497Y-56444477D01*
X199317057Y-56444005D01*
X199316021Y-56443451D01*
X199165793Y-56381225D01*
X199165783Y-56381222D01*
X199006307Y-56349500D01*
X199006305Y-56349500D01*
X197743695Y-56349500D01*
X197743693Y-56349500D01*
X197584216Y-56381222D01*
X197584206Y-56381225D01*
X197433980Y-56443450D01*
X197433976Y-56443452D01*
X197298779Y-56533788D01*
X197298771Y-56533794D01*
X197183794Y-56648771D01*
X197183788Y-56648779D01*
X197093452Y-56783976D01*
X197093450Y-56783980D01*
X197031225Y-56934206D01*
X197031222Y-56934216D01*
X196999500Y-57093692D01*
X196999500Y-57093695D01*
X196999500Y-57256305D01*
X196999500Y-57256307D01*
X196999499Y-57256307D01*
X197031222Y-57415783D01*
X197031225Y-57415793D01*
X197093450Y-57566019D01*
X197093452Y-57566023D01*
X197183788Y-57701220D01*
X197183794Y-57701228D01*
X197298771Y-57816205D01*
X197298779Y-57816211D01*
X197433976Y-57906547D01*
X197433980Y-57906549D01*
X197584206Y-57968774D01*
X197584211Y-57968776D01*
X197584215Y-57968776D01*
X197584216Y-57968777D01*
X197743692Y-58000500D01*
X197743695Y-58000500D01*
X199006307Y-58000500D01*
X199144252Y-57973060D01*
X199165789Y-57968776D01*
X199316021Y-57906548D01*
X199316026Y-57906544D01*
X199317044Y-57906001D01*
X199317645Y-57905875D01*
X199321650Y-57904217D01*
X199321964Y-57904976D01*
X199385447Y-57891758D01*
X199450691Y-57916756D01*
X199492063Y-57973060D01*
X199499500Y-58015358D01*
X199499500Y-61984641D01*
X199479815Y-62051680D01*
X199427011Y-62097435D01*
X199357853Y-62107379D01*
X199321749Y-62095543D01*
X199321650Y-62095783D01*
X199318497Y-62094477D01*
X199317057Y-62094005D01*
X199316021Y-62093451D01*
X199165793Y-62031225D01*
X199165783Y-62031222D01*
X199006307Y-61999500D01*
X199006305Y-61999500D01*
X197743695Y-61999500D01*
X197743693Y-61999500D01*
X197584216Y-62031222D01*
X197584206Y-62031225D01*
X197433980Y-62093450D01*
X197433976Y-62093452D01*
X197298779Y-62183788D01*
X197298771Y-62183794D01*
X197183794Y-62298771D01*
X197183788Y-62298779D01*
X197093452Y-62433976D01*
X197093450Y-62433980D01*
X197031225Y-62584206D01*
X197031222Y-62584216D01*
X196999500Y-62743692D01*
X196999500Y-62743695D01*
X196999500Y-62906305D01*
X196999500Y-62906307D01*
X196999499Y-62906307D01*
X197031222Y-63065783D01*
X197031225Y-63065793D01*
X197093450Y-63216019D01*
X197093452Y-63216023D01*
X197183788Y-63351220D01*
X197183794Y-63351228D01*
X197298771Y-63466205D01*
X197298779Y-63466211D01*
X197433976Y-63556547D01*
X197433980Y-63556549D01*
X197584206Y-63618774D01*
X197584211Y-63618776D01*
X197584215Y-63618776D01*
X197584216Y-63618777D01*
X197743692Y-63650500D01*
X197743695Y-63650500D01*
X199006307Y-63650500D01*
X199144252Y-63623060D01*
X199165789Y-63618776D01*
X199291377Y-63566756D01*
X199316014Y-63556551D01*
X199316014Y-63556550D01*
X199316021Y-63556548D01*
X199316026Y-63556544D01*
X199317044Y-63556001D01*
X199317645Y-63555875D01*
X199321650Y-63554217D01*
X199321964Y-63554976D01*
X199385447Y-63541758D01*
X199450691Y-63566756D01*
X199492063Y-63623060D01*
X199499500Y-63665358D01*
X199499500Y-99375500D01*
X199479815Y-99442539D01*
X199427011Y-99488294D01*
X199375500Y-99499500D01*
X100624500Y-99499500D01*
X100557461Y-99479815D01*
X100511706Y-99427011D01*
X100500500Y-99375500D01*
X100500500Y-96909448D01*
X101529500Y-96909448D01*
X101529500Y-97090551D01*
X101557829Y-97269410D01*
X101613787Y-97441636D01*
X101613788Y-97441639D01*
X101696006Y-97602997D01*
X101802441Y-97749494D01*
X101802445Y-97749499D01*
X101930500Y-97877554D01*
X101930505Y-97877558D01*
X102054565Y-97967692D01*
X102077006Y-97983996D01*
X102153094Y-98022765D01*
X102238360Y-98066211D01*
X102238363Y-98066212D01*
X102324476Y-98094191D01*
X102410591Y-98122171D01*
X102493429Y-98135291D01*
X102589449Y-98150500D01*
X102589454Y-98150500D01*
X102770551Y-98150500D01*
X102857259Y-98136765D01*
X102949409Y-98122171D01*
X103121639Y-98066211D01*
X103282994Y-97983996D01*
X103429501Y-97877553D01*
X103557553Y-97749501D01*
X103663996Y-97602994D01*
X103746211Y-97441639D01*
X103802171Y-97269409D01*
X103816422Y-97179425D01*
X103827527Y-97109321D01*
X103857456Y-97046186D01*
X103916768Y-97009255D01*
X103986630Y-97010253D01*
X104044863Y-97048863D01*
X104072473Y-97109321D01*
X104097829Y-97269410D01*
X104153787Y-97441636D01*
X104153788Y-97441639D01*
X104236006Y-97602997D01*
X104342441Y-97749494D01*
X104342445Y-97749499D01*
X104470500Y-97877554D01*
X104470505Y-97877558D01*
X104594565Y-97967692D01*
X104617006Y-97983996D01*
X104693094Y-98022765D01*
X104778360Y-98066211D01*
X104778363Y-98066212D01*
X104864476Y-98094191D01*
X104950591Y-98122171D01*
X105033429Y-98135291D01*
X105129449Y-98150500D01*
X105129454Y-98150500D01*
X105310551Y-98150500D01*
X105397259Y-98136765D01*
X105489409Y-98122171D01*
X105661639Y-98066211D01*
X105822994Y-97983996D01*
X105969501Y-97877553D01*
X106097553Y-97749501D01*
X106203996Y-97602994D01*
X106286211Y-97441639D01*
X106342171Y-97269409D01*
X106356422Y-97179425D01*
X106367527Y-97109321D01*
X106397456Y-97046186D01*
X106456768Y-97009255D01*
X106526630Y-97010253D01*
X106584863Y-97048863D01*
X106612473Y-97109321D01*
X106637829Y-97269410D01*
X106693787Y-97441636D01*
X106693788Y-97441639D01*
X106776006Y-97602997D01*
X106882441Y-97749494D01*
X106882445Y-97749499D01*
X107010500Y-97877554D01*
X107010505Y-97877558D01*
X107134565Y-97967692D01*
X107157006Y-97983996D01*
X107233094Y-98022765D01*
X107318360Y-98066211D01*
X107318363Y-98066212D01*
X107404476Y-98094191D01*
X107490591Y-98122171D01*
X107573429Y-98135291D01*
X107669449Y-98150500D01*
X107669454Y-98150500D01*
X107850551Y-98150500D01*
X107937259Y-98136765D01*
X108029409Y-98122171D01*
X108201639Y-98066211D01*
X108362994Y-97983996D01*
X108509501Y-97877553D01*
X108637553Y-97749501D01*
X108743996Y-97602994D01*
X108826211Y-97441639D01*
X108882171Y-97269409D01*
X108896422Y-97179425D01*
X108907527Y-97109321D01*
X108937456Y-97046186D01*
X108996768Y-97009255D01*
X109066630Y-97010253D01*
X109124863Y-97048863D01*
X109152473Y-97109321D01*
X109177829Y-97269410D01*
X109233787Y-97441636D01*
X109233788Y-97441639D01*
X109316006Y-97602997D01*
X109422441Y-97749494D01*
X109422445Y-97749499D01*
X109550500Y-97877554D01*
X109550505Y-97877558D01*
X109674565Y-97967692D01*
X109697006Y-97983996D01*
X109773094Y-98022765D01*
X109858360Y-98066211D01*
X109858363Y-98066212D01*
X109944476Y-98094191D01*
X110030591Y-98122171D01*
X110113429Y-98135291D01*
X110209449Y-98150500D01*
X110209454Y-98150500D01*
X110390551Y-98150500D01*
X110477259Y-98136765D01*
X110569409Y-98122171D01*
X110741639Y-98066211D01*
X110902994Y-97983996D01*
X111049501Y-97877553D01*
X111177553Y-97749501D01*
X111283996Y-97602994D01*
X111366211Y-97441639D01*
X111422171Y-97269409D01*
X111436422Y-97179425D01*
X111447527Y-97109321D01*
X111477456Y-97046186D01*
X111536768Y-97009255D01*
X111606630Y-97010253D01*
X111664863Y-97048863D01*
X111692473Y-97109321D01*
X111717829Y-97269410D01*
X111773787Y-97441636D01*
X111773788Y-97441639D01*
X111856006Y-97602997D01*
X111962441Y-97749494D01*
X111962445Y-97749499D01*
X112090500Y-97877554D01*
X112090505Y-97877558D01*
X112214565Y-97967692D01*
X112237006Y-97983996D01*
X112313094Y-98022765D01*
X112398360Y-98066211D01*
X112398363Y-98066212D01*
X112484476Y-98094191D01*
X112570591Y-98122171D01*
X112653429Y-98135291D01*
X112749449Y-98150500D01*
X112749454Y-98150500D01*
X112930551Y-98150500D01*
X113017259Y-98136765D01*
X113109409Y-98122171D01*
X113281639Y-98066211D01*
X113442994Y-97983996D01*
X113565669Y-97894868D01*
X113589495Y-97877558D01*
X113589497Y-97877555D01*
X113589501Y-97877553D01*
X113717553Y-97749501D01*
X113823996Y-97602994D01*
X113891090Y-97471314D01*
X113939065Y-97420519D01*
X114006886Y-97403724D01*
X114073021Y-97426262D01*
X114116472Y-97480977D01*
X114119506Y-97489292D01*
X114128904Y-97518217D01*
X114225375Y-97707550D01*
X114264728Y-97761716D01*
X114897037Y-97129408D01*
X114914075Y-97192993D01*
X114979901Y-97307007D01*
X115072993Y-97400099D01*
X115187007Y-97465925D01*
X115250590Y-97482962D01*
X114618282Y-98115269D01*
X114618282Y-98115270D01*
X114672449Y-98154624D01*
X114861782Y-98251095D01*
X115063870Y-98316757D01*
X115273754Y-98350000D01*
X115486246Y-98350000D01*
X115696127Y-98316757D01*
X115696130Y-98316757D01*
X115898217Y-98251095D01*
X116087554Y-98154622D01*
X116141716Y-98115270D01*
X116141717Y-98115270D01*
X115509408Y-97482962D01*
X115572993Y-97465925D01*
X115687007Y-97400099D01*
X115780099Y-97307007D01*
X115845925Y-97192993D01*
X115862962Y-97129409D01*
X116495270Y-97761717D01*
X116495270Y-97761716D01*
X116534622Y-97707554D01*
X116631095Y-97518217D01*
X116640492Y-97489295D01*
X116679928Y-97431618D01*
X116744286Y-97404419D01*
X116813133Y-97416331D01*
X116864610Y-97463574D01*
X116868908Y-97471314D01*
X116936004Y-97602995D01*
X117042441Y-97749494D01*
X117042445Y-97749499D01*
X117170500Y-97877554D01*
X117170505Y-97877558D01*
X117294565Y-97967692D01*
X117317006Y-97983996D01*
X117393094Y-98022765D01*
X117478360Y-98066211D01*
X117478363Y-98066212D01*
X117564476Y-98094191D01*
X117650591Y-98122171D01*
X117733429Y-98135291D01*
X117829449Y-98150500D01*
X117829454Y-98150500D01*
X118010551Y-98150500D01*
X118097259Y-98136765D01*
X118189409Y-98122171D01*
X118361639Y-98066211D01*
X118522994Y-97983996D01*
X118669501Y-97877553D01*
X118797553Y-97749501D01*
X118903996Y-97602994D01*
X118986211Y-97441639D01*
X119042171Y-97269409D01*
X119056422Y-97179425D01*
X119067527Y-97109321D01*
X119097456Y-97046186D01*
X119156768Y-97009255D01*
X119226630Y-97010253D01*
X119284863Y-97048863D01*
X119312473Y-97109321D01*
X119337829Y-97269410D01*
X119393787Y-97441636D01*
X119393788Y-97441639D01*
X119476006Y-97602997D01*
X119582441Y-97749494D01*
X119582445Y-97749499D01*
X119710500Y-97877554D01*
X119710505Y-97877558D01*
X119834565Y-97967692D01*
X119857006Y-97983996D01*
X119933094Y-98022765D01*
X120018360Y-98066211D01*
X120018363Y-98066212D01*
X120104476Y-98094191D01*
X120190591Y-98122171D01*
X120273429Y-98135291D01*
X120369449Y-98150500D01*
X120369454Y-98150500D01*
X120550551Y-98150500D01*
X120637259Y-98136765D01*
X120729409Y-98122171D01*
X120901639Y-98066211D01*
X121062994Y-97983996D01*
X121209501Y-97877553D01*
X121337553Y-97749501D01*
X121443996Y-97602994D01*
X121526211Y-97441639D01*
X121582171Y-97269409D01*
X121596422Y-97179425D01*
X121607527Y-97109321D01*
X121637456Y-97046186D01*
X121696768Y-97009255D01*
X121766630Y-97010253D01*
X121824863Y-97048863D01*
X121852473Y-97109321D01*
X121877829Y-97269410D01*
X121933787Y-97441636D01*
X121933788Y-97441639D01*
X122016006Y-97602997D01*
X122122441Y-97749494D01*
X122122445Y-97749499D01*
X122250500Y-97877554D01*
X122250505Y-97877558D01*
X122374565Y-97967692D01*
X122397006Y-97983996D01*
X122473094Y-98022765D01*
X122558360Y-98066211D01*
X122558363Y-98066212D01*
X122644476Y-98094191D01*
X122730591Y-98122171D01*
X122813429Y-98135291D01*
X122909449Y-98150500D01*
X122909454Y-98150500D01*
X123090551Y-98150500D01*
X123177259Y-98136765D01*
X123269409Y-98122171D01*
X123441639Y-98066211D01*
X123602994Y-97983996D01*
X123749501Y-97877553D01*
X123877553Y-97749501D01*
X123983996Y-97602994D01*
X124066211Y-97441639D01*
X124122171Y-97269409D01*
X124136422Y-97179425D01*
X124147527Y-97109321D01*
X124177456Y-97046186D01*
X124236768Y-97009255D01*
X124306630Y-97010253D01*
X124364863Y-97048863D01*
X124392473Y-97109321D01*
X124417829Y-97269410D01*
X124473787Y-97441636D01*
X124473788Y-97441639D01*
X124556006Y-97602997D01*
X124662441Y-97749494D01*
X124662445Y-97749499D01*
X124790500Y-97877554D01*
X124790505Y-97877558D01*
X124914565Y-97967692D01*
X124937006Y-97983996D01*
X125013094Y-98022765D01*
X125098360Y-98066211D01*
X125098363Y-98066212D01*
X125184476Y-98094191D01*
X125270591Y-98122171D01*
X125353429Y-98135291D01*
X125449449Y-98150500D01*
X125449454Y-98150500D01*
X125630551Y-98150500D01*
X125717259Y-98136765D01*
X125809409Y-98122171D01*
X125981639Y-98066211D01*
X126142994Y-97983996D01*
X126289501Y-97877553D01*
X126417553Y-97749501D01*
X126523996Y-97602994D01*
X126606211Y-97441639D01*
X126662171Y-97269409D01*
X126676422Y-97179425D01*
X126687527Y-97109321D01*
X126717456Y-97046186D01*
X126776768Y-97009255D01*
X126846630Y-97010253D01*
X126904863Y-97048863D01*
X126932473Y-97109321D01*
X126957829Y-97269410D01*
X127013787Y-97441636D01*
X127013788Y-97441639D01*
X127096006Y-97602997D01*
X127202441Y-97749494D01*
X127202445Y-97749499D01*
X127330500Y-97877554D01*
X127330505Y-97877558D01*
X127454565Y-97967692D01*
X127477006Y-97983996D01*
X127553094Y-98022765D01*
X127638360Y-98066211D01*
X127638363Y-98066212D01*
X127724476Y-98094191D01*
X127810591Y-98122171D01*
X127893429Y-98135291D01*
X127989449Y-98150500D01*
X127989454Y-98150500D01*
X128170551Y-98150500D01*
X128257259Y-98136765D01*
X128349409Y-98122171D01*
X128521639Y-98066211D01*
X128682994Y-97983996D01*
X128829501Y-97877553D01*
X128957553Y-97749501D01*
X129063996Y-97602994D01*
X129146211Y-97441639D01*
X129202171Y-97269409D01*
X129216422Y-97179425D01*
X129227527Y-97109321D01*
X129257456Y-97046186D01*
X129316768Y-97009255D01*
X129386630Y-97010253D01*
X129444863Y-97048863D01*
X129472473Y-97109321D01*
X129497829Y-97269410D01*
X129553787Y-97441636D01*
X129553788Y-97441639D01*
X129636006Y-97602997D01*
X129742441Y-97749494D01*
X129742445Y-97749499D01*
X129870500Y-97877554D01*
X129870505Y-97877558D01*
X129994565Y-97967692D01*
X130017006Y-97983996D01*
X130093094Y-98022765D01*
X130178360Y-98066211D01*
X130178363Y-98066212D01*
X130264476Y-98094191D01*
X130350591Y-98122171D01*
X130433429Y-98135291D01*
X130529449Y-98150500D01*
X130529454Y-98150500D01*
X130710551Y-98150500D01*
X130797259Y-98136765D01*
X130889409Y-98122171D01*
X131061639Y-98066211D01*
X131222994Y-97983996D01*
X131345669Y-97894868D01*
X131369495Y-97877558D01*
X131369497Y-97877555D01*
X131369501Y-97877553D01*
X131497553Y-97749501D01*
X131603996Y-97602994D01*
X131671090Y-97471314D01*
X131719065Y-97420519D01*
X131786886Y-97403724D01*
X131853021Y-97426262D01*
X131896472Y-97480977D01*
X131899506Y-97489292D01*
X131908904Y-97518217D01*
X132005375Y-97707550D01*
X132044728Y-97761716D01*
X132677037Y-97129408D01*
X132694075Y-97192993D01*
X132759901Y-97307007D01*
X132852993Y-97400099D01*
X132967007Y-97465925D01*
X133030590Y-97482962D01*
X132398282Y-98115269D01*
X132398282Y-98115270D01*
X132452449Y-98154624D01*
X132641782Y-98251095D01*
X132843870Y-98316757D01*
X133053754Y-98350000D01*
X133266246Y-98350000D01*
X133476127Y-98316757D01*
X133476130Y-98316757D01*
X133678217Y-98251095D01*
X133867554Y-98154622D01*
X133921716Y-98115270D01*
X133921717Y-98115270D01*
X133289408Y-97482962D01*
X133352993Y-97465925D01*
X133467007Y-97400099D01*
X133560099Y-97307007D01*
X133625925Y-97192993D01*
X133642962Y-97129408D01*
X134275270Y-97761717D01*
X134275270Y-97761716D01*
X134314621Y-97707555D01*
X134315005Y-97706803D01*
X134315229Y-97706564D01*
X134317168Y-97703402D01*
X134317831Y-97703808D01*
X134362970Y-97655998D01*
X134430787Y-97639190D01*
X134496927Y-97661715D01*
X134540388Y-97716422D01*
X134549500Y-97763076D01*
X134549500Y-97894855D01*
X134549502Y-97894882D01*
X134552413Y-97919987D01*
X134552415Y-97919991D01*
X134597793Y-98022764D01*
X134597794Y-98022765D01*
X134677235Y-98102206D01*
X134780009Y-98147585D01*
X134805135Y-98150500D01*
X136594864Y-98150499D01*
X136594879Y-98150497D01*
X136594882Y-98150497D01*
X136619987Y-98147586D01*
X136619988Y-98147585D01*
X136619991Y-98147585D01*
X136722765Y-98102206D01*
X136802206Y-98022765D01*
X136847585Y-97919991D01*
X136850500Y-97894865D01*
X136850499Y-96105136D01*
X136850499Y-96105135D01*
X136850499Y-96105131D01*
X139039500Y-96105131D01*
X139039500Y-97894856D01*
X139039502Y-97894882D01*
X139042413Y-97919987D01*
X139042415Y-97919991D01*
X139087793Y-98022764D01*
X139087794Y-98022765D01*
X139167235Y-98102206D01*
X139270009Y-98147585D01*
X139295135Y-98150500D01*
X141084864Y-98150499D01*
X141084879Y-98150497D01*
X141084882Y-98150497D01*
X141109987Y-98147586D01*
X141109988Y-98147585D01*
X141109991Y-98147585D01*
X141212765Y-98102206D01*
X141292206Y-98022765D01*
X141337585Y-97919991D01*
X141340500Y-97894865D01*
X141340499Y-97157125D01*
X141360183Y-97090089D01*
X141412987Y-97044334D01*
X141482146Y-97034390D01*
X141545702Y-97063415D01*
X141583476Y-97122193D01*
X141586972Y-97137729D01*
X141607829Y-97269410D01*
X141663787Y-97441636D01*
X141663788Y-97441639D01*
X141746006Y-97602997D01*
X141852441Y-97749494D01*
X141852445Y-97749499D01*
X141980500Y-97877554D01*
X141980505Y-97877558D01*
X142104565Y-97967692D01*
X142127006Y-97983996D01*
X142203094Y-98022765D01*
X142288360Y-98066211D01*
X142288363Y-98066212D01*
X142374476Y-98094191D01*
X142460591Y-98122171D01*
X142543429Y-98135291D01*
X142639449Y-98150500D01*
X142639454Y-98150500D01*
X142820551Y-98150500D01*
X142907259Y-98136765D01*
X142999409Y-98122171D01*
X143171639Y-98066211D01*
X143332994Y-97983996D01*
X143479501Y-97877553D01*
X143607553Y-97749501D01*
X143713996Y-97602994D01*
X143796211Y-97441639D01*
X143852171Y-97269409D01*
X143866422Y-97179425D01*
X143877527Y-97109321D01*
X143907456Y-97046186D01*
X143966768Y-97009255D01*
X144036630Y-97010253D01*
X144094863Y-97048863D01*
X144122473Y-97109321D01*
X144147829Y-97269410D01*
X144203787Y-97441636D01*
X144203788Y-97441639D01*
X144286006Y-97602997D01*
X144392441Y-97749494D01*
X144392445Y-97749499D01*
X144520500Y-97877554D01*
X144520505Y-97877558D01*
X144644565Y-97967692D01*
X144667006Y-97983996D01*
X144743094Y-98022765D01*
X144828360Y-98066211D01*
X144828363Y-98066212D01*
X144914476Y-98094191D01*
X145000591Y-98122171D01*
X145083429Y-98135291D01*
X145179449Y-98150500D01*
X145179454Y-98150500D01*
X145360551Y-98150500D01*
X145447259Y-98136765D01*
X145539409Y-98122171D01*
X145711639Y-98066211D01*
X145872994Y-97983996D01*
X145995669Y-97894868D01*
X146019495Y-97877558D01*
X146019497Y-97877555D01*
X146019501Y-97877553D01*
X146147553Y-97749501D01*
X146253996Y-97602994D01*
X146321090Y-97471314D01*
X146369065Y-97420519D01*
X146436886Y-97403724D01*
X146503021Y-97426262D01*
X146546472Y-97480977D01*
X146549506Y-97489292D01*
X146558904Y-97518217D01*
X146655375Y-97707550D01*
X146694728Y-97761716D01*
X147327037Y-97129408D01*
X147344075Y-97192993D01*
X147409901Y-97307007D01*
X147502993Y-97400099D01*
X147617007Y-97465925D01*
X147680590Y-97482962D01*
X147048282Y-98115269D01*
X147048282Y-98115270D01*
X147102449Y-98154624D01*
X147291782Y-98251095D01*
X147493870Y-98316757D01*
X147703754Y-98350000D01*
X147916246Y-98350000D01*
X148126127Y-98316757D01*
X148126130Y-98316757D01*
X148328217Y-98251095D01*
X148517554Y-98154622D01*
X148571716Y-98115270D01*
X148571717Y-98115270D01*
X147939408Y-97482962D01*
X148002993Y-97465925D01*
X148117007Y-97400099D01*
X148210099Y-97307007D01*
X148275925Y-97192993D01*
X148292962Y-97129408D01*
X148925270Y-97761717D01*
X148925270Y-97761716D01*
X148964622Y-97707554D01*
X149061095Y-97518217D01*
X149126757Y-97316130D01*
X149126757Y-97316127D01*
X149160000Y-97106246D01*
X149160000Y-96909448D01*
X151349500Y-96909448D01*
X151349500Y-97090551D01*
X151377829Y-97269410D01*
X151433787Y-97441636D01*
X151433788Y-97441639D01*
X151516006Y-97602997D01*
X151622441Y-97749494D01*
X151622445Y-97749499D01*
X151750500Y-97877554D01*
X151750505Y-97877558D01*
X151874565Y-97967692D01*
X151897006Y-97983996D01*
X151973094Y-98022765D01*
X152058360Y-98066211D01*
X152058363Y-98066212D01*
X152144476Y-98094191D01*
X152230591Y-98122171D01*
X152313429Y-98135291D01*
X152409449Y-98150500D01*
X152409454Y-98150500D01*
X152590551Y-98150500D01*
X152677259Y-98136765D01*
X152769409Y-98122171D01*
X152941639Y-98066211D01*
X153102994Y-97983996D01*
X153249501Y-97877553D01*
X153377553Y-97749501D01*
X153483996Y-97602994D01*
X153566211Y-97441639D01*
X153622171Y-97269409D01*
X153636422Y-97179425D01*
X153647527Y-97109321D01*
X153677456Y-97046186D01*
X153736768Y-97009255D01*
X153806630Y-97010253D01*
X153864863Y-97048863D01*
X153892473Y-97109321D01*
X153917829Y-97269410D01*
X153973787Y-97441636D01*
X153973788Y-97441639D01*
X154056006Y-97602997D01*
X154162441Y-97749494D01*
X154162445Y-97749499D01*
X154290500Y-97877554D01*
X154290505Y-97877558D01*
X154414565Y-97967692D01*
X154437006Y-97983996D01*
X154513094Y-98022765D01*
X154598360Y-98066211D01*
X154598363Y-98066212D01*
X154684476Y-98094191D01*
X154770591Y-98122171D01*
X154853429Y-98135291D01*
X154949449Y-98150500D01*
X154949454Y-98150500D01*
X155130551Y-98150500D01*
X155217259Y-98136765D01*
X155309409Y-98122171D01*
X155481639Y-98066211D01*
X155642994Y-97983996D01*
X155789501Y-97877553D01*
X155917553Y-97749501D01*
X156023996Y-97602994D01*
X156106211Y-97441639D01*
X156162171Y-97269409D01*
X156176422Y-97179425D01*
X156187527Y-97109321D01*
X156217456Y-97046186D01*
X156276768Y-97009255D01*
X156346630Y-97010253D01*
X156404863Y-97048863D01*
X156432473Y-97109321D01*
X156457829Y-97269410D01*
X156513787Y-97441636D01*
X156513788Y-97441639D01*
X156596006Y-97602997D01*
X156702441Y-97749494D01*
X156702445Y-97749499D01*
X156830500Y-97877554D01*
X156830505Y-97877558D01*
X156954565Y-97967692D01*
X156977006Y-97983996D01*
X157053094Y-98022765D01*
X157138360Y-98066211D01*
X157138363Y-98066212D01*
X157224476Y-98094191D01*
X157310591Y-98122171D01*
X157393429Y-98135291D01*
X157489449Y-98150500D01*
X157489454Y-98150500D01*
X157670551Y-98150500D01*
X157757259Y-98136765D01*
X157849409Y-98122171D01*
X158021639Y-98066211D01*
X158182994Y-97983996D01*
X158329501Y-97877553D01*
X158457553Y-97749501D01*
X158563996Y-97602994D01*
X158646211Y-97441639D01*
X158702171Y-97269409D01*
X158716422Y-97179425D01*
X158727527Y-97109321D01*
X158757456Y-97046186D01*
X158816768Y-97009255D01*
X158886630Y-97010253D01*
X158944863Y-97048863D01*
X158972473Y-97109321D01*
X158997829Y-97269410D01*
X159053787Y-97441636D01*
X159053788Y-97441639D01*
X159136006Y-97602997D01*
X159242441Y-97749494D01*
X159242445Y-97749499D01*
X159370500Y-97877554D01*
X159370505Y-97877558D01*
X159494565Y-97967692D01*
X159517006Y-97983996D01*
X159593094Y-98022765D01*
X159678360Y-98066211D01*
X159678363Y-98066212D01*
X159764476Y-98094191D01*
X159850591Y-98122171D01*
X159933429Y-98135291D01*
X160029449Y-98150500D01*
X160029454Y-98150500D01*
X160210551Y-98150500D01*
X160297259Y-98136765D01*
X160389409Y-98122171D01*
X160561639Y-98066211D01*
X160722994Y-97983996D01*
X160869501Y-97877553D01*
X160997553Y-97749501D01*
X161103996Y-97602994D01*
X161186211Y-97441639D01*
X161242171Y-97269409D01*
X161256422Y-97179425D01*
X161267527Y-97109321D01*
X161297456Y-97046186D01*
X161356768Y-97009255D01*
X161426630Y-97010253D01*
X161484863Y-97048863D01*
X161512473Y-97109321D01*
X161537829Y-97269410D01*
X161593787Y-97441636D01*
X161593788Y-97441639D01*
X161676006Y-97602997D01*
X161782441Y-97749494D01*
X161782445Y-97749499D01*
X161910500Y-97877554D01*
X161910505Y-97877558D01*
X162034565Y-97967692D01*
X162057006Y-97983996D01*
X162133094Y-98022765D01*
X162218360Y-98066211D01*
X162218363Y-98066212D01*
X162304476Y-98094191D01*
X162390591Y-98122171D01*
X162473429Y-98135291D01*
X162569449Y-98150500D01*
X162569454Y-98150500D01*
X162750551Y-98150500D01*
X162837259Y-98136765D01*
X162929409Y-98122171D01*
X163101639Y-98066211D01*
X163262994Y-97983996D01*
X163409501Y-97877553D01*
X163537553Y-97749501D01*
X163643996Y-97602994D01*
X163726211Y-97441639D01*
X163782171Y-97269409D01*
X163796422Y-97179425D01*
X163807527Y-97109321D01*
X163837456Y-97046186D01*
X163896768Y-97009255D01*
X163966630Y-97010253D01*
X164024863Y-97048863D01*
X164052473Y-97109321D01*
X164077829Y-97269410D01*
X164133787Y-97441636D01*
X164133788Y-97441639D01*
X164216006Y-97602997D01*
X164322441Y-97749494D01*
X164322445Y-97749499D01*
X164450500Y-97877554D01*
X164450505Y-97877558D01*
X164574565Y-97967692D01*
X164597006Y-97983996D01*
X164673094Y-98022765D01*
X164758360Y-98066211D01*
X164758363Y-98066212D01*
X164844476Y-98094191D01*
X164930591Y-98122171D01*
X165013429Y-98135291D01*
X165109449Y-98150500D01*
X165109454Y-98150500D01*
X165290551Y-98150500D01*
X165377259Y-98136765D01*
X165469409Y-98122171D01*
X165641639Y-98066211D01*
X165802994Y-97983996D01*
X165949501Y-97877553D01*
X166077553Y-97749501D01*
X166183996Y-97602994D01*
X166266211Y-97441639D01*
X166322171Y-97269409D01*
X166336422Y-97179425D01*
X166347527Y-97109321D01*
X166377456Y-97046186D01*
X166436768Y-97009255D01*
X166506630Y-97010253D01*
X166564863Y-97048863D01*
X166592473Y-97109321D01*
X166617829Y-97269410D01*
X166673787Y-97441636D01*
X166673788Y-97441639D01*
X166756006Y-97602997D01*
X166862441Y-97749494D01*
X166862445Y-97749499D01*
X166990500Y-97877554D01*
X166990505Y-97877558D01*
X167114565Y-97967692D01*
X167137006Y-97983996D01*
X167213094Y-98022765D01*
X167298360Y-98066211D01*
X167298363Y-98066212D01*
X167384476Y-98094191D01*
X167470591Y-98122171D01*
X167553429Y-98135291D01*
X167649449Y-98150500D01*
X167649454Y-98150500D01*
X167830551Y-98150500D01*
X167917259Y-98136765D01*
X168009409Y-98122171D01*
X168181639Y-98066211D01*
X168342994Y-97983996D01*
X168489501Y-97877553D01*
X168617553Y-97749501D01*
X168723996Y-97602994D01*
X168806211Y-97441639D01*
X168862171Y-97269409D01*
X168876422Y-97179425D01*
X168887527Y-97109321D01*
X168917456Y-97046186D01*
X168976768Y-97009255D01*
X169046630Y-97010253D01*
X169104863Y-97048863D01*
X169132473Y-97109321D01*
X169157829Y-97269410D01*
X169213787Y-97441636D01*
X169213788Y-97441639D01*
X169296006Y-97602997D01*
X169402441Y-97749494D01*
X169402445Y-97749499D01*
X169530500Y-97877554D01*
X169530505Y-97877558D01*
X169654565Y-97967692D01*
X169677006Y-97983996D01*
X169753094Y-98022765D01*
X169838360Y-98066211D01*
X169838363Y-98066212D01*
X169924476Y-98094191D01*
X170010591Y-98122171D01*
X170093429Y-98135291D01*
X170189449Y-98150500D01*
X170189454Y-98150500D01*
X170370551Y-98150500D01*
X170457259Y-98136765D01*
X170549409Y-98122171D01*
X170721639Y-98066211D01*
X170882994Y-97983996D01*
X171005669Y-97894868D01*
X171029495Y-97877558D01*
X171029497Y-97877555D01*
X171029501Y-97877553D01*
X171157553Y-97749501D01*
X171263996Y-97602994D01*
X171331090Y-97471314D01*
X171379065Y-97420519D01*
X171446886Y-97403724D01*
X171513021Y-97426262D01*
X171556472Y-97480977D01*
X171559506Y-97489292D01*
X171568904Y-97518217D01*
X171665375Y-97707550D01*
X171704728Y-97761716D01*
X172337037Y-97129408D01*
X172354075Y-97192993D01*
X172419901Y-97307007D01*
X172512993Y-97400099D01*
X172627007Y-97465925D01*
X172690590Y-97482962D01*
X172058282Y-98115269D01*
X172058282Y-98115270D01*
X172112449Y-98154624D01*
X172301782Y-98251095D01*
X172503870Y-98316757D01*
X172713754Y-98350000D01*
X172926246Y-98350000D01*
X173136127Y-98316757D01*
X173136130Y-98316757D01*
X173338217Y-98251095D01*
X173527554Y-98154622D01*
X173581716Y-98115270D01*
X173581717Y-98115270D01*
X172949408Y-97482962D01*
X173012993Y-97465925D01*
X173127007Y-97400099D01*
X173220099Y-97307007D01*
X173285925Y-97192993D01*
X173302962Y-97129409D01*
X173935270Y-97761717D01*
X173935270Y-97761716D01*
X173974622Y-97707554D01*
X174071095Y-97518217D01*
X174080492Y-97489295D01*
X174119928Y-97431618D01*
X174184286Y-97404419D01*
X174253133Y-97416331D01*
X174304610Y-97463574D01*
X174308908Y-97471314D01*
X174376004Y-97602995D01*
X174482441Y-97749494D01*
X174482445Y-97749499D01*
X174610500Y-97877554D01*
X174610505Y-97877558D01*
X174734565Y-97967692D01*
X174757006Y-97983996D01*
X174833094Y-98022765D01*
X174918360Y-98066211D01*
X174918363Y-98066212D01*
X175004476Y-98094191D01*
X175090591Y-98122171D01*
X175173429Y-98135291D01*
X175269449Y-98150500D01*
X175269454Y-98150500D01*
X175450551Y-98150500D01*
X175537259Y-98136765D01*
X175629409Y-98122171D01*
X175801639Y-98066211D01*
X175962994Y-97983996D01*
X176109501Y-97877553D01*
X176237553Y-97749501D01*
X176343996Y-97602994D01*
X176426211Y-97441639D01*
X176482171Y-97269409D01*
X176496422Y-97179425D01*
X176507527Y-97109321D01*
X176537456Y-97046186D01*
X176596768Y-97009255D01*
X176666630Y-97010253D01*
X176724863Y-97048863D01*
X176752473Y-97109321D01*
X176777829Y-97269410D01*
X176833787Y-97441636D01*
X176833788Y-97441639D01*
X176916006Y-97602997D01*
X177022441Y-97749494D01*
X177022445Y-97749499D01*
X177150500Y-97877554D01*
X177150505Y-97877558D01*
X177274565Y-97967692D01*
X177297006Y-97983996D01*
X177373094Y-98022765D01*
X177458360Y-98066211D01*
X177458363Y-98066212D01*
X177544476Y-98094191D01*
X177630591Y-98122171D01*
X177713429Y-98135291D01*
X177809449Y-98150500D01*
X177809454Y-98150500D01*
X177990551Y-98150500D01*
X178077259Y-98136765D01*
X178169409Y-98122171D01*
X178341639Y-98066211D01*
X178502994Y-97983996D01*
X178649501Y-97877553D01*
X178777553Y-97749501D01*
X178883996Y-97602994D01*
X178966211Y-97441639D01*
X179022171Y-97269409D01*
X179036422Y-97179425D01*
X179047527Y-97109321D01*
X179077456Y-97046186D01*
X179136768Y-97009255D01*
X179206630Y-97010253D01*
X179264863Y-97048863D01*
X179292473Y-97109321D01*
X179317829Y-97269410D01*
X179373787Y-97441636D01*
X179373788Y-97441639D01*
X179456006Y-97602997D01*
X179562441Y-97749494D01*
X179562445Y-97749499D01*
X179690500Y-97877554D01*
X179690505Y-97877558D01*
X179814565Y-97967692D01*
X179837006Y-97983996D01*
X179913094Y-98022765D01*
X179998360Y-98066211D01*
X179998363Y-98066212D01*
X180084476Y-98094191D01*
X180170591Y-98122171D01*
X180253429Y-98135291D01*
X180349449Y-98150500D01*
X180349454Y-98150500D01*
X180530551Y-98150500D01*
X180617259Y-98136765D01*
X180709409Y-98122171D01*
X180881639Y-98066211D01*
X181042994Y-97983996D01*
X181189501Y-97877553D01*
X181317553Y-97749501D01*
X181423996Y-97602994D01*
X181506211Y-97441639D01*
X181562171Y-97269409D01*
X181576422Y-97179425D01*
X181587527Y-97109321D01*
X181617456Y-97046186D01*
X181676768Y-97009255D01*
X181746630Y-97010253D01*
X181804863Y-97048863D01*
X181832473Y-97109321D01*
X181857829Y-97269410D01*
X181913787Y-97441636D01*
X181913788Y-97441639D01*
X181996006Y-97602997D01*
X182102441Y-97749494D01*
X182102445Y-97749499D01*
X182230500Y-97877554D01*
X182230505Y-97877558D01*
X182354565Y-97967692D01*
X182377006Y-97983996D01*
X182453094Y-98022765D01*
X182538360Y-98066211D01*
X182538363Y-98066212D01*
X182624476Y-98094191D01*
X182710591Y-98122171D01*
X182793429Y-98135291D01*
X182889449Y-98150500D01*
X182889454Y-98150500D01*
X183070551Y-98150500D01*
X183157259Y-98136765D01*
X183249409Y-98122171D01*
X183421639Y-98066211D01*
X183582994Y-97983996D01*
X183729501Y-97877553D01*
X183857553Y-97749501D01*
X183963996Y-97602994D01*
X184046211Y-97441639D01*
X184102171Y-97269409D01*
X184116422Y-97179425D01*
X184127527Y-97109321D01*
X184157456Y-97046186D01*
X184216768Y-97009255D01*
X184286630Y-97010253D01*
X184344863Y-97048863D01*
X184372473Y-97109321D01*
X184397829Y-97269410D01*
X184453787Y-97441636D01*
X184453788Y-97441639D01*
X184536006Y-97602997D01*
X184642441Y-97749494D01*
X184642445Y-97749499D01*
X184770500Y-97877554D01*
X184770505Y-97877558D01*
X184894565Y-97967692D01*
X184917006Y-97983996D01*
X184993094Y-98022765D01*
X185078360Y-98066211D01*
X185078363Y-98066212D01*
X185164476Y-98094191D01*
X185250591Y-98122171D01*
X185333429Y-98135291D01*
X185429449Y-98150500D01*
X185429454Y-98150500D01*
X185610551Y-98150500D01*
X185697259Y-98136765D01*
X185789409Y-98122171D01*
X185961639Y-98066211D01*
X186122994Y-97983996D01*
X186269501Y-97877553D01*
X186397553Y-97749501D01*
X186503996Y-97602994D01*
X186586211Y-97441639D01*
X186642171Y-97269409D01*
X186656422Y-97179425D01*
X186667527Y-97109321D01*
X186697456Y-97046186D01*
X186756768Y-97009255D01*
X186826630Y-97010253D01*
X186884863Y-97048863D01*
X186912473Y-97109321D01*
X186937829Y-97269410D01*
X186993787Y-97441636D01*
X186993788Y-97441639D01*
X187076006Y-97602997D01*
X187182441Y-97749494D01*
X187182445Y-97749499D01*
X187310500Y-97877554D01*
X187310505Y-97877558D01*
X187434565Y-97967692D01*
X187457006Y-97983996D01*
X187533094Y-98022765D01*
X187618360Y-98066211D01*
X187618363Y-98066212D01*
X187704476Y-98094191D01*
X187790591Y-98122171D01*
X187873429Y-98135291D01*
X187969449Y-98150500D01*
X187969454Y-98150500D01*
X188150551Y-98150500D01*
X188237259Y-98136765D01*
X188329409Y-98122171D01*
X188501639Y-98066211D01*
X188662994Y-97983996D01*
X188809501Y-97877553D01*
X188937553Y-97749501D01*
X189043996Y-97602994D01*
X189126211Y-97441639D01*
X189182171Y-97269409D01*
X189196422Y-97179425D01*
X189207527Y-97109321D01*
X189237456Y-97046186D01*
X189296768Y-97009255D01*
X189366630Y-97010253D01*
X189424863Y-97048863D01*
X189452473Y-97109321D01*
X189477829Y-97269410D01*
X189533787Y-97441636D01*
X189533788Y-97441639D01*
X189616006Y-97602997D01*
X189722441Y-97749494D01*
X189722445Y-97749499D01*
X189850500Y-97877554D01*
X189850505Y-97877558D01*
X189974565Y-97967692D01*
X189997006Y-97983996D01*
X190073094Y-98022765D01*
X190158360Y-98066211D01*
X190158363Y-98066212D01*
X190244476Y-98094191D01*
X190330591Y-98122171D01*
X190413429Y-98135291D01*
X190509449Y-98150500D01*
X190509454Y-98150500D01*
X190690551Y-98150500D01*
X190777259Y-98136765D01*
X190869409Y-98122171D01*
X191041639Y-98066211D01*
X191202994Y-97983996D01*
X191325669Y-97894868D01*
X191349495Y-97877558D01*
X191349497Y-97877555D01*
X191349501Y-97877553D01*
X191477553Y-97749501D01*
X191583996Y-97602994D01*
X191651090Y-97471314D01*
X191699065Y-97420519D01*
X191766886Y-97403724D01*
X191833021Y-97426262D01*
X191876472Y-97480977D01*
X191879506Y-97489292D01*
X191888904Y-97518217D01*
X191985375Y-97707550D01*
X192024728Y-97761716D01*
X192657037Y-97129408D01*
X192674075Y-97192993D01*
X192739901Y-97307007D01*
X192832993Y-97400099D01*
X192947007Y-97465925D01*
X193010590Y-97482962D01*
X192378282Y-98115269D01*
X192378282Y-98115270D01*
X192432449Y-98154624D01*
X192621782Y-98251095D01*
X192823870Y-98316757D01*
X193033754Y-98350000D01*
X193246246Y-98350000D01*
X193456127Y-98316757D01*
X193456130Y-98316757D01*
X193658217Y-98251095D01*
X193847554Y-98154622D01*
X193901716Y-98115270D01*
X193901717Y-98115270D01*
X193269408Y-97482962D01*
X193332993Y-97465925D01*
X193447007Y-97400099D01*
X193540099Y-97307007D01*
X193605925Y-97192993D01*
X193622962Y-97129409D01*
X194255270Y-97761717D01*
X194255270Y-97761716D01*
X194294621Y-97707555D01*
X194295005Y-97706803D01*
X194295229Y-97706564D01*
X194297168Y-97703402D01*
X194297831Y-97703808D01*
X194342970Y-97655998D01*
X194410787Y-97639190D01*
X194476927Y-97661715D01*
X194520388Y-97716422D01*
X194529500Y-97763076D01*
X194529500Y-97894855D01*
X194529502Y-97894882D01*
X194532413Y-97919987D01*
X194532415Y-97919991D01*
X194577793Y-98022764D01*
X194577794Y-98022765D01*
X194657235Y-98102206D01*
X194760009Y-98147585D01*
X194785135Y-98150500D01*
X196574864Y-98150499D01*
X196574879Y-98150497D01*
X196574882Y-98150497D01*
X196599987Y-98147586D01*
X196599988Y-98147585D01*
X196599991Y-98147585D01*
X196702765Y-98102206D01*
X196782206Y-98022765D01*
X196827585Y-97919991D01*
X196830500Y-97894865D01*
X196830499Y-96105136D01*
X196830497Y-96105117D01*
X196827586Y-96080012D01*
X196827585Y-96080010D01*
X196827585Y-96080009D01*
X196782206Y-95977235D01*
X196702765Y-95897794D01*
X196702763Y-95897793D01*
X196599992Y-95852415D01*
X196574865Y-95849500D01*
X194785143Y-95849500D01*
X194785117Y-95849502D01*
X194760012Y-95852413D01*
X194760008Y-95852415D01*
X194657235Y-95897793D01*
X194577794Y-95977234D01*
X194532415Y-96080006D01*
X194532415Y-96080008D01*
X194529500Y-96105131D01*
X194529500Y-96236920D01*
X194509815Y-96303959D01*
X194457011Y-96349714D01*
X194387853Y-96359658D01*
X194324297Y-96330633D01*
X194297505Y-96296398D01*
X194297171Y-96296604D01*
X194295382Y-96293685D01*
X194295018Y-96293220D01*
X194294627Y-96292454D01*
X194294626Y-96292452D01*
X194255270Y-96238282D01*
X194255269Y-96238282D01*
X193622962Y-96870590D01*
X193605925Y-96807007D01*
X193540099Y-96692993D01*
X193447007Y-96599901D01*
X193332993Y-96534075D01*
X193269409Y-96517037D01*
X193901716Y-95884728D01*
X193847550Y-95845375D01*
X193658217Y-95748904D01*
X193456129Y-95683242D01*
X193246246Y-95650000D01*
X193033754Y-95650000D01*
X192823872Y-95683242D01*
X192823869Y-95683242D01*
X192621782Y-95748904D01*
X192432439Y-95845380D01*
X192378282Y-95884727D01*
X192378282Y-95884728D01*
X193010591Y-96517037D01*
X192947007Y-96534075D01*
X192832993Y-96599901D01*
X192739901Y-96692993D01*
X192674075Y-96807007D01*
X192657037Y-96870591D01*
X192024728Y-96238282D01*
X192024727Y-96238282D01*
X191985380Y-96292439D01*
X191888905Y-96481781D01*
X191879506Y-96510708D01*
X191840068Y-96568383D01*
X191775709Y-96595581D01*
X191706862Y-96583666D01*
X191655387Y-96536421D01*
X191651090Y-96528684D01*
X191627191Y-96481780D01*
X191583996Y-96397006D01*
X191549637Y-96349714D01*
X191477558Y-96250505D01*
X191477554Y-96250500D01*
X191349499Y-96122445D01*
X191349494Y-96122441D01*
X191225432Y-96032305D01*
X191202996Y-96016005D01*
X191041639Y-95933788D01*
X191041636Y-95933787D01*
X190869410Y-95877829D01*
X190690551Y-95849500D01*
X190690546Y-95849500D01*
X190509454Y-95849500D01*
X190509449Y-95849500D01*
X190330589Y-95877829D01*
X190158363Y-95933787D01*
X190158360Y-95933788D01*
X189997002Y-96016006D01*
X189850505Y-96122441D01*
X189850500Y-96122445D01*
X189722445Y-96250500D01*
X189722441Y-96250505D01*
X189616006Y-96397002D01*
X189533788Y-96558360D01*
X189533787Y-96558363D01*
X189477829Y-96730589D01*
X189452473Y-96890678D01*
X189422544Y-96953813D01*
X189363232Y-96990744D01*
X189293369Y-96989746D01*
X189235137Y-96951136D01*
X189207527Y-96890678D01*
X189193740Y-96803639D01*
X189182171Y-96730591D01*
X189138530Y-96596275D01*
X189126212Y-96558363D01*
X189126211Y-96558360D01*
X189087191Y-96481780D01*
X189043996Y-96397006D01*
X189009637Y-96349714D01*
X188937558Y-96250505D01*
X188937554Y-96250500D01*
X188809499Y-96122445D01*
X188809494Y-96122441D01*
X188662997Y-96016006D01*
X188662996Y-96016005D01*
X188662994Y-96016004D01*
X188586906Y-95977235D01*
X188501639Y-95933788D01*
X188501636Y-95933787D01*
X188329410Y-95877829D01*
X188150551Y-95849500D01*
X188150546Y-95849500D01*
X187969454Y-95849500D01*
X187969449Y-95849500D01*
X187790589Y-95877829D01*
X187618363Y-95933787D01*
X187618360Y-95933788D01*
X187457002Y-96016006D01*
X187310505Y-96122441D01*
X187310500Y-96122445D01*
X187182445Y-96250500D01*
X187182441Y-96250505D01*
X187076006Y-96397002D01*
X186993788Y-96558360D01*
X186993787Y-96558363D01*
X186937829Y-96730589D01*
X186912473Y-96890678D01*
X186882544Y-96953813D01*
X186823232Y-96990744D01*
X186753369Y-96989746D01*
X186695137Y-96951136D01*
X186667527Y-96890678D01*
X186653740Y-96803639D01*
X186642171Y-96730591D01*
X186598530Y-96596275D01*
X186586212Y-96558363D01*
X186586211Y-96558360D01*
X186547191Y-96481780D01*
X186503996Y-96397006D01*
X186469637Y-96349714D01*
X186397558Y-96250505D01*
X186397554Y-96250500D01*
X186269499Y-96122445D01*
X186269494Y-96122441D01*
X186122997Y-96016006D01*
X186122996Y-96016005D01*
X186122994Y-96016004D01*
X186046906Y-95977235D01*
X185961639Y-95933788D01*
X185961636Y-95933787D01*
X185789410Y-95877829D01*
X185610551Y-95849500D01*
X185610546Y-95849500D01*
X185429454Y-95849500D01*
X185429449Y-95849500D01*
X185250589Y-95877829D01*
X185078363Y-95933787D01*
X185078360Y-95933788D01*
X184917002Y-96016006D01*
X184770505Y-96122441D01*
X184770500Y-96122445D01*
X184642445Y-96250500D01*
X184642441Y-96250505D01*
X184536006Y-96397002D01*
X184453788Y-96558360D01*
X184453787Y-96558363D01*
X184397829Y-96730589D01*
X184372473Y-96890678D01*
X184342544Y-96953813D01*
X184283232Y-96990744D01*
X184213369Y-96989746D01*
X184155137Y-96951136D01*
X184127527Y-96890678D01*
X184113740Y-96803639D01*
X184102171Y-96730591D01*
X184058530Y-96596275D01*
X184046212Y-96558363D01*
X184046211Y-96558360D01*
X184007191Y-96481780D01*
X183963996Y-96397006D01*
X183929637Y-96349714D01*
X183857558Y-96250505D01*
X183857554Y-96250500D01*
X183729499Y-96122445D01*
X183729494Y-96122441D01*
X183582997Y-96016006D01*
X183582996Y-96016005D01*
X183582994Y-96016004D01*
X183506906Y-95977235D01*
X183421639Y-95933788D01*
X183421636Y-95933787D01*
X183249410Y-95877829D01*
X183070551Y-95849500D01*
X183070546Y-95849500D01*
X182889454Y-95849500D01*
X182889449Y-95849500D01*
X182710589Y-95877829D01*
X182538363Y-95933787D01*
X182538360Y-95933788D01*
X182377002Y-96016006D01*
X182230505Y-96122441D01*
X182230500Y-96122445D01*
X182102445Y-96250500D01*
X182102441Y-96250505D01*
X181996006Y-96397002D01*
X181913788Y-96558360D01*
X181913787Y-96558363D01*
X181857829Y-96730589D01*
X181832473Y-96890678D01*
X181802544Y-96953813D01*
X181743232Y-96990744D01*
X181673369Y-96989746D01*
X181615137Y-96951136D01*
X181587527Y-96890678D01*
X181573740Y-96803639D01*
X181562171Y-96730591D01*
X181518530Y-96596275D01*
X181506212Y-96558363D01*
X181506211Y-96558360D01*
X181467191Y-96481780D01*
X181423996Y-96397006D01*
X181389637Y-96349714D01*
X181317558Y-96250505D01*
X181317554Y-96250500D01*
X181189499Y-96122445D01*
X181189494Y-96122441D01*
X181042997Y-96016006D01*
X181042996Y-96016005D01*
X181042994Y-96016004D01*
X180966906Y-95977235D01*
X180881639Y-95933788D01*
X180881636Y-95933787D01*
X180709410Y-95877829D01*
X180530551Y-95849500D01*
X180530546Y-95849500D01*
X180349454Y-95849500D01*
X180349449Y-95849500D01*
X180170589Y-95877829D01*
X179998363Y-95933787D01*
X179998360Y-95933788D01*
X179837002Y-96016006D01*
X179690505Y-96122441D01*
X179690500Y-96122445D01*
X179562445Y-96250500D01*
X179562441Y-96250505D01*
X179456006Y-96397002D01*
X179373788Y-96558360D01*
X179373787Y-96558363D01*
X179317829Y-96730589D01*
X179292473Y-96890678D01*
X179262544Y-96953813D01*
X179203232Y-96990744D01*
X179133369Y-96989746D01*
X179075137Y-96951136D01*
X179047527Y-96890678D01*
X179033740Y-96803639D01*
X179022171Y-96730591D01*
X178978530Y-96596275D01*
X178966212Y-96558363D01*
X178966211Y-96558360D01*
X178927191Y-96481780D01*
X178883996Y-96397006D01*
X178849637Y-96349714D01*
X178777558Y-96250505D01*
X178777554Y-96250500D01*
X178649499Y-96122445D01*
X178649494Y-96122441D01*
X178502997Y-96016006D01*
X178502996Y-96016005D01*
X178502994Y-96016004D01*
X178426906Y-95977235D01*
X178341639Y-95933788D01*
X178341636Y-95933787D01*
X178169410Y-95877829D01*
X177990551Y-95849500D01*
X177990546Y-95849500D01*
X177809454Y-95849500D01*
X177809449Y-95849500D01*
X177630589Y-95877829D01*
X177458363Y-95933787D01*
X177458360Y-95933788D01*
X177297002Y-96016006D01*
X177150505Y-96122441D01*
X177150500Y-96122445D01*
X177022445Y-96250500D01*
X177022441Y-96250505D01*
X176916006Y-96397002D01*
X176833788Y-96558360D01*
X176833787Y-96558363D01*
X176777829Y-96730589D01*
X176752473Y-96890678D01*
X176722544Y-96953813D01*
X176663232Y-96990744D01*
X176593369Y-96989746D01*
X176535137Y-96951136D01*
X176507527Y-96890678D01*
X176493740Y-96803639D01*
X176482171Y-96730591D01*
X176438530Y-96596275D01*
X176426212Y-96558363D01*
X176426211Y-96558360D01*
X176387191Y-96481780D01*
X176343996Y-96397006D01*
X176309637Y-96349714D01*
X176237558Y-96250505D01*
X176237554Y-96250500D01*
X176109499Y-96122445D01*
X176109494Y-96122441D01*
X175962997Y-96016006D01*
X175962996Y-96016005D01*
X175962994Y-96016004D01*
X175886906Y-95977235D01*
X175801639Y-95933788D01*
X175801636Y-95933787D01*
X175629410Y-95877829D01*
X175450551Y-95849500D01*
X175450546Y-95849500D01*
X175269454Y-95849500D01*
X175269449Y-95849500D01*
X175090589Y-95877829D01*
X174918363Y-95933787D01*
X174918360Y-95933788D01*
X174757002Y-96016006D01*
X174610505Y-96122441D01*
X174610500Y-96122445D01*
X174482445Y-96250500D01*
X174482441Y-96250505D01*
X174376004Y-96397004D01*
X174308908Y-96528685D01*
X174260933Y-96579480D01*
X174193112Y-96596275D01*
X174126977Y-96573737D01*
X174083527Y-96519021D01*
X174080492Y-96510705D01*
X174071094Y-96481780D01*
X173974624Y-96292449D01*
X173935270Y-96238282D01*
X173935269Y-96238282D01*
X173302962Y-96870590D01*
X173285925Y-96807007D01*
X173220099Y-96692993D01*
X173127007Y-96599901D01*
X173012993Y-96534075D01*
X172949409Y-96517037D01*
X173581716Y-95884728D01*
X173527550Y-95845375D01*
X173338217Y-95748904D01*
X173136129Y-95683242D01*
X172926246Y-95650000D01*
X172713754Y-95650000D01*
X172503872Y-95683242D01*
X172503869Y-95683242D01*
X172301782Y-95748904D01*
X172112439Y-95845380D01*
X172058282Y-95884727D01*
X172058282Y-95884728D01*
X172690591Y-96517037D01*
X172627007Y-96534075D01*
X172512993Y-96599901D01*
X172419901Y-96692993D01*
X172354075Y-96807007D01*
X172337037Y-96870591D01*
X171704728Y-96238282D01*
X171704727Y-96238282D01*
X171665380Y-96292439D01*
X171568905Y-96481781D01*
X171559506Y-96510708D01*
X171520068Y-96568383D01*
X171455709Y-96595581D01*
X171386862Y-96583666D01*
X171335387Y-96536421D01*
X171331090Y-96528684D01*
X171307191Y-96481780D01*
X171263996Y-96397006D01*
X171229637Y-96349714D01*
X171157558Y-96250505D01*
X171157554Y-96250500D01*
X171029499Y-96122445D01*
X171029494Y-96122441D01*
X170905432Y-96032305D01*
X170882996Y-96016005D01*
X170721639Y-95933788D01*
X170721636Y-95933787D01*
X170549410Y-95877829D01*
X170370551Y-95849500D01*
X170370546Y-95849500D01*
X170189454Y-95849500D01*
X170189449Y-95849500D01*
X170010589Y-95877829D01*
X169838363Y-95933787D01*
X169838360Y-95933788D01*
X169677002Y-96016006D01*
X169530505Y-96122441D01*
X169530500Y-96122445D01*
X169402445Y-96250500D01*
X169402441Y-96250505D01*
X169296006Y-96397002D01*
X169213788Y-96558360D01*
X169213787Y-96558363D01*
X169157829Y-96730589D01*
X169132473Y-96890678D01*
X169102544Y-96953813D01*
X169043232Y-96990744D01*
X168973369Y-96989746D01*
X168915137Y-96951136D01*
X168887527Y-96890678D01*
X168873740Y-96803639D01*
X168862171Y-96730591D01*
X168818530Y-96596275D01*
X168806212Y-96558363D01*
X168806211Y-96558360D01*
X168767191Y-96481780D01*
X168723996Y-96397006D01*
X168689637Y-96349714D01*
X168617558Y-96250505D01*
X168617554Y-96250500D01*
X168489499Y-96122445D01*
X168489494Y-96122441D01*
X168342997Y-96016006D01*
X168342996Y-96016005D01*
X168342994Y-96016004D01*
X168266906Y-95977235D01*
X168181639Y-95933788D01*
X168181636Y-95933787D01*
X168009410Y-95877829D01*
X167830551Y-95849500D01*
X167830546Y-95849500D01*
X167649454Y-95849500D01*
X167649449Y-95849500D01*
X167470589Y-95877829D01*
X167298363Y-95933787D01*
X167298360Y-95933788D01*
X167137002Y-96016006D01*
X166990505Y-96122441D01*
X166990500Y-96122445D01*
X166862445Y-96250500D01*
X166862441Y-96250505D01*
X166756006Y-96397002D01*
X166673788Y-96558360D01*
X166673787Y-96558363D01*
X166617829Y-96730589D01*
X166592473Y-96890678D01*
X166562544Y-96953813D01*
X166503232Y-96990744D01*
X166433369Y-96989746D01*
X166375137Y-96951136D01*
X166347527Y-96890678D01*
X166333740Y-96803639D01*
X166322171Y-96730591D01*
X166278530Y-96596275D01*
X166266212Y-96558363D01*
X166266211Y-96558360D01*
X166227191Y-96481780D01*
X166183996Y-96397006D01*
X166149637Y-96349714D01*
X166077558Y-96250505D01*
X166077554Y-96250500D01*
X165949499Y-96122445D01*
X165949494Y-96122441D01*
X165802997Y-96016006D01*
X165802996Y-96016005D01*
X165802994Y-96016004D01*
X165726906Y-95977235D01*
X165641639Y-95933788D01*
X165641636Y-95933787D01*
X165469410Y-95877829D01*
X165290551Y-95849500D01*
X165290546Y-95849500D01*
X165109454Y-95849500D01*
X165109449Y-95849500D01*
X164930589Y-95877829D01*
X164758363Y-95933787D01*
X164758360Y-95933788D01*
X164597002Y-96016006D01*
X164450505Y-96122441D01*
X164450500Y-96122445D01*
X164322445Y-96250500D01*
X164322441Y-96250505D01*
X164216006Y-96397002D01*
X164133788Y-96558360D01*
X164133787Y-96558363D01*
X164077829Y-96730589D01*
X164052473Y-96890678D01*
X164022544Y-96953813D01*
X163963232Y-96990744D01*
X163893369Y-96989746D01*
X163835137Y-96951136D01*
X163807527Y-96890678D01*
X163793740Y-96803639D01*
X163782171Y-96730591D01*
X163738530Y-96596275D01*
X163726212Y-96558363D01*
X163726211Y-96558360D01*
X163687191Y-96481780D01*
X163643996Y-96397006D01*
X163609637Y-96349714D01*
X163537558Y-96250505D01*
X163537554Y-96250500D01*
X163409499Y-96122445D01*
X163409494Y-96122441D01*
X163262997Y-96016006D01*
X163262996Y-96016005D01*
X163262994Y-96016004D01*
X163186906Y-95977235D01*
X163101639Y-95933788D01*
X163101636Y-95933787D01*
X162929410Y-95877829D01*
X162750551Y-95849500D01*
X162750546Y-95849500D01*
X162569454Y-95849500D01*
X162569449Y-95849500D01*
X162390589Y-95877829D01*
X162218363Y-95933787D01*
X162218360Y-95933788D01*
X162057002Y-96016006D01*
X161910505Y-96122441D01*
X161910500Y-96122445D01*
X161782445Y-96250500D01*
X161782441Y-96250505D01*
X161676006Y-96397002D01*
X161593788Y-96558360D01*
X161593787Y-96558363D01*
X161537829Y-96730589D01*
X161512473Y-96890678D01*
X161482544Y-96953813D01*
X161423232Y-96990744D01*
X161353369Y-96989746D01*
X161295137Y-96951136D01*
X161267527Y-96890678D01*
X161253740Y-96803639D01*
X161242171Y-96730591D01*
X161198530Y-96596275D01*
X161186212Y-96558363D01*
X161186211Y-96558360D01*
X161147191Y-96481780D01*
X161103996Y-96397006D01*
X161069637Y-96349714D01*
X160997558Y-96250505D01*
X160997554Y-96250500D01*
X160869499Y-96122445D01*
X160869494Y-96122441D01*
X160722997Y-96016006D01*
X160722996Y-96016005D01*
X160722994Y-96016004D01*
X160646906Y-95977235D01*
X160561639Y-95933788D01*
X160561636Y-95933787D01*
X160389410Y-95877829D01*
X160210551Y-95849500D01*
X160210546Y-95849500D01*
X160029454Y-95849500D01*
X160029449Y-95849500D01*
X159850589Y-95877829D01*
X159678363Y-95933787D01*
X159678360Y-95933788D01*
X159517002Y-96016006D01*
X159370505Y-96122441D01*
X159370500Y-96122445D01*
X159242445Y-96250500D01*
X159242441Y-96250505D01*
X159136006Y-96397002D01*
X159053788Y-96558360D01*
X159053787Y-96558363D01*
X158997829Y-96730589D01*
X158972473Y-96890678D01*
X158942544Y-96953813D01*
X158883232Y-96990744D01*
X158813369Y-96989746D01*
X158755137Y-96951136D01*
X158727527Y-96890678D01*
X158713740Y-96803639D01*
X158702171Y-96730591D01*
X158658530Y-96596275D01*
X158646212Y-96558363D01*
X158646211Y-96558360D01*
X158607191Y-96481780D01*
X158563996Y-96397006D01*
X158529637Y-96349714D01*
X158457558Y-96250505D01*
X158457554Y-96250500D01*
X158329499Y-96122445D01*
X158329494Y-96122441D01*
X158182997Y-96016006D01*
X158182996Y-96016005D01*
X158182994Y-96016004D01*
X158106906Y-95977235D01*
X158021639Y-95933788D01*
X158021636Y-95933787D01*
X157849410Y-95877829D01*
X157670551Y-95849500D01*
X157670546Y-95849500D01*
X157489454Y-95849500D01*
X157489449Y-95849500D01*
X157310589Y-95877829D01*
X157138363Y-95933787D01*
X157138360Y-95933788D01*
X156977002Y-96016006D01*
X156830505Y-96122441D01*
X156830500Y-96122445D01*
X156702445Y-96250500D01*
X156702441Y-96250505D01*
X156596006Y-96397002D01*
X156513788Y-96558360D01*
X156513787Y-96558363D01*
X156457829Y-96730589D01*
X156432473Y-96890678D01*
X156402544Y-96953813D01*
X156343232Y-96990744D01*
X156273369Y-96989746D01*
X156215137Y-96951136D01*
X156187527Y-96890678D01*
X156173740Y-96803639D01*
X156162171Y-96730591D01*
X156118530Y-96596275D01*
X156106212Y-96558363D01*
X156106211Y-96558360D01*
X156067191Y-96481780D01*
X156023996Y-96397006D01*
X155989637Y-96349714D01*
X155917558Y-96250505D01*
X155917554Y-96250500D01*
X155789499Y-96122445D01*
X155789494Y-96122441D01*
X155642997Y-96016006D01*
X155642996Y-96016005D01*
X155642994Y-96016004D01*
X155566906Y-95977235D01*
X155481639Y-95933788D01*
X155481636Y-95933787D01*
X155309410Y-95877829D01*
X155130551Y-95849500D01*
X155130546Y-95849500D01*
X154949454Y-95849500D01*
X154949449Y-95849500D01*
X154770589Y-95877829D01*
X154598363Y-95933787D01*
X154598360Y-95933788D01*
X154437002Y-96016006D01*
X154290505Y-96122441D01*
X154290500Y-96122445D01*
X154162445Y-96250500D01*
X154162441Y-96250505D01*
X154056006Y-96397002D01*
X153973788Y-96558360D01*
X153973787Y-96558363D01*
X153917829Y-96730589D01*
X153892473Y-96890678D01*
X153862544Y-96953813D01*
X153803232Y-96990744D01*
X153733369Y-96989746D01*
X153675137Y-96951136D01*
X153647527Y-96890678D01*
X153633740Y-96803639D01*
X153622171Y-96730591D01*
X153578530Y-96596275D01*
X153566212Y-96558363D01*
X153566211Y-96558360D01*
X153527191Y-96481780D01*
X153483996Y-96397006D01*
X153449637Y-96349714D01*
X153377558Y-96250505D01*
X153377554Y-96250500D01*
X153249499Y-96122445D01*
X153249494Y-96122441D01*
X153102997Y-96016006D01*
X153102996Y-96016005D01*
X153102994Y-96016004D01*
X153026906Y-95977235D01*
X152941639Y-95933788D01*
X152941636Y-95933787D01*
X152769410Y-95877829D01*
X152590551Y-95849500D01*
X152590546Y-95849500D01*
X152409454Y-95849500D01*
X152409449Y-95849500D01*
X152230589Y-95877829D01*
X152058363Y-95933787D01*
X152058360Y-95933788D01*
X151897002Y-96016006D01*
X151750505Y-96122441D01*
X151750500Y-96122445D01*
X151622445Y-96250500D01*
X151622441Y-96250505D01*
X151516006Y-96397002D01*
X151433788Y-96558360D01*
X151433787Y-96558363D01*
X151377829Y-96730589D01*
X151349500Y-96909448D01*
X149160000Y-96909448D01*
X149160000Y-96893753D01*
X149126757Y-96683872D01*
X149126757Y-96683869D01*
X149061095Y-96481782D01*
X148964624Y-96292449D01*
X148925270Y-96238282D01*
X148925269Y-96238282D01*
X148292962Y-96870590D01*
X148275925Y-96807007D01*
X148210099Y-96692993D01*
X148117007Y-96599901D01*
X148002993Y-96534075D01*
X147939409Y-96517037D01*
X148571716Y-95884728D01*
X148517550Y-95845375D01*
X148328217Y-95748904D01*
X148126129Y-95683242D01*
X147916246Y-95650000D01*
X147703754Y-95650000D01*
X147493872Y-95683242D01*
X147493869Y-95683242D01*
X147291782Y-95748904D01*
X147102439Y-95845380D01*
X147048282Y-95884727D01*
X147048282Y-95884728D01*
X147680591Y-96517037D01*
X147617007Y-96534075D01*
X147502993Y-96599901D01*
X147409901Y-96692993D01*
X147344075Y-96807007D01*
X147327037Y-96870590D01*
X146694728Y-96238282D01*
X146694727Y-96238282D01*
X146655380Y-96292439D01*
X146558905Y-96481781D01*
X146549506Y-96510708D01*
X146510068Y-96568383D01*
X146445709Y-96595581D01*
X146376862Y-96583666D01*
X146325387Y-96536421D01*
X146321090Y-96528684D01*
X146297191Y-96481780D01*
X146253996Y-96397006D01*
X146219637Y-96349714D01*
X146147558Y-96250505D01*
X146147554Y-96250500D01*
X146019499Y-96122445D01*
X146019494Y-96122441D01*
X145895432Y-96032305D01*
X145872996Y-96016005D01*
X145711639Y-95933788D01*
X145711636Y-95933787D01*
X145539410Y-95877829D01*
X145360551Y-95849500D01*
X145360546Y-95849500D01*
X145179454Y-95849500D01*
X145179449Y-95849500D01*
X145000589Y-95877829D01*
X144828363Y-95933787D01*
X144828360Y-95933788D01*
X144667002Y-96016006D01*
X144520505Y-96122441D01*
X144520500Y-96122445D01*
X144392445Y-96250500D01*
X144392441Y-96250505D01*
X144286006Y-96397002D01*
X144203788Y-96558360D01*
X144203787Y-96558363D01*
X144147829Y-96730589D01*
X144122473Y-96890678D01*
X144092544Y-96953813D01*
X144033232Y-96990744D01*
X143963369Y-96989746D01*
X143905137Y-96951136D01*
X143877527Y-96890678D01*
X143863740Y-96803639D01*
X143852171Y-96730591D01*
X143808530Y-96596275D01*
X143796212Y-96558363D01*
X143796211Y-96558360D01*
X143757191Y-96481780D01*
X143713996Y-96397006D01*
X143679637Y-96349714D01*
X143607558Y-96250505D01*
X143607554Y-96250500D01*
X143479499Y-96122445D01*
X143479494Y-96122441D01*
X143332997Y-96016006D01*
X143332996Y-96016005D01*
X143332994Y-96016004D01*
X143256906Y-95977235D01*
X143171639Y-95933788D01*
X143171636Y-95933787D01*
X142999410Y-95877829D01*
X142820551Y-95849500D01*
X142820546Y-95849500D01*
X142639454Y-95849500D01*
X142639449Y-95849500D01*
X142460589Y-95877829D01*
X142288363Y-95933787D01*
X142288360Y-95933788D01*
X142127002Y-96016006D01*
X141980505Y-96122441D01*
X141980500Y-96122445D01*
X141852445Y-96250500D01*
X141852441Y-96250505D01*
X141746006Y-96397002D01*
X141663788Y-96558360D01*
X141663787Y-96558363D01*
X141607829Y-96730589D01*
X141586972Y-96862271D01*
X141557042Y-96925405D01*
X141497731Y-96962336D01*
X141427868Y-96961338D01*
X141369636Y-96922728D01*
X141341522Y-96858764D01*
X141340499Y-96842872D01*
X141340499Y-96105143D01*
X141340499Y-96105136D01*
X141340497Y-96105117D01*
X141337586Y-96080012D01*
X141337585Y-96080010D01*
X141337585Y-96080009D01*
X141292206Y-95977235D01*
X141212765Y-95897794D01*
X141212763Y-95897793D01*
X141109992Y-95852415D01*
X141084865Y-95849500D01*
X139295143Y-95849500D01*
X139295117Y-95849502D01*
X139270012Y-95852413D01*
X139270008Y-95852415D01*
X139167235Y-95897793D01*
X139087794Y-95977234D01*
X139042415Y-96080006D01*
X139042415Y-96080008D01*
X139039500Y-96105131D01*
X136850499Y-96105131D01*
X136850499Y-96105130D01*
X136847586Y-96080012D01*
X136847585Y-96080010D01*
X136847585Y-96080009D01*
X136802206Y-95977235D01*
X136722765Y-95897794D01*
X136722763Y-95897793D01*
X136619992Y-95852415D01*
X136594865Y-95849500D01*
X134805143Y-95849500D01*
X134805117Y-95849502D01*
X134780012Y-95852413D01*
X134780008Y-95852415D01*
X134677235Y-95897793D01*
X134597794Y-95977234D01*
X134552415Y-96080006D01*
X134552415Y-96080008D01*
X134549500Y-96105131D01*
X134549500Y-96236920D01*
X134529815Y-96303959D01*
X134477011Y-96349714D01*
X134407853Y-96359658D01*
X134344297Y-96330633D01*
X134317505Y-96296398D01*
X134317171Y-96296604D01*
X134315382Y-96293685D01*
X134315018Y-96293220D01*
X134314627Y-96292454D01*
X134314626Y-96292452D01*
X134275270Y-96238282D01*
X134275269Y-96238282D01*
X133642962Y-96870590D01*
X133625925Y-96807007D01*
X133560099Y-96692993D01*
X133467007Y-96599901D01*
X133352993Y-96534075D01*
X133289409Y-96517037D01*
X133921716Y-95884728D01*
X133867550Y-95845375D01*
X133678217Y-95748904D01*
X133476129Y-95683242D01*
X133266246Y-95650000D01*
X133053754Y-95650000D01*
X132843872Y-95683242D01*
X132843869Y-95683242D01*
X132641782Y-95748904D01*
X132452439Y-95845380D01*
X132398282Y-95884727D01*
X132398282Y-95884728D01*
X133030591Y-96517037D01*
X132967007Y-96534075D01*
X132852993Y-96599901D01*
X132759901Y-96692993D01*
X132694075Y-96807007D01*
X132677037Y-96870591D01*
X132044728Y-96238282D01*
X132044727Y-96238282D01*
X132005380Y-96292439D01*
X131908905Y-96481781D01*
X131899506Y-96510708D01*
X131860068Y-96568383D01*
X131795709Y-96595581D01*
X131726862Y-96583666D01*
X131675387Y-96536421D01*
X131671090Y-96528684D01*
X131647191Y-96481780D01*
X131603996Y-96397006D01*
X131569637Y-96349714D01*
X131497558Y-96250505D01*
X131497554Y-96250500D01*
X131369499Y-96122445D01*
X131369494Y-96122441D01*
X131245432Y-96032305D01*
X131222996Y-96016005D01*
X131061639Y-95933788D01*
X131061636Y-95933787D01*
X130889410Y-95877829D01*
X130710551Y-95849500D01*
X130710546Y-95849500D01*
X130529454Y-95849500D01*
X130529449Y-95849500D01*
X130350589Y-95877829D01*
X130178363Y-95933787D01*
X130178360Y-95933788D01*
X130017002Y-96016006D01*
X129870505Y-96122441D01*
X129870500Y-96122445D01*
X129742445Y-96250500D01*
X129742441Y-96250505D01*
X129636006Y-96397002D01*
X129553788Y-96558360D01*
X129553787Y-96558363D01*
X129497829Y-96730589D01*
X129472473Y-96890678D01*
X129442544Y-96953813D01*
X129383232Y-96990744D01*
X129313369Y-96989746D01*
X129255137Y-96951136D01*
X129227527Y-96890678D01*
X129213740Y-96803639D01*
X129202171Y-96730591D01*
X129158530Y-96596275D01*
X129146212Y-96558363D01*
X129146211Y-96558360D01*
X129107191Y-96481780D01*
X129063996Y-96397006D01*
X129029637Y-96349714D01*
X128957558Y-96250505D01*
X128957554Y-96250500D01*
X128829499Y-96122445D01*
X128829494Y-96122441D01*
X128682997Y-96016006D01*
X128682996Y-96016005D01*
X128682994Y-96016004D01*
X128606906Y-95977235D01*
X128521639Y-95933788D01*
X128521636Y-95933787D01*
X128349410Y-95877829D01*
X128170551Y-95849500D01*
X128170546Y-95849500D01*
X127989454Y-95849500D01*
X127989449Y-95849500D01*
X127810589Y-95877829D01*
X127638363Y-95933787D01*
X127638360Y-95933788D01*
X127477002Y-96016006D01*
X127330505Y-96122441D01*
X127330500Y-96122445D01*
X127202445Y-96250500D01*
X127202441Y-96250505D01*
X127096006Y-96397002D01*
X127013788Y-96558360D01*
X127013787Y-96558363D01*
X126957829Y-96730589D01*
X126932473Y-96890678D01*
X126902544Y-96953813D01*
X126843232Y-96990744D01*
X126773369Y-96989746D01*
X126715137Y-96951136D01*
X126687527Y-96890678D01*
X126673740Y-96803639D01*
X126662171Y-96730591D01*
X126618530Y-96596275D01*
X126606212Y-96558363D01*
X126606211Y-96558360D01*
X126567191Y-96481780D01*
X126523996Y-96397006D01*
X126489637Y-96349714D01*
X126417558Y-96250505D01*
X126417554Y-96250500D01*
X126289499Y-96122445D01*
X126289494Y-96122441D01*
X126142997Y-96016006D01*
X126142996Y-96016005D01*
X126142994Y-96016004D01*
X126066906Y-95977235D01*
X125981639Y-95933788D01*
X125981636Y-95933787D01*
X125809410Y-95877829D01*
X125630551Y-95849500D01*
X125630546Y-95849500D01*
X125449454Y-95849500D01*
X125449449Y-95849500D01*
X125270589Y-95877829D01*
X125098363Y-95933787D01*
X125098360Y-95933788D01*
X124937002Y-96016006D01*
X124790505Y-96122441D01*
X124790500Y-96122445D01*
X124662445Y-96250500D01*
X124662441Y-96250505D01*
X124556006Y-96397002D01*
X124473788Y-96558360D01*
X124473787Y-96558363D01*
X124417829Y-96730589D01*
X124392473Y-96890678D01*
X124362544Y-96953813D01*
X124303232Y-96990744D01*
X124233369Y-96989746D01*
X124175137Y-96951136D01*
X124147527Y-96890678D01*
X124133740Y-96803639D01*
X124122171Y-96730591D01*
X124078530Y-96596275D01*
X124066212Y-96558363D01*
X124066211Y-96558360D01*
X124027191Y-96481780D01*
X123983996Y-96397006D01*
X123949637Y-96349714D01*
X123877558Y-96250505D01*
X123877554Y-96250500D01*
X123749499Y-96122445D01*
X123749494Y-96122441D01*
X123602997Y-96016006D01*
X123602996Y-96016005D01*
X123602994Y-96016004D01*
X123526906Y-95977235D01*
X123441639Y-95933788D01*
X123441636Y-95933787D01*
X123269410Y-95877829D01*
X123090551Y-95849500D01*
X123090546Y-95849500D01*
X122909454Y-95849500D01*
X122909449Y-95849500D01*
X122730589Y-95877829D01*
X122558363Y-95933787D01*
X122558360Y-95933788D01*
X122397002Y-96016006D01*
X122250505Y-96122441D01*
X122250500Y-96122445D01*
X122122445Y-96250500D01*
X122122441Y-96250505D01*
X122016006Y-96397002D01*
X121933788Y-96558360D01*
X121933787Y-96558363D01*
X121877829Y-96730589D01*
X121852473Y-96890678D01*
X121822544Y-96953813D01*
X121763232Y-96990744D01*
X121693369Y-96989746D01*
X121635137Y-96951136D01*
X121607527Y-96890678D01*
X121593740Y-96803639D01*
X121582171Y-96730591D01*
X121538530Y-96596275D01*
X121526212Y-96558363D01*
X121526211Y-96558360D01*
X121487191Y-96481780D01*
X121443996Y-96397006D01*
X121409637Y-96349714D01*
X121337558Y-96250505D01*
X121337554Y-96250500D01*
X121209499Y-96122445D01*
X121209494Y-96122441D01*
X121062997Y-96016006D01*
X121062996Y-96016005D01*
X121062994Y-96016004D01*
X120986906Y-95977235D01*
X120901639Y-95933788D01*
X120901636Y-95933787D01*
X120729410Y-95877829D01*
X120550551Y-95849500D01*
X120550546Y-95849500D01*
X120369454Y-95849500D01*
X120369449Y-95849500D01*
X120190589Y-95877829D01*
X120018363Y-95933787D01*
X120018360Y-95933788D01*
X119857002Y-96016006D01*
X119710505Y-96122441D01*
X119710500Y-96122445D01*
X119582445Y-96250500D01*
X119582441Y-96250505D01*
X119476006Y-96397002D01*
X119393788Y-96558360D01*
X119393787Y-96558363D01*
X119337829Y-96730589D01*
X119312473Y-96890678D01*
X119282544Y-96953813D01*
X119223232Y-96990744D01*
X119153369Y-96989746D01*
X119095137Y-96951136D01*
X119067527Y-96890678D01*
X119053740Y-96803639D01*
X119042171Y-96730591D01*
X118998530Y-96596275D01*
X118986212Y-96558363D01*
X118986211Y-96558360D01*
X118947191Y-96481780D01*
X118903996Y-96397006D01*
X118869637Y-96349714D01*
X118797558Y-96250505D01*
X118797554Y-96250500D01*
X118669499Y-96122445D01*
X118669494Y-96122441D01*
X118522997Y-96016006D01*
X118522996Y-96016005D01*
X118522994Y-96016004D01*
X118446906Y-95977235D01*
X118361639Y-95933788D01*
X118361636Y-95933787D01*
X118189410Y-95877829D01*
X118010551Y-95849500D01*
X118010546Y-95849500D01*
X117829454Y-95849500D01*
X117829449Y-95849500D01*
X117650589Y-95877829D01*
X117478363Y-95933787D01*
X117478360Y-95933788D01*
X117317002Y-96016006D01*
X117170505Y-96122441D01*
X117170500Y-96122445D01*
X117042445Y-96250500D01*
X117042441Y-96250505D01*
X116936004Y-96397004D01*
X116868908Y-96528685D01*
X116820933Y-96579480D01*
X116753112Y-96596275D01*
X116686977Y-96573737D01*
X116643527Y-96519021D01*
X116640492Y-96510705D01*
X116631094Y-96481780D01*
X116534624Y-96292449D01*
X116495270Y-96238282D01*
X116495269Y-96238282D01*
X115862962Y-96870590D01*
X115845925Y-96807007D01*
X115780099Y-96692993D01*
X115687007Y-96599901D01*
X115572993Y-96534075D01*
X115509409Y-96517037D01*
X116141716Y-95884728D01*
X116087550Y-95845375D01*
X115898217Y-95748904D01*
X115696129Y-95683242D01*
X115486246Y-95650000D01*
X115273754Y-95650000D01*
X115063872Y-95683242D01*
X115063869Y-95683242D01*
X114861782Y-95748904D01*
X114672439Y-95845380D01*
X114618282Y-95884727D01*
X114618282Y-95884728D01*
X115250591Y-96517037D01*
X115187007Y-96534075D01*
X115072993Y-96599901D01*
X114979901Y-96692993D01*
X114914075Y-96807007D01*
X114897037Y-96870591D01*
X114264728Y-96238282D01*
X114264727Y-96238282D01*
X114225380Y-96292439D01*
X114128905Y-96481781D01*
X114119506Y-96510708D01*
X114080068Y-96568383D01*
X114015709Y-96595581D01*
X113946862Y-96583666D01*
X113895387Y-96536421D01*
X113891090Y-96528684D01*
X113867191Y-96481780D01*
X113823996Y-96397006D01*
X113789637Y-96349714D01*
X113717558Y-96250505D01*
X113717554Y-96250500D01*
X113589499Y-96122445D01*
X113589494Y-96122441D01*
X113465432Y-96032305D01*
X113442996Y-96016005D01*
X113281639Y-95933788D01*
X113281636Y-95933787D01*
X113109410Y-95877829D01*
X112930551Y-95849500D01*
X112930546Y-95849500D01*
X112749454Y-95849500D01*
X112749449Y-95849500D01*
X112570589Y-95877829D01*
X112398363Y-95933787D01*
X112398360Y-95933788D01*
X112237002Y-96016006D01*
X112090505Y-96122441D01*
X112090500Y-96122445D01*
X111962445Y-96250500D01*
X111962441Y-96250505D01*
X111856006Y-96397002D01*
X111773788Y-96558360D01*
X111773787Y-96558363D01*
X111717829Y-96730589D01*
X111692473Y-96890678D01*
X111662544Y-96953813D01*
X111603232Y-96990744D01*
X111533369Y-96989746D01*
X111475137Y-96951136D01*
X111447527Y-96890678D01*
X111433740Y-96803639D01*
X111422171Y-96730591D01*
X111378530Y-96596275D01*
X111366212Y-96558363D01*
X111366211Y-96558360D01*
X111327191Y-96481780D01*
X111283996Y-96397006D01*
X111249637Y-96349714D01*
X111177558Y-96250505D01*
X111177554Y-96250500D01*
X111049499Y-96122445D01*
X111049494Y-96122441D01*
X110902997Y-96016006D01*
X110902996Y-96016005D01*
X110902994Y-96016004D01*
X110826906Y-95977235D01*
X110741639Y-95933788D01*
X110741636Y-95933787D01*
X110569410Y-95877829D01*
X110390551Y-95849500D01*
X110390546Y-95849500D01*
X110209454Y-95849500D01*
X110209449Y-95849500D01*
X110030589Y-95877829D01*
X109858363Y-95933787D01*
X109858360Y-95933788D01*
X109697002Y-96016006D01*
X109550505Y-96122441D01*
X109550500Y-96122445D01*
X109422445Y-96250500D01*
X109422441Y-96250505D01*
X109316006Y-96397002D01*
X109233788Y-96558360D01*
X109233787Y-96558363D01*
X109177829Y-96730589D01*
X109152473Y-96890678D01*
X109122544Y-96953813D01*
X109063232Y-96990744D01*
X108993369Y-96989746D01*
X108935137Y-96951136D01*
X108907527Y-96890678D01*
X108893740Y-96803639D01*
X108882171Y-96730591D01*
X108838530Y-96596275D01*
X108826212Y-96558363D01*
X108826211Y-96558360D01*
X108787191Y-96481780D01*
X108743996Y-96397006D01*
X108709637Y-96349714D01*
X108637558Y-96250505D01*
X108637554Y-96250500D01*
X108509499Y-96122445D01*
X108509494Y-96122441D01*
X108362997Y-96016006D01*
X108362996Y-96016005D01*
X108362994Y-96016004D01*
X108286906Y-95977235D01*
X108201639Y-95933788D01*
X108201636Y-95933787D01*
X108029410Y-95877829D01*
X107850551Y-95849500D01*
X107850546Y-95849500D01*
X107669454Y-95849500D01*
X107669449Y-95849500D01*
X107490589Y-95877829D01*
X107318363Y-95933787D01*
X107318360Y-95933788D01*
X107157002Y-96016006D01*
X107010505Y-96122441D01*
X107010500Y-96122445D01*
X106882445Y-96250500D01*
X106882441Y-96250505D01*
X106776006Y-96397002D01*
X106693788Y-96558360D01*
X106693787Y-96558363D01*
X106637829Y-96730589D01*
X106612473Y-96890678D01*
X106582544Y-96953813D01*
X106523232Y-96990744D01*
X106453369Y-96989746D01*
X106395137Y-96951136D01*
X106367527Y-96890678D01*
X106353740Y-96803639D01*
X106342171Y-96730591D01*
X106298530Y-96596275D01*
X106286212Y-96558363D01*
X106286211Y-96558360D01*
X106247191Y-96481780D01*
X106203996Y-96397006D01*
X106169637Y-96349714D01*
X106097558Y-96250505D01*
X106097554Y-96250500D01*
X105969499Y-96122445D01*
X105969494Y-96122441D01*
X105822997Y-96016006D01*
X105822996Y-96016005D01*
X105822994Y-96016004D01*
X105746906Y-95977235D01*
X105661639Y-95933788D01*
X105661636Y-95933787D01*
X105489410Y-95877829D01*
X105310551Y-95849500D01*
X105310546Y-95849500D01*
X105129454Y-95849500D01*
X105129449Y-95849500D01*
X104950589Y-95877829D01*
X104778363Y-95933787D01*
X104778360Y-95933788D01*
X104617002Y-96016006D01*
X104470505Y-96122441D01*
X104470500Y-96122445D01*
X104342445Y-96250500D01*
X104342441Y-96250505D01*
X104236006Y-96397002D01*
X104153788Y-96558360D01*
X104153787Y-96558363D01*
X104097829Y-96730589D01*
X104072473Y-96890678D01*
X104042544Y-96953813D01*
X103983232Y-96990744D01*
X103913369Y-96989746D01*
X103855137Y-96951136D01*
X103827527Y-96890678D01*
X103813740Y-96803639D01*
X103802171Y-96730591D01*
X103758530Y-96596275D01*
X103746212Y-96558363D01*
X103746211Y-96558360D01*
X103707191Y-96481780D01*
X103663996Y-96397006D01*
X103629637Y-96349714D01*
X103557558Y-96250505D01*
X103557554Y-96250500D01*
X103429499Y-96122445D01*
X103429494Y-96122441D01*
X103282997Y-96016006D01*
X103282996Y-96016005D01*
X103282994Y-96016004D01*
X103206906Y-95977235D01*
X103121639Y-95933788D01*
X103121636Y-95933787D01*
X102949410Y-95877829D01*
X102770551Y-95849500D01*
X102770546Y-95849500D01*
X102589454Y-95849500D01*
X102589449Y-95849500D01*
X102410589Y-95877829D01*
X102238363Y-95933787D01*
X102238360Y-95933788D01*
X102077002Y-96016006D01*
X101930505Y-96122441D01*
X101930500Y-96122445D01*
X101802445Y-96250500D01*
X101802441Y-96250505D01*
X101696006Y-96397002D01*
X101613788Y-96558360D01*
X101613787Y-96558363D01*
X101557829Y-96730589D01*
X101529500Y-96909448D01*
X100500500Y-96909448D01*
X100500500Y-93697743D01*
X140775900Y-93697743D01*
X140775900Y-93855856D01*
X140816823Y-94008583D01*
X140816826Y-94008590D01*
X140895875Y-94145509D01*
X140895879Y-94145514D01*
X140895880Y-94145516D01*
X141007684Y-94257320D01*
X141007686Y-94257321D01*
X141007690Y-94257324D01*
X141124406Y-94324709D01*
X141144616Y-94336377D01*
X141297343Y-94377300D01*
X141297345Y-94377300D01*
X141455455Y-94377300D01*
X141455457Y-94377300D01*
X141608184Y-94336377D01*
X141745116Y-94257320D01*
X141856920Y-94145516D01*
X141935977Y-94008584D01*
X141971250Y-93876943D01*
X151330300Y-93876943D01*
X151330300Y-94035057D01*
X151359898Y-94145516D01*
X151371223Y-94187783D01*
X151371226Y-94187790D01*
X151450275Y-94324709D01*
X151450279Y-94324714D01*
X151450280Y-94324716D01*
X151562084Y-94436520D01*
X151562086Y-94436521D01*
X151562090Y-94436524D01*
X151699009Y-94515573D01*
X151699016Y-94515577D01*
X151851743Y-94556500D01*
X151851745Y-94556500D01*
X152009855Y-94556500D01*
X152009857Y-94556500D01*
X152162584Y-94515577D01*
X152299516Y-94436520D01*
X152411320Y-94324716D01*
X152490377Y-94187784D01*
X152531300Y-94035057D01*
X152531300Y-93876943D01*
X152490377Y-93724216D01*
X152456824Y-93666100D01*
X152411324Y-93587290D01*
X152411318Y-93587282D01*
X152299517Y-93475481D01*
X152299509Y-93475475D01*
X152162590Y-93396426D01*
X152162586Y-93396424D01*
X152162584Y-93396423D01*
X152009857Y-93355500D01*
X151851743Y-93355500D01*
X151699016Y-93396423D01*
X151699009Y-93396426D01*
X151562090Y-93475475D01*
X151562082Y-93475481D01*
X151450281Y-93587282D01*
X151450275Y-93587290D01*
X151371226Y-93724209D01*
X151371223Y-93724216D01*
X151330300Y-93876943D01*
X141971250Y-93876943D01*
X141976900Y-93855857D01*
X141976900Y-93697743D01*
X141935977Y-93545016D01*
X141935973Y-93545009D01*
X141856924Y-93408090D01*
X141856918Y-93408082D01*
X141745117Y-93296281D01*
X141745109Y-93296275D01*
X141608190Y-93217226D01*
X141608186Y-93217224D01*
X141608184Y-93217223D01*
X141455457Y-93176300D01*
X141297343Y-93176300D01*
X141144616Y-93217223D01*
X141144609Y-93217226D01*
X141007690Y-93296275D01*
X141007682Y-93296281D01*
X140895881Y-93408082D01*
X140895875Y-93408090D01*
X140816826Y-93545009D01*
X140816823Y-93545016D01*
X140775900Y-93697743D01*
X100500500Y-93697743D01*
X100500500Y-92986543D01*
X147837100Y-92986543D01*
X147837100Y-93144657D01*
X147877728Y-93296281D01*
X147878023Y-93297383D01*
X147878026Y-93297390D01*
X147957075Y-93434309D01*
X147957079Y-93434314D01*
X147957080Y-93434316D01*
X148068884Y-93546120D01*
X148068886Y-93546121D01*
X148068890Y-93546124D01*
X148140193Y-93587290D01*
X148205816Y-93625177D01*
X148358543Y-93666100D01*
X148358545Y-93666100D01*
X148516655Y-93666100D01*
X148516657Y-93666100D01*
X148669384Y-93625177D01*
X148806316Y-93546120D01*
X148918120Y-93434316D01*
X148997177Y-93297384D01*
X149038100Y-93144657D01*
X149038100Y-92986543D01*
X148997177Y-92833816D01*
X148997173Y-92833809D01*
X148918124Y-92696890D01*
X148918118Y-92696882D01*
X148806317Y-92585081D01*
X148806309Y-92585075D01*
X148669390Y-92506026D01*
X148669386Y-92506024D01*
X148669384Y-92506023D01*
X148661621Y-92503943D01*
X176310500Y-92503943D01*
X176310500Y-92662057D01*
X176329184Y-92731784D01*
X176351423Y-92814783D01*
X176351426Y-92814790D01*
X176430475Y-92951709D01*
X176430479Y-92951714D01*
X176430480Y-92951716D01*
X176542284Y-93063520D01*
X176542286Y-93063521D01*
X176542290Y-93063524D01*
X176679209Y-93142573D01*
X176679216Y-93142577D01*
X176831943Y-93183500D01*
X176831945Y-93183500D01*
X176990055Y-93183500D01*
X176990057Y-93183500D01*
X177142784Y-93142577D01*
X177279716Y-93063520D01*
X177391520Y-92951716D01*
X177470577Y-92814784D01*
X177511500Y-92662057D01*
X177511500Y-92503943D01*
X177489260Y-92420943D01*
X185649500Y-92420943D01*
X185649500Y-92579057D01*
X185671740Y-92662056D01*
X185690423Y-92731783D01*
X185690426Y-92731790D01*
X185769475Y-92868709D01*
X185769479Y-92868714D01*
X185769480Y-92868716D01*
X185881284Y-92980520D01*
X185881286Y-92980521D01*
X185881290Y-92980524D01*
X186018209Y-93059573D01*
X186018216Y-93059577D01*
X186170943Y-93100500D01*
X186170945Y-93100500D01*
X186329055Y-93100500D01*
X186329057Y-93100500D01*
X186481784Y-93059577D01*
X186618716Y-92980520D01*
X186730520Y-92868716D01*
X186809577Y-92731784D01*
X186850500Y-92579057D01*
X186850500Y-92420943D01*
X186809577Y-92268216D01*
X186792146Y-92238024D01*
X186730524Y-92131290D01*
X186730518Y-92131282D01*
X186618717Y-92019481D01*
X186618709Y-92019475D01*
X186481790Y-91940426D01*
X186481786Y-91940424D01*
X186481784Y-91940423D01*
X186329057Y-91899500D01*
X186170943Y-91899500D01*
X186018216Y-91940423D01*
X186018209Y-91940426D01*
X185881290Y-92019475D01*
X185881282Y-92019481D01*
X185769481Y-92131282D01*
X185769475Y-92131290D01*
X185690426Y-92268209D01*
X185690423Y-92268216D01*
X185649500Y-92420943D01*
X177489260Y-92420943D01*
X177470577Y-92351216D01*
X177450867Y-92317077D01*
X177391524Y-92214290D01*
X177391518Y-92214282D01*
X177279717Y-92102481D01*
X177279709Y-92102475D01*
X177142790Y-92023426D01*
X177142786Y-92023424D01*
X177142784Y-92023423D01*
X176990057Y-91982500D01*
X176831943Y-91982500D01*
X176679216Y-92023423D01*
X176679209Y-92023426D01*
X176542290Y-92102475D01*
X176542282Y-92102481D01*
X176430481Y-92214282D01*
X176430475Y-92214290D01*
X176351426Y-92351209D01*
X176351424Y-92351214D01*
X176351423Y-92351216D01*
X176310500Y-92503943D01*
X148661621Y-92503943D01*
X148516657Y-92465100D01*
X148358543Y-92465100D01*
X148205816Y-92506023D01*
X148205809Y-92506026D01*
X148068890Y-92585075D01*
X148068882Y-92585081D01*
X147957081Y-92696882D01*
X147957075Y-92696890D01*
X147878026Y-92833809D01*
X147878023Y-92833816D01*
X147837100Y-92986543D01*
X100500500Y-92986543D01*
X100500500Y-91678443D01*
X129257000Y-91678443D01*
X129257000Y-91836557D01*
X129296106Y-91982500D01*
X129297923Y-91989283D01*
X129297926Y-91989290D01*
X129376975Y-92126209D01*
X129376979Y-92126214D01*
X129376980Y-92126216D01*
X129488784Y-92238020D01*
X129488786Y-92238021D01*
X129488790Y-92238024D01*
X129625709Y-92317073D01*
X129625716Y-92317077D01*
X129778443Y-92358000D01*
X129778445Y-92358000D01*
X129936555Y-92358000D01*
X129936557Y-92358000D01*
X130089284Y-92317077D01*
X130226216Y-92238020D01*
X130338020Y-92126216D01*
X130417077Y-91989284D01*
X130458000Y-91836557D01*
X130458000Y-91678443D01*
X130417077Y-91525716D01*
X130338023Y-91388790D01*
X130338022Y-91388787D01*
X130338018Y-91388782D01*
X130310179Y-91360943D01*
X145449500Y-91360943D01*
X145449500Y-91519057D01*
X145467302Y-91585493D01*
X145490423Y-91671783D01*
X145490426Y-91671790D01*
X145569475Y-91808709D01*
X145569479Y-91808714D01*
X145569480Y-91808716D01*
X145681284Y-91920520D01*
X145681286Y-91920521D01*
X145681290Y-91920524D01*
X145788637Y-91982500D01*
X145818216Y-91999577D01*
X145970943Y-92040500D01*
X145991130Y-92040500D01*
X146058169Y-92060185D01*
X146103924Y-92112989D01*
X146110905Y-92132406D01*
X146150823Y-92281385D01*
X146150826Y-92281390D01*
X146229875Y-92418309D01*
X146229879Y-92418314D01*
X146229880Y-92418316D01*
X146341684Y-92530120D01*
X146341686Y-92530121D01*
X146341690Y-92530124D01*
X146436878Y-92585080D01*
X146478616Y-92609177D01*
X146631343Y-92650100D01*
X146631345Y-92650100D01*
X146789455Y-92650100D01*
X146789457Y-92650100D01*
X146942184Y-92609177D01*
X147079116Y-92530120D01*
X147190920Y-92418316D01*
X147269977Y-92281384D01*
X147310900Y-92128657D01*
X147310900Y-91970543D01*
X147269977Y-91817816D01*
X147264719Y-91808709D01*
X147190924Y-91680890D01*
X147190918Y-91680882D01*
X147079117Y-91569081D01*
X147079109Y-91569075D01*
X146942190Y-91490026D01*
X146942186Y-91490024D01*
X146942184Y-91490023D01*
X146789457Y-91449100D01*
X146789456Y-91449100D01*
X146769270Y-91449100D01*
X146702231Y-91429415D01*
X146656476Y-91376611D01*
X146649495Y-91357194D01*
X146609577Y-91208216D01*
X146580008Y-91157000D01*
X146530524Y-91071290D01*
X146530518Y-91071282D01*
X146418717Y-90959481D01*
X146418709Y-90959475D01*
X146322177Y-90903743D01*
X147329100Y-90903743D01*
X147329100Y-91061857D01*
X147365758Y-91198664D01*
X147370023Y-91214583D01*
X147370026Y-91214590D01*
X147449075Y-91351509D01*
X147449079Y-91351514D01*
X147449080Y-91351516D01*
X147560884Y-91463320D01*
X147560886Y-91463321D01*
X147560890Y-91463324D01*
X147657422Y-91519056D01*
X147697816Y-91542377D01*
X147850543Y-91583300D01*
X147850545Y-91583300D01*
X148008655Y-91583300D01*
X148008657Y-91583300D01*
X148161384Y-91542377D01*
X148298316Y-91463320D01*
X148410120Y-91351516D01*
X148462897Y-91260101D01*
X148513461Y-91211888D01*
X148582068Y-91198664D01*
X148646933Y-91224631D01*
X148677670Y-91260103D01*
X148731711Y-91353705D01*
X148731713Y-91353708D01*
X148731714Y-91353709D01*
X148843518Y-91465513D01*
X148843520Y-91465514D01*
X148843524Y-91465517D01*
X148980443Y-91544566D01*
X148980450Y-91544570D01*
X149133177Y-91585493D01*
X149133179Y-91585493D01*
X149291289Y-91585493D01*
X149291291Y-91585493D01*
X149444018Y-91544570D01*
X149580950Y-91465513D01*
X149692754Y-91353709D01*
X149771811Y-91216777D01*
X149812734Y-91064050D01*
X149812734Y-90945448D01*
X149832419Y-90878409D01*
X149881776Y-90835640D01*
X149881546Y-90835241D01*
X149883617Y-90834044D01*
X149885223Y-90832654D01*
X149888488Y-90831232D01*
X149888582Y-90831177D01*
X149888584Y-90831177D01*
X150025516Y-90752120D01*
X150137320Y-90640316D01*
X150216377Y-90503384D01*
X150257300Y-90350657D01*
X150257300Y-90192543D01*
X150216377Y-90039816D01*
X150137383Y-89902993D01*
X150137324Y-89902890D01*
X150137318Y-89902882D01*
X150025517Y-89791081D01*
X150025509Y-89791075D01*
X149888590Y-89712026D01*
X149888586Y-89712024D01*
X149888584Y-89712023D01*
X149735857Y-89671100D01*
X149577743Y-89671100D01*
X149425016Y-89712023D01*
X149425009Y-89712026D01*
X149288090Y-89791075D01*
X149288082Y-89791081D01*
X149176281Y-89902882D01*
X149176275Y-89902890D01*
X149097226Y-90039809D01*
X149097223Y-90039816D01*
X149056300Y-90192543D01*
X149056300Y-90311143D01*
X149036615Y-90378182D01*
X148987256Y-90420951D01*
X148987488Y-90421352D01*
X148985409Y-90422552D01*
X148983811Y-90423937D01*
X148980555Y-90425354D01*
X148843524Y-90504468D01*
X148843516Y-90504474D01*
X148731715Y-90616275D01*
X148731711Y-90616280D01*
X148678937Y-90707689D01*
X148628370Y-90755905D01*
X148559763Y-90769128D01*
X148494898Y-90743160D01*
X148464163Y-90707689D01*
X148410122Y-90614087D01*
X148410118Y-90614082D01*
X148298317Y-90502281D01*
X148298309Y-90502275D01*
X148161390Y-90423226D01*
X148161386Y-90423224D01*
X148161384Y-90423223D01*
X148008657Y-90382300D01*
X147850543Y-90382300D01*
X147697816Y-90423223D01*
X147697809Y-90423226D01*
X147560890Y-90502275D01*
X147560882Y-90502281D01*
X147449081Y-90614082D01*
X147449075Y-90614090D01*
X147370026Y-90751009D01*
X147370023Y-90751016D01*
X147329100Y-90903743D01*
X146322177Y-90903743D01*
X146281790Y-90880426D01*
X146281786Y-90880424D01*
X146281784Y-90880423D01*
X146129057Y-90839500D01*
X145970943Y-90839500D01*
X145818216Y-90880423D01*
X145818209Y-90880426D01*
X145681290Y-90959475D01*
X145681282Y-90959481D01*
X145569481Y-91071282D01*
X145569475Y-91071290D01*
X145490426Y-91208209D01*
X145490424Y-91208214D01*
X145490423Y-91208216D01*
X145449500Y-91360943D01*
X130310179Y-91360943D01*
X130226217Y-91276981D01*
X130226209Y-91276975D01*
X130089290Y-91197926D01*
X130089286Y-91197924D01*
X130089284Y-91197923D01*
X129936557Y-91157000D01*
X129778443Y-91157000D01*
X129625716Y-91197923D01*
X129625709Y-91197926D01*
X129488790Y-91276975D01*
X129488782Y-91276981D01*
X129376981Y-91388782D01*
X129376975Y-91388790D01*
X129297926Y-91525709D01*
X129297923Y-91525716D01*
X129257000Y-91678443D01*
X100500500Y-91678443D01*
X100500500Y-90103753D01*
X101250000Y-90103753D01*
X101250000Y-90316246D01*
X101283242Y-90526127D01*
X101283242Y-90526130D01*
X101348904Y-90728217D01*
X101445375Y-90917550D01*
X101484728Y-90971716D01*
X102117037Y-90339408D01*
X102134075Y-90402993D01*
X102199901Y-90517007D01*
X102292993Y-90610099D01*
X102407007Y-90675925D01*
X102470590Y-90692962D01*
X101838282Y-91325269D01*
X101838282Y-91325270D01*
X101892449Y-91364624D01*
X102081782Y-91461095D01*
X102283870Y-91526757D01*
X102493754Y-91560000D01*
X102706246Y-91560000D01*
X102783002Y-91547843D01*
X102916127Y-91526757D01*
X102916130Y-91526757D01*
X103118217Y-91461095D01*
X103307554Y-91364622D01*
X103361716Y-91325270D01*
X103361717Y-91325270D01*
X102729408Y-90692962D01*
X102792993Y-90675925D01*
X102907007Y-90610099D01*
X103000099Y-90517007D01*
X103065925Y-90402993D01*
X103082962Y-90339408D01*
X103715270Y-90971717D01*
X103715270Y-90971716D01*
X103754622Y-90917554D01*
X103851095Y-90728217D01*
X103916757Y-90526130D01*
X103916757Y-90526127D01*
X103950000Y-90316246D01*
X103950000Y-90103753D01*
X103916757Y-89893872D01*
X103916757Y-89893869D01*
X103851095Y-89691782D01*
X103754624Y-89502449D01*
X103715270Y-89448282D01*
X103715269Y-89448282D01*
X103082962Y-90080590D01*
X103065925Y-90017007D01*
X103000099Y-89902993D01*
X102907007Y-89809901D01*
X102792993Y-89744075D01*
X102729409Y-89727037D01*
X103361716Y-89094728D01*
X103307550Y-89055375D01*
X103118217Y-88958904D01*
X103089292Y-88949506D01*
X103031616Y-88910068D01*
X103004418Y-88845710D01*
X103016333Y-88776863D01*
X103063577Y-88725388D01*
X103071315Y-88721090D01*
X103202994Y-88653996D01*
X103349501Y-88547553D01*
X103431061Y-88465993D01*
X136951750Y-88465993D01*
X136951750Y-88624107D01*
X136992501Y-88776190D01*
X136992673Y-88776833D01*
X136992676Y-88776840D01*
X137071725Y-88913759D01*
X137071729Y-88913764D01*
X137071730Y-88913766D01*
X137183534Y-89025570D01*
X137183536Y-89025571D01*
X137183540Y-89025574D01*
X137303320Y-89094728D01*
X137320466Y-89104627D01*
X137473193Y-89145550D01*
X137473195Y-89145550D01*
X137631305Y-89145550D01*
X137631307Y-89145550D01*
X137784034Y-89104627D01*
X137920966Y-89025570D01*
X138032770Y-88913766D01*
X138111827Y-88776834D01*
X138152750Y-88624107D01*
X138152750Y-88465993D01*
X138152576Y-88465343D01*
X140166300Y-88465343D01*
X140166300Y-88623457D01*
X140205316Y-88769065D01*
X140207223Y-88776183D01*
X140207226Y-88776190D01*
X140286275Y-88913109D01*
X140286279Y-88913114D01*
X140286280Y-88913116D01*
X140398084Y-89024920D01*
X140398086Y-89024921D01*
X140398090Y-89024924D01*
X140518994Y-89094727D01*
X140535016Y-89103977D01*
X140687743Y-89144900D01*
X140687745Y-89144900D01*
X140845855Y-89144900D01*
X140845857Y-89144900D01*
X140998584Y-89103977D01*
X141135516Y-89024920D01*
X141247320Y-88913116D01*
X141326377Y-88776184D01*
X141367300Y-88623457D01*
X141367300Y-88465343D01*
X141326377Y-88312616D01*
X141303503Y-88272997D01*
X141247324Y-88175690D01*
X141247318Y-88175682D01*
X141135517Y-88063881D01*
X141135509Y-88063875D01*
X140998590Y-87984826D01*
X140998586Y-87984824D01*
X140998584Y-87984823D01*
X140845857Y-87943900D01*
X140687743Y-87943900D01*
X140535016Y-87984823D01*
X140535009Y-87984826D01*
X140398090Y-88063875D01*
X140398082Y-88063881D01*
X140286281Y-88175682D01*
X140286275Y-88175690D01*
X140207226Y-88312609D01*
X140207223Y-88312616D01*
X140166300Y-88465343D01*
X138152576Y-88465343D01*
X138111827Y-88313266D01*
X138088576Y-88272994D01*
X138032774Y-88176340D01*
X138032768Y-88176332D01*
X137920967Y-88064531D01*
X137920959Y-88064525D01*
X137784040Y-87985476D01*
X137784036Y-87985474D01*
X137784034Y-87985473D01*
X137631307Y-87944550D01*
X137473193Y-87944550D01*
X137320466Y-87985473D01*
X137320459Y-87985476D01*
X137183540Y-88064525D01*
X137183532Y-88064531D01*
X137071731Y-88176332D01*
X137071725Y-88176340D01*
X136992676Y-88313259D01*
X136992673Y-88313266D01*
X136951750Y-88465993D01*
X103431061Y-88465993D01*
X103477553Y-88419501D01*
X103477555Y-88419497D01*
X103477558Y-88419495D01*
X103502634Y-88384981D01*
X103555214Y-88312609D01*
X103583996Y-88272994D01*
X103666211Y-88111639D01*
X103722171Y-87939409D01*
X103736765Y-87847259D01*
X103750500Y-87760551D01*
X103750500Y-87579451D01*
X103747770Y-87562216D01*
X103747770Y-87562214D01*
X103745985Y-87550943D01*
X125129500Y-87550943D01*
X125129500Y-87709057D01*
X125143297Y-87760546D01*
X125170423Y-87861783D01*
X125170426Y-87861790D01*
X125249475Y-87998709D01*
X125249479Y-87998714D01*
X125249480Y-87998716D01*
X125361284Y-88110520D01*
X125361286Y-88110521D01*
X125361290Y-88110524D01*
X125498209Y-88189573D01*
X125498216Y-88189577D01*
X125650943Y-88230500D01*
X125650945Y-88230500D01*
X125809055Y-88230500D01*
X125809057Y-88230500D01*
X125961784Y-88189577D01*
X126098716Y-88110520D01*
X126210520Y-87998716D01*
X126289577Y-87861784D01*
X126330500Y-87709057D01*
X126330500Y-87550943D01*
X126289577Y-87398216D01*
X126289573Y-87398209D01*
X126210524Y-87261290D01*
X126210518Y-87261282D01*
X126098717Y-87149481D01*
X126098709Y-87149475D01*
X125961790Y-87070426D01*
X125961786Y-87070424D01*
X125961784Y-87070423D01*
X125809057Y-87029500D01*
X125650943Y-87029500D01*
X125498216Y-87070423D01*
X125498209Y-87070426D01*
X125361290Y-87149475D01*
X125361282Y-87149481D01*
X125249481Y-87261282D01*
X125249475Y-87261290D01*
X125170426Y-87398209D01*
X125170423Y-87398216D01*
X125129500Y-87550943D01*
X103745985Y-87550943D01*
X103734490Y-87478373D01*
X103722171Y-87400591D01*
X103666211Y-87228361D01*
X103666211Y-87228360D01*
X103620322Y-87138299D01*
X103583996Y-87067006D01*
X103570396Y-87048287D01*
X103477558Y-86920505D01*
X103477554Y-86920500D01*
X103349499Y-86792445D01*
X103349494Y-86792441D01*
X103202997Y-86686006D01*
X103202996Y-86686005D01*
X103202994Y-86686004D01*
X103151300Y-86659664D01*
X103041639Y-86603788D01*
X103041636Y-86603787D01*
X102869410Y-86547829D01*
X102709321Y-86522473D01*
X102646186Y-86492544D01*
X102609255Y-86433232D01*
X102610253Y-86363370D01*
X102648863Y-86305137D01*
X102709321Y-86277527D01*
X102779425Y-86266422D01*
X102869409Y-86252171D01*
X103041639Y-86196211D01*
X103202994Y-86113996D01*
X103349501Y-86007553D01*
X103477553Y-85879501D01*
X103583996Y-85732994D01*
X103595996Y-85709443D01*
X135734000Y-85709443D01*
X135734000Y-85867557D01*
X135764627Y-85981856D01*
X135774923Y-86020283D01*
X135774926Y-86020290D01*
X135853975Y-86157209D01*
X135853979Y-86157214D01*
X135853980Y-86157216D01*
X135965784Y-86269020D01*
X135965786Y-86269021D01*
X135965790Y-86269024D01*
X136083412Y-86336932D01*
X136102716Y-86348077D01*
X136255443Y-86389000D01*
X136255445Y-86389000D01*
X136413555Y-86389000D01*
X136413557Y-86389000D01*
X136566284Y-86348077D01*
X136703216Y-86269020D01*
X136815020Y-86157216D01*
X136894077Y-86020284D01*
X136935000Y-85867557D01*
X136935000Y-85823743D01*
X139963100Y-85823743D01*
X139963100Y-85981857D01*
X139998507Y-86113996D01*
X140004023Y-86134583D01*
X140004026Y-86134590D01*
X140083075Y-86271509D01*
X140083079Y-86271514D01*
X140083080Y-86271516D01*
X140194884Y-86383320D01*
X140194886Y-86383321D01*
X140194890Y-86383324D01*
X140324404Y-86458098D01*
X140331816Y-86462377D01*
X140484543Y-86503300D01*
X140484545Y-86503300D01*
X140642655Y-86503300D01*
X140642657Y-86503300D01*
X140795384Y-86462377D01*
X140932316Y-86383320D01*
X140945219Y-86370417D01*
X141006542Y-86336932D01*
X141076234Y-86341916D01*
X141132167Y-86383788D01*
X141156584Y-86449252D01*
X141156900Y-86458098D01*
X141156900Y-86458743D01*
X141156900Y-86616857D01*
X141175429Y-86686006D01*
X141197823Y-86769583D01*
X141197826Y-86769590D01*
X141276875Y-86906509D01*
X141276879Y-86906514D01*
X141276880Y-86906516D01*
X141388684Y-87018320D01*
X141388686Y-87018321D01*
X141388690Y-87018324D01*
X141473004Y-87067002D01*
X141525616Y-87097377D01*
X141678343Y-87138300D01*
X141678345Y-87138300D01*
X141836455Y-87138300D01*
X141836457Y-87138300D01*
X141989184Y-87097377D01*
X142126116Y-87018320D01*
X142237920Y-86906516D01*
X142316977Y-86769584D01*
X142357900Y-86616857D01*
X142357900Y-86458743D01*
X142316977Y-86306016D01*
X142316470Y-86305137D01*
X142237924Y-86169090D01*
X142237918Y-86169082D01*
X142126117Y-86057281D01*
X142126116Y-86057280D01*
X142039986Y-86007553D01*
X141989186Y-85978224D01*
X141989185Y-85978223D01*
X141989184Y-85978223D01*
X141836457Y-85937300D01*
X141678343Y-85937300D01*
X141519798Y-85979782D01*
X141449948Y-85978119D01*
X141392086Y-85938956D01*
X141383799Y-85919604D01*
X153958500Y-85919604D01*
X153958500Y-86077718D01*
X153990251Y-86196212D01*
X153999423Y-86230444D01*
X153999426Y-86230451D01*
X154078475Y-86367370D01*
X154078481Y-86367378D01*
X154082151Y-86371048D01*
X154115636Y-86432371D01*
X154110652Y-86502063D01*
X154082161Y-86546401D01*
X154078479Y-86550083D01*
X153999426Y-86687009D01*
X153999423Y-86687016D01*
X153958500Y-86839743D01*
X153958500Y-86997857D01*
X153999128Y-87149481D01*
X153999423Y-87150583D01*
X153999426Y-87150590D01*
X154078475Y-87287509D01*
X154078479Y-87287514D01*
X154078480Y-87287516D01*
X154190284Y-87399320D01*
X154190286Y-87399321D01*
X154190290Y-87399324D01*
X154192485Y-87400591D01*
X154327216Y-87478377D01*
X154479943Y-87519300D01*
X154479945Y-87519300D01*
X154638055Y-87519300D01*
X154638057Y-87519300D01*
X154790784Y-87478377D01*
X154927716Y-87399320D01*
X155039520Y-87287516D01*
X155118577Y-87150584D01*
X155159500Y-86997857D01*
X155159500Y-86839743D01*
X155118577Y-86687016D01*
X155078071Y-86616857D01*
X155039524Y-86550090D01*
X155039518Y-86550082D01*
X155035847Y-86546411D01*
X155002362Y-86485088D01*
X155007346Y-86415396D01*
X155035852Y-86371044D01*
X155039520Y-86367377D01*
X155118577Y-86230445D01*
X155159500Y-86077718D01*
X155159500Y-85919604D01*
X155118577Y-85766877D01*
X155085418Y-85709443D01*
X155039524Y-85629951D01*
X155039518Y-85629943D01*
X154927717Y-85518142D01*
X154927709Y-85518136D01*
X154790790Y-85439087D01*
X154790786Y-85439085D01*
X154790784Y-85439084D01*
X154638057Y-85398161D01*
X154479943Y-85398161D01*
X154327216Y-85439084D01*
X154327209Y-85439087D01*
X154190290Y-85518136D01*
X154190282Y-85518142D01*
X154078481Y-85629943D01*
X154078475Y-85629951D01*
X153999426Y-85766870D01*
X153999423Y-85766877D01*
X153958500Y-85919604D01*
X141383799Y-85919604D01*
X141364582Y-85874728D01*
X141376169Y-85805826D01*
X141423167Y-85754126D01*
X141425670Y-85752639D01*
X141465716Y-85729520D01*
X141577520Y-85617716D01*
X141656577Y-85480784D01*
X141697500Y-85328057D01*
X141697500Y-85169943D01*
X141656577Y-85017216D01*
X141607257Y-84931790D01*
X141577524Y-84880290D01*
X141577518Y-84880282D01*
X141465717Y-84768481D01*
X141465709Y-84768475D01*
X141328790Y-84689426D01*
X141328786Y-84689424D01*
X141328784Y-84689423D01*
X141176057Y-84648500D01*
X141017943Y-84648500D01*
X140865216Y-84689423D01*
X140865209Y-84689426D01*
X140728290Y-84768475D01*
X140728282Y-84768481D01*
X140616481Y-84880282D01*
X140616475Y-84880290D01*
X140537426Y-85017209D01*
X140537423Y-85017216D01*
X140496500Y-85169943D01*
X140496500Y-85203947D01*
X140476815Y-85270986D01*
X140424011Y-85316741D01*
X140404595Y-85323721D01*
X140331816Y-85343223D01*
X140331815Y-85343223D01*
X140331813Y-85343224D01*
X140331809Y-85343226D01*
X140194890Y-85422275D01*
X140194882Y-85422281D01*
X140083081Y-85534082D01*
X140083075Y-85534090D01*
X140004026Y-85671009D01*
X140004023Y-85671016D01*
X139963100Y-85823743D01*
X136935000Y-85823743D01*
X136935000Y-85709443D01*
X136894077Y-85556716D01*
X136881009Y-85534082D01*
X136815024Y-85419790D01*
X136815018Y-85419782D01*
X136758646Y-85363410D01*
X136725161Y-85302087D01*
X136730145Y-85232395D01*
X136762863Y-85188161D01*
X136760969Y-85186267D01*
X136777293Y-85169943D01*
X136878520Y-85068716D01*
X136957577Y-84931784D01*
X136998500Y-84779057D01*
X136998500Y-84620943D01*
X136957577Y-84468216D01*
X136924524Y-84410966D01*
X136878524Y-84331290D01*
X136878518Y-84331282D01*
X136766717Y-84219481D01*
X136766709Y-84219475D01*
X136629790Y-84140426D01*
X136629786Y-84140424D01*
X136629784Y-84140423D01*
X136477057Y-84099500D01*
X136318943Y-84099500D01*
X136166216Y-84140423D01*
X136166209Y-84140426D01*
X136029290Y-84219475D01*
X136029282Y-84219481D01*
X135917481Y-84331282D01*
X135917475Y-84331290D01*
X135838426Y-84468209D01*
X135838423Y-84468216D01*
X135797500Y-84620943D01*
X135797500Y-84779057D01*
X135836745Y-84925519D01*
X135838423Y-84931783D01*
X135838426Y-84931790D01*
X135917475Y-85068709D01*
X135917481Y-85068717D01*
X135973853Y-85125089D01*
X136007338Y-85186412D01*
X136002354Y-85256104D01*
X135969645Y-85300347D01*
X135971531Y-85302233D01*
X135853981Y-85419782D01*
X135853975Y-85419790D01*
X135774926Y-85556709D01*
X135774923Y-85556716D01*
X135734000Y-85709443D01*
X103595996Y-85709443D01*
X103615576Y-85671016D01*
X103628819Y-85645026D01*
X103628821Y-85645021D01*
X103666211Y-85571639D01*
X103666212Y-85571636D01*
X103698928Y-85470945D01*
X103722171Y-85399409D01*
X103736765Y-85307259D01*
X103750500Y-85220551D01*
X103750500Y-85039448D01*
X103733088Y-84929519D01*
X103722171Y-84860591D01*
X103687537Y-84753996D01*
X103666212Y-84688363D01*
X103666211Y-84688360D01*
X103631861Y-84620945D01*
X103583996Y-84527006D01*
X103541278Y-84468209D01*
X103477558Y-84380505D01*
X103477554Y-84380500D01*
X103349499Y-84252445D01*
X103349494Y-84252441D01*
X103202997Y-84146006D01*
X103202996Y-84146005D01*
X103202994Y-84146004D01*
X103151300Y-84119664D01*
X103041639Y-84063788D01*
X103041636Y-84063787D01*
X102869410Y-84007829D01*
X102737728Y-83986972D01*
X102674594Y-83957042D01*
X102637663Y-83897731D01*
X102638661Y-83827868D01*
X102677271Y-83769636D01*
X102741235Y-83741522D01*
X102757120Y-83740499D01*
X103494864Y-83740499D01*
X103494879Y-83740497D01*
X103494882Y-83740497D01*
X103519987Y-83737586D01*
X103519988Y-83737585D01*
X103519991Y-83737585D01*
X103622765Y-83692206D01*
X103702206Y-83612765D01*
X103747585Y-83509991D01*
X103750500Y-83484865D01*
X103750499Y-81695136D01*
X103750497Y-81695117D01*
X103747586Y-81670012D01*
X103747585Y-81670010D01*
X103747585Y-81670009D01*
X103702206Y-81567235D01*
X103622765Y-81487794D01*
X103556595Y-81458577D01*
X103519992Y-81442415D01*
X103494865Y-81439500D01*
X101705143Y-81439500D01*
X101705117Y-81439502D01*
X101680012Y-81442413D01*
X101680008Y-81442415D01*
X101577235Y-81487793D01*
X101497794Y-81567234D01*
X101452415Y-81670006D01*
X101452415Y-81670008D01*
X101449500Y-81695131D01*
X101449500Y-83484856D01*
X101449502Y-83484882D01*
X101452413Y-83509987D01*
X101452415Y-83509991D01*
X101497793Y-83612764D01*
X101497794Y-83612765D01*
X101577235Y-83692206D01*
X101680009Y-83737585D01*
X101705135Y-83740500D01*
X102442873Y-83740499D01*
X102509910Y-83760183D01*
X102555665Y-83812987D01*
X102565609Y-83882146D01*
X102536584Y-83945702D01*
X102477806Y-83983476D01*
X102462270Y-83986972D01*
X102330589Y-84007829D01*
X102158363Y-84063787D01*
X102158360Y-84063788D01*
X101997002Y-84146006D01*
X101850505Y-84252441D01*
X101850500Y-84252445D01*
X101722445Y-84380500D01*
X101722441Y-84380505D01*
X101616006Y-84527002D01*
X101533788Y-84688360D01*
X101533787Y-84688363D01*
X101477829Y-84860589D01*
X101449500Y-85039448D01*
X101449500Y-85220551D01*
X101477829Y-85399410D01*
X101533787Y-85571636D01*
X101533788Y-85571639D01*
X101584421Y-85671009D01*
X101616003Y-85732993D01*
X101616006Y-85732997D01*
X101722441Y-85879494D01*
X101722445Y-85879499D01*
X101850500Y-86007554D01*
X101850505Y-86007558D01*
X101947072Y-86077717D01*
X101997006Y-86113996D01*
X102102484Y-86167740D01*
X102158360Y-86196211D01*
X102158363Y-86196212D01*
X102244476Y-86224191D01*
X102330591Y-86252171D01*
X102403639Y-86263740D01*
X102490678Y-86277527D01*
X102553813Y-86307456D01*
X102590744Y-86366768D01*
X102589746Y-86436631D01*
X102551136Y-86494863D01*
X102490678Y-86522473D01*
X102330589Y-86547829D01*
X102158363Y-86603787D01*
X102158360Y-86603788D01*
X101997002Y-86686006D01*
X101850505Y-86792441D01*
X101850500Y-86792445D01*
X101722445Y-86920500D01*
X101722441Y-86920505D01*
X101616006Y-87067002D01*
X101533788Y-87228360D01*
X101533787Y-87228363D01*
X101477829Y-87400589D01*
X101449500Y-87579448D01*
X101449500Y-87760551D01*
X101477829Y-87939410D01*
X101533787Y-88111636D01*
X101533788Y-88111639D01*
X101616006Y-88272997D01*
X101722441Y-88419494D01*
X101722445Y-88419499D01*
X101850500Y-88547554D01*
X101850505Y-88547558D01*
X101954970Y-88623455D01*
X101997006Y-88653996D01*
X102098780Y-88705853D01*
X102128684Y-88721090D01*
X102179480Y-88769065D01*
X102196275Y-88836886D01*
X102173737Y-88903021D01*
X102119022Y-88946472D01*
X102110708Y-88949506D01*
X102081781Y-88958905D01*
X101892439Y-89055380D01*
X101838282Y-89094727D01*
X101838282Y-89094728D01*
X102470591Y-89727037D01*
X102407007Y-89744075D01*
X102292993Y-89809901D01*
X102199901Y-89902993D01*
X102134075Y-90017007D01*
X102117037Y-90080591D01*
X101484728Y-89448282D01*
X101484727Y-89448282D01*
X101445380Y-89502439D01*
X101348904Y-89691782D01*
X101283242Y-89893869D01*
X101283242Y-89893872D01*
X101250000Y-90103753D01*
X100500500Y-90103753D01*
X100500500Y-81139448D01*
X118269500Y-81139448D01*
X118269500Y-81320551D01*
X118297829Y-81499410D01*
X118353787Y-81671636D01*
X118353788Y-81671639D01*
X118436006Y-81832997D01*
X118542441Y-81979494D01*
X118542445Y-81979499D01*
X118670500Y-82107554D01*
X118670505Y-82107558D01*
X118717256Y-82141524D01*
X118817006Y-82213996D01*
X118910237Y-82261500D01*
X118978360Y-82296211D01*
X118978363Y-82296212D01*
X119031821Y-82313581D01*
X119150591Y-82352171D01*
X119254716Y-82368662D01*
X119282270Y-82373027D01*
X119345405Y-82402956D01*
X119382336Y-82462268D01*
X119381338Y-82532130D01*
X119342728Y-82590363D01*
X119278765Y-82618477D01*
X119262872Y-82619500D01*
X118525143Y-82619500D01*
X118525117Y-82619502D01*
X118500012Y-82622413D01*
X118500008Y-82622415D01*
X118397235Y-82667793D01*
X118317794Y-82747234D01*
X118272415Y-82850006D01*
X118272415Y-82850008D01*
X118269500Y-82875131D01*
X118269500Y-84664856D01*
X118269502Y-84664882D01*
X118272413Y-84689987D01*
X118272415Y-84689991D01*
X118317793Y-84792764D01*
X118317794Y-84792765D01*
X118397235Y-84872206D01*
X118500009Y-84917585D01*
X118525135Y-84920500D01*
X120314864Y-84920499D01*
X120314879Y-84920497D01*
X120314882Y-84920497D01*
X120339987Y-84917586D01*
X120339988Y-84917585D01*
X120339991Y-84917585D01*
X120442765Y-84872206D01*
X120522206Y-84792765D01*
X120567585Y-84689991D01*
X120570500Y-84664865D01*
X120570499Y-83927125D01*
X120590183Y-83860089D01*
X120642987Y-83814334D01*
X120712146Y-83804390D01*
X120775702Y-83833415D01*
X120813476Y-83892193D01*
X120816972Y-83907729D01*
X120837829Y-84039410D01*
X120893787Y-84211636D01*
X120893788Y-84211639D01*
X120949664Y-84321300D01*
X120954717Y-84331217D01*
X120976006Y-84372997D01*
X121082441Y-84519494D01*
X121082445Y-84519499D01*
X121210500Y-84647554D01*
X121210505Y-84647558D01*
X121334565Y-84737692D01*
X121357006Y-84753996D01*
X121433094Y-84792765D01*
X121518360Y-84836211D01*
X121518363Y-84836212D01*
X121558079Y-84849116D01*
X121690591Y-84892171D01*
X121773429Y-84905291D01*
X121869449Y-84920500D01*
X121869454Y-84920500D01*
X122050551Y-84920500D01*
X122137259Y-84906765D01*
X122229409Y-84892171D01*
X122401639Y-84836211D01*
X122562994Y-84753996D01*
X122651095Y-84689987D01*
X122709495Y-84647558D01*
X122709497Y-84647555D01*
X122709501Y-84647553D01*
X122837553Y-84519501D01*
X122943996Y-84372994D01*
X123011090Y-84241314D01*
X123059065Y-84190519D01*
X123126886Y-84173724D01*
X123193021Y-84196262D01*
X123236472Y-84250977D01*
X123239506Y-84259292D01*
X123248904Y-84288217D01*
X123345375Y-84477550D01*
X123384728Y-84531716D01*
X124017037Y-83899408D01*
X124034075Y-83962993D01*
X124099901Y-84077007D01*
X124192993Y-84170099D01*
X124307007Y-84235925D01*
X124370590Y-84252962D01*
X123738282Y-84885269D01*
X123738282Y-84885270D01*
X123792449Y-84924624D01*
X123981782Y-85021095D01*
X124183870Y-85086757D01*
X124393754Y-85120000D01*
X124606246Y-85120000D01*
X124816127Y-85086757D01*
X124816130Y-85086757D01*
X125018217Y-85021095D01*
X125207554Y-84924622D01*
X125261716Y-84885270D01*
X125261717Y-84885270D01*
X124629408Y-84252962D01*
X124692993Y-84235925D01*
X124807007Y-84170099D01*
X124900099Y-84077007D01*
X124965925Y-83962993D01*
X124982962Y-83899408D01*
X125615270Y-84531717D01*
X125615270Y-84531716D01*
X125654622Y-84477554D01*
X125751095Y-84288217D01*
X125816757Y-84086130D01*
X125816757Y-84086127D01*
X125836228Y-83963193D01*
X152847250Y-83963193D01*
X152847250Y-84121307D01*
X152882389Y-84252445D01*
X152888173Y-84274033D01*
X152888176Y-84274040D01*
X152967225Y-84410959D01*
X152967229Y-84410964D01*
X152967230Y-84410966D01*
X153079034Y-84522770D01*
X153079036Y-84522771D01*
X153079040Y-84522774D01*
X153142578Y-84559457D01*
X153215966Y-84601827D01*
X153368693Y-84642750D01*
X153368695Y-84642750D01*
X153526805Y-84642750D01*
X153526807Y-84642750D01*
X153679534Y-84601827D01*
X153816466Y-84522770D01*
X153928270Y-84410966D01*
X153933826Y-84401343D01*
X164245500Y-84401343D01*
X164245500Y-84559457D01*
X164280477Y-84689991D01*
X164286423Y-84712183D01*
X164286426Y-84712190D01*
X164365475Y-84849109D01*
X164365481Y-84849117D01*
X164445883Y-84929519D01*
X164479368Y-84990842D01*
X164474384Y-85060534D01*
X164445883Y-85104881D01*
X164369481Y-85181282D01*
X164369475Y-85181290D01*
X164290426Y-85318209D01*
X164290423Y-85318216D01*
X164249500Y-85470943D01*
X164249500Y-85629057D01*
X164282609Y-85752619D01*
X164290423Y-85781783D01*
X164290426Y-85781790D01*
X164369475Y-85918709D01*
X164369479Y-85918714D01*
X164369480Y-85918716D01*
X164481284Y-86030520D01*
X164481286Y-86030521D01*
X164481290Y-86030524D01*
X164563032Y-86077717D01*
X164618216Y-86109577D01*
X164770943Y-86150500D01*
X164770945Y-86150500D01*
X164929055Y-86150500D01*
X164929057Y-86150500D01*
X165081784Y-86109577D01*
X165218716Y-86030520D01*
X165330520Y-85918716D01*
X165409577Y-85781784D01*
X165450500Y-85629057D01*
X165450500Y-85470943D01*
X165409577Y-85318216D01*
X165400265Y-85302087D01*
X165330524Y-85181290D01*
X165330518Y-85181282D01*
X165250117Y-85100881D01*
X165216632Y-85039558D01*
X165221616Y-84969866D01*
X165250117Y-84925519D01*
X165283466Y-84892170D01*
X165326520Y-84849116D01*
X165405577Y-84712184D01*
X165446500Y-84559457D01*
X165446500Y-84401343D01*
X165405577Y-84248616D01*
X165388756Y-84219481D01*
X165326524Y-84111690D01*
X165326518Y-84111682D01*
X165214717Y-83999881D01*
X165214709Y-83999875D01*
X165077790Y-83920826D01*
X165077786Y-83920824D01*
X165077784Y-83920823D01*
X164925057Y-83879900D01*
X164766943Y-83879900D01*
X164614216Y-83920823D01*
X164614209Y-83920826D01*
X164477290Y-83999875D01*
X164477282Y-83999881D01*
X164365481Y-84111682D01*
X164365475Y-84111690D01*
X164286426Y-84248609D01*
X164286423Y-84248616D01*
X164245500Y-84401343D01*
X153933826Y-84401343D01*
X154007327Y-84274034D01*
X154048250Y-84121307D01*
X154048250Y-83963193D01*
X154007327Y-83810466D01*
X153983754Y-83769636D01*
X153928274Y-83673540D01*
X153928268Y-83673532D01*
X153816467Y-83561731D01*
X153816459Y-83561725D01*
X153679540Y-83482676D01*
X153679536Y-83482674D01*
X153679534Y-83482673D01*
X153526807Y-83441750D01*
X153368693Y-83441750D01*
X153215966Y-83482673D01*
X153215959Y-83482676D01*
X153079040Y-83561725D01*
X153079032Y-83561731D01*
X152967231Y-83673532D01*
X152967225Y-83673540D01*
X152888176Y-83810459D01*
X152888173Y-83810466D01*
X152847250Y-83963193D01*
X125836228Y-83963193D01*
X125840588Y-83935668D01*
X125840588Y-83935667D01*
X125850000Y-83876244D01*
X125850000Y-83663753D01*
X125816757Y-83453872D01*
X125816757Y-83453869D01*
X125751095Y-83251782D01*
X125654624Y-83062449D01*
X125615270Y-83008282D01*
X125615269Y-83008282D01*
X124982962Y-83640590D01*
X124965925Y-83577007D01*
X124900099Y-83462993D01*
X124807007Y-83369901D01*
X124692993Y-83304075D01*
X124629409Y-83287037D01*
X125261716Y-82654728D01*
X125207550Y-82615375D01*
X125197954Y-82610486D01*
X125147157Y-82562512D01*
X125130361Y-82494692D01*
X125152897Y-82428556D01*
X125197954Y-82389514D01*
X125207554Y-82384622D01*
X125261716Y-82345270D01*
X125261717Y-82345270D01*
X124629408Y-81712962D01*
X124692993Y-81695925D01*
X124807007Y-81630099D01*
X124900099Y-81537007D01*
X124965925Y-81422993D01*
X124982962Y-81359408D01*
X125615270Y-81991717D01*
X125615270Y-81991716D01*
X125654622Y-81937554D01*
X125751095Y-81748217D01*
X125816757Y-81546130D01*
X125816757Y-81546127D01*
X125850000Y-81336246D01*
X125850000Y-81123753D01*
X125816757Y-80913872D01*
X125816757Y-80913869D01*
X125751095Y-80711782D01*
X125654624Y-80522449D01*
X125615270Y-80468282D01*
X125615269Y-80468282D01*
X124982962Y-81100590D01*
X124965925Y-81037007D01*
X124900099Y-80922993D01*
X124807007Y-80829901D01*
X124692993Y-80764075D01*
X124629409Y-80747037D01*
X125261716Y-80114728D01*
X125207550Y-80075375D01*
X125018217Y-79978904D01*
X124816129Y-79913242D01*
X124606246Y-79880000D01*
X124393754Y-79880000D01*
X124183872Y-79913242D01*
X124183869Y-79913242D01*
X123981782Y-79978904D01*
X123792439Y-80075380D01*
X123738282Y-80114727D01*
X123738282Y-80114728D01*
X124370591Y-80747037D01*
X124307007Y-80764075D01*
X124192993Y-80829901D01*
X124099901Y-80922993D01*
X124034075Y-81037007D01*
X124017037Y-81100591D01*
X123384728Y-80468282D01*
X123384727Y-80468282D01*
X123345380Y-80522439D01*
X123248905Y-80711781D01*
X123239506Y-80740708D01*
X123200068Y-80798383D01*
X123135709Y-80825581D01*
X123066862Y-80813666D01*
X123015387Y-80766421D01*
X123011090Y-80758684D01*
X122964484Y-80667216D01*
X122943996Y-80627006D01*
X122930396Y-80608287D01*
X122837558Y-80480505D01*
X122837554Y-80480500D01*
X122709499Y-80352445D01*
X122709494Y-80352441D01*
X122585432Y-80262305D01*
X122562996Y-80246005D01*
X122401639Y-80163788D01*
X122401636Y-80163787D01*
X122229410Y-80107829D01*
X122050551Y-80079500D01*
X122050546Y-80079500D01*
X121869454Y-80079500D01*
X121869449Y-80079500D01*
X121690589Y-80107829D01*
X121518363Y-80163787D01*
X121518360Y-80163788D01*
X121357002Y-80246006D01*
X121210505Y-80352441D01*
X121210500Y-80352445D01*
X121082445Y-80480500D01*
X121082441Y-80480505D01*
X120976006Y-80627002D01*
X120893788Y-80788360D01*
X120893787Y-80788363D01*
X120837829Y-80960589D01*
X120812473Y-81120678D01*
X120782544Y-81183813D01*
X120723232Y-81220744D01*
X120653369Y-81219746D01*
X120595137Y-81181136D01*
X120567527Y-81120678D01*
X120544937Y-80978057D01*
X120542171Y-80960591D01*
X120499708Y-80829901D01*
X120486212Y-80788363D01*
X120486211Y-80788360D01*
X120424484Y-80667216D01*
X120403996Y-80627006D01*
X120390396Y-80608287D01*
X120297558Y-80480505D01*
X120297554Y-80480500D01*
X120169499Y-80352445D01*
X120169494Y-80352441D01*
X120022997Y-80246006D01*
X120022996Y-80246005D01*
X120022994Y-80246004D01*
X119961164Y-80214500D01*
X119861639Y-80163788D01*
X119861636Y-80163787D01*
X119689410Y-80107829D01*
X119510551Y-80079500D01*
X119510546Y-80079500D01*
X119329454Y-80079500D01*
X119329449Y-80079500D01*
X119150589Y-80107829D01*
X118978363Y-80163787D01*
X118978360Y-80163788D01*
X118817002Y-80246006D01*
X118670505Y-80352441D01*
X118670500Y-80352445D01*
X118542445Y-80480500D01*
X118542441Y-80480505D01*
X118436006Y-80627002D01*
X118353788Y-80788360D01*
X118353787Y-80788363D01*
X118297829Y-80960589D01*
X118269500Y-81139448D01*
X100500500Y-81139448D01*
X100500500Y-79549943D01*
X150910500Y-79549943D01*
X150910500Y-79708057D01*
X150947406Y-79845790D01*
X150951423Y-79860783D01*
X150951426Y-79860790D01*
X151030475Y-79997709D01*
X151030479Y-79997714D01*
X151030480Y-79997716D01*
X151142284Y-80109520D01*
X151142286Y-80109521D01*
X151142290Y-80109524D01*
X151237478Y-80164480D01*
X151279216Y-80188577D01*
X151391507Y-80218665D01*
X151451166Y-80255029D01*
X151481695Y-80317876D01*
X151473400Y-80387251D01*
X151466801Y-80400436D01*
X151459424Y-80413213D01*
X151459423Y-80413216D01*
X151418500Y-80565943D01*
X151418500Y-80724057D01*
X151459333Y-80876446D01*
X151459423Y-80876783D01*
X151459426Y-80876790D01*
X151538475Y-81013709D01*
X151538479Y-81013714D01*
X151538480Y-81013716D01*
X151650284Y-81125520D01*
X151650286Y-81125521D01*
X151650290Y-81125524D01*
X151787209Y-81204573D01*
X151787216Y-81204577D01*
X151939943Y-81245500D01*
X151939945Y-81245500D01*
X152098054Y-81245500D01*
X152098057Y-81245500D01*
X152171790Y-81225743D01*
X152241637Y-81227406D01*
X152293914Y-81262787D01*
X152294733Y-81261969D01*
X152298982Y-81266218D01*
X152299499Y-81266568D01*
X152300151Y-81267387D01*
X152300480Y-81267716D01*
X152412284Y-81379520D01*
X152412286Y-81379521D01*
X152412290Y-81379524D01*
X152516173Y-81439500D01*
X152549216Y-81458577D01*
X152701943Y-81499500D01*
X152701951Y-81499500D01*
X152707687Y-81500256D01*
X152771583Y-81528524D01*
X152810053Y-81586848D01*
X152815500Y-81623195D01*
X152815500Y-81740057D01*
X152840403Y-81832994D01*
X152856423Y-81892783D01*
X152856426Y-81892790D01*
X152935475Y-82029709D01*
X152935479Y-82029714D01*
X152935480Y-82029716D01*
X153047284Y-82141520D01*
X153047286Y-82141521D01*
X153047290Y-82141524D01*
X153172817Y-82213996D01*
X153184216Y-82220577D01*
X153336943Y-82261500D01*
X153336945Y-82261500D01*
X153495055Y-82261500D01*
X153495057Y-82261500D01*
X153647784Y-82220577D01*
X153784716Y-82141520D01*
X153896520Y-82029716D01*
X153975577Y-81892784D01*
X154016500Y-81740057D01*
X154016500Y-81581943D01*
X153975577Y-81429216D01*
X153923677Y-81339321D01*
X153896524Y-81292290D01*
X153896518Y-81292282D01*
X153784717Y-81180481D01*
X153784709Y-81180475D01*
X153647790Y-81101426D01*
X153647786Y-81101424D01*
X153647784Y-81101423D01*
X153495057Y-81060500D01*
X153495053Y-81060499D01*
X153489304Y-81059742D01*
X153425410Y-81031470D01*
X153386944Y-80973142D01*
X153381500Y-80936804D01*
X153381500Y-80819945D01*
X153381500Y-80819943D01*
X153340577Y-80667216D01*
X153282108Y-80565943D01*
X153261524Y-80530290D01*
X153261518Y-80530282D01*
X153149717Y-80418481D01*
X153149709Y-80418475D01*
X153012790Y-80339426D01*
X153012786Y-80339424D01*
X153012784Y-80339423D01*
X152860057Y-80298500D01*
X152701943Y-80298500D01*
X152701941Y-80298500D01*
X152628210Y-80318256D01*
X152558361Y-80316593D01*
X152506085Y-80281212D01*
X152505267Y-80282031D01*
X152501017Y-80277781D01*
X152500498Y-80277430D01*
X152499842Y-80276606D01*
X152387717Y-80164481D01*
X152387709Y-80164475D01*
X152250790Y-80085426D01*
X152250785Y-80085423D01*
X152189951Y-80069123D01*
X152138492Y-80055334D01*
X152078833Y-80018970D01*
X152048304Y-79956123D01*
X152056599Y-79886747D01*
X152063198Y-79873564D01*
X152070577Y-79860784D01*
X152111500Y-79708057D01*
X152111500Y-79549943D01*
X152107481Y-79534943D01*
X177881500Y-79534943D01*
X177881500Y-79693056D01*
X177922423Y-79845783D01*
X177922426Y-79845790D01*
X178001475Y-79982709D01*
X178001479Y-79982714D01*
X178001480Y-79982716D01*
X178113284Y-80094520D01*
X178113286Y-80094521D01*
X178113290Y-80094524D01*
X178234451Y-80164475D01*
X178250216Y-80173577D01*
X178402943Y-80214500D01*
X178402945Y-80214500D01*
X178561055Y-80214500D01*
X178561057Y-80214500D01*
X178713784Y-80173577D01*
X178850716Y-80094520D01*
X178962520Y-79982716D01*
X179041577Y-79845784D01*
X179082500Y-79693057D01*
X179082500Y-79534943D01*
X179041577Y-79382216D01*
X178971184Y-79260290D01*
X178962524Y-79245290D01*
X178962518Y-79245282D01*
X178850717Y-79133481D01*
X178850709Y-79133475D01*
X178713790Y-79054426D01*
X178713786Y-79054424D01*
X178713784Y-79054423D01*
X178561057Y-79013500D01*
X178402943Y-79013500D01*
X178250216Y-79054423D01*
X178250209Y-79054426D01*
X178113290Y-79133475D01*
X178113282Y-79133481D01*
X178001481Y-79245282D01*
X178001475Y-79245290D01*
X177922426Y-79382209D01*
X177922423Y-79382216D01*
X177881500Y-79534943D01*
X152107481Y-79534943D01*
X152070577Y-79397216D01*
X152061913Y-79382209D01*
X151991524Y-79260290D01*
X151991518Y-79260282D01*
X151879717Y-79148481D01*
X151879709Y-79148475D01*
X151742790Y-79069426D01*
X151742786Y-79069424D01*
X151742784Y-79069423D01*
X151590057Y-79028500D01*
X151431943Y-79028500D01*
X151279216Y-79069423D01*
X151279209Y-79069426D01*
X151142290Y-79148475D01*
X151142282Y-79148481D01*
X151030481Y-79260282D01*
X151030475Y-79260290D01*
X150951426Y-79397209D01*
X150951423Y-79397216D01*
X150910500Y-79549943D01*
X100500500Y-79549943D01*
X100500500Y-78152943D01*
X144306500Y-78152943D01*
X144306500Y-78311057D01*
X144333831Y-78413056D01*
X144347423Y-78463783D01*
X144347426Y-78463790D01*
X144426475Y-78600709D01*
X144426479Y-78600714D01*
X144426480Y-78600716D01*
X144538284Y-78712520D01*
X144538286Y-78712521D01*
X144538290Y-78712524D01*
X144675209Y-78791573D01*
X144675216Y-78791577D01*
X144827943Y-78832500D01*
X144827945Y-78832500D01*
X144986055Y-78832500D01*
X144986057Y-78832500D01*
X145138784Y-78791577D01*
X145275716Y-78712520D01*
X145367127Y-78621108D01*
X145428446Y-78587626D01*
X145498138Y-78592610D01*
X145554072Y-78634481D01*
X145562192Y-78646792D01*
X145594477Y-78702712D01*
X145594479Y-78702715D01*
X145594480Y-78702716D01*
X145706284Y-78814520D01*
X145706286Y-78814521D01*
X145706290Y-78814524D01*
X145843209Y-78893573D01*
X145843216Y-78893577D01*
X145995943Y-78934500D01*
X145995945Y-78934500D01*
X146154055Y-78934500D01*
X146154057Y-78934500D01*
X146306784Y-78893577D01*
X146443716Y-78814520D01*
X146555520Y-78702716D01*
X146634577Y-78565784D01*
X146675500Y-78413057D01*
X146675500Y-78254943D01*
X146634577Y-78102216D01*
X146634573Y-78102209D01*
X146555524Y-77965290D01*
X146555518Y-77965282D01*
X146443717Y-77853481D01*
X146443709Y-77853475D01*
X146306790Y-77774426D01*
X146306786Y-77774424D01*
X146306784Y-77774423D01*
X146154057Y-77733500D01*
X145995943Y-77733500D01*
X145843216Y-77774423D01*
X145843209Y-77774426D01*
X145706290Y-77853475D01*
X145706286Y-77853478D01*
X145614875Y-77944889D01*
X145553551Y-77978373D01*
X145483860Y-77973389D01*
X145427927Y-77931517D01*
X145419806Y-77919206D01*
X145415949Y-77912525D01*
X145387520Y-77863284D01*
X145275716Y-77751480D01*
X145275714Y-77751479D01*
X145275709Y-77751475D01*
X145138790Y-77672426D01*
X145138786Y-77672424D01*
X145138784Y-77672423D01*
X144986057Y-77631500D01*
X144827943Y-77631500D01*
X144675216Y-77672423D01*
X144675209Y-77672426D01*
X144538290Y-77751475D01*
X144538282Y-77751481D01*
X144426481Y-77863282D01*
X144426475Y-77863290D01*
X144347426Y-78000209D01*
X144347423Y-78000216D01*
X144306500Y-78152943D01*
X100500500Y-78152943D01*
X100500500Y-76755943D01*
X140896000Y-76755943D01*
X140896000Y-76914057D01*
X140933632Y-77054499D01*
X140936923Y-77066783D01*
X140936926Y-77066790D01*
X141015975Y-77203709D01*
X141015979Y-77203714D01*
X141015980Y-77203716D01*
X141127784Y-77315520D01*
X141127786Y-77315521D01*
X141127790Y-77315524D01*
X141239147Y-77379815D01*
X141264716Y-77394577D01*
X141417443Y-77435500D01*
X141417445Y-77435500D01*
X141575555Y-77435500D01*
X141575557Y-77435500D01*
X141728284Y-77394577D01*
X141865216Y-77315520D01*
X141916793Y-77263943D01*
X148370500Y-77263943D01*
X148370500Y-77422057D01*
X148396605Y-77519480D01*
X148411423Y-77574783D01*
X148411426Y-77574790D01*
X148490475Y-77711709D01*
X148490479Y-77711714D01*
X148490480Y-77711716D01*
X148602284Y-77823520D01*
X148602286Y-77823521D01*
X148602290Y-77823524D01*
X148739209Y-77902573D01*
X148739216Y-77902577D01*
X148891943Y-77943500D01*
X148891945Y-77943500D01*
X149050055Y-77943500D01*
X149050057Y-77943500D01*
X149202784Y-77902577D01*
X149339716Y-77823520D01*
X149404417Y-77758818D01*
X149465736Y-77725336D01*
X149535428Y-77730320D01*
X149591362Y-77772191D01*
X149611869Y-77814406D01*
X149629316Y-77879520D01*
X149638158Y-77912518D01*
X149638161Y-77912525D01*
X149717210Y-78049444D01*
X149717214Y-78049449D01*
X149717215Y-78049451D01*
X149829019Y-78161255D01*
X149829021Y-78161256D01*
X149829025Y-78161259D01*
X149951178Y-78231783D01*
X149965951Y-78240312D01*
X150118678Y-78281235D01*
X150118680Y-78281235D01*
X150276790Y-78281235D01*
X150276792Y-78281235D01*
X150429519Y-78240312D01*
X150566451Y-78161255D01*
X150678255Y-78049451D01*
X150757312Y-77912519D01*
X150798235Y-77759792D01*
X150798235Y-77601678D01*
X150757312Y-77448951D01*
X150682830Y-77319943D01*
X152688500Y-77319943D01*
X152688500Y-77478057D01*
X152714420Y-77574790D01*
X152729423Y-77630783D01*
X152729426Y-77630790D01*
X152808475Y-77767709D01*
X152808479Y-77767714D01*
X152808480Y-77767716D01*
X152920284Y-77879520D01*
X152920286Y-77879521D01*
X152920290Y-77879524D01*
X153033507Y-77944889D01*
X153057216Y-77958577D01*
X153209943Y-77999500D01*
X153209945Y-77999500D01*
X153334035Y-77999500D01*
X153401074Y-78019185D01*
X153446829Y-78071989D01*
X153453806Y-78091397D01*
X153472525Y-78161255D01*
X153491423Y-78231783D01*
X153491426Y-78231790D01*
X153570475Y-78368709D01*
X153570479Y-78368714D01*
X153570480Y-78368716D01*
X153682284Y-78480520D01*
X153682286Y-78480521D01*
X153682290Y-78480524D01*
X153819209Y-78559573D01*
X153819216Y-78559577D01*
X153971943Y-78600500D01*
X153971945Y-78600500D01*
X154130055Y-78600500D01*
X154130057Y-78600500D01*
X154282784Y-78559577D01*
X154419716Y-78480520D01*
X154531520Y-78368716D01*
X154610577Y-78231784D01*
X154651500Y-78079057D01*
X154651500Y-77920943D01*
X154610577Y-77768216D01*
X154610284Y-77767709D01*
X154531524Y-77631290D01*
X154531518Y-77631282D01*
X154419717Y-77519481D01*
X154419709Y-77519475D01*
X154282790Y-77440426D01*
X154282786Y-77440424D01*
X154282784Y-77440423D01*
X154130057Y-77399500D01*
X154005965Y-77399500D01*
X153938926Y-77379815D01*
X153893171Y-77327011D01*
X153886193Y-77307602D01*
X153848577Y-77167216D01*
X153848573Y-77167209D01*
X153769524Y-77030290D01*
X153769518Y-77030282D01*
X153657717Y-76918481D01*
X153657709Y-76918475D01*
X153520790Y-76839426D01*
X153520786Y-76839424D01*
X153520784Y-76839423D01*
X153368057Y-76798500D01*
X153209943Y-76798500D01*
X153057216Y-76839423D01*
X153057209Y-76839426D01*
X152920290Y-76918475D01*
X152920282Y-76918481D01*
X152808481Y-77030282D01*
X152808475Y-77030290D01*
X152729426Y-77167209D01*
X152729423Y-77167216D01*
X152688500Y-77319943D01*
X150682830Y-77319943D01*
X150678255Y-77312019D01*
X150566451Y-77200215D01*
X150566448Y-77200213D01*
X150566444Y-77200210D01*
X150429525Y-77121161D01*
X150429521Y-77121159D01*
X150429519Y-77121158D01*
X150276792Y-77080235D01*
X150118678Y-77080235D01*
X149965951Y-77121158D01*
X149965944Y-77121161D01*
X149829025Y-77200210D01*
X149829021Y-77200213D01*
X149764320Y-77264914D01*
X149702996Y-77298398D01*
X149633305Y-77293413D01*
X149577371Y-77251542D01*
X149556866Y-77209330D01*
X149530577Y-77111216D01*
X149504928Y-77066790D01*
X149451524Y-76974290D01*
X149451518Y-76974282D01*
X149339717Y-76862481D01*
X149339709Y-76862475D01*
X149202790Y-76783426D01*
X149202786Y-76783424D01*
X149202784Y-76783423D01*
X149050057Y-76742500D01*
X148891943Y-76742500D01*
X148739216Y-76783423D01*
X148739209Y-76783426D01*
X148602290Y-76862475D01*
X148602282Y-76862481D01*
X148490481Y-76974282D01*
X148490475Y-76974290D01*
X148411426Y-77111209D01*
X148411423Y-77111216D01*
X148370500Y-77263943D01*
X141916793Y-77263943D01*
X141977020Y-77203716D01*
X142056077Y-77066784D01*
X142097000Y-76914057D01*
X142097000Y-76755943D01*
X142056077Y-76603216D01*
X142015571Y-76533057D01*
X141977024Y-76466290D01*
X141977018Y-76466282D01*
X141885679Y-76374943D01*
X146049500Y-76374943D01*
X146049500Y-76533056D01*
X146090423Y-76685783D01*
X146090426Y-76685790D01*
X146169475Y-76822709D01*
X146169479Y-76822714D01*
X146169480Y-76822716D01*
X146281284Y-76934520D01*
X146281286Y-76934521D01*
X146281290Y-76934524D01*
X146350168Y-76974290D01*
X146418216Y-77013577D01*
X146570943Y-77054500D01*
X146570945Y-77054500D01*
X146729055Y-77054500D01*
X146729057Y-77054500D01*
X146881784Y-77013577D01*
X147018716Y-76934520D01*
X147130520Y-76822716D01*
X147209577Y-76685784D01*
X147250500Y-76533057D01*
X147250500Y-76374943D01*
X147209577Y-76222216D01*
X147162168Y-76140100D01*
X147130524Y-76085290D01*
X147130518Y-76085282D01*
X147018717Y-75973481D01*
X147018709Y-75973475D01*
X146881790Y-75894426D01*
X146881786Y-75894424D01*
X146881784Y-75894423D01*
X146729057Y-75853500D01*
X146570943Y-75853500D01*
X146418216Y-75894423D01*
X146418209Y-75894426D01*
X146281290Y-75973475D01*
X146281282Y-75973481D01*
X146169481Y-76085282D01*
X146169475Y-76085290D01*
X146090426Y-76222209D01*
X146090423Y-76222216D01*
X146049500Y-76374943D01*
X141885679Y-76374943D01*
X141865217Y-76354481D01*
X141865209Y-76354475D01*
X141728290Y-76275426D01*
X141728286Y-76275424D01*
X141728284Y-76275423D01*
X141575557Y-76234500D01*
X141417443Y-76234500D01*
X141264716Y-76275423D01*
X141264709Y-76275426D01*
X141127790Y-76354475D01*
X141127782Y-76354481D01*
X141015981Y-76466282D01*
X141015975Y-76466290D01*
X140936926Y-76603209D01*
X140936923Y-76603216D01*
X140896000Y-76755943D01*
X100500500Y-76755943D01*
X100500500Y-75460543D01*
X171814700Y-75460543D01*
X171814700Y-75618657D01*
X171814701Y-75618658D01*
X171855623Y-75771383D01*
X171855626Y-75771390D01*
X171934675Y-75908309D01*
X171934679Y-75908314D01*
X171934680Y-75908316D01*
X172046484Y-76020120D01*
X172046486Y-76020121D01*
X172046490Y-76020124D01*
X172159349Y-76085282D01*
X172183416Y-76099177D01*
X172336143Y-76140100D01*
X172336145Y-76140100D01*
X172494255Y-76140100D01*
X172494257Y-76140100D01*
X172646984Y-76099177D01*
X172783916Y-76020120D01*
X172895720Y-75908316D01*
X172974777Y-75771384D01*
X172999359Y-75679643D01*
X173303800Y-75679643D01*
X173303800Y-75837757D01*
X173340166Y-75973475D01*
X173344723Y-75990483D01*
X173344726Y-75990490D01*
X173423775Y-76127409D01*
X173423779Y-76127414D01*
X173423780Y-76127416D01*
X173535584Y-76239220D01*
X173535586Y-76239221D01*
X173535590Y-76239224D01*
X173598295Y-76275426D01*
X173672516Y-76318277D01*
X173825243Y-76359200D01*
X173825245Y-76359200D01*
X173983355Y-76359200D01*
X173983357Y-76359200D01*
X174136084Y-76318277D01*
X174273016Y-76239220D01*
X174384820Y-76127416D01*
X174463877Y-75990484D01*
X174504800Y-75837757D01*
X174504800Y-75679643D01*
X174463877Y-75526916D01*
X174425557Y-75460543D01*
X174384824Y-75389990D01*
X174384818Y-75389982D01*
X174273017Y-75278181D01*
X174273009Y-75278175D01*
X174136090Y-75199126D01*
X174136086Y-75199124D01*
X174136084Y-75199123D01*
X173983357Y-75158200D01*
X173825243Y-75158200D01*
X173672516Y-75199123D01*
X173672509Y-75199126D01*
X173535590Y-75278175D01*
X173535582Y-75278181D01*
X173423781Y-75389982D01*
X173423775Y-75389990D01*
X173344726Y-75526909D01*
X173344723Y-75526916D01*
X173303800Y-75679643D01*
X172999359Y-75679643D01*
X173015700Y-75618657D01*
X173015700Y-75460543D01*
X172974777Y-75307816D01*
X172974773Y-75307809D01*
X172895724Y-75170890D01*
X172895718Y-75170882D01*
X172783917Y-75059081D01*
X172783909Y-75059075D01*
X172646990Y-74980026D01*
X172646986Y-74980024D01*
X172646984Y-74980023D01*
X172494257Y-74939100D01*
X172336143Y-74939100D01*
X172183416Y-74980023D01*
X172183409Y-74980026D01*
X172046490Y-75059075D01*
X172046482Y-75059081D01*
X171934681Y-75170882D01*
X171934675Y-75170890D01*
X171855626Y-75307809D01*
X171855623Y-75307816D01*
X171814700Y-75460543D01*
X100500500Y-75460543D01*
X100500500Y-73520943D01*
X154399500Y-73520943D01*
X154399500Y-73679056D01*
X154440423Y-73831783D01*
X154440426Y-73831790D01*
X154519475Y-73968709D01*
X154519479Y-73968714D01*
X154519480Y-73968716D01*
X154631284Y-74080520D01*
X154631286Y-74080521D01*
X154631290Y-74080524D01*
X154768209Y-74159573D01*
X154768216Y-74159577D01*
X154920943Y-74200500D01*
X154920945Y-74200500D01*
X155079055Y-74200500D01*
X155079057Y-74200500D01*
X155231784Y-74159577D01*
X155368716Y-74080520D01*
X155480520Y-73968716D01*
X155559577Y-73831784D01*
X155600500Y-73679057D01*
X155600500Y-73520943D01*
X155559577Y-73368216D01*
X155559573Y-73368209D01*
X155480524Y-73231290D01*
X155480518Y-73231282D01*
X155368717Y-73119481D01*
X155368709Y-73119475D01*
X155231790Y-73040426D01*
X155231786Y-73040424D01*
X155231784Y-73040423D01*
X155079057Y-72999500D01*
X154920943Y-72999500D01*
X154768216Y-73040423D01*
X154768209Y-73040426D01*
X154631290Y-73119475D01*
X154631282Y-73119481D01*
X154519481Y-73231282D01*
X154519475Y-73231290D01*
X154440426Y-73368209D01*
X154440423Y-73368216D01*
X154399500Y-73520943D01*
X100500500Y-73520943D01*
X100500500Y-70420943D01*
X175899500Y-70420943D01*
X175899500Y-70579056D01*
X175940423Y-70731783D01*
X175940426Y-70731790D01*
X176019475Y-70868709D01*
X176019479Y-70868714D01*
X176019480Y-70868716D01*
X176131284Y-70980520D01*
X176131286Y-70980521D01*
X176131290Y-70980524D01*
X176268209Y-71059573D01*
X176268216Y-71059577D01*
X176420943Y-71100500D01*
X176420945Y-71100500D01*
X176579055Y-71100500D01*
X176579057Y-71100500D01*
X176731784Y-71059577D01*
X176868716Y-70980520D01*
X176980520Y-70868716D01*
X177059577Y-70731784D01*
X177100500Y-70579057D01*
X177100500Y-70420943D01*
X177059577Y-70268216D01*
X177059573Y-70268209D01*
X176980524Y-70131290D01*
X176980518Y-70131282D01*
X176868717Y-70019481D01*
X176868709Y-70019475D01*
X176731790Y-69940426D01*
X176731786Y-69940424D01*
X176731784Y-69940423D01*
X176579057Y-69899500D01*
X176420943Y-69899500D01*
X176268216Y-69940423D01*
X176268209Y-69940426D01*
X176131290Y-70019475D01*
X176131282Y-70019481D01*
X176019481Y-70131282D01*
X176019475Y-70131290D01*
X175940426Y-70268209D01*
X175940423Y-70268216D01*
X175899500Y-70420943D01*
X100500500Y-70420943D01*
X100500500Y-67718443D01*
X119399500Y-67718443D01*
X119399500Y-67876556D01*
X119440423Y-68029283D01*
X119440426Y-68029290D01*
X119519475Y-68166209D01*
X119519479Y-68166214D01*
X119519480Y-68166216D01*
X119631284Y-68278020D01*
X119631286Y-68278021D01*
X119631290Y-68278024D01*
X119768209Y-68357073D01*
X119768216Y-68357077D01*
X119920943Y-68398000D01*
X119920945Y-68398000D01*
X120079055Y-68398000D01*
X120079057Y-68398000D01*
X120231784Y-68357077D01*
X120368716Y-68278020D01*
X120480520Y-68166216D01*
X120559577Y-68029284D01*
X120600500Y-67876557D01*
X120600500Y-67718443D01*
X120559577Y-67565716D01*
X120559573Y-67565709D01*
X120480524Y-67428790D01*
X120480518Y-67428782D01*
X120368717Y-67316981D01*
X120368709Y-67316975D01*
X120231790Y-67237926D01*
X120231786Y-67237924D01*
X120231784Y-67237923D01*
X120079057Y-67197000D01*
X119920943Y-67197000D01*
X119768216Y-67237923D01*
X119768209Y-67237926D01*
X119631290Y-67316975D01*
X119631282Y-67316981D01*
X119519481Y-67428782D01*
X119519475Y-67428790D01*
X119440426Y-67565709D01*
X119440423Y-67565716D01*
X119399500Y-67718443D01*
X100500500Y-67718443D01*
X100500500Y-66214943D01*
X113699500Y-66214943D01*
X113699500Y-66373057D01*
X113726682Y-66474499D01*
X113740423Y-66525783D01*
X113740426Y-66525790D01*
X113819475Y-66662709D01*
X113819479Y-66662714D01*
X113819480Y-66662716D01*
X113931284Y-66774520D01*
X113931286Y-66774521D01*
X113931290Y-66774524D01*
X114068209Y-66853573D01*
X114068216Y-66853577D01*
X114220943Y-66894500D01*
X114220945Y-66894500D01*
X114379055Y-66894500D01*
X114379057Y-66894500D01*
X114531784Y-66853577D01*
X114668716Y-66774520D01*
X114780520Y-66662716D01*
X114859577Y-66525784D01*
X114900500Y-66373057D01*
X114900500Y-66214943D01*
X114859577Y-66062216D01*
X114812413Y-65980524D01*
X114780524Y-65925290D01*
X114780518Y-65925282D01*
X114668717Y-65813481D01*
X114668709Y-65813475D01*
X114636610Y-65794943D01*
X139773500Y-65794943D01*
X139773500Y-65953057D01*
X139806041Y-66074500D01*
X139814423Y-66105783D01*
X139814426Y-66105790D01*
X139893475Y-66242709D01*
X139893479Y-66242714D01*
X139893480Y-66242716D01*
X140005284Y-66354520D01*
X140005286Y-66354521D01*
X140005290Y-66354524D01*
X140037391Y-66373057D01*
X140142216Y-66433577D01*
X140294943Y-66474500D01*
X140294945Y-66474500D01*
X140453055Y-66474500D01*
X140453057Y-66474500D01*
X140605784Y-66433577D01*
X140742716Y-66354520D01*
X140854520Y-66242716D01*
X140933577Y-66105784D01*
X140974500Y-65953057D01*
X140974500Y-65794943D01*
X140933577Y-65642216D01*
X140933573Y-65642209D01*
X140854524Y-65505290D01*
X140854518Y-65505282D01*
X140742717Y-65393481D01*
X140742709Y-65393475D01*
X140605790Y-65314426D01*
X140605786Y-65314424D01*
X140605784Y-65314423D01*
X140453057Y-65273500D01*
X140294943Y-65273500D01*
X140142216Y-65314423D01*
X140142209Y-65314426D01*
X140005290Y-65393475D01*
X140005282Y-65393481D01*
X139893481Y-65505282D01*
X139893475Y-65505290D01*
X139814426Y-65642209D01*
X139814423Y-65642216D01*
X139773500Y-65794943D01*
X114636610Y-65794943D01*
X114531790Y-65734426D01*
X114531786Y-65734424D01*
X114531784Y-65734423D01*
X114379057Y-65693500D01*
X114220943Y-65693500D01*
X114068216Y-65734423D01*
X114068209Y-65734426D01*
X113931290Y-65813475D01*
X113931282Y-65813481D01*
X113819481Y-65925282D01*
X113819475Y-65925290D01*
X113740426Y-66062209D01*
X113740423Y-66062216D01*
X113699500Y-66214943D01*
X100500500Y-66214943D01*
X100500500Y-64817943D01*
X142692000Y-64817943D01*
X142692000Y-64976057D01*
X142703636Y-65019481D01*
X142732923Y-65128783D01*
X142732926Y-65128790D01*
X142811975Y-65265709D01*
X142811979Y-65265714D01*
X142811980Y-65265716D01*
X142923784Y-65377520D01*
X142923786Y-65377521D01*
X142923790Y-65377524D01*
X142998999Y-65420945D01*
X143060716Y-65456577D01*
X143213443Y-65497500D01*
X143213445Y-65497500D01*
X143371555Y-65497500D01*
X143371557Y-65497500D01*
X143524284Y-65456577D01*
X143661216Y-65377520D01*
X143773020Y-65265716D01*
X143852077Y-65128784D01*
X143893000Y-64976057D01*
X143893000Y-64817943D01*
X143852077Y-64665216D01*
X143796364Y-64568717D01*
X143773024Y-64528290D01*
X143773018Y-64528282D01*
X143661217Y-64416481D01*
X143661209Y-64416475D01*
X143524290Y-64337425D01*
X143524284Y-64337423D01*
X143371557Y-64296500D01*
X143213443Y-64296500D01*
X143060716Y-64337423D01*
X143060709Y-64337426D01*
X142923790Y-64416475D01*
X142923782Y-64416481D01*
X142811981Y-64528282D01*
X142811975Y-64528290D01*
X142732926Y-64665209D01*
X142732923Y-64665216D01*
X142692000Y-64817943D01*
X100500500Y-64817943D01*
X100500500Y-64229131D01*
X147666500Y-64229131D01*
X147666500Y-65818856D01*
X147666502Y-65818882D01*
X147669413Y-65843987D01*
X147669415Y-65843991D01*
X147714793Y-65946764D01*
X147714794Y-65946765D01*
X147794235Y-66026206D01*
X147897009Y-66071585D01*
X147922135Y-66074500D01*
X149511864Y-66074499D01*
X149511879Y-66074497D01*
X149511882Y-66074497D01*
X149536987Y-66071586D01*
X149536988Y-66071585D01*
X149536991Y-66071585D01*
X149639765Y-66026206D01*
X149719206Y-65946765D01*
X149764585Y-65843991D01*
X149767500Y-65818865D01*
X149767500Y-65420943D01*
X169399500Y-65420943D01*
X169399500Y-65579057D01*
X169416424Y-65642216D01*
X169440423Y-65731783D01*
X169440426Y-65731790D01*
X169519475Y-65868709D01*
X169519479Y-65868714D01*
X169519480Y-65868716D01*
X169631284Y-65980520D01*
X169631286Y-65980521D01*
X169631290Y-65980524D01*
X169710413Y-66026205D01*
X169768216Y-66059577D01*
X169920943Y-66100500D01*
X169920945Y-66100500D01*
X170079055Y-66100500D01*
X170079057Y-66100500D01*
X170231784Y-66059577D01*
X170368716Y-65980520D01*
X170480520Y-65868716D01*
X170559577Y-65731784D01*
X170600500Y-65579057D01*
X170600500Y-65420943D01*
X170559577Y-65268216D01*
X170558130Y-65265709D01*
X170480524Y-65131290D01*
X170480518Y-65131282D01*
X170368717Y-65019481D01*
X170368709Y-65019475D01*
X170231790Y-64940426D01*
X170231786Y-64940424D01*
X170231784Y-64940423D01*
X170079057Y-64899500D01*
X169920943Y-64899500D01*
X169768216Y-64940423D01*
X169768209Y-64940426D01*
X169631290Y-65019475D01*
X169631282Y-65019481D01*
X169519481Y-65131282D01*
X169519475Y-65131290D01*
X169440426Y-65268209D01*
X169440423Y-65268216D01*
X169399500Y-65420943D01*
X149767500Y-65420943D01*
X149767499Y-65019481D01*
X149767499Y-64229143D01*
X149767499Y-64229136D01*
X149767497Y-64229117D01*
X149764586Y-64204012D01*
X149764585Y-64204010D01*
X149764585Y-64204009D01*
X149719206Y-64101235D01*
X149639765Y-64021794D01*
X149639763Y-64021793D01*
X149536992Y-63976415D01*
X149511865Y-63973500D01*
X147922143Y-63973500D01*
X147922117Y-63973502D01*
X147897012Y-63976413D01*
X147897008Y-63976415D01*
X147794235Y-64021793D01*
X147714794Y-64101234D01*
X147669415Y-64204006D01*
X147669415Y-64204008D01*
X147666500Y-64229131D01*
X100500500Y-64229131D01*
X100500500Y-63420943D01*
X135399500Y-63420943D01*
X135399500Y-63579057D01*
X135437127Y-63719481D01*
X135440423Y-63731783D01*
X135440426Y-63731790D01*
X135519475Y-63868709D01*
X135519479Y-63868714D01*
X135519480Y-63868716D01*
X135631284Y-63980520D01*
X135631286Y-63980521D01*
X135631290Y-63980524D01*
X135702773Y-64021794D01*
X135768216Y-64059577D01*
X135920943Y-64100500D01*
X135920945Y-64100500D01*
X136079055Y-64100500D01*
X136079057Y-64100500D01*
X136231784Y-64059577D01*
X136368716Y-63980520D01*
X136428293Y-63920943D01*
X160599500Y-63920943D01*
X160599500Y-64079057D01*
X160639716Y-64229143D01*
X160640423Y-64231783D01*
X160640426Y-64231790D01*
X160719475Y-64368709D01*
X160719479Y-64368714D01*
X160719480Y-64368716D01*
X160831284Y-64480520D01*
X160831286Y-64480521D01*
X160831290Y-64480524D01*
X160968209Y-64559573D01*
X160968216Y-64559577D01*
X161120943Y-64600500D01*
X161120945Y-64600500D01*
X161279055Y-64600500D01*
X161279057Y-64600500D01*
X161431784Y-64559577D01*
X161568716Y-64480520D01*
X161680520Y-64368716D01*
X161759577Y-64231784D01*
X161800500Y-64079057D01*
X161800500Y-63920943D01*
X162799500Y-63920943D01*
X162799500Y-64079057D01*
X162839716Y-64229143D01*
X162840423Y-64231783D01*
X162840426Y-64231790D01*
X162919475Y-64368709D01*
X162919479Y-64368714D01*
X162919480Y-64368716D01*
X163031284Y-64480520D01*
X163031286Y-64480521D01*
X163031290Y-64480524D01*
X163168209Y-64559573D01*
X163168216Y-64559577D01*
X163320943Y-64600500D01*
X163320945Y-64600500D01*
X163479055Y-64600500D01*
X163479057Y-64600500D01*
X163631784Y-64559577D01*
X163768716Y-64480520D01*
X163880520Y-64368716D01*
X163959577Y-64231784D01*
X163989277Y-64120943D01*
X167099500Y-64120943D01*
X167099500Y-64279057D01*
X167136323Y-64416480D01*
X167140423Y-64431783D01*
X167140426Y-64431790D01*
X167219475Y-64568709D01*
X167219479Y-64568714D01*
X167219480Y-64568716D01*
X167331284Y-64680520D01*
X167331286Y-64680521D01*
X167331290Y-64680524D01*
X167468209Y-64759573D01*
X167468216Y-64759577D01*
X167620943Y-64800500D01*
X167620945Y-64800500D01*
X167779055Y-64800500D01*
X167779057Y-64800500D01*
X167931784Y-64759577D01*
X168068716Y-64680520D01*
X168180520Y-64568716D01*
X168259577Y-64431784D01*
X168300500Y-64279057D01*
X168300500Y-64120943D01*
X168259577Y-63968216D01*
X168259573Y-63968209D01*
X168180524Y-63831290D01*
X168180518Y-63831282D01*
X168068717Y-63719481D01*
X168068709Y-63719475D01*
X167931790Y-63640426D01*
X167931786Y-63640424D01*
X167931784Y-63640423D01*
X167779057Y-63599500D01*
X167620943Y-63599500D01*
X167468216Y-63640423D01*
X167468209Y-63640426D01*
X167331290Y-63719475D01*
X167331282Y-63719481D01*
X167219481Y-63831282D01*
X167219475Y-63831290D01*
X167140426Y-63968209D01*
X167140423Y-63968216D01*
X167099500Y-64120943D01*
X163989277Y-64120943D01*
X164000500Y-64079057D01*
X164000500Y-63920943D01*
X163959577Y-63768216D01*
X163931437Y-63719475D01*
X163880524Y-63631290D01*
X163880518Y-63631282D01*
X163768717Y-63519481D01*
X163768716Y-63519480D01*
X163631784Y-63440423D01*
X163559084Y-63420943D01*
X169325500Y-63420943D01*
X169325500Y-63579057D01*
X169363127Y-63719481D01*
X169366423Y-63731783D01*
X169366426Y-63731790D01*
X169445475Y-63868709D01*
X169445479Y-63868714D01*
X169445480Y-63868716D01*
X169557284Y-63980520D01*
X169557286Y-63980521D01*
X169557290Y-63980524D01*
X169628773Y-64021794D01*
X169694216Y-64059577D01*
X169846943Y-64100500D01*
X169846945Y-64100500D01*
X170005055Y-64100500D01*
X170005057Y-64100500D01*
X170157784Y-64059577D01*
X170294716Y-63980520D01*
X170406520Y-63868716D01*
X170485577Y-63731784D01*
X170526500Y-63579057D01*
X170526500Y-63420943D01*
X170485577Y-63268216D01*
X170455444Y-63216023D01*
X170406524Y-63131290D01*
X170406518Y-63131282D01*
X170294717Y-63019481D01*
X170294709Y-63019475D01*
X170157790Y-62940426D01*
X170157786Y-62940424D01*
X170157784Y-62940423D01*
X170005057Y-62899500D01*
X169846943Y-62899500D01*
X169694216Y-62940423D01*
X169694209Y-62940426D01*
X169557290Y-63019475D01*
X169557282Y-63019481D01*
X169445481Y-63131282D01*
X169445475Y-63131290D01*
X169366426Y-63268209D01*
X169366423Y-63268216D01*
X169325500Y-63420943D01*
X163559084Y-63420943D01*
X163479057Y-63399500D01*
X163320943Y-63399500D01*
X163168216Y-63440423D01*
X163168209Y-63440426D01*
X163031290Y-63519475D01*
X163031282Y-63519481D01*
X162919481Y-63631282D01*
X162919475Y-63631290D01*
X162840426Y-63768209D01*
X162840423Y-63768216D01*
X162799500Y-63920943D01*
X161800500Y-63920943D01*
X161759577Y-63768216D01*
X161731437Y-63719475D01*
X161680524Y-63631290D01*
X161680518Y-63631282D01*
X161568717Y-63519481D01*
X161568709Y-63519475D01*
X161431790Y-63440426D01*
X161431786Y-63440424D01*
X161431784Y-63440423D01*
X161279057Y-63399500D01*
X161120943Y-63399500D01*
X160968216Y-63440423D01*
X160968209Y-63440426D01*
X160831290Y-63519475D01*
X160831282Y-63519481D01*
X160719481Y-63631282D01*
X160719475Y-63631290D01*
X160640426Y-63768209D01*
X160640423Y-63768216D01*
X160599500Y-63920943D01*
X136428293Y-63920943D01*
X136480520Y-63868716D01*
X136559577Y-63731784D01*
X136600500Y-63579057D01*
X136600500Y-63420943D01*
X136559577Y-63268216D01*
X136529444Y-63216023D01*
X136480524Y-63131290D01*
X136480518Y-63131282D01*
X136368717Y-63019481D01*
X136368709Y-63019475D01*
X136231790Y-62940426D01*
X136231786Y-62940424D01*
X136231784Y-62940423D01*
X136079057Y-62899500D01*
X135920943Y-62899500D01*
X135768216Y-62940423D01*
X135768209Y-62940426D01*
X135631290Y-63019475D01*
X135631282Y-63019481D01*
X135519481Y-63131282D01*
X135519475Y-63131290D01*
X135440426Y-63268209D01*
X135440423Y-63268216D01*
X135399500Y-63420943D01*
X100500500Y-63420943D01*
X100500500Y-62785943D01*
X137194500Y-62785943D01*
X137194500Y-62944057D01*
X137227117Y-63065783D01*
X137235423Y-63096783D01*
X137235426Y-63096790D01*
X137314475Y-63233709D01*
X137314479Y-63233714D01*
X137314480Y-63233716D01*
X137426284Y-63345520D01*
X137426286Y-63345521D01*
X137426290Y-63345524D01*
X137519781Y-63399500D01*
X137563216Y-63424577D01*
X137715943Y-63465500D01*
X137715945Y-63465500D01*
X137874055Y-63465500D01*
X137874057Y-63465500D01*
X138026784Y-63424577D01*
X138163716Y-63345520D01*
X138275520Y-63233716D01*
X138354577Y-63096784D01*
X138395500Y-62944057D01*
X138395500Y-62785943D01*
X138354577Y-62633216D01*
X138353462Y-62631284D01*
X138275524Y-62496290D01*
X138275518Y-62496282D01*
X138200179Y-62420943D01*
X159149500Y-62420943D01*
X159149500Y-62579057D01*
X159176295Y-62679055D01*
X159190423Y-62731783D01*
X159190426Y-62731790D01*
X159269475Y-62868709D01*
X159269479Y-62868714D01*
X159269480Y-62868716D01*
X159381284Y-62980520D01*
X159381286Y-62980521D01*
X159381290Y-62980524D01*
X159448765Y-63019480D01*
X159518216Y-63059577D01*
X159670943Y-63100500D01*
X159670945Y-63100500D01*
X159829055Y-63100500D01*
X159829057Y-63100500D01*
X159981784Y-63059577D01*
X160118716Y-62980520D01*
X160230520Y-62868716D01*
X160309577Y-62731784D01*
X160350500Y-62579057D01*
X160350500Y-62520943D01*
X164199500Y-62520943D01*
X164199500Y-62679057D01*
X164228141Y-62785945D01*
X164240423Y-62831783D01*
X164240426Y-62831790D01*
X164319475Y-62968709D01*
X164319479Y-62968714D01*
X164319480Y-62968716D01*
X164431284Y-63080520D01*
X164431286Y-63080521D01*
X164431290Y-63080524D01*
X164519221Y-63131290D01*
X164568216Y-63159577D01*
X164720943Y-63200500D01*
X164720945Y-63200500D01*
X164879055Y-63200500D01*
X164879057Y-63200500D01*
X165031784Y-63159577D01*
X165168716Y-63080520D01*
X165280520Y-62968716D01*
X165359577Y-62831784D01*
X165400500Y-62679057D01*
X165400500Y-62520943D01*
X165359577Y-62368216D01*
X165333183Y-62322499D01*
X165280524Y-62231290D01*
X165280518Y-62231282D01*
X165168717Y-62119481D01*
X165168709Y-62119475D01*
X165031790Y-62040426D01*
X165031786Y-62040424D01*
X165031784Y-62040423D01*
X164879057Y-61999500D01*
X164720943Y-61999500D01*
X164568216Y-62040423D01*
X164568209Y-62040426D01*
X164431290Y-62119475D01*
X164431282Y-62119481D01*
X164319481Y-62231282D01*
X164319475Y-62231290D01*
X164240426Y-62368209D01*
X164240423Y-62368216D01*
X164199500Y-62520943D01*
X160350500Y-62520943D01*
X160350500Y-62420943D01*
X160309577Y-62268216D01*
X160288258Y-62231290D01*
X160230524Y-62131290D01*
X160230518Y-62131282D01*
X160118717Y-62019481D01*
X160118709Y-62019475D01*
X159981790Y-61940426D01*
X159981786Y-61940424D01*
X159981784Y-61940423D01*
X159909084Y-61920943D01*
X169399500Y-61920943D01*
X169399500Y-62079057D01*
X169440289Y-62231282D01*
X169440423Y-62231783D01*
X169440426Y-62231790D01*
X169519475Y-62368709D01*
X169519479Y-62368714D01*
X169519480Y-62368716D01*
X169631284Y-62480520D01*
X169631286Y-62480521D01*
X169631290Y-62480524D01*
X169730845Y-62538001D01*
X169768216Y-62559577D01*
X169920943Y-62600500D01*
X169920945Y-62600500D01*
X170079055Y-62600500D01*
X170079057Y-62600500D01*
X170231784Y-62559577D01*
X170368716Y-62480520D01*
X170480520Y-62368716D01*
X170508102Y-62320943D01*
X180199500Y-62320943D01*
X180199500Y-62479057D01*
X180232041Y-62600500D01*
X180240423Y-62631783D01*
X180240426Y-62631790D01*
X180319475Y-62768709D01*
X180319479Y-62768714D01*
X180319480Y-62768716D01*
X180431284Y-62880520D01*
X180431286Y-62880521D01*
X180431290Y-62880524D01*
X180541334Y-62944057D01*
X180568216Y-62959577D01*
X180720943Y-63000500D01*
X180720945Y-63000500D01*
X180879055Y-63000500D01*
X180879057Y-63000500D01*
X181031784Y-62959577D01*
X181168716Y-62880520D01*
X181280520Y-62768716D01*
X181359577Y-62631784D01*
X181400500Y-62479057D01*
X181400500Y-62320943D01*
X191199500Y-62320943D01*
X191199500Y-62479057D01*
X191232041Y-62600500D01*
X191240423Y-62631783D01*
X191240426Y-62631790D01*
X191319475Y-62768709D01*
X191319479Y-62768714D01*
X191319480Y-62768716D01*
X191431284Y-62880520D01*
X191431286Y-62880521D01*
X191431290Y-62880524D01*
X191541334Y-62944057D01*
X191568216Y-62959577D01*
X191720943Y-63000500D01*
X191720945Y-63000500D01*
X191879055Y-63000500D01*
X191879057Y-63000500D01*
X192031784Y-62959577D01*
X192168716Y-62880520D01*
X192280520Y-62768716D01*
X192359577Y-62631784D01*
X192400500Y-62479057D01*
X192400500Y-62320943D01*
X192359577Y-62168216D01*
X192338258Y-62131290D01*
X192280524Y-62031290D01*
X192280518Y-62031282D01*
X192168717Y-61919481D01*
X192168709Y-61919475D01*
X192031790Y-61840426D01*
X192031786Y-61840424D01*
X192031784Y-61840423D01*
X191879057Y-61799500D01*
X191720943Y-61799500D01*
X191568216Y-61840423D01*
X191568209Y-61840426D01*
X191431290Y-61919475D01*
X191431282Y-61919481D01*
X191319481Y-62031282D01*
X191319475Y-62031290D01*
X191240426Y-62168209D01*
X191240423Y-62168216D01*
X191199500Y-62320943D01*
X181400500Y-62320943D01*
X181359577Y-62168216D01*
X181338258Y-62131290D01*
X181280524Y-62031290D01*
X181280518Y-62031282D01*
X181168717Y-61919481D01*
X181168709Y-61919475D01*
X181031790Y-61840426D01*
X181031786Y-61840424D01*
X181031784Y-61840423D01*
X180879057Y-61799500D01*
X180720943Y-61799500D01*
X180568216Y-61840423D01*
X180568209Y-61840426D01*
X180431290Y-61919475D01*
X180431282Y-61919481D01*
X180319481Y-62031282D01*
X180319475Y-62031290D01*
X180240426Y-62168209D01*
X180240423Y-62168216D01*
X180199500Y-62320943D01*
X170508102Y-62320943D01*
X170559577Y-62231784D01*
X170600500Y-62079057D01*
X170600500Y-61920943D01*
X170559577Y-61768216D01*
X170520481Y-61700499D01*
X170480524Y-61631290D01*
X170480518Y-61631282D01*
X170368717Y-61519481D01*
X170368709Y-61519475D01*
X170231790Y-61440426D01*
X170231786Y-61440424D01*
X170231784Y-61440423D01*
X170079057Y-61399500D01*
X169920943Y-61399500D01*
X169768216Y-61440423D01*
X169768209Y-61440426D01*
X169631290Y-61519475D01*
X169631282Y-61519481D01*
X169519481Y-61631282D01*
X169519475Y-61631290D01*
X169440426Y-61768209D01*
X169440423Y-61768216D01*
X169399500Y-61920943D01*
X159909084Y-61920943D01*
X159829057Y-61899500D01*
X159670943Y-61899500D01*
X159518216Y-61940423D01*
X159518209Y-61940426D01*
X159381290Y-62019475D01*
X159381282Y-62019481D01*
X159269481Y-62131282D01*
X159269475Y-62131290D01*
X159190426Y-62268209D01*
X159190423Y-62268216D01*
X159149500Y-62420943D01*
X138200179Y-62420943D01*
X138163717Y-62384481D01*
X138163709Y-62384475D01*
X138026790Y-62305426D01*
X138026786Y-62305424D01*
X138026784Y-62305423D01*
X137874057Y-62264500D01*
X137715943Y-62264500D01*
X137563216Y-62305423D01*
X137563209Y-62305426D01*
X137426290Y-62384475D01*
X137426282Y-62384481D01*
X137314481Y-62496282D01*
X137314475Y-62496290D01*
X137235426Y-62633209D01*
X137235423Y-62633216D01*
X137194500Y-62785943D01*
X100500500Y-62785943D01*
X100500500Y-61642943D01*
X113699500Y-61642943D01*
X113699500Y-61801057D01*
X113733388Y-61927527D01*
X113740423Y-61953783D01*
X113740426Y-61953790D01*
X113819475Y-62090709D01*
X113819479Y-62090714D01*
X113819480Y-62090716D01*
X113931284Y-62202520D01*
X113931286Y-62202521D01*
X113931290Y-62202524D01*
X114038637Y-62264500D01*
X114068216Y-62281577D01*
X114220943Y-62322500D01*
X114220945Y-62322500D01*
X114379055Y-62322500D01*
X114379057Y-62322500D01*
X114531784Y-62281577D01*
X114668716Y-62202520D01*
X114780520Y-62090716D01*
X114859577Y-61953784D01*
X114900500Y-61801057D01*
X114900500Y-61642943D01*
X114859577Y-61490216D01*
X114857730Y-61487017D01*
X114780524Y-61353290D01*
X114780518Y-61353282D01*
X114668717Y-61241481D01*
X114668709Y-61241475D01*
X114531790Y-61162426D01*
X114531786Y-61162424D01*
X114531784Y-61162423D01*
X114379057Y-61121500D01*
X114220943Y-61121500D01*
X114068216Y-61162423D01*
X114068209Y-61162426D01*
X113931290Y-61241475D01*
X113931282Y-61241481D01*
X113819481Y-61353282D01*
X113819475Y-61353290D01*
X113740426Y-61490209D01*
X113740423Y-61490216D01*
X113699500Y-61642943D01*
X100500500Y-61642943D01*
X100500500Y-60920943D01*
X157399500Y-60920943D01*
X157399500Y-61079057D01*
X157426295Y-61179055D01*
X157440423Y-61231783D01*
X157440426Y-61231790D01*
X157519475Y-61368709D01*
X157519479Y-61368714D01*
X157519480Y-61368716D01*
X157631284Y-61480520D01*
X157631286Y-61480521D01*
X157631290Y-61480524D01*
X157768209Y-61559573D01*
X157768216Y-61559577D01*
X157920943Y-61600500D01*
X157920945Y-61600500D01*
X158079055Y-61600500D01*
X158079057Y-61600500D01*
X158231784Y-61559577D01*
X158368716Y-61480520D01*
X158480520Y-61368716D01*
X158559577Y-61231784D01*
X158589277Y-61120943D01*
X160599500Y-61120943D01*
X160599500Y-61279057D01*
X160623525Y-61368717D01*
X160640423Y-61431783D01*
X160640426Y-61431790D01*
X160719475Y-61568709D01*
X160719479Y-61568714D01*
X160719480Y-61568716D01*
X160831284Y-61680520D01*
X160831286Y-61680521D01*
X160831290Y-61680524D01*
X160930845Y-61738001D01*
X160968216Y-61759577D01*
X161120943Y-61800500D01*
X161120945Y-61800500D01*
X161279055Y-61800500D01*
X161279057Y-61800500D01*
X161431784Y-61759577D01*
X161568716Y-61680520D01*
X161680520Y-61568716D01*
X161759577Y-61431784D01*
X161800500Y-61279057D01*
X161800500Y-61120943D01*
X161773705Y-61020943D01*
X162699500Y-61020943D01*
X162699500Y-61179057D01*
X162726742Y-61280723D01*
X162740423Y-61331783D01*
X162740426Y-61331790D01*
X162819475Y-61468709D01*
X162819479Y-61468714D01*
X162819480Y-61468716D01*
X162931284Y-61580520D01*
X162931286Y-61580521D01*
X162931290Y-61580524D01*
X163020087Y-61631790D01*
X163068216Y-61659577D01*
X163220943Y-61700500D01*
X163220945Y-61700500D01*
X163379055Y-61700500D01*
X163379057Y-61700500D01*
X163531784Y-61659577D01*
X163668716Y-61580520D01*
X163780520Y-61468716D01*
X163859577Y-61331784D01*
X163900500Y-61179057D01*
X163900500Y-61120943D01*
X182199500Y-61120943D01*
X182199500Y-61279057D01*
X182223525Y-61368717D01*
X182240423Y-61431783D01*
X182240426Y-61431790D01*
X182319475Y-61568709D01*
X182319479Y-61568714D01*
X182319480Y-61568716D01*
X182431284Y-61680520D01*
X182431286Y-61680521D01*
X182431290Y-61680524D01*
X182530845Y-61738001D01*
X182568216Y-61759577D01*
X182720943Y-61800500D01*
X182720945Y-61800500D01*
X182879055Y-61800500D01*
X182879057Y-61800500D01*
X183031784Y-61759577D01*
X183168716Y-61680520D01*
X183280520Y-61568716D01*
X183359577Y-61431784D01*
X183389277Y-61320943D01*
X193599500Y-61320943D01*
X193599500Y-61479057D01*
X193640289Y-61631282D01*
X193640423Y-61631783D01*
X193640423Y-61631784D01*
X193701746Y-61738001D01*
X193718217Y-61805902D01*
X193701746Y-61861999D01*
X193640423Y-61968215D01*
X193640423Y-61968216D01*
X193599500Y-62120943D01*
X193599500Y-62279057D01*
X193623525Y-62368717D01*
X193640423Y-62431783D01*
X193640423Y-62431784D01*
X193701746Y-62538001D01*
X193718217Y-62605902D01*
X193701746Y-62661999D01*
X193640423Y-62768215D01*
X193640423Y-62768216D01*
X193599500Y-62920943D01*
X193599500Y-63079057D01*
X193636200Y-63216021D01*
X193640423Y-63231783D01*
X193640426Y-63231790D01*
X193719475Y-63368709D01*
X193719479Y-63368714D01*
X193719480Y-63368716D01*
X193831284Y-63480520D01*
X193831286Y-63480521D01*
X193831290Y-63480524D01*
X193962971Y-63556549D01*
X193968216Y-63559577D01*
X194120943Y-63600500D01*
X194120945Y-63600500D01*
X194279055Y-63600500D01*
X194279057Y-63600500D01*
X194431784Y-63559577D01*
X194568716Y-63480520D01*
X194680520Y-63368716D01*
X194759577Y-63231784D01*
X194800500Y-63079057D01*
X194800500Y-62920943D01*
X194759577Y-62768216D01*
X194708102Y-62679057D01*
X194698254Y-62661999D01*
X194681781Y-62594099D01*
X194698254Y-62538001D01*
X194735853Y-62472873D01*
X194759577Y-62431784D01*
X194800500Y-62279057D01*
X194800500Y-62120943D01*
X194759577Y-61968216D01*
X194736084Y-61927525D01*
X195474500Y-61927525D01*
X195474500Y-62072475D01*
X195509346Y-62202520D01*
X195512017Y-62212488D01*
X195584488Y-62338011D01*
X195584490Y-62338013D01*
X195584491Y-62338015D01*
X195686985Y-62440509D01*
X195686986Y-62440510D01*
X195686988Y-62440511D01*
X195812511Y-62512982D01*
X195812512Y-62512982D01*
X195812515Y-62512984D01*
X195952525Y-62550500D01*
X195952528Y-62550500D01*
X196097472Y-62550500D01*
X196097475Y-62550500D01*
X196237485Y-62512984D01*
X196363015Y-62440509D01*
X196465509Y-62338015D01*
X196537984Y-62212485D01*
X196575500Y-62072475D01*
X196575500Y-61927525D01*
X196537984Y-61787515D01*
X196527130Y-61768716D01*
X196465511Y-61661988D01*
X196465506Y-61661982D01*
X196363017Y-61559493D01*
X196363011Y-61559488D01*
X196237488Y-61487017D01*
X196237489Y-61487017D01*
X196207774Y-61479055D01*
X196097475Y-61449500D01*
X195952525Y-61449500D01*
X195842226Y-61479055D01*
X195812511Y-61487017D01*
X195686988Y-61559488D01*
X195686982Y-61559493D01*
X195584493Y-61661982D01*
X195584488Y-61661988D01*
X195512017Y-61787511D01*
X195512016Y-61787515D01*
X195474500Y-61927525D01*
X194736084Y-61927525D01*
X194698097Y-61861728D01*
X194697864Y-61861319D01*
X194689929Y-61827686D01*
X194681781Y-61794099D01*
X194681905Y-61793674D01*
X194681821Y-61793316D01*
X194682947Y-61790127D01*
X194698254Y-61738001D01*
X194742139Y-61661988D01*
X194759577Y-61631784D01*
X194800500Y-61479057D01*
X194800500Y-61320943D01*
X194759577Y-61168216D01*
X194756234Y-61162426D01*
X194680524Y-61031290D01*
X194680518Y-61031282D01*
X194568717Y-60919481D01*
X194568709Y-60919475D01*
X194431790Y-60840426D01*
X194431786Y-60840424D01*
X194431784Y-60840423D01*
X194279057Y-60799500D01*
X194120943Y-60799500D01*
X193968216Y-60840423D01*
X193968209Y-60840426D01*
X193831290Y-60919475D01*
X193831282Y-60919481D01*
X193719481Y-61031282D01*
X193719475Y-61031290D01*
X193640426Y-61168209D01*
X193640423Y-61168216D01*
X193599500Y-61320943D01*
X183389277Y-61320943D01*
X183400500Y-61279057D01*
X183400500Y-61120943D01*
X183359577Y-60968216D01*
X183359573Y-60968209D01*
X183280524Y-60831290D01*
X183280518Y-60831282D01*
X183168717Y-60719481D01*
X183168709Y-60719475D01*
X183031790Y-60640426D01*
X183031786Y-60640424D01*
X183031784Y-60640423D01*
X182879057Y-60599500D01*
X182720943Y-60599500D01*
X182568216Y-60640423D01*
X182568209Y-60640426D01*
X182431290Y-60719475D01*
X182431282Y-60719481D01*
X182319481Y-60831282D01*
X182319475Y-60831290D01*
X182240426Y-60968209D01*
X182240423Y-60968216D01*
X182199500Y-61120943D01*
X163900500Y-61120943D01*
X163900500Y-61020943D01*
X163859577Y-60868216D01*
X163838258Y-60831290D01*
X163780524Y-60731290D01*
X163780518Y-60731282D01*
X163668717Y-60619481D01*
X163668709Y-60619475D01*
X163531790Y-60540426D01*
X163531786Y-60540424D01*
X163531784Y-60540423D01*
X163379057Y-60499500D01*
X163220943Y-60499500D01*
X163068216Y-60540423D01*
X163068209Y-60540426D01*
X162931290Y-60619475D01*
X162931282Y-60619481D01*
X162819481Y-60731282D01*
X162819475Y-60731290D01*
X162740426Y-60868209D01*
X162740423Y-60868216D01*
X162699500Y-61020943D01*
X161773705Y-61020943D01*
X161759577Y-60968216D01*
X161759573Y-60968209D01*
X161680524Y-60831290D01*
X161680518Y-60831282D01*
X161568717Y-60719481D01*
X161568709Y-60719475D01*
X161431790Y-60640426D01*
X161431786Y-60640424D01*
X161431784Y-60640423D01*
X161279057Y-60599500D01*
X161120943Y-60599500D01*
X160968216Y-60640423D01*
X160968209Y-60640426D01*
X160831290Y-60719475D01*
X160831282Y-60719481D01*
X160719481Y-60831282D01*
X160719475Y-60831290D01*
X160640426Y-60968209D01*
X160640423Y-60968216D01*
X160599500Y-61120943D01*
X158589277Y-61120943D01*
X158600500Y-61079057D01*
X158600500Y-60920943D01*
X158559577Y-60768216D01*
X158538258Y-60731290D01*
X158480524Y-60631290D01*
X158480518Y-60631282D01*
X158368717Y-60519481D01*
X158368709Y-60519475D01*
X158231790Y-60440426D01*
X158231786Y-60440424D01*
X158231784Y-60440423D01*
X158079057Y-60399500D01*
X157920943Y-60399500D01*
X157768216Y-60440423D01*
X157768209Y-60440426D01*
X157631290Y-60519475D01*
X157631282Y-60519481D01*
X157519481Y-60631282D01*
X157519475Y-60631290D01*
X157440426Y-60768209D01*
X157440423Y-60768216D01*
X157399500Y-60920943D01*
X100500500Y-60920943D01*
X100500500Y-59218443D01*
X124899500Y-59218443D01*
X124899500Y-59376557D01*
X124928275Y-59483945D01*
X124940423Y-59529283D01*
X124940426Y-59529290D01*
X125019475Y-59666209D01*
X125019479Y-59666214D01*
X125019480Y-59666216D01*
X125131284Y-59778020D01*
X125131286Y-59778021D01*
X125131290Y-59778024D01*
X125268209Y-59857073D01*
X125268216Y-59857077D01*
X125420943Y-59898000D01*
X125420945Y-59898000D01*
X125579055Y-59898000D01*
X125579057Y-59898000D01*
X125731784Y-59857077D01*
X125868716Y-59778020D01*
X125980520Y-59666216D01*
X126059577Y-59529284D01*
X126100500Y-59376557D01*
X126100500Y-59218443D01*
X126059577Y-59065716D01*
X126023614Y-59003426D01*
X125980524Y-58928790D01*
X125980518Y-58928782D01*
X125868717Y-58816981D01*
X125868709Y-58816975D01*
X125743944Y-58744942D01*
X125743941Y-58744942D01*
X125731784Y-58737923D01*
X125579057Y-58697000D01*
X125420943Y-58697000D01*
X125268216Y-58737923D01*
X125268209Y-58737926D01*
X125131290Y-58816975D01*
X125131282Y-58816981D01*
X125019481Y-58928782D01*
X125019475Y-58928790D01*
X124940426Y-59065709D01*
X124940423Y-59065716D01*
X124899500Y-59218443D01*
X100500500Y-59218443D01*
X100500500Y-58218443D01*
X111899500Y-58218443D01*
X111899500Y-58376557D01*
X111936123Y-58513234D01*
X111940423Y-58529283D01*
X111940426Y-58529290D01*
X112019475Y-58666209D01*
X112019479Y-58666214D01*
X112019480Y-58666216D01*
X112131284Y-58778020D01*
X112131286Y-58778021D01*
X112131290Y-58778024D01*
X112198765Y-58816980D01*
X112268216Y-58857077D01*
X112420943Y-58898000D01*
X112420945Y-58898000D01*
X112579055Y-58898000D01*
X112579057Y-58898000D01*
X112731784Y-58857077D01*
X112868716Y-58778020D01*
X112980520Y-58666216D01*
X112995003Y-58641131D01*
X129886500Y-58641131D01*
X129886500Y-60230856D01*
X129886502Y-60230882D01*
X129889413Y-60255987D01*
X129889415Y-60255991D01*
X129934793Y-60358764D01*
X129934794Y-60358765D01*
X130014235Y-60438206D01*
X130117009Y-60483585D01*
X130142135Y-60486500D01*
X131731864Y-60486499D01*
X131731879Y-60486497D01*
X131731882Y-60486497D01*
X131756987Y-60483586D01*
X131756988Y-60483585D01*
X131756991Y-60483585D01*
X131859765Y-60438206D01*
X131939206Y-60358765D01*
X131984585Y-60255991D01*
X131987500Y-60230865D01*
X131987500Y-59483943D01*
X147227500Y-59483943D01*
X147227500Y-59642057D01*
X147248638Y-59720943D01*
X147268423Y-59794783D01*
X147268426Y-59794790D01*
X147347475Y-59931709D01*
X147347479Y-59931714D01*
X147347480Y-59931716D01*
X147459284Y-60043520D01*
X147459286Y-60043521D01*
X147459290Y-60043524D01*
X147596209Y-60122573D01*
X147596216Y-60122577D01*
X147748943Y-60163500D01*
X147748945Y-60163500D01*
X147907055Y-60163500D01*
X147907057Y-60163500D01*
X148059784Y-60122577D01*
X148196716Y-60043520D01*
X148308520Y-59931716D01*
X148387577Y-59794784D01*
X148407363Y-59720943D01*
X180199500Y-59720943D01*
X180199500Y-59879057D01*
X180204576Y-59897999D01*
X180240423Y-60031783D01*
X180240426Y-60031790D01*
X180319475Y-60168709D01*
X180319479Y-60168714D01*
X180319480Y-60168716D01*
X180431284Y-60280520D01*
X180431286Y-60280521D01*
X180431290Y-60280524D01*
X180568209Y-60359573D01*
X180568216Y-60359577D01*
X180720943Y-60400500D01*
X180720945Y-60400500D01*
X180879055Y-60400500D01*
X180879057Y-60400500D01*
X181031784Y-60359577D01*
X181168716Y-60280520D01*
X181280520Y-60168716D01*
X181359577Y-60031784D01*
X181400500Y-59879057D01*
X181400500Y-59720943D01*
X181359577Y-59568216D01*
X181310924Y-59483945D01*
X181280524Y-59431290D01*
X181280518Y-59431282D01*
X181168717Y-59319481D01*
X181168709Y-59319475D01*
X181031790Y-59240426D01*
X181031786Y-59240424D01*
X181031784Y-59240423D01*
X180879057Y-59199500D01*
X180720943Y-59199500D01*
X180568216Y-59240423D01*
X180568209Y-59240426D01*
X180431290Y-59319475D01*
X180431282Y-59319481D01*
X180319481Y-59431282D01*
X180319475Y-59431290D01*
X180240426Y-59568209D01*
X180240423Y-59568216D01*
X180199500Y-59720943D01*
X148407363Y-59720943D01*
X148428500Y-59642057D01*
X148428500Y-59483943D01*
X148387577Y-59331216D01*
X148380798Y-59319475D01*
X148308524Y-59194290D01*
X148308518Y-59194282D01*
X148196717Y-59082481D01*
X148196709Y-59082475D01*
X148059790Y-59003426D01*
X148059786Y-59003424D01*
X148059784Y-59003423D01*
X147907057Y-58962500D01*
X147748943Y-58962500D01*
X147596216Y-59003423D01*
X147596209Y-59003426D01*
X147459290Y-59082475D01*
X147459282Y-59082481D01*
X147347481Y-59194282D01*
X147347475Y-59194290D01*
X147268426Y-59331209D01*
X147268423Y-59331216D01*
X147227500Y-59483943D01*
X131987500Y-59483943D01*
X131987499Y-58641136D01*
X131987497Y-58641117D01*
X131984586Y-58616012D01*
X131984585Y-58616010D01*
X131984585Y-58616009D01*
X131939206Y-58513235D01*
X131859765Y-58433794D01*
X131859763Y-58433793D01*
X131756992Y-58388415D01*
X131731865Y-58385500D01*
X130142143Y-58385500D01*
X130142117Y-58385502D01*
X130117012Y-58388413D01*
X130117008Y-58388415D01*
X130014235Y-58433793D01*
X129934794Y-58513234D01*
X129889415Y-58616006D01*
X129889415Y-58616008D01*
X129886500Y-58641131D01*
X112995003Y-58641131D01*
X113059577Y-58529284D01*
X113100500Y-58376557D01*
X113100500Y-58218443D01*
X113059577Y-58065716D01*
X113032153Y-58018216D01*
X112980524Y-57928790D01*
X112980518Y-57928782D01*
X112868717Y-57816981D01*
X112868709Y-57816975D01*
X112731790Y-57737926D01*
X112731786Y-57737924D01*
X112731784Y-57737923D01*
X112579057Y-57697000D01*
X112420943Y-57697000D01*
X112268216Y-57737923D01*
X112268209Y-57737926D01*
X112131290Y-57816975D01*
X112131282Y-57816981D01*
X112019481Y-57928782D01*
X112019475Y-57928790D01*
X111940426Y-58065709D01*
X111940423Y-58065716D01*
X111899500Y-58218443D01*
X100500500Y-58218443D01*
X100500500Y-55662448D01*
X143883500Y-55662448D01*
X143883500Y-55843551D01*
X143911829Y-56022410D01*
X143967787Y-56194636D01*
X143967788Y-56194639D01*
X144023664Y-56304300D01*
X144046695Y-56349500D01*
X144050006Y-56355997D01*
X144156441Y-56502494D01*
X144156445Y-56502499D01*
X144284500Y-56630554D01*
X144284505Y-56630558D01*
X144355284Y-56681981D01*
X144431006Y-56736996D01*
X144523209Y-56783976D01*
X144592360Y-56819211D01*
X144592363Y-56819212D01*
X144678476Y-56847191D01*
X144764591Y-56875171D01*
X144868716Y-56891662D01*
X144896270Y-56896027D01*
X144959405Y-56925956D01*
X144996336Y-56985268D01*
X144995338Y-57055130D01*
X144956728Y-57113363D01*
X144892765Y-57141477D01*
X144876872Y-57142500D01*
X144139143Y-57142500D01*
X144139117Y-57142502D01*
X144114012Y-57145413D01*
X144114008Y-57145415D01*
X144011235Y-57190793D01*
X143931794Y-57270234D01*
X143886415Y-57373006D01*
X143886415Y-57373008D01*
X143883500Y-57398131D01*
X143883500Y-59187856D01*
X143883502Y-59187882D01*
X143886413Y-59212987D01*
X143886415Y-59212991D01*
X143931793Y-59315764D01*
X143931794Y-59315765D01*
X144011235Y-59395206D01*
X144114009Y-59440585D01*
X144139135Y-59443500D01*
X145928864Y-59443499D01*
X145928879Y-59443497D01*
X145928882Y-59443497D01*
X145953987Y-59440586D01*
X145953988Y-59440585D01*
X145953991Y-59440585D01*
X146056765Y-59395206D01*
X146136206Y-59315765D01*
X146181585Y-59212991D01*
X146184500Y-59187865D01*
X146184499Y-58170943D01*
X163149500Y-58170943D01*
X163149500Y-58329057D01*
X163179364Y-58440509D01*
X163190423Y-58481783D01*
X163190426Y-58481790D01*
X163269475Y-58618709D01*
X163269479Y-58618714D01*
X163269480Y-58618716D01*
X163381284Y-58730520D01*
X163381286Y-58730521D01*
X163381290Y-58730524D01*
X163463557Y-58778020D01*
X163518216Y-58809577D01*
X163670943Y-58850500D01*
X163670945Y-58850500D01*
X163829055Y-58850500D01*
X163829057Y-58850500D01*
X163981784Y-58809577D01*
X164118716Y-58730520D01*
X164230520Y-58618716D01*
X164309577Y-58481784D01*
X164350500Y-58329057D01*
X164350500Y-58170943D01*
X167649500Y-58170943D01*
X167649500Y-58329057D01*
X167679364Y-58440509D01*
X167690423Y-58481783D01*
X167690426Y-58481790D01*
X167769475Y-58618709D01*
X167769479Y-58618714D01*
X167769480Y-58618716D01*
X167881284Y-58730520D01*
X167881286Y-58730521D01*
X167881290Y-58730524D01*
X167963557Y-58778020D01*
X168018216Y-58809577D01*
X168170943Y-58850500D01*
X168170945Y-58850500D01*
X168329055Y-58850500D01*
X168329057Y-58850500D01*
X168481784Y-58809577D01*
X168618716Y-58730520D01*
X168730520Y-58618716D01*
X168809577Y-58481784D01*
X168850500Y-58329057D01*
X168850500Y-58170943D01*
X168809577Y-58018216D01*
X168757217Y-57927525D01*
X195474500Y-57927525D01*
X195474500Y-58072475D01*
X195512016Y-58212485D01*
X195512017Y-58212488D01*
X195584488Y-58338011D01*
X195584490Y-58338013D01*
X195584491Y-58338015D01*
X195686985Y-58440509D01*
X195686986Y-58440510D01*
X195686988Y-58440511D01*
X195812511Y-58512982D01*
X195812512Y-58512982D01*
X195812515Y-58512984D01*
X195952525Y-58550500D01*
X195952528Y-58550500D01*
X196097472Y-58550500D01*
X196097475Y-58550500D01*
X196237485Y-58512984D01*
X196363015Y-58440509D01*
X196465509Y-58338015D01*
X196537984Y-58212485D01*
X196575500Y-58072475D01*
X196575500Y-57927525D01*
X196537984Y-57787515D01*
X196527571Y-57769480D01*
X196465511Y-57661988D01*
X196465506Y-57661982D01*
X196363017Y-57559493D01*
X196363011Y-57559488D01*
X196237488Y-57487017D01*
X196237489Y-57487017D01*
X196226006Y-57483940D01*
X196097475Y-57449500D01*
X195952525Y-57449500D01*
X195823993Y-57483940D01*
X195812511Y-57487017D01*
X195686988Y-57559488D01*
X195686982Y-57559493D01*
X195584493Y-57661982D01*
X195584488Y-57661988D01*
X195512017Y-57787511D01*
X195512016Y-57787515D01*
X195474500Y-57927525D01*
X168757217Y-57927525D01*
X168730520Y-57881284D01*
X168618716Y-57769480D01*
X168618714Y-57769479D01*
X168618709Y-57769475D01*
X168481790Y-57690426D01*
X168481786Y-57690424D01*
X168481784Y-57690423D01*
X168329057Y-57649500D01*
X168170943Y-57649500D01*
X168018216Y-57690423D01*
X168018209Y-57690426D01*
X167881290Y-57769475D01*
X167881282Y-57769481D01*
X167769481Y-57881282D01*
X167769475Y-57881290D01*
X167690426Y-58018209D01*
X167690423Y-58018216D01*
X167649500Y-58170943D01*
X164350500Y-58170943D01*
X164309577Y-58018216D01*
X164288320Y-57981397D01*
X164230524Y-57881290D01*
X164230518Y-57881282D01*
X164118717Y-57769481D01*
X164118709Y-57769475D01*
X163981790Y-57690426D01*
X163981786Y-57690424D01*
X163981784Y-57690423D01*
X163829057Y-57649500D01*
X163670943Y-57649500D01*
X163518216Y-57690423D01*
X163518209Y-57690426D01*
X163381290Y-57769475D01*
X163381282Y-57769481D01*
X163269481Y-57881282D01*
X163269475Y-57881290D01*
X163190426Y-58018209D01*
X163190423Y-58018216D01*
X163149500Y-58170943D01*
X146184499Y-58170943D01*
X146184499Y-57398136D01*
X146184053Y-57394290D01*
X146181586Y-57373012D01*
X146181585Y-57373010D01*
X146181585Y-57373009D01*
X146136206Y-57270235D01*
X146056765Y-57190794D01*
X146056763Y-57190793D01*
X145953992Y-57145415D01*
X145928868Y-57142500D01*
X145191128Y-57142500D01*
X145124089Y-57122815D01*
X145078334Y-57070011D01*
X145068390Y-57000853D01*
X145097415Y-56937297D01*
X145156193Y-56899523D01*
X145171730Y-56896027D01*
X145195014Y-56892338D01*
X145303409Y-56875171D01*
X145475639Y-56819211D01*
X145636994Y-56736996D01*
X145783501Y-56630553D01*
X145911553Y-56502501D01*
X145970808Y-56420943D01*
X177399500Y-56420943D01*
X177399500Y-56579057D01*
X177427079Y-56681981D01*
X177440423Y-56731783D01*
X177440426Y-56731790D01*
X177519475Y-56868709D01*
X177519479Y-56868714D01*
X177519480Y-56868716D01*
X177631284Y-56980520D01*
X177631286Y-56980521D01*
X177631290Y-56980524D01*
X177760513Y-57055130D01*
X177768216Y-57059577D01*
X177920943Y-57100500D01*
X177920945Y-57100500D01*
X178079055Y-57100500D01*
X178079057Y-57100500D01*
X178142715Y-57083443D01*
X185199500Y-57083443D01*
X185199500Y-57241557D01*
X185234723Y-57373009D01*
X185240423Y-57394283D01*
X185240426Y-57394290D01*
X185319475Y-57531209D01*
X185319479Y-57531214D01*
X185319480Y-57531216D01*
X185431284Y-57643020D01*
X185431286Y-57643021D01*
X185431290Y-57643024D01*
X185513389Y-57690423D01*
X185568216Y-57722077D01*
X185720943Y-57763000D01*
X185720945Y-57763000D01*
X185879055Y-57763000D01*
X185879057Y-57763000D01*
X186031784Y-57722077D01*
X186168716Y-57643020D01*
X186280520Y-57531216D01*
X186359577Y-57394284D01*
X186400500Y-57241557D01*
X186400500Y-57083443D01*
X186359577Y-56930716D01*
X186341568Y-56899523D01*
X186280524Y-56793790D01*
X186280518Y-56793782D01*
X186168717Y-56681981D01*
X186168709Y-56681975D01*
X186031790Y-56602926D01*
X186031786Y-56602924D01*
X186031784Y-56602923D01*
X185879057Y-56562000D01*
X185720943Y-56562000D01*
X185568216Y-56602923D01*
X185568209Y-56602926D01*
X185431290Y-56681975D01*
X185431282Y-56681981D01*
X185319481Y-56793782D01*
X185319475Y-56793790D01*
X185240426Y-56930709D01*
X185240423Y-56930716D01*
X185199500Y-57083443D01*
X178142715Y-57083443D01*
X178231784Y-57059577D01*
X178333498Y-57000853D01*
X178368710Y-56980524D01*
X178368712Y-56980522D01*
X178368716Y-56980520D01*
X178480520Y-56868716D01*
X178559577Y-56731784D01*
X178600500Y-56579057D01*
X178600500Y-56420943D01*
X178559577Y-56268216D01*
X178559573Y-56268209D01*
X178480524Y-56131290D01*
X178480518Y-56131282D01*
X178368717Y-56019481D01*
X178368709Y-56019475D01*
X178231790Y-55940426D01*
X178231786Y-55940424D01*
X178231784Y-55940423D01*
X178079057Y-55899500D01*
X177920943Y-55899500D01*
X177768216Y-55940423D01*
X177768209Y-55940426D01*
X177631290Y-56019475D01*
X177631282Y-56019481D01*
X177519481Y-56131282D01*
X177519475Y-56131290D01*
X177440426Y-56268209D01*
X177440423Y-56268216D01*
X177399500Y-56420943D01*
X145970808Y-56420943D01*
X146017996Y-56355994D01*
X146100211Y-56194639D01*
X146156171Y-56022409D01*
X146175638Y-55899500D01*
X146184500Y-55843551D01*
X146184500Y-55662448D01*
X146168019Y-55558397D01*
X146156171Y-55483591D01*
X146100211Y-55311361D01*
X146100209Y-55311355D01*
X146027731Y-55169112D01*
X146027730Y-55169110D01*
X146017995Y-55150004D01*
X145996881Y-55120943D01*
X183199500Y-55120943D01*
X183199500Y-55279057D01*
X183208157Y-55311363D01*
X183240423Y-55431783D01*
X183240426Y-55431790D01*
X183319475Y-55568709D01*
X183319479Y-55568714D01*
X183319480Y-55568716D01*
X183431284Y-55680520D01*
X183431286Y-55680521D01*
X183431290Y-55680524D01*
X183568209Y-55759573D01*
X183568216Y-55759577D01*
X183720943Y-55800500D01*
X183720945Y-55800500D01*
X183879055Y-55800500D01*
X183879057Y-55800500D01*
X184031784Y-55759577D01*
X184168716Y-55680520D01*
X184280520Y-55568716D01*
X184359577Y-55431784D01*
X184400500Y-55279057D01*
X184400500Y-55120943D01*
X184359577Y-54968216D01*
X184329009Y-54915270D01*
X184280524Y-54831290D01*
X184280518Y-54831282D01*
X184168717Y-54719481D01*
X184168709Y-54719475D01*
X184031790Y-54640426D01*
X184031786Y-54640424D01*
X184031784Y-54640423D01*
X183879057Y-54599500D01*
X183720943Y-54599500D01*
X183568216Y-54640423D01*
X183568209Y-54640426D01*
X183431290Y-54719475D01*
X183431282Y-54719481D01*
X183319481Y-54831282D01*
X183319475Y-54831290D01*
X183240426Y-54968209D01*
X183240423Y-54968216D01*
X183199500Y-55120943D01*
X145996881Y-55120943D01*
X145911558Y-55003505D01*
X145911554Y-55003500D01*
X145783499Y-54875445D01*
X145783494Y-54875441D01*
X145636997Y-54769006D01*
X145636996Y-54769005D01*
X145636994Y-54769004D01*
X145585300Y-54742664D01*
X145475639Y-54686788D01*
X145475636Y-54686787D01*
X145303410Y-54630829D01*
X145124551Y-54602500D01*
X145124546Y-54602500D01*
X144943454Y-54602500D01*
X144943449Y-54602500D01*
X144764589Y-54630829D01*
X144592363Y-54686787D01*
X144592360Y-54686788D01*
X144431002Y-54769006D01*
X144284505Y-54875441D01*
X144284500Y-54875445D01*
X144156445Y-55003500D01*
X144156441Y-55003505D01*
X144050006Y-55150002D01*
X143967788Y-55311360D01*
X143967787Y-55311363D01*
X143911829Y-55483589D01*
X143883500Y-55662448D01*
X100500500Y-55662448D01*
X100500500Y-53693753D01*
X106185000Y-53693753D01*
X106185000Y-53906246D01*
X106218242Y-54116127D01*
X106218242Y-54116130D01*
X106283904Y-54318217D01*
X106380375Y-54507550D01*
X106419728Y-54561716D01*
X107052037Y-53929408D01*
X107069075Y-53992993D01*
X107134901Y-54107007D01*
X107227993Y-54200099D01*
X107342007Y-54265925D01*
X107405590Y-54282962D01*
X106773282Y-54915269D01*
X106773282Y-54915270D01*
X106827449Y-54954624D01*
X107016782Y-55051095D01*
X107218870Y-55116757D01*
X107428754Y-55150000D01*
X107641246Y-55150000D01*
X107851127Y-55116757D01*
X107851130Y-55116757D01*
X108053217Y-55051095D01*
X108242554Y-54954622D01*
X108296716Y-54915270D01*
X108296717Y-54915270D01*
X107664408Y-54282962D01*
X107727993Y-54265925D01*
X107842007Y-54200099D01*
X107935099Y-54107007D01*
X108000925Y-53992993D01*
X108017962Y-53929408D01*
X108650270Y-54561717D01*
X108650270Y-54561716D01*
X108689621Y-54507555D01*
X108690005Y-54506803D01*
X108690229Y-54506564D01*
X108692168Y-54503402D01*
X108692831Y-54503808D01*
X108737970Y-54455998D01*
X108805787Y-54439190D01*
X108871927Y-54461715D01*
X108915388Y-54516422D01*
X108924500Y-54563076D01*
X108924500Y-54694855D01*
X108924502Y-54694882D01*
X108927413Y-54719987D01*
X108927415Y-54719991D01*
X108972793Y-54822764D01*
X108972794Y-54822765D01*
X109052235Y-54902206D01*
X109155009Y-54947585D01*
X109180135Y-54950500D01*
X110969864Y-54950499D01*
X110969879Y-54950497D01*
X110969882Y-54950497D01*
X110994987Y-54947586D01*
X110994988Y-54947585D01*
X110994991Y-54947585D01*
X111097765Y-54902206D01*
X111177206Y-54822765D01*
X111222585Y-54719991D01*
X111225500Y-54694865D01*
X111225499Y-52905136D01*
X111224179Y-52893753D01*
X111222586Y-52880012D01*
X111222585Y-52880010D01*
X111222585Y-52880009D01*
X111177206Y-52777235D01*
X111097765Y-52697794D01*
X111086892Y-52692993D01*
X110994992Y-52652415D01*
X110969865Y-52649500D01*
X109180143Y-52649500D01*
X109180117Y-52649502D01*
X109155012Y-52652413D01*
X109155008Y-52652415D01*
X109052235Y-52697793D01*
X108972794Y-52777234D01*
X108927415Y-52880006D01*
X108927415Y-52880008D01*
X108924500Y-52905131D01*
X108924500Y-53036920D01*
X108904815Y-53103959D01*
X108852011Y-53149714D01*
X108782853Y-53159658D01*
X108719297Y-53130633D01*
X108692505Y-53096398D01*
X108692171Y-53096604D01*
X108690382Y-53093685D01*
X108690018Y-53093220D01*
X108689627Y-53092454D01*
X108689626Y-53092452D01*
X108650270Y-53038282D01*
X108650269Y-53038282D01*
X108017962Y-53670590D01*
X108000925Y-53607007D01*
X107935099Y-53492993D01*
X107842007Y-53399901D01*
X107727993Y-53334075D01*
X107664409Y-53317037D01*
X108296716Y-52684728D01*
X108242550Y-52645375D01*
X108053217Y-52548904D01*
X107851129Y-52483242D01*
X107641246Y-52450000D01*
X107428754Y-52450000D01*
X107218872Y-52483242D01*
X107218869Y-52483242D01*
X107016782Y-52548904D01*
X106827439Y-52645380D01*
X106773282Y-52684727D01*
X106773282Y-52684728D01*
X107405591Y-53317037D01*
X107342007Y-53334075D01*
X107227993Y-53399901D01*
X107134901Y-53492993D01*
X107069075Y-53607007D01*
X107052037Y-53670591D01*
X106419728Y-53038282D01*
X106419727Y-53038282D01*
X106380380Y-53092439D01*
X106283904Y-53281782D01*
X106218242Y-53483869D01*
X106218242Y-53483872D01*
X106185000Y-53693753D01*
X100500500Y-53693753D01*
X100500500Y-52317631D01*
X137349500Y-52317631D01*
X137349500Y-54107356D01*
X137349502Y-54107382D01*
X137352413Y-54132487D01*
X137352415Y-54132491D01*
X137397793Y-54235264D01*
X137397794Y-54235265D01*
X137477235Y-54314706D01*
X137580009Y-54360085D01*
X137605135Y-54363000D01*
X139394864Y-54362999D01*
X139394879Y-54362997D01*
X139394882Y-54362997D01*
X139419987Y-54360086D01*
X139419988Y-54360085D01*
X139419991Y-54360085D01*
X139522765Y-54314706D01*
X139602206Y-54235265D01*
X139647585Y-54132491D01*
X139650500Y-54107365D01*
X139650499Y-53369625D01*
X139670183Y-53302589D01*
X139722987Y-53256834D01*
X139792146Y-53246890D01*
X139855702Y-53275915D01*
X139893476Y-53334693D01*
X139896972Y-53350229D01*
X139917829Y-53481910D01*
X139973787Y-53654136D01*
X139973788Y-53654139D01*
X140001005Y-53707554D01*
X140048109Y-53800000D01*
X140056006Y-53815497D01*
X140162441Y-53961994D01*
X140162445Y-53961999D01*
X140290500Y-54090054D01*
X140290505Y-54090058D01*
X140386191Y-54159577D01*
X140437006Y-54196496D01*
X140513094Y-54235265D01*
X140598360Y-54278711D01*
X140598363Y-54278712D01*
X140663883Y-54300000D01*
X140770591Y-54334671D01*
X140853429Y-54347791D01*
X140949449Y-54363000D01*
X140949454Y-54363000D01*
X141130551Y-54363000D01*
X141217259Y-54349265D01*
X141309409Y-54334671D01*
X141481639Y-54278711D01*
X141642994Y-54196496D01*
X141789501Y-54090053D01*
X141917553Y-53962001D01*
X142023996Y-53815494D01*
X142106211Y-53654139D01*
X142149488Y-53520943D01*
X180599500Y-53520943D01*
X180599500Y-53679057D01*
X180631907Y-53799999D01*
X180640423Y-53831783D01*
X180640426Y-53831790D01*
X180719475Y-53968709D01*
X180719479Y-53968714D01*
X180719480Y-53968716D01*
X180831284Y-54080520D01*
X180831286Y-54080521D01*
X180831290Y-54080524D01*
X180959637Y-54154624D01*
X180968216Y-54159577D01*
X181120943Y-54200500D01*
X181120945Y-54200500D01*
X181279055Y-54200500D01*
X181279057Y-54200500D01*
X181431784Y-54159577D01*
X181568716Y-54080520D01*
X181680520Y-53968716D01*
X181759577Y-53831784D01*
X181800500Y-53679057D01*
X181800500Y-53520943D01*
X181759577Y-53368216D01*
X181739866Y-53334075D01*
X181680524Y-53231290D01*
X181680518Y-53231282D01*
X181568717Y-53119481D01*
X181568709Y-53119475D01*
X181431790Y-53040426D01*
X181431786Y-53040424D01*
X181431784Y-53040423D01*
X181279057Y-52999500D01*
X181120943Y-52999500D01*
X180968216Y-53040423D01*
X180968209Y-53040426D01*
X180831290Y-53119475D01*
X180831282Y-53119481D01*
X180719481Y-53231282D01*
X180719475Y-53231290D01*
X180640426Y-53368209D01*
X180640423Y-53368216D01*
X180599500Y-53520943D01*
X142149488Y-53520943D01*
X142162171Y-53481909D01*
X142176765Y-53389759D01*
X142190500Y-53303051D01*
X142190500Y-53121948D01*
X142171105Y-52999500D01*
X142162171Y-52943091D01*
X142132087Y-52850499D01*
X142106212Y-52770863D01*
X142106211Y-52770860D01*
X142066535Y-52692993D01*
X142023996Y-52609506D01*
X142010396Y-52590787D01*
X141917558Y-52463005D01*
X141917554Y-52463000D01*
X141789501Y-52334947D01*
X141765648Y-52317617D01*
X141690658Y-52263133D01*
X141690657Y-52263132D01*
X141642997Y-52228506D01*
X141642996Y-52228505D01*
X141642994Y-52228504D01*
X141566906Y-52189735D01*
X141530026Y-52170943D01*
X151649500Y-52170943D01*
X151649500Y-52329057D01*
X151690423Y-52481782D01*
X151690423Y-52481783D01*
X151690426Y-52481790D01*
X151769475Y-52618709D01*
X151769479Y-52618714D01*
X151769480Y-52618716D01*
X151881284Y-52730520D01*
X151881286Y-52730521D01*
X151881290Y-52730524D01*
X152018209Y-52809573D01*
X152018216Y-52809577D01*
X152170943Y-52850500D01*
X152170945Y-52850500D01*
X152329055Y-52850500D01*
X152329057Y-52850500D01*
X152481784Y-52809577D01*
X152618716Y-52730520D01*
X152730520Y-52618716D01*
X152809577Y-52481784D01*
X152850500Y-52329057D01*
X152850500Y-52170943D01*
X157149500Y-52170943D01*
X157149500Y-52329057D01*
X157190423Y-52481782D01*
X157190423Y-52481783D01*
X157190426Y-52481790D01*
X157269475Y-52618709D01*
X157269479Y-52618714D01*
X157269480Y-52618716D01*
X157381284Y-52730520D01*
X157381286Y-52730521D01*
X157381290Y-52730524D01*
X157518209Y-52809573D01*
X157518216Y-52809577D01*
X157670943Y-52850500D01*
X157670945Y-52850500D01*
X157829055Y-52850500D01*
X157829057Y-52850500D01*
X157981784Y-52809577D01*
X158118716Y-52730520D01*
X158230520Y-52618716D01*
X158309577Y-52481784D01*
X158350500Y-52329057D01*
X158350500Y-52170943D01*
X158332866Y-52105131D01*
X186374500Y-52105131D01*
X186374500Y-53894856D01*
X186374502Y-53894882D01*
X186377413Y-53919987D01*
X186377415Y-53919991D01*
X186422793Y-54022764D01*
X186422794Y-54022765D01*
X186502235Y-54102206D01*
X186605009Y-54147585D01*
X186630135Y-54150500D01*
X188419864Y-54150499D01*
X188419879Y-54150497D01*
X188419882Y-54150497D01*
X188444987Y-54147586D01*
X188444988Y-54147585D01*
X188444991Y-54147585D01*
X188547765Y-54102206D01*
X188627206Y-54022765D01*
X188672585Y-53919991D01*
X188675500Y-53894865D01*
X188675499Y-53763076D01*
X188695183Y-53696040D01*
X188747987Y-53650285D01*
X188817145Y-53640341D01*
X188880701Y-53669365D01*
X188907495Y-53703600D01*
X188907829Y-53703396D01*
X188909607Y-53706297D01*
X188909977Y-53706770D01*
X188910373Y-53707547D01*
X188949728Y-53761716D01*
X189582037Y-53129408D01*
X189599075Y-53192993D01*
X189664901Y-53307007D01*
X189757993Y-53400099D01*
X189872007Y-53465925D01*
X189935590Y-53482962D01*
X189303282Y-54115269D01*
X189303282Y-54115270D01*
X189357449Y-54154624D01*
X189546782Y-54251095D01*
X189748870Y-54316757D01*
X189958754Y-54350000D01*
X190171246Y-54350000D01*
X190381127Y-54316757D01*
X190381130Y-54316757D01*
X190583217Y-54251095D01*
X190772554Y-54154622D01*
X190826716Y-54115270D01*
X190826717Y-54115270D01*
X190194408Y-53482962D01*
X190257993Y-53465925D01*
X190372007Y-53400099D01*
X190465099Y-53307007D01*
X190530925Y-53192993D01*
X190547962Y-53129408D01*
X191180270Y-53761717D01*
X191180270Y-53761716D01*
X191219622Y-53707554D01*
X191316095Y-53518217D01*
X191381757Y-53316130D01*
X191381757Y-53316127D01*
X191415000Y-53106246D01*
X191415000Y-52893753D01*
X191381757Y-52683872D01*
X191381757Y-52683869D01*
X191316095Y-52481782D01*
X191219624Y-52292449D01*
X191180270Y-52238282D01*
X191180269Y-52238282D01*
X190547962Y-52870590D01*
X190530925Y-52807007D01*
X190465099Y-52692993D01*
X190372007Y-52599901D01*
X190257993Y-52534075D01*
X190194409Y-52517037D01*
X190826716Y-51884728D01*
X190772550Y-51845375D01*
X190583217Y-51748904D01*
X190381129Y-51683242D01*
X190171246Y-51650000D01*
X189958754Y-51650000D01*
X189748872Y-51683242D01*
X189748869Y-51683242D01*
X189546782Y-51748904D01*
X189357439Y-51845380D01*
X189303282Y-51884727D01*
X189303282Y-51884728D01*
X189935591Y-52517037D01*
X189872007Y-52534075D01*
X189757993Y-52599901D01*
X189664901Y-52692993D01*
X189599075Y-52807007D01*
X189582037Y-52870591D01*
X188949728Y-52238282D01*
X188949727Y-52238282D01*
X188910380Y-52292440D01*
X188910377Y-52292445D01*
X188909981Y-52293223D01*
X188909752Y-52293464D01*
X188907838Y-52296590D01*
X188907180Y-52296187D01*
X188862004Y-52344017D01*
X188794183Y-52360809D01*
X188728049Y-52338268D01*
X188684600Y-52283551D01*
X188675499Y-52236923D01*
X188675499Y-52105143D01*
X188675499Y-52105136D01*
X188673782Y-52090329D01*
X188672586Y-52080012D01*
X188672585Y-52080011D01*
X188672585Y-52080009D01*
X188627206Y-51977235D01*
X188547765Y-51897794D01*
X188547763Y-51897793D01*
X188444992Y-51852415D01*
X188419865Y-51849500D01*
X186630143Y-51849500D01*
X186630117Y-51849502D01*
X186605012Y-51852413D01*
X186605008Y-51852415D01*
X186502235Y-51897793D01*
X186422794Y-51977234D01*
X186377415Y-52080006D01*
X186377415Y-52080008D01*
X186374500Y-52105131D01*
X158332866Y-52105131D01*
X158309577Y-52018216D01*
X158288711Y-51982074D01*
X158230524Y-51881290D01*
X158230518Y-51881282D01*
X158118717Y-51769481D01*
X158118709Y-51769475D01*
X157981790Y-51690426D01*
X157981786Y-51690424D01*
X157981784Y-51690423D01*
X157829057Y-51649500D01*
X157670943Y-51649500D01*
X157518216Y-51690423D01*
X157518209Y-51690426D01*
X157381290Y-51769475D01*
X157381282Y-51769481D01*
X157269481Y-51881282D01*
X157269475Y-51881290D01*
X157190426Y-52018209D01*
X157190423Y-52018216D01*
X157149500Y-52170943D01*
X152850500Y-52170943D01*
X152809577Y-52018216D01*
X152788711Y-51982074D01*
X152730524Y-51881290D01*
X152730518Y-51881282D01*
X152618717Y-51769481D01*
X152618709Y-51769475D01*
X152481790Y-51690426D01*
X152481786Y-51690424D01*
X152481784Y-51690423D01*
X152329057Y-51649500D01*
X152170943Y-51649500D01*
X152018216Y-51690423D01*
X152018209Y-51690426D01*
X151881290Y-51769475D01*
X151881282Y-51769481D01*
X151769481Y-51881282D01*
X151769475Y-51881290D01*
X151690426Y-52018209D01*
X151690423Y-52018216D01*
X151649500Y-52170943D01*
X141530026Y-52170943D01*
X141481639Y-52146288D01*
X141481636Y-52146287D01*
X141309410Y-52090329D01*
X141130551Y-52062000D01*
X141130546Y-52062000D01*
X140949454Y-52062000D01*
X140949449Y-52062000D01*
X140770589Y-52090329D01*
X140598363Y-52146287D01*
X140598360Y-52146288D01*
X140437002Y-52228506D01*
X140290505Y-52334941D01*
X140290500Y-52334945D01*
X140162445Y-52463000D01*
X140162441Y-52463005D01*
X140056006Y-52609502D01*
X139973788Y-52770860D01*
X139973787Y-52770863D01*
X139917829Y-52943089D01*
X139896972Y-53074771D01*
X139867042Y-53137905D01*
X139807731Y-53174836D01*
X139737868Y-53173838D01*
X139679636Y-53135228D01*
X139651522Y-53071264D01*
X139650499Y-53055372D01*
X139650499Y-52317643D01*
X139650499Y-52317636D01*
X139650497Y-52317617D01*
X139647586Y-52292512D01*
X139647585Y-52292510D01*
X139647585Y-52292509D01*
X139602206Y-52189735D01*
X139522765Y-52110294D01*
X139511040Y-52105117D01*
X139419992Y-52064915D01*
X139394865Y-52062000D01*
X137605143Y-52062000D01*
X137605117Y-52062002D01*
X137580012Y-52064913D01*
X137580008Y-52064915D01*
X137477235Y-52110293D01*
X137397794Y-52189734D01*
X137352415Y-52292506D01*
X137352415Y-52292508D01*
X137349500Y-52317631D01*
X100500500Y-52317631D01*
X100500500Y-50624500D01*
X100520185Y-50557461D01*
X100572989Y-50511706D01*
X100624500Y-50500500D01*
X199375500Y-50500500D01*
X199442539Y-50520185D01*
G37*
%TD.AperFunction*%
%TD*%
M02*
